%TF.GenerationSoftware,KiCad,Pcbnew,(6.0.7)*%
%TF.CreationDate,2022-09-20T09:41:07-05:00*%
%TF.ProjectId,BTSTest,42545354-6573-4742-9e6b-696361645f70,rev?*%
%TF.SameCoordinates,Original*%
%TF.FileFunction,Copper,L1,Top*%
%TF.FilePolarity,Positive*%
%FSLAX46Y46*%
G04 Gerber Fmt 4.6, Leading zero omitted, Abs format (unit mm)*
G04 Created by KiCad (PCBNEW (6.0.7)) date 2022-09-20 09:41:07*
%MOMM*%
%LPD*%
G01*
G04 APERTURE LIST*
G04 Aperture macros list*
%AMRoundRect*
0 Rectangle with rounded corners*
0 $1 Rounding radius*
0 $2 $3 $4 $5 $6 $7 $8 $9 X,Y pos of 4 corners*
0 Add a 4 corners polygon primitive as box body*
4,1,4,$2,$3,$4,$5,$6,$7,$8,$9,$2,$3,0*
0 Add four circle primitives for the rounded corners*
1,1,$1+$1,$2,$3*
1,1,$1+$1,$4,$5*
1,1,$1+$1,$6,$7*
1,1,$1+$1,$8,$9*
0 Add four rect primitives between the rounded corners*
20,1,$1+$1,$2,$3,$4,$5,0*
20,1,$1+$1,$4,$5,$6,$7,0*
20,1,$1+$1,$6,$7,$8,$9,0*
20,1,$1+$1,$8,$9,$2,$3,0*%
%AMOutline5P*
0 Free polygon, 5 corners , with rotation*
0 The origin of the aperture is its center*
0 number of corners: always 5*
0 $1 to $10 corner X, Y*
0 $11 Rotation angle, in degrees counterclockwise*
0 create outline with 5 corners*
4,1,5,$1,$2,$3,$4,$5,$6,$7,$8,$9,$10,$1,$2,$11*%
%AMOutline6P*
0 Free polygon, 6 corners , with rotation*
0 The origin of the aperture is its center*
0 number of corners: always 6*
0 $1 to $12 corner X, Y*
0 $13 Rotation angle, in degrees counterclockwise*
0 create outline with 6 corners*
4,1,6,$1,$2,$3,$4,$5,$6,$7,$8,$9,$10,$11,$12,$1,$2,$13*%
%AMOutline7P*
0 Free polygon, 7 corners , with rotation*
0 The origin of the aperture is its center*
0 number of corners: always 7*
0 $1 to $14 corner X, Y*
0 $15 Rotation angle, in degrees counterclockwise*
0 create outline with 7 corners*
4,1,7,$1,$2,$3,$4,$5,$6,$7,$8,$9,$10,$11,$12,$13,$14,$1,$2,$15*%
%AMOutline8P*
0 Free polygon, 8 corners , with rotation*
0 The origin of the aperture is its center*
0 number of corners: always 8*
0 $1 to $16 corner X, Y*
0 $17 Rotation angle, in degrees counterclockwise*
0 create outline with 8 corners*
4,1,8,$1,$2,$3,$4,$5,$6,$7,$8,$9,$10,$11,$12,$13,$14,$15,$16,$1,$2,$17*%
G04 Aperture macros list end*
%TA.AperFunction,NonConductor*%
%ADD10C,0.200000*%
%TD*%
%TA.AperFunction,SMDPad,CuDef*%
%ADD11RoundRect,0.200000X-0.275000X0.200000X-0.275000X-0.200000X0.275000X-0.200000X0.275000X0.200000X0*%
%TD*%
%TA.AperFunction,ComponentPad*%
%ADD12C,4.700000*%
%TD*%
%TA.AperFunction,ConnectorPad*%
%ADD13C,8.600000*%
%TD*%
%TA.AperFunction,SMDPad,CuDef*%
%ADD14RoundRect,0.200000X0.275000X-0.200000X0.275000X0.200000X-0.275000X0.200000X-0.275000X-0.200000X0*%
%TD*%
%TA.AperFunction,SMDPad,CuDef*%
%ADD15RoundRect,0.218750X-0.218750X-0.256250X0.218750X-0.256250X0.218750X0.256250X-0.218750X0.256250X0*%
%TD*%
%TA.AperFunction,SMDPad,CuDef*%
%ADD16RoundRect,0.200000X-0.200000X-0.275000X0.200000X-0.275000X0.200000X0.275000X-0.200000X0.275000X0*%
%TD*%
%TA.AperFunction,SMDPad,CuDef*%
%ADD17RoundRect,0.200000X0.200000X0.275000X-0.200000X0.275000X-0.200000X-0.275000X0.200000X-0.275000X0*%
%TD*%
%TA.AperFunction,SMDPad,CuDef*%
%ADD18RoundRect,0.225000X0.250000X-0.225000X0.250000X0.225000X-0.250000X0.225000X-0.250000X-0.225000X0*%
%TD*%
%TA.AperFunction,SMDPad,CuDef*%
%ADD19RoundRect,0.225000X0.225000X0.250000X-0.225000X0.250000X-0.225000X-0.250000X0.225000X-0.250000X0*%
%TD*%
%TA.AperFunction,SMDPad,CuDef*%
%ADD20R,1.200000X0.900000*%
%TD*%
%TA.AperFunction,SMDPad,CuDef*%
%ADD21R,0.354800X1.454899*%
%TD*%
%TA.AperFunction,ComponentPad*%
%ADD22R,0.750000X0.750000*%
%TD*%
%TA.AperFunction,SMDPad,CuDef*%
%ADD23R,8.875000X3.475000*%
%TD*%
%TA.AperFunction,SMDPad,CuDef*%
%ADD24RoundRect,0.150000X-0.150000X0.587500X-0.150000X-0.587500X0.150000X-0.587500X0.150000X0.587500X0*%
%TD*%
%TA.AperFunction,ComponentPad*%
%ADD25Outline6P,-2.540000X1.200000X-1.740000X2.000000X2.540000X2.000000X2.540000X-2.000000X-1.740000X-2.000000X-2.540000X-1.200000X90.000000*%
%TD*%
%TA.AperFunction,ComponentPad*%
%ADD26Outline6P,-2.540000X2.000000X1.740000X2.000000X2.540000X1.200000X2.540000X-1.200000X1.740000X-2.000000X-2.540000X-2.000000X90.000000*%
%TD*%
%TA.AperFunction,SMDPad,CuDef*%
%ADD27R,5.500000X3.650000*%
%TD*%
%TA.AperFunction,SMDPad,CuDef*%
%ADD28R,1.309599X0.508000*%
%TD*%
%TA.AperFunction,SMDPad,CuDef*%
%ADD29RoundRect,0.225000X-0.225000X-0.250000X0.225000X-0.250000X0.225000X0.250000X-0.225000X0.250000X0*%
%TD*%
%TA.AperFunction,ComponentPad*%
%ADD30Outline6P,-2.540000X1.200000X-1.740000X2.000000X2.540000X2.000000X2.540000X-2.000000X-1.740000X-2.000000X-2.540000X-1.200000X0.000000*%
%TD*%
%TA.AperFunction,ComponentPad*%
%ADD31Outline6P,-2.540000X2.000000X1.740000X2.000000X2.540000X1.200000X2.540000X-1.200000X1.740000X-2.000000X-2.540000X-2.000000X0.000000*%
%TD*%
%TA.AperFunction,SMDPad,CuDef*%
%ADD32RoundRect,0.150000X-0.825000X-0.150000X0.825000X-0.150000X0.825000X0.150000X-0.825000X0.150000X0*%
%TD*%
%TA.AperFunction,SMDPad,CuDef*%
%ADD33RoundRect,0.243750X0.456250X-0.243750X0.456250X0.243750X-0.456250X0.243750X-0.456250X-0.243750X0*%
%TD*%
%TA.AperFunction,SMDPad,CuDef*%
%ADD34RoundRect,0.150000X0.150000X-0.587500X0.150000X0.587500X-0.150000X0.587500X-0.150000X-0.587500X0*%
%TD*%
%TA.AperFunction,SMDPad,CuDef*%
%ADD35RoundRect,0.225000X-0.250000X0.225000X-0.250000X-0.225000X0.250000X-0.225000X0.250000X0.225000X0*%
%TD*%
%TA.AperFunction,ComponentPad*%
%ADD36O,1.700000X1.700000*%
%TD*%
%TA.AperFunction,SMDPad,CuDef*%
%ADD37R,1.700000X3.500000*%
%TD*%
%TA.AperFunction,ComponentPad*%
%ADD38R,1.700000X1.700000*%
%TD*%
%TA.AperFunction,SMDPad,CuDef*%
%ADD39R,3.500000X1.700000*%
%TD*%
%TA.AperFunction,ViaPad*%
%ADD40C,0.800000*%
%TD*%
%TA.AperFunction,ViaPad*%
%ADD41C,0.700000*%
%TD*%
%TA.AperFunction,Conductor*%
%ADD42C,0.500000*%
%TD*%
%TA.AperFunction,Conductor*%
%ADD43C,0.300000*%
%TD*%
%TA.AperFunction,Conductor*%
%ADD44C,0.750000*%
%TD*%
%TA.AperFunction,Conductor*%
%ADD45C,1.000000*%
%TD*%
G04 APERTURE END LIST*
D10*
X130860000Y-90500000D02*
X140820000Y-90500000D01*
X140820000Y-90500000D02*
X140820000Y-94900000D01*
X140820000Y-94900000D02*
X130860000Y-94900000D01*
X130860000Y-94900000D02*
X130860000Y-90500000D01*
G36*
X130860000Y-90500000D02*
G01*
X140820000Y-90500000D01*
X140820000Y-94900000D01*
X130860000Y-94900000D01*
X130860000Y-90500000D01*
G37*
X133900000Y-88100000D02*
X138100000Y-88100000D01*
X138100000Y-88100000D02*
X138100000Y-91700000D01*
X138100000Y-91700000D02*
X133900000Y-91700000D01*
X133900000Y-91700000D02*
X133900000Y-88100000D01*
G36*
X133900000Y-88100000D02*
G01*
X138100000Y-88100000D01*
X138100000Y-91700000D01*
X133900000Y-91700000D01*
X133900000Y-88100000D01*
G37*
X103200000Y-92800000D02*
X113300000Y-92800000D01*
X113300000Y-92800000D02*
X113300000Y-90200000D01*
X113300000Y-90200000D02*
X103200000Y-90200000D01*
X103200000Y-90200000D02*
X103200000Y-92800000D01*
G36*
X103200000Y-92800000D02*
G01*
X113300000Y-92800000D01*
X113300000Y-90200000D01*
X103200000Y-90200000D01*
X103200000Y-92800000D01*
G37*
G36*
X140820000Y-90500000D02*
G01*
X137396216Y-90602703D01*
X138096216Y-88102703D01*
X140820000Y-90500000D01*
G37*
X140820000Y-90500000D02*
X137396216Y-90602703D01*
X138096216Y-88102703D01*
X140820000Y-90500000D01*
G36*
X113300000Y-90200000D02*
G01*
X103200000Y-90200000D01*
X104500000Y-88100000D01*
X112000000Y-88100000D01*
X113300000Y-90200000D01*
G37*
X113300000Y-90200000D02*
X103200000Y-90200000D01*
X104500000Y-88100000D01*
X112000000Y-88100000D01*
X113300000Y-90200000D01*
G36*
X134500000Y-90500000D02*
G01*
X130860000Y-90500000D01*
X133900000Y-88100000D01*
X134500000Y-90500000D01*
G37*
X134500000Y-90500000D02*
X130860000Y-90500000D01*
X133900000Y-88100000D01*
X134500000Y-90500000D01*
D11*
%TO.P,R20,1*%
%TO.N,/IN_CH2*%
X138810000Y-78665000D03*
%TO.P,R20,2*%
%TO.N,/IN_R_CH2*%
X138810000Y-80315000D03*
%TD*%
D12*
%TO.P,H1,1,1*%
%TO.N,GND*%
X176000000Y-48000000D03*
D13*
X176000000Y-48000000D03*
%TD*%
D14*
%TO.P,R4,1*%
%TO.N,Net-(D2-Pad1)*%
X120768333Y-90253333D03*
%TO.P,R4,2*%
%TO.N,GND*%
X120768333Y-88603333D03*
%TD*%
D15*
%TO.P,D8,1,K*%
%TO.N,Net-(D8-Pad1)*%
X146662500Y-93230000D03*
%TO.P,D8,2,A*%
%TO.N,/IN_CH2*%
X148237500Y-93230000D03*
%TD*%
D11*
%TO.P,R3,1*%
%TO.N,/DEN_CH1*%
X109460000Y-78385000D03*
%TO.P,R3,2*%
%TO.N,/DEN_R_CH1*%
X109460000Y-80035000D03*
%TD*%
D16*
%TO.P,R17,1*%
%TO.N,VBATT*%
X154985000Y-47790000D03*
%TO.P,R17,2*%
%TO.N,Net-(Q2-Pad1)*%
X156635000Y-47790000D03*
%TD*%
D15*
%TO.P,D12,1,K*%
%TO.N,/PWR_LED_K_CH2*%
X146662500Y-99640000D03*
%TO.P,D12,2,A*%
%TO.N,/OUT_CH2*%
X148237500Y-99640000D03*
%TD*%
%TO.P,D7,1,K*%
%TO.N,Net-(D7-Pad1)*%
X146662500Y-95366666D03*
%TO.P,D7,2,A*%
%TO.N,/DEN_CH2*%
X148237500Y-95366666D03*
%TD*%
D17*
%TO.P,R9,1*%
%TO.N,I2C_SCL*%
X96835000Y-68690000D03*
%TO.P,R9,2*%
%TO.N,+3V3*%
X95185000Y-68690000D03*
%TD*%
D18*
%TO.P,C7,1*%
%TO.N,VBATT*%
X142430000Y-84155000D03*
%TO.P,C7,2*%
%TO.N,GND*%
X142430000Y-82605000D03*
%TD*%
D11*
%TO.P,R6,1*%
%TO.N,/IS_T_CH1*%
X107710000Y-78385000D03*
%TO.P,R6,2*%
%TO.N,/IS_R_CH1*%
X107710000Y-80035000D03*
%TD*%
D14*
%TO.P,R14,1*%
%TO.N,/PWR_LED_K_CH1*%
X115891667Y-90253333D03*
%TO.P,R14,2*%
%TO.N,GND*%
X115891667Y-88603333D03*
%TD*%
D19*
%TO.P,C12,1*%
%TO.N,/TEMP_SIG_CH2*%
X131615000Y-82310000D03*
%TO.P,C12,2*%
%TO.N,GND*%
X130065000Y-82310000D03*
%TD*%
D14*
%TO.P,R28,1*%
%TO.N,/LED_ST_GND_CH2*%
X147593333Y-89605000D03*
%TO.P,R28,2*%
%TO.N,GND*%
X147593333Y-87955000D03*
%TD*%
D12*
%TO.P,H3,1,1*%
%TO.N,GND*%
X175850000Y-96000000D03*
D13*
X175850000Y-96000000D03*
%TD*%
D14*
%TO.P,R19,1*%
%TO.N,Net-(D7-Pad1)*%
X151086666Y-89605000D03*
%TO.P,R19,2*%
%TO.N,GND*%
X151086666Y-87955000D03*
%TD*%
D20*
%TO.P,D3,1,K*%
%TO.N,/IS_T_CH1*%
X103030000Y-76480000D03*
%TO.P,D3,2,A*%
%TO.N,GND*%
X103030000Y-79780000D03*
%TD*%
D17*
%TO.P,R7,1*%
%TO.N,I2C_SDA*%
X96835000Y-70430000D03*
%TO.P,R7,2*%
%TO.N,+3V3*%
X95185000Y-70430000D03*
%TD*%
D15*
%TO.P,D10,1,K*%
%TO.N,/LED_ST_GND_CH2*%
X146662500Y-97503332D03*
%TO.P,D10,2,A*%
%TO.N,/LED_ST_CH2*%
X148237500Y-97503332D03*
%TD*%
D16*
%TO.P,R30,1*%
%TO.N,GND*%
X128195000Y-94030000D03*
%TO.P,R30,2*%
%TO.N,/OUT_CH2*%
X129845000Y-94030000D03*
%TD*%
%TO.P,R29,1*%
%TO.N,/OL_DET_CH9*%
X128125000Y-89610000D03*
%TO.P,R29,2*%
%TO.N,/OUT_CH2*%
X129775000Y-89610000D03*
%TD*%
D13*
%TO.P,H4,1,1*%
%TO.N,GND*%
X87850000Y-95850000D03*
D12*
X87850000Y-95850000D03*
%TD*%
D21*
%TO.P,U1,1,NC*%
%TO.N,unconnected-(U1-Pad1)*%
X111840199Y-82676002D03*
%TO.P,U1,2,NC*%
%TO.N,unconnected-(U1-Pad2)*%
X111190200Y-82676002D03*
%TO.P,U1,3,NC*%
%TO.N,unconnected-(U1-Pad3)*%
X110540202Y-82676002D03*
%TO.P,U1,4,GND*%
%TO.N,/GND_CH1*%
X109890201Y-82676002D03*
%TO.P,U1,5,IN*%
%TO.N,/IN_R_CH1*%
X109240202Y-82676002D03*
%TO.P,U1,6,DEN*%
%TO.N,/DEN_R_CH1*%
X108590201Y-82676002D03*
%TO.P,U1,7,IS*%
%TO.N,/IS_R_CH1*%
X107940202Y-82676002D03*
%TO.P,U1,8,NC*%
%TO.N,unconnected-(U1-Pad8)*%
X107290201Y-82676002D03*
%TO.P,U1,9,NC*%
%TO.N,unconnected-(U1-Pad9)*%
X106640202Y-82676002D03*
%TO.P,U1,10,NC*%
%TO.N,unconnected-(U1-Pad10)*%
X105990201Y-82676002D03*
%TO.P,U1,11,NC*%
%TO.N,unconnected-(U1-Pad11)*%
X105340202Y-82676002D03*
%TO.P,U1,12,NC*%
%TO.N,unconnected-(U1-Pad12)*%
X104690201Y-82676002D03*
%TO.P,U1,13,OUT*%
%TO.N,/OUT_CH1*%
X104690201Y-88118698D03*
%TO.P,U1,14,OUT*%
X105340200Y-88118698D03*
%TO.P,U1,15,OUT*%
X105990201Y-88118698D03*
%TO.P,U1,16,OUT*%
X106640199Y-88118698D03*
%TO.P,U1,17,OUT*%
X107290201Y-88118698D03*
%TO.P,U1,18,OUT*%
X107940199Y-88118698D03*
%TO.P,U1,19,OUT*%
X108590198Y-88118698D03*
%TO.P,U1,20,OUT*%
X109240199Y-88118698D03*
%TO.P,U1,21,OUT*%
X109890198Y-88118698D03*
%TO.P,U1,22,OUT*%
X110540199Y-88118698D03*
%TO.P,U1,23,OUT*%
X111190198Y-88118698D03*
%TO.P,U1,24,OUT*%
X111840199Y-88118698D03*
D22*
%TO.P,U1,EPAD,VS*%
%TO.N,VBATT*%
X105865200Y-84047350D03*
X109465200Y-84047350D03*
X108565200Y-86747350D03*
X111265200Y-86747350D03*
X106765200Y-84947350D03*
D23*
X108127700Y-85402350D03*
D22*
X105865200Y-85847350D03*
X107665200Y-85847350D03*
X112165200Y-86747350D03*
X112165200Y-85847350D03*
X104065200Y-85847350D03*
X111265200Y-84047350D03*
X111265200Y-85847350D03*
X104965200Y-84947350D03*
X109465200Y-84947350D03*
X105865200Y-84947350D03*
X109465200Y-85847350D03*
X105865200Y-86747350D03*
X104065200Y-84947350D03*
X112165200Y-84947350D03*
X108565200Y-85847350D03*
X111265200Y-84947350D03*
X110365200Y-86747350D03*
X104065200Y-84047350D03*
X107665200Y-84947350D03*
X112165200Y-84047350D03*
X106765200Y-84047350D03*
X104965200Y-86747350D03*
X104965200Y-84047350D03*
X106765200Y-86747350D03*
X108565200Y-84047350D03*
X110365200Y-84947350D03*
X110365200Y-85847350D03*
X106765200Y-85847350D03*
X107665200Y-84047350D03*
X107665200Y-86747350D03*
X104065200Y-86747350D03*
X110365200Y-84047350D03*
X109465200Y-86747350D03*
X104965200Y-85847350D03*
X108565200Y-84947350D03*
%TD*%
D14*
%TO.P,R11,1*%
%TO.N,/LED_ST_GND_CH1*%
X117517222Y-90253333D03*
%TO.P,R11,2*%
%TO.N,GND*%
X117517222Y-88603333D03*
%TD*%
D24*
%TO.P,Q2,1,B*%
%TO.N,Net-(Q2-Pad1)*%
X156800000Y-49982500D03*
%TO.P,Q2,2,E*%
%TO.N,VBATT*%
X154900000Y-49982500D03*
%TO.P,Q2,3,C*%
%TO.N,/OL_DET*%
X155850000Y-51857500D03*
%TD*%
D15*
%TO.P,D2,1,K*%
%TO.N,Net-(D2-Pad1)*%
X115812500Y-93534999D03*
%TO.P,D2,2,A*%
%TO.N,/IN_CH1*%
X117387500Y-93534999D03*
%TD*%
D16*
%TO.P,R5,1*%
%TO.N,/IS_CH1*%
X117375000Y-44790000D03*
%TO.P,R5,2*%
%TO.N,/IS_T_CH1*%
X119025000Y-44790000D03*
%TD*%
%TO.P,R16,1*%
%TO.N,Net-(Q1-Pad1)*%
X158845000Y-53980000D03*
%TO.P,R16,2*%
%TO.N,GND*%
X160495000Y-53980000D03*
%TD*%
D25*
%TO.P,U4,1,VBATTIN*%
%TO.N,/VBATTIN*%
X170825000Y-82195000D03*
D26*
X170825000Y-77120000D03*
%TD*%
D21*
%TO.P,U5,1,GND*%
%TO.N,/GND_CH2*%
X137982101Y-82726002D03*
%TO.P,U5,2,IN*%
%TO.N,/IN_R_CH2*%
X137332100Y-82726002D03*
%TO.P,U5,3,DEN*%
%TO.N,/DEN_R_CH2*%
X136682099Y-82726002D03*
%TO.P,U5,4,IS*%
%TO.N,/IS_R_CH2*%
X136032100Y-82726002D03*
%TO.P,U5,5,NC*%
%TO.N,unconnected-(U5-Pad5)*%
X135382101Y-82726002D03*
%TO.P,U5,6,NC*%
%TO.N,unconnected-(U5-Pad6)*%
X134732100Y-82726002D03*
%TO.P,U5,7,NC*%
%TO.N,unconnected-(U5-Pad7)*%
X134082101Y-82726002D03*
%TO.P,U5,8,OUT*%
%TO.N,/OUT_CH2*%
X134082099Y-88168698D03*
%TO.P,U5,9,OUT*%
X134732100Y-88168698D03*
%TO.P,U5,10,OUT*%
X135382099Y-88168698D03*
%TO.P,U5,11,NC*%
%TO.N,unconnected-(U5-Pad11)*%
X136032100Y-88168698D03*
%TO.P,U5,12,OUT*%
%TO.N,/OUT_CH2*%
X136682099Y-88168698D03*
%TO.P,U5,13,OUT*%
X137332100Y-88168698D03*
%TO.P,U5,14,OUT*%
X137982099Y-88168698D03*
D27*
%TO.P,U5,EPAD,VS*%
%TO.N,VBATT*%
X136032100Y-85472350D03*
D22*
X136532100Y-84097350D03*
X137432100Y-85897350D03*
X138332100Y-84997350D03*
X137432100Y-84997350D03*
X138332100Y-86797350D03*
X133832100Y-84997350D03*
X138332100Y-84097350D03*
X137432100Y-84097350D03*
X135632100Y-84997350D03*
X136532100Y-84997350D03*
X133832100Y-86797350D03*
X134732100Y-84097350D03*
X134732100Y-84997350D03*
X136532100Y-86797350D03*
X134732100Y-86797350D03*
X135632100Y-85897350D03*
X135632100Y-86797350D03*
X133832100Y-85897350D03*
X133832100Y-84097350D03*
X138332100Y-85897350D03*
X135632100Y-84097350D03*
X134732100Y-85897350D03*
X137432100Y-86797350D03*
X136532100Y-85897350D03*
%TD*%
D17*
%TO.P,R23,1*%
%TO.N,/IS_CH2*%
X125335000Y-44800000D03*
%TO.P,R23,2*%
%TO.N,/IS_T_CH2*%
X123685000Y-44800000D03*
%TD*%
D11*
%TO.P,R2,1*%
%TO.N,/IN_CH1*%
X111210000Y-78385000D03*
%TO.P,R2,2*%
%TO.N,/IN_R_CH1*%
X111210000Y-80035000D03*
%TD*%
D16*
%TO.P,R15,1*%
%TO.N,/OL_DET_SIG*%
X154995000Y-53980000D03*
%TO.P,R15,2*%
%TO.N,Net-(Q1-Pad1)*%
X156645000Y-53980000D03*
%TD*%
D14*
%TO.P,R26,1*%
%TO.N,/IS_R_CH2*%
X133180000Y-80315000D03*
%TO.P,R26,2*%
%TO.N,GND*%
X133180000Y-78665000D03*
%TD*%
D18*
%TO.P,C3,1*%
%TO.N,VBATT*%
X114050000Y-83565000D03*
%TO.P,C3,2*%
%TO.N,/GND_CH1*%
X114050000Y-82015000D03*
%TD*%
D24*
%TO.P,U3,1,Vdd*%
%TO.N,/TEMP_SIG_CH1*%
X102320000Y-84362500D03*
%TO.P,U3,2,Vout*%
%TO.N,/TEMP_IN*%
X100420000Y-84362500D03*
%TO.P,U3,3,GND*%
%TO.N,GND*%
X101370000Y-86237500D03*
%TD*%
D20*
%TO.P,D9,1,K*%
%TO.N,/IS_T_CH2*%
X129430000Y-77030000D03*
%TO.P,D9,2,A*%
%TO.N,GND*%
X129430000Y-80330000D03*
%TD*%
D12*
%TO.P,H2,1,1*%
%TO.N,GND*%
X88000000Y-47850000D03*
D13*
X88000000Y-47850000D03*
%TD*%
D26*
%TO.P,H5,1,1*%
%TO.N,GND*%
X88500000Y-75875000D03*
D25*
X88500000Y-80950000D03*
%TD*%
D18*
%TO.P,C2,1*%
%TO.N,VBATT*%
X115900000Y-83555000D03*
%TO.P,C2,2*%
%TO.N,GND*%
X115900000Y-82005000D03*
%TD*%
D16*
%TO.P,R13,1*%
%TO.N,GND*%
X100625000Y-93600000D03*
%TO.P,R13,2*%
%TO.N,/OUT_CH1*%
X102275000Y-93600000D03*
%TD*%
D19*
%TO.P,C5,1*%
%TO.N,/TEMP_SIG_CH1*%
X102165000Y-82480000D03*
%TO.P,C5,2*%
%TO.N,GND*%
X100615000Y-82480000D03*
%TD*%
D11*
%TO.P,R24,1*%
%TO.N,/IS_T_CH2*%
X135056666Y-78665000D03*
%TO.P,R24,2*%
%TO.N,/IS_R_CH2*%
X135056666Y-80315000D03*
%TD*%
D19*
%TO.P,C1,1*%
%TO.N,/IS_CH1*%
X115675000Y-44800000D03*
%TO.P,C1,2*%
%TO.N,GND*%
X114125000Y-44800000D03*
%TD*%
D17*
%TO.P,R27,1*%
%TO.N,GND*%
X142325000Y-80820000D03*
%TO.P,R27,2*%
%TO.N,/GND_CH2*%
X140675000Y-80820000D03*
%TD*%
D16*
%TO.P,R12,1*%
%TO.N,/OL_DET_CH1*%
X100625000Y-89450000D03*
%TO.P,R12,2*%
%TO.N,/OUT_CH1*%
X102275000Y-89450000D03*
%TD*%
D28*
%TO.P,U7,1,NC*%
%TO.N,unconnected-(U7-Pad1)*%
X87854000Y-68914601D03*
%TO.P,U7,2,GND*%
%TO.N,GND*%
X87854000Y-67964600D03*
%TO.P,U7,3,VDD*%
%TO.N,+3V3*%
X87854000Y-67014599D03*
%TO.P,U7,4,SCLK*%
%TO.N,I2C_SCL*%
X85263200Y-67014599D03*
%TO.P,U7,5,SDA*%
%TO.N,I2C_SDA*%
X85263200Y-68914601D03*
%TD*%
D29*
%TO.P,C6,1*%
%TO.N,/IS_CH2*%
X127215000Y-44790000D03*
%TO.P,C6,2*%
%TO.N,GND*%
X128765000Y-44790000D03*
%TD*%
D17*
%TO.P,R10,1*%
%TO.N,GND*%
X115805000Y-80210000D03*
%TO.P,R10,2*%
%TO.N,/GND_CH1*%
X114155000Y-80210000D03*
%TD*%
D18*
%TO.P,C9,1*%
%TO.N,+3V3*%
X164220000Y-69975000D03*
%TO.P,C9,2*%
%TO.N,GND*%
X164220000Y-68425000D03*
%TD*%
D30*
%TO.P,J2,1,Pin_1*%
%TO.N,/OUT_CH2*%
X133295000Y-93805000D03*
D31*
X138370000Y-93805000D03*
%TD*%
D32*
%TO.P,U6,1,A1*%
%TO.N,GND*%
X156145000Y-66065000D03*
%TO.P,U6,2,A0*%
X156145000Y-67335000D03*
%TO.P,U6,3,SDA*%
%TO.N,I2C_SDA*%
X156145000Y-68605000D03*
%TO.P,U6,4,SCL*%
%TO.N,I2C_SCL*%
X156145000Y-69875000D03*
%TO.P,U6,5,VS*%
%TO.N,+3V3*%
X161095000Y-69875000D03*
%TO.P,U6,6,GND*%
%TO.N,GND*%
X161095000Y-68605000D03*
%TO.P,U6,7,IN-*%
%TO.N,VBATT*%
X161095000Y-67335000D03*
%TO.P,U6,8,IN+*%
%TO.N,/VBATTIN*%
X161095000Y-66065000D03*
%TD*%
D15*
%TO.P,D6,1,K*%
%TO.N,/PWR_LED_K_CH1*%
X115612500Y-99590000D03*
%TO.P,D6,2,A*%
%TO.N,/OUT_CH1*%
X117187500Y-99590000D03*
%TD*%
D24*
%TO.P,U8,1,Vdd*%
%TO.N,/TEMP_SIG_CH2*%
X131900000Y-84592500D03*
%TO.P,U8,2,Vout*%
%TO.N,/TEMP_IN*%
X130000000Y-84592500D03*
%TO.P,U8,3,GND*%
%TO.N,GND*%
X130950000Y-86467500D03*
%TD*%
D33*
%TO.P,D5,1,K*%
%TO.N,/OL_DET_CH1*%
X97155000Y-86197500D03*
%TO.P,D5,2,A*%
%TO.N,/OL_DET*%
X97155000Y-84322500D03*
%TD*%
D17*
%TO.P,R18,1*%
%TO.N,Net-(Q1-Pad3)*%
X160435000Y-47790000D03*
%TO.P,R18,2*%
%TO.N,Net-(Q2-Pad1)*%
X158785000Y-47790000D03*
%TD*%
D14*
%TO.P,R8,1*%
%TO.N,/IS_R_CH1*%
X105960000Y-80035000D03*
%TO.P,R8,2*%
%TO.N,GND*%
X105960000Y-78385000D03*
%TD*%
D34*
%TO.P,Q1,1,B*%
%TO.N,Net-(Q1-Pad1)*%
X158700000Y-51857500D03*
%TO.P,Q1,2,E*%
%TO.N,GND*%
X160600000Y-51857500D03*
%TO.P,Q1,3,C*%
%TO.N,Net-(Q1-Pad3)*%
X159650000Y-49982500D03*
%TD*%
D30*
%TO.P,J1,1,Pin_1*%
%TO.N,/OUT_CH1*%
X105745000Y-93825000D03*
D31*
X110820000Y-93825000D03*
%TD*%
D14*
%TO.P,R31,1*%
%TO.N,/PWR_LED_K_CH2*%
X145900000Y-89605000D03*
%TO.P,R31,2*%
%TO.N,GND*%
X145900000Y-87955000D03*
%TD*%
D18*
%TO.P,C8,1*%
%TO.N,VBATT*%
X140720000Y-84155000D03*
%TO.P,C8,2*%
%TO.N,/GND_CH2*%
X140720000Y-82605000D03*
%TD*%
D15*
%TO.P,D4,1,K*%
%TO.N,/LED_ST_GND_CH1*%
X115712500Y-97571665D03*
%TO.P,D4,2,A*%
%TO.N,/LED_ST_CH1*%
X117287500Y-97571665D03*
%TD*%
D19*
%TO.P,C4,1*%
%TO.N,/OUT_CH1*%
X102225000Y-91225000D03*
%TO.P,C4,2*%
%TO.N,GND*%
X100675000Y-91225000D03*
%TD*%
%TO.P,C10,1*%
%TO.N,/OUT_CH2*%
X129755000Y-91460000D03*
%TO.P,C10,2*%
%TO.N,GND*%
X128205000Y-91460000D03*
%TD*%
D15*
%TO.P,D1,1,K*%
%TO.N,Net-(D1-Pad1)*%
X115812500Y-95553332D03*
%TO.P,D1,2,A*%
%TO.N,/DEN_CH1*%
X117387500Y-95553332D03*
%TD*%
D14*
%TO.P,R1,1*%
%TO.N,Net-(D1-Pad1)*%
X119142777Y-90253333D03*
%TO.P,R1,2*%
%TO.N,GND*%
X119142777Y-88603333D03*
%TD*%
D11*
%TO.P,R21,1*%
%TO.N,/DEN_CH2*%
X136933332Y-78665000D03*
%TO.P,R21,2*%
%TO.N,/DEN_R_CH2*%
X136933332Y-80315000D03*
%TD*%
D35*
%TO.P,C11,1*%
%TO.N,+3V3*%
X90850000Y-66425000D03*
%TO.P,C11,2*%
%TO.N,GND*%
X90850000Y-67975000D03*
%TD*%
D33*
%TO.P,D11,1,K*%
%TO.N,/OL_DET_CH9*%
X126795000Y-86297500D03*
%TO.P,D11,2,A*%
%TO.N,/OL_DET*%
X126795000Y-84422500D03*
%TD*%
D14*
%TO.P,R22,1*%
%TO.N,Net-(D8-Pad1)*%
X152780000Y-89605000D03*
%TO.P,R22,2*%
%TO.N,GND*%
X152780000Y-87955000D03*
%TD*%
D36*
%TO.P,U2,1,GPIO0*%
%TO.N,I2C_SDA*%
X99795000Y-68825000D03*
D37*
X99795000Y-69725000D03*
D36*
%TO.P,U2,2,GPIO1*%
%TO.N,I2C_SCL*%
X102335000Y-68825000D03*
D37*
X102335000Y-69725000D03*
D38*
%TO.P,U2,3,GND*%
%TO.N,GND*%
X104875000Y-68825000D03*
D37*
X104875000Y-69725000D03*
D36*
%TO.P,U2,4,GPIO2*%
%TO.N,/TEMP_SIG_CH1*%
X107415000Y-68825000D03*
D37*
X107415000Y-69725000D03*
%TO.P,U2,5,GPIO3*%
%TO.N,/DEN_CH1*%
X109955000Y-69725000D03*
D36*
X109955000Y-68825000D03*
D37*
%TO.P,U2,6,GPIO4*%
%TO.N,/IN_CH1*%
X112495000Y-69725000D03*
D36*
X112495000Y-68825000D03*
D37*
%TO.P,U2,7,GPIO5*%
%TO.N,/LED_ST_CH1*%
X115035000Y-69725000D03*
D36*
X115035000Y-68825000D03*
D37*
%TO.P,U2,8,GND*%
%TO.N,GND*%
X117575000Y-69725000D03*
D38*
X117575000Y-68825000D03*
D37*
%TO.P,U2,9,GPIO6*%
%TO.N,unconnected-(U2-Pad9)*%
X120115000Y-69725000D03*
D36*
X120115000Y-68825000D03*
%TO.P,U2,10,GPIO7*%
%TO.N,unconnected-(U2-Pad10)*%
X122655000Y-68825000D03*
D37*
X122655000Y-69725000D03*
D36*
%TO.P,U2,11,GPIO8*%
%TO.N,unconnected-(U2-Pad11)*%
X125195000Y-68825000D03*
D37*
X125195000Y-69725000D03*
D36*
%TO.P,U2,12,GPIO9*%
%TO.N,unconnected-(U2-Pad12)*%
X127735000Y-68825000D03*
D37*
X127735000Y-69725000D03*
D38*
%TO.P,U2,13,GND*%
%TO.N,GND*%
X130275000Y-68825000D03*
D37*
X130275000Y-69725000D03*
D36*
%TO.P,U2,14,GPIO10*%
%TO.N,/TEMP_SIG_CH2*%
X132815000Y-68825000D03*
D37*
X132815000Y-69725000D03*
%TO.P,U2,15,GPIO11*%
%TO.N,/DEN_CH2*%
X135355000Y-69725000D03*
D36*
X135355000Y-68825000D03*
%TO.P,U2,16,GPIO12*%
%TO.N,/IN_CH2*%
X137895000Y-68825000D03*
D37*
X137895000Y-69725000D03*
D36*
%TO.P,U2,17,GPIO13*%
%TO.N,/LED_ST_CH2*%
X140435000Y-68825000D03*
D37*
X140435000Y-69725000D03*
%TO.P,U2,18,GND*%
%TO.N,GND*%
X142975000Y-69725000D03*
D38*
X142975000Y-68825000D03*
D36*
%TO.P,U2,19,GPIO14*%
%TO.N,unconnected-(U2-Pad19)*%
X145515000Y-68825000D03*
D37*
X145515000Y-69725000D03*
D36*
%TO.P,U2,20,GPIO15*%
%TO.N,unconnected-(U2-Pad20)*%
X148055000Y-68825000D03*
D37*
X148055000Y-69725000D03*
%TO.P,U2,21,GPIO16*%
%TO.N,unconnected-(U2-Pad21)*%
X148055000Y-50145000D03*
D36*
X148055000Y-51045000D03*
%TO.P,U2,22,GPIO17*%
%TO.N,unconnected-(U2-Pad22)*%
X145515000Y-51045000D03*
D37*
X145515000Y-50145000D03*
D38*
%TO.P,U2,23,GND*%
%TO.N,GND*%
X142975000Y-51045000D03*
D37*
X142975000Y-50145000D03*
D36*
%TO.P,U2,24,GPIO18*%
%TO.N,unconnected-(U2-Pad24)*%
X140435000Y-51045000D03*
D37*
X140435000Y-50145000D03*
D36*
%TO.P,U2,25,GPIO19*%
%TO.N,unconnected-(U2-Pad25)*%
X137895000Y-51045000D03*
D37*
X137895000Y-50145000D03*
%TO.P,U2,26,GPIO20*%
%TO.N,unconnected-(U2-Pad26)*%
X135355000Y-50145000D03*
D36*
X135355000Y-51045000D03*
D37*
%TO.P,U2,27,GPIO21*%
%TO.N,unconnected-(U2-Pad27)*%
X132815000Y-50145000D03*
D36*
X132815000Y-51045000D03*
D38*
%TO.P,U2,28,GND*%
%TO.N,GND*%
X130275000Y-51045000D03*
D37*
X130275000Y-50145000D03*
%TO.P,U2,29,GPIO22*%
%TO.N,/OL_DET_SIG*%
X127735000Y-50145000D03*
D36*
X127735000Y-51045000D03*
D37*
%TO.P,U2,30,RUN*%
%TO.N,unconnected-(U2-Pad30)*%
X125195000Y-50145000D03*
D36*
X125195000Y-51045000D03*
%TO.P,U2,31,GPIO26_ADC0*%
%TO.N,/IS_CH2*%
X122655000Y-51045000D03*
D37*
X122655000Y-50145000D03*
%TO.P,U2,32,GPIO27_ADC1*%
%TO.N,/IS_CH1*%
X120115000Y-50145000D03*
D36*
X120115000Y-51045000D03*
D38*
%TO.P,U2,33,AGND*%
%TO.N,GND*%
X117575000Y-51045000D03*
D37*
X117575000Y-50145000D03*
%TO.P,U2,34,GPIO28_ADC2*%
%TO.N,/TEMP_IN*%
X115035000Y-50145000D03*
D36*
X115035000Y-51045000D03*
%TO.P,U2,35,ADC_VREF*%
%TO.N,unconnected-(U2-Pad35)*%
X112495000Y-51045000D03*
D37*
X112495000Y-50145000D03*
D36*
%TO.P,U2,36,3V3*%
%TO.N,+3V3*%
X109955000Y-51045000D03*
D37*
X109955000Y-50145000D03*
%TO.P,U2,37,3V3_EN*%
%TO.N,unconnected-(U2-Pad37)*%
X107415000Y-50145000D03*
D36*
X107415000Y-51045000D03*
D37*
%TO.P,U2,38,GND*%
%TO.N,GND*%
X104875000Y-50145000D03*
D38*
X104875000Y-51045000D03*
D36*
%TO.P,U2,39,VSYS*%
%TO.N,unconnected-(U2-Pad39)*%
X102335000Y-51045000D03*
D37*
X102335000Y-50145000D03*
D36*
%TO.P,U2,40,VBUS*%
%TO.N,unconnected-(U2-Pad40)*%
X99795000Y-51045000D03*
D37*
X99795000Y-50145000D03*
D39*
%TO.P,U2,41,SWCLK*%
%TO.N,unconnected-(U2-Pad41)*%
X148725000Y-62475000D03*
D36*
X147825000Y-62475000D03*
D39*
%TO.P,U2,42,GND*%
%TO.N,GND*%
X148725000Y-59935000D03*
D38*
X147825000Y-59935000D03*
D36*
%TO.P,U2,43,SWDIO*%
%TO.N,unconnected-(U2-Pad43)*%
X147825000Y-57395000D03*
D39*
X148725000Y-57395000D03*
%TD*%
D40*
%TO.N,GND*%
X132100000Y-79400000D03*
X117300000Y-81000000D03*
X100400000Y-81000000D03*
X162995000Y-68605000D03*
X117300000Y-82100000D03*
X162000000Y-54000000D03*
X118400000Y-81000000D03*
X99500000Y-92400000D03*
X130400000Y-88100000D03*
X99000000Y-84700000D03*
X154000000Y-88700000D03*
X102300000Y-87800000D03*
X99000000Y-86700000D03*
X112800000Y-44800000D03*
X89400000Y-68000000D03*
X118400000Y-80000000D03*
X100600000Y-92400000D03*
X117300000Y-80000000D03*
X104800000Y-78200000D03*
X118400000Y-82100000D03*
X100000000Y-87800000D03*
X132400000Y-88100000D03*
X162000000Y-53000000D03*
X128900000Y-81700000D03*
X142000000Y-78200000D03*
X142100000Y-79400000D03*
X103400000Y-88200000D03*
X114500000Y-88600000D03*
X129300000Y-88100000D03*
X130100000Y-44800000D03*
X162000000Y-52000000D03*
X131400000Y-88100000D03*
X143300000Y-79700000D03*
X101100000Y-87800000D03*
X128200000Y-92700000D03*
X143200000Y-78400000D03*
X99000000Y-85700000D03*
X149300000Y-89300000D03*
X103000000Y-81000000D03*
X154000000Y-66600000D03*
X144300000Y-89200000D03*
X113500000Y-88600000D03*
%TO.N,VBATT*%
X114500000Y-85400000D03*
X113500000Y-86400000D03*
X113500000Y-85400000D03*
X128500000Y-84900000D03*
X141693846Y-86493728D03*
X128500000Y-86900000D03*
X128500000Y-83900000D03*
X142700000Y-85500000D03*
X115493846Y-86393728D03*
D41*
X153000000Y-77100000D03*
D40*
X141700000Y-85500000D03*
X139700000Y-86500000D03*
X115500000Y-85400000D03*
X128500000Y-85900000D03*
X116500000Y-86400000D03*
D41*
X152500000Y-68400000D03*
D40*
X139700000Y-85500000D03*
X142700000Y-86500000D03*
X116500000Y-85400000D03*
X114500000Y-86400000D03*
X140700000Y-85500000D03*
X140700000Y-86500000D03*
D41*
%TO.N,+3V3*%
X92775000Y-66425000D03*
X94250000Y-67350000D03*
X113400000Y-58300000D03*
%TO.N,/TEMP_SIG_CH2*%
X131400000Y-78100000D03*
%TO.N,/IN_CH1*%
X112915000Y-78385000D03*
%TO.N,/IS_T_CH1*%
X106600000Y-73900000D03*
X120400000Y-44800000D03*
%TO.N,/OL_DET*%
X97000000Y-82500000D03*
X154300000Y-52400000D03*
X125600000Y-80200000D03*
X119900000Y-75600000D03*
%TO.N,/IN_CH2*%
X139787500Y-77687500D03*
%TO.N,/IS_T_CH2*%
X122300000Y-44800000D03*
X127000000Y-77000000D03*
%TO.N,I2C_SDA*%
X116400000Y-64900000D03*
%TO.N,I2C_SCL*%
X117400000Y-66200000D03*
%TO.N,/OL_DET_SIG*%
X153200000Y-53900000D03*
%TO.N,/VBATTIN*%
X155400000Y-76500000D03*
%TD*%
D42*
%TO.N,/IS_CH1*%
X120115000Y-47526667D02*
X117388333Y-44800000D01*
X115675000Y-44800000D02*
X117418334Y-44800000D01*
X120115000Y-51045000D02*
X120115000Y-47526667D01*
%TO.N,GND*%
X90850000Y-67975000D02*
X89425000Y-67975000D01*
X117517222Y-88603333D02*
X119142777Y-88603333D01*
X103030000Y-80970000D02*
X103000000Y-81000000D01*
X132100000Y-79400000D02*
X132835000Y-78665000D01*
X164040000Y-68605000D02*
X164220000Y-68425000D01*
X100600000Y-91300000D02*
X100600000Y-92400000D01*
X100625000Y-93600000D02*
X100625000Y-92425000D01*
X132400000Y-88100000D02*
X129300000Y-88100000D01*
X161095000Y-68605000D02*
X162995000Y-68605000D01*
X145900000Y-87955000D02*
X147593333Y-87955000D01*
X100675000Y-91225000D02*
X100600000Y-91300000D01*
X100000000Y-87800000D02*
X101100000Y-87800000D01*
X114503333Y-88603333D02*
X114500000Y-88600000D01*
X156145000Y-66065000D02*
X154535000Y-66065000D01*
X128900000Y-81700000D02*
X129430000Y-81170000D01*
X154535000Y-66065000D02*
X154000000Y-66600000D01*
X102300000Y-87800000D02*
X101100000Y-87800000D01*
X128195000Y-94030000D02*
X128195000Y-92705000D01*
X128605000Y-44800000D02*
X130100000Y-44800000D01*
X115891667Y-88603333D02*
X114503333Y-88603333D01*
X128900000Y-81700000D02*
X129510000Y-82310000D01*
X99000000Y-86800000D02*
X100000000Y-87800000D01*
X119142777Y-88603333D02*
X120768333Y-88603333D01*
X100675000Y-91225000D02*
X99500000Y-92400000D01*
X154000000Y-88700000D02*
X153255000Y-87955000D01*
X130950000Y-87650000D02*
X131400000Y-88100000D01*
X101370000Y-86237500D02*
X101370000Y-87530000D01*
X150645000Y-87955000D02*
X151086666Y-87955000D01*
X153255000Y-87955000D02*
X152780000Y-87955000D01*
X129510000Y-82310000D02*
X130065000Y-82310000D01*
X99000000Y-84700000D02*
X99000000Y-86700000D01*
X105960000Y-78385000D02*
X104985000Y-78385000D01*
X100400000Y-82265000D02*
X100615000Y-82480000D01*
X156145000Y-67335000D02*
X154735000Y-67335000D01*
X117517222Y-88603333D02*
X115891667Y-88603333D01*
X162995000Y-68605000D02*
X164040000Y-68605000D01*
X103400000Y-88200000D02*
X102700000Y-88200000D01*
X130950000Y-86467500D02*
X130950000Y-87650000D01*
X87854000Y-67964600D02*
X89364600Y-67964600D01*
X104985000Y-78385000D02*
X104800000Y-78200000D01*
X102700000Y-88200000D02*
X102300000Y-87800000D01*
X89364600Y-67964600D02*
X89400000Y-68000000D01*
X129430000Y-81170000D02*
X129430000Y-80330000D01*
X128205000Y-92695000D02*
X128200000Y-92700000D01*
X101370000Y-87530000D02*
X101100000Y-87800000D01*
X89425000Y-67975000D02*
X89400000Y-68000000D01*
X144300000Y-89200000D02*
X145545000Y-87955000D01*
X128205000Y-91460000D02*
X128205000Y-92695000D01*
X99000000Y-86700000D02*
X99000000Y-86800000D01*
X147593333Y-87955000D02*
X147955000Y-87955000D01*
X149300000Y-89300000D02*
X150645000Y-87955000D01*
X112800000Y-44800000D02*
X114125000Y-44800000D01*
X128195000Y-92705000D02*
X128200000Y-92700000D01*
X145545000Y-87955000D02*
X145900000Y-87955000D01*
X113500000Y-88600000D02*
X114500000Y-88600000D01*
X132835000Y-78665000D02*
X133180000Y-78665000D01*
X151086666Y-87955000D02*
X152780000Y-87955000D01*
X154735000Y-67335000D02*
X154000000Y-66600000D01*
X100625000Y-93600000D02*
X100625000Y-93525000D01*
X100625000Y-92425000D02*
X100600000Y-92400000D01*
X100625000Y-93525000D02*
X99500000Y-92400000D01*
X100400000Y-81000000D02*
X100400000Y-82265000D01*
X103030000Y-79780000D02*
X103030000Y-80970000D01*
X147955000Y-87955000D02*
X149300000Y-89300000D01*
D43*
%TO.N,VBATT*%
X151800000Y-53082500D02*
X154900000Y-49982500D01*
X158100000Y-65700000D02*
X159300000Y-64500000D01*
D42*
X154985000Y-47790000D02*
X154985000Y-49897500D01*
X154985000Y-49897500D02*
X154900000Y-49982500D01*
D43*
X163300000Y-65600000D02*
X163300000Y-66800000D01*
X151800000Y-67700000D02*
X151800000Y-53082500D01*
X162765000Y-67335000D02*
X161095000Y-67335000D01*
X159300000Y-64500000D02*
X162200000Y-64500000D01*
X153000000Y-77100000D02*
X153000000Y-76200000D01*
X162200000Y-64500000D02*
X163300000Y-65600000D01*
X153000000Y-76200000D02*
X158100000Y-71100000D01*
X158100000Y-71100000D02*
X158100000Y-65700000D01*
X163300000Y-66800000D02*
X162765000Y-67335000D01*
X152500000Y-68400000D02*
X151800000Y-67700000D01*
%TO.N,/GND_CH1*%
X110200000Y-81500000D02*
X113535000Y-81500000D01*
X114050000Y-80315000D02*
X114155000Y-80210000D01*
X114050000Y-82015000D02*
X114050000Y-80315000D01*
X109890201Y-82676002D02*
X109890201Y-81809799D01*
X113535000Y-81500000D02*
X114050000Y-82015000D01*
X109890201Y-81809799D02*
X110200000Y-81500000D01*
D44*
%TO.N,/OUT_CH1*%
X102225000Y-91225000D02*
X103145000Y-91225000D01*
D43*
X117187500Y-100212500D02*
X116700000Y-100700000D01*
X110820000Y-97120000D02*
X110820000Y-93825000D01*
X114400000Y-100700000D02*
X110820000Y-97120000D01*
D44*
X103570000Y-90170000D02*
X104000000Y-90600000D01*
D45*
X105520000Y-93600000D02*
X105745000Y-93825000D01*
D43*
X117187500Y-99590000D02*
X117187500Y-100212500D01*
X104550000Y-89450000D02*
X104700000Y-89300000D01*
X116700000Y-100700000D02*
X114400000Y-100700000D01*
X104690201Y-88118698D02*
X111840199Y-88118698D01*
X102275000Y-89450000D02*
X104550000Y-89450000D01*
D44*
X104920000Y-93000000D02*
X105745000Y-93825000D01*
D43*
X104700000Y-89300000D02*
X104690201Y-89290201D01*
D44*
X102275000Y-89450000D02*
X104150000Y-89450000D01*
D45*
X102275000Y-93600000D02*
X105520000Y-93600000D01*
D43*
X104690201Y-89290201D02*
X104690201Y-88118698D01*
D44*
X104150000Y-89450000D02*
X104400000Y-89700000D01*
D43*
X104690201Y-88118698D02*
X105340200Y-88118698D01*
%TO.N,/TEMP_SIG_CH1*%
X104000000Y-74700000D02*
X107415000Y-71285000D01*
X102165000Y-82480000D02*
X102165000Y-81765000D01*
X102165000Y-84207500D02*
X102320000Y-84362500D01*
X101200000Y-76100000D02*
X102600000Y-74700000D01*
X101200000Y-80800000D02*
X101200000Y-76100000D01*
X107415000Y-71285000D02*
X107415000Y-68825000D01*
X102165000Y-81765000D02*
X101200000Y-80800000D01*
X102165000Y-82480000D02*
X102165000Y-84207500D01*
X102600000Y-74700000D02*
X104000000Y-74700000D01*
D42*
%TO.N,/IS_CH2*%
X127055000Y-44800000D02*
X125311667Y-44800000D01*
X122655000Y-47426666D02*
X122655000Y-51045000D01*
X125281666Y-44800000D02*
X122655000Y-47426666D01*
%TO.N,+3V3*%
X164220000Y-69975000D02*
X165825000Y-69975000D01*
X166500000Y-67800000D02*
X161300000Y-62600000D01*
X90850000Y-66425000D02*
X90260401Y-67014599D01*
X162000000Y-44200000D02*
X155200000Y-44200000D01*
X159400000Y-61000000D02*
X159400000Y-58800000D01*
X166500000Y-69300000D02*
X166500000Y-67800000D01*
X95185000Y-70430000D02*
X95185000Y-68690000D01*
X152800000Y-46600000D02*
X152800000Y-50700000D01*
X164120000Y-69875000D02*
X164220000Y-69975000D01*
X90260401Y-67014599D02*
X87854000Y-67014599D01*
X95185000Y-68690000D02*
X95185000Y-68285000D01*
X165825000Y-69975000D02*
X166500000Y-69300000D01*
X161300000Y-62600000D02*
X161000000Y-62600000D01*
X152800000Y-50700000D02*
X150000000Y-53500000D01*
X155200000Y-44200000D02*
X152800000Y-46600000D01*
X159400000Y-58800000D02*
X164900000Y-53300000D01*
X161000000Y-62600000D02*
X159400000Y-61000000D01*
X95185000Y-68285000D02*
X94250000Y-67350000D01*
X161095000Y-69875000D02*
X164120000Y-69875000D01*
X150000000Y-53500000D02*
X147300000Y-53500000D01*
X92775000Y-66425000D02*
X90850000Y-66425000D01*
X164900000Y-47100000D02*
X162000000Y-44200000D01*
X147300000Y-53500000D02*
X142500000Y-58300000D01*
X142500000Y-58300000D02*
X113400000Y-58300000D01*
X164900000Y-53300000D02*
X164900000Y-47100000D01*
D45*
%TO.N,/OUT_CH2*%
X133070000Y-94030000D02*
X133295000Y-93805000D01*
D43*
X148237500Y-99640000D02*
X148237500Y-100162500D01*
D45*
X129865000Y-89700000D02*
X132800000Y-89700000D01*
D43*
X140750000Y-95350000D02*
X138370000Y-95350000D01*
X147800000Y-100600000D02*
X146000000Y-100600000D01*
D45*
X129755000Y-91460000D02*
X131140000Y-91460000D01*
X129845000Y-94030000D02*
X133070000Y-94030000D01*
D43*
X148237500Y-100162500D02*
X147800000Y-100600000D01*
D45*
X131140000Y-91460000D02*
X131200000Y-91400000D01*
D43*
X146000000Y-100600000D02*
X140750000Y-95350000D01*
%TO.N,/TEMP_SIG_CH2*%
X131100000Y-80600000D02*
X130900000Y-80400000D01*
X131900000Y-82595000D02*
X131615000Y-82310000D01*
X131900000Y-84592500D02*
X131900000Y-82595000D01*
X130900000Y-80400000D02*
X130900000Y-79000000D01*
X130900000Y-78600000D02*
X131400000Y-78100000D01*
X131615000Y-81115000D02*
X131100000Y-80600000D01*
X131615000Y-82310000D02*
X131615000Y-81115000D01*
X130900000Y-79000000D02*
X130900000Y-78600000D01*
%TO.N,Net-(D1-Pad1)*%
X119142777Y-90257223D02*
X119142777Y-90253333D01*
X114900000Y-93000000D02*
X114900000Y-95100000D01*
X114900000Y-95100000D02*
X115353332Y-95553332D01*
X116000000Y-91900000D02*
X114900000Y-93000000D01*
X117500000Y-91900000D02*
X119142777Y-90257223D01*
X116000000Y-91900000D02*
X117500000Y-91900000D01*
X115353332Y-95553332D02*
X115812500Y-95553332D01*
%TO.N,/DEN_CH1*%
X119146668Y-95553332D02*
X122300000Y-92400000D01*
X109460000Y-78385000D02*
X109955000Y-77890000D01*
X122300000Y-81300000D02*
X118200000Y-77200000D01*
X117387500Y-95553332D02*
X119146668Y-95553332D01*
X118200000Y-77200000D02*
X110645000Y-77200000D01*
X122300000Y-92400000D02*
X122300000Y-81300000D01*
X110645000Y-77200000D02*
X109460000Y-78385000D01*
X109955000Y-77890000D02*
X109955000Y-68825000D01*
%TO.N,Net-(D2-Pad1)*%
X115812500Y-93534999D02*
X116947499Y-92400000D01*
X116947499Y-92400000D02*
X118621666Y-92400000D01*
X118621666Y-92400000D02*
X120768333Y-90253333D01*
%TO.N,/IN_CH1*%
X121800000Y-81600000D02*
X118585000Y-78385000D01*
X112915000Y-78385000D02*
X111210000Y-78385000D01*
X119565001Y-93534999D02*
X121800000Y-91300000D01*
X117387500Y-93534999D02*
X119565001Y-93534999D01*
X121800000Y-91300000D02*
X121800000Y-81600000D01*
X118585000Y-78385000D02*
X112915000Y-78385000D01*
%TO.N,/IS_T_CH1*%
X103030000Y-76480000D02*
X105805000Y-76480000D01*
D42*
X119068334Y-44800000D02*
X120400000Y-44800000D01*
D43*
X106600000Y-73900000D02*
X107710000Y-75010000D01*
X107710000Y-75010000D02*
X107710000Y-78385000D01*
X105805000Y-76480000D02*
X107710000Y-78385000D01*
%TO.N,/LED_ST_GND_CH1*%
X117517222Y-90253333D02*
X117517222Y-90882778D01*
X117000000Y-91400000D02*
X115700000Y-91400000D01*
X114400000Y-92700000D02*
X114400000Y-96259165D01*
X114400000Y-96259165D02*
X115712500Y-97571665D01*
X117517222Y-90882778D02*
X117000000Y-91400000D01*
X115700000Y-91400000D02*
X114400000Y-92700000D01*
%TO.N,/LED_ST_CH1*%
X118428335Y-97571665D02*
X122800000Y-93200000D01*
X118200000Y-75800000D02*
X117300000Y-75800000D01*
X115035000Y-73535000D02*
X115035000Y-68825000D01*
X122800000Y-80400000D02*
X118200000Y-75800000D01*
X122800000Y-93200000D02*
X122800000Y-80400000D01*
X117287500Y-97571665D02*
X118428335Y-97571665D01*
X117300000Y-75800000D02*
X115035000Y-73535000D01*
%TO.N,/OL_DET_CH1*%
X100625000Y-89450000D02*
X99150000Y-89450000D01*
X97155000Y-87455000D02*
X97155000Y-86197500D01*
X99150000Y-89450000D02*
X97155000Y-87455000D01*
%TO.N,/OL_DET*%
X125600000Y-79500000D02*
X121700000Y-75600000D01*
X125600000Y-80200000D02*
X125600000Y-79500000D01*
X125600000Y-80200000D02*
X126795000Y-81395000D01*
X97000000Y-82500000D02*
X97000000Y-84167500D01*
X121700000Y-75600000D02*
X119900000Y-75600000D01*
X126795000Y-81395000D02*
X126795000Y-84422500D01*
X97000000Y-84167500D02*
X97155000Y-84322500D01*
X155850000Y-51857500D02*
X154842500Y-51857500D01*
X154842500Y-51857500D02*
X154300000Y-52400000D01*
%TO.N,/PWR_LED_K_CH1*%
X115891667Y-90253333D02*
X115891667Y-90408333D01*
X113900000Y-92400000D02*
X113900000Y-97877500D01*
X113900000Y-97877500D02*
X115612500Y-99590000D01*
X115891667Y-90408333D02*
X113900000Y-92400000D01*
%TO.N,Net-(D7-Pad1)*%
X150000000Y-91300000D02*
X147885393Y-91300000D01*
X147085393Y-92100000D02*
X145900000Y-92100000D01*
X145600000Y-94304166D02*
X146662500Y-95366666D01*
X147885393Y-91300000D02*
X147085393Y-92100000D01*
X145600000Y-92400000D02*
X145600000Y-94304166D01*
X151086666Y-89605000D02*
X151086666Y-90213334D01*
X151086666Y-90213334D02*
X150000000Y-91300000D01*
X145900000Y-92100000D02*
X145600000Y-92400000D01*
%TO.N,/DEN_CH2*%
X150633334Y-95366666D02*
X155400000Y-90600000D01*
X136933332Y-78665000D02*
X135355000Y-77086668D01*
X138998332Y-76600000D02*
X136933332Y-78665000D01*
X135355000Y-77086668D02*
X135355000Y-68825000D01*
X145200000Y-76600000D02*
X138998332Y-76600000D01*
X148237500Y-95366666D02*
X150633334Y-95366666D01*
X155400000Y-90600000D02*
X155400000Y-86800000D01*
X155400000Y-86800000D02*
X145200000Y-76600000D01*
%TO.N,Net-(D8-Pad1)*%
X150585000Y-91800000D02*
X148092500Y-91800000D01*
X152780000Y-89605000D02*
X150585000Y-91800000D01*
X148092500Y-91800000D02*
X146662500Y-93230000D01*
%TO.N,/IN_CH2*%
X148237500Y-93230000D02*
X150570000Y-93230000D01*
X144600000Y-77200000D02*
X140275000Y-77200000D01*
X140275000Y-77200000D02*
X139787500Y-77687500D01*
X152200000Y-91600000D02*
X153060661Y-91600000D01*
X139787500Y-77687500D02*
X138810000Y-78665000D01*
X154800000Y-87400000D02*
X144600000Y-77200000D01*
X150570000Y-93230000D02*
X152200000Y-91600000D01*
X154800000Y-89860661D02*
X154800000Y-87400000D01*
X153060661Y-91600000D02*
X154800000Y-89860661D01*
%TO.N,/IS_T_CH2*%
X133421666Y-77030000D02*
X129930000Y-77030000D01*
X129400000Y-77000000D02*
X129430000Y-77030000D01*
X127000000Y-77000000D02*
X129400000Y-77000000D01*
X135056666Y-78665000D02*
X133421666Y-77030000D01*
D42*
X123661667Y-44800000D02*
X122300000Y-44800000D01*
D43*
%TO.N,/LED_ST_GND_CH2*%
X147593333Y-90006667D02*
X146200000Y-91400000D01*
X146200000Y-91400000D02*
X145892893Y-91400000D01*
X145892893Y-91400000D02*
X145100000Y-92192893D01*
X145100000Y-92192893D02*
X145100000Y-95940832D01*
X145100000Y-95940832D02*
X146662500Y-97503332D01*
X147593333Y-89605000D02*
X147593333Y-90006667D01*
%TO.N,/LED_ST_CH2*%
X148237500Y-97503332D02*
X149496668Y-97503332D01*
X155900000Y-91100000D02*
X155900000Y-86200000D01*
X140435000Y-71735000D02*
X140435000Y-68825000D01*
X142700000Y-75900000D02*
X141700000Y-74900000D01*
X149496668Y-97503332D02*
X155900000Y-91100000D01*
X141700000Y-74900000D02*
X141700000Y-73000000D01*
X141700000Y-73000000D02*
X140435000Y-71735000D01*
X145600000Y-75900000D02*
X142700000Y-75900000D01*
X155900000Y-86200000D02*
X145600000Y-75900000D01*
%TO.N,/OL_DET_CH9*%
X126795000Y-88280000D02*
X128125000Y-89610000D01*
X126795000Y-86297500D02*
X126795000Y-88280000D01*
%TO.N,/PWR_LED_K_CH2*%
X144600000Y-97577500D02*
X144600000Y-90905000D01*
X144600000Y-90905000D02*
X145900000Y-89605000D01*
X146662500Y-99640000D02*
X144600000Y-97577500D01*
D42*
%TO.N,Net-(Q1-Pad1)*%
X158845000Y-53980000D02*
X156645000Y-53980000D01*
X158700000Y-51857500D02*
X158700000Y-53835000D01*
X158700000Y-53835000D02*
X158845000Y-53980000D01*
%TO.N,Net-(Q1-Pad3)*%
X160435000Y-49197500D02*
X159650000Y-49982500D01*
X160435000Y-47790000D02*
X160435000Y-49197500D01*
%TO.N,Net-(Q2-Pad1)*%
X156800000Y-49982500D02*
X156800000Y-47955000D01*
X156635000Y-47790000D02*
X158785000Y-47790000D01*
X156800000Y-47955000D02*
X156635000Y-47790000D01*
D43*
%TO.N,/IN_R_CH1*%
X109800000Y-81000000D02*
X110245000Y-81000000D01*
X110245000Y-81000000D02*
X111210000Y-80035000D01*
X109240202Y-82676002D02*
X109240202Y-81559798D01*
X109240202Y-81559798D02*
X109800000Y-81000000D01*
%TO.N,/DEN_R_CH1*%
X108590201Y-80904799D02*
X109460000Y-80035000D01*
X108590201Y-82676002D02*
X108590201Y-80904799D01*
%TO.N,/IS_R_CH1*%
X107940202Y-80265202D02*
X107940202Y-82676002D01*
X107710000Y-80035000D02*
X107940202Y-80265202D01*
X105960000Y-80035000D02*
X107710000Y-80035000D01*
%TO.N,I2C_SDA*%
X153595000Y-68605000D02*
X156145000Y-68605000D01*
X86348599Y-70000000D02*
X91000000Y-70000000D01*
X116400000Y-64900000D02*
X147500000Y-64900000D01*
X151900000Y-69300000D02*
X152900000Y-69300000D01*
X99795000Y-70605000D02*
X99795000Y-68825000D01*
X98800000Y-71600000D02*
X99795000Y-70605000D01*
X98190000Y-70430000D02*
X99795000Y-68825000D01*
X152900000Y-69300000D02*
X153595000Y-68605000D01*
X96835000Y-70430000D02*
X98190000Y-70430000D01*
X85263200Y-68914601D02*
X86348599Y-70000000D01*
X92600000Y-71600000D02*
X98800000Y-71600000D01*
X147500000Y-64900000D02*
X151900000Y-69300000D01*
X91000000Y-70000000D02*
X92600000Y-71600000D01*
%TO.N,I2C_SCL*%
X96835000Y-68690000D02*
X96835000Y-68365000D01*
X117400000Y-66200000D02*
X147830000Y-66200000D01*
X85263200Y-63436800D02*
X85263200Y-67014599D01*
X147830000Y-66200000D02*
X151505000Y-69875000D01*
X86200000Y-62500000D02*
X85263200Y-63436800D01*
X96835000Y-68690000D02*
X96835000Y-67935000D01*
X91400000Y-62500000D02*
X86200000Y-62500000D01*
X100310000Y-66800000D02*
X102335000Y-68825000D01*
X96835000Y-68365000D02*
X98400000Y-66800000D01*
X96835000Y-67935000D02*
X91400000Y-62500000D01*
X98400000Y-66800000D02*
X100310000Y-66800000D01*
X151505000Y-69875000D02*
X156145000Y-69875000D01*
%TO.N,/OL_DET_SIG*%
X154915000Y-53900000D02*
X154995000Y-53980000D01*
X153200000Y-53900000D02*
X154915000Y-53900000D01*
%TO.N,/IN_R_CH2*%
X138810000Y-80890000D02*
X138810000Y-80315000D01*
X137332100Y-82726002D02*
X137332100Y-81698553D01*
X137730653Y-81300000D02*
X138400000Y-81300000D01*
X137332100Y-81698553D02*
X137730653Y-81300000D01*
X138400000Y-81300000D02*
X138810000Y-80890000D01*
%TO.N,/DEN_R_CH2*%
X136682099Y-82726002D02*
X136682099Y-80566233D01*
X136682099Y-80566233D02*
X136933332Y-80315000D01*
%TO.N,/IS_R_CH2*%
X136032100Y-81290434D02*
X135056666Y-80315000D01*
X133180000Y-80315000D02*
X135056666Y-80315000D01*
X136032100Y-82726002D02*
X136032100Y-81290434D01*
%TO.N,/VBATTIN*%
X160135000Y-66065000D02*
X161095000Y-66065000D01*
X155400000Y-75700000D02*
X158100000Y-73000000D01*
X155400000Y-76500000D02*
X155400000Y-75700000D01*
X158100000Y-73000000D02*
X160700000Y-73000000D01*
X160700000Y-71900000D02*
X158800000Y-71900000D01*
X158800000Y-71900000D02*
X158800000Y-67400000D01*
X158800000Y-67400000D02*
X160135000Y-66065000D01*
X161100000Y-72600000D02*
X161100000Y-72300000D01*
X160700000Y-73000000D02*
X161100000Y-72600000D01*
X161100000Y-72300000D02*
X160700000Y-71900000D01*
%TO.N,/TEMP_IN*%
X127600000Y-81600000D02*
X127600000Y-78900000D01*
X121315000Y-73215000D02*
X120305000Y-73215000D01*
X116750000Y-72200000D02*
X116375000Y-71825000D01*
X116375000Y-67425000D02*
X116400000Y-67400000D01*
X111155000Y-55955000D02*
X115035000Y-52075001D01*
X100420000Y-84362500D02*
X98800000Y-82742500D01*
X130000000Y-84592500D02*
X130000000Y-84000000D01*
X115035000Y-52075001D02*
X115035000Y-51045000D01*
X130000000Y-84000000D02*
X127600000Y-81600000D01*
X119290000Y-72200000D02*
X116750000Y-72200000D01*
X127600000Y-78900000D02*
X125800000Y-77100000D01*
X103600000Y-63510001D02*
X111155000Y-55955000D01*
X120305000Y-73215000D02*
X119290000Y-72200000D01*
X125800000Y-77100000D02*
X125200000Y-77100000D01*
X112400000Y-63400000D02*
X111500000Y-63400000D01*
X110500000Y-56610000D02*
X111155000Y-55955000D01*
X116400000Y-67400000D02*
X112400000Y-63400000D01*
X111500000Y-63400000D02*
X110500000Y-62400000D01*
X125200000Y-77100000D02*
X121315000Y-73215000D01*
X110500000Y-62400000D02*
X110500000Y-56610000D01*
X98800000Y-76560000D02*
X103600000Y-71760000D01*
X116375000Y-71825000D02*
X116375000Y-67425000D01*
X103600000Y-71760000D02*
X103600000Y-63510001D01*
X98800000Y-82742500D02*
X98800000Y-76560000D01*
%TD*%
%TA.AperFunction,Conductor*%
%TO.N,VBATT*%
G36*
X116815931Y-83620002D02*
G01*
X116836905Y-83636905D01*
X116963095Y-83763095D01*
X116997121Y-83825407D01*
X117000000Y-83852190D01*
X117000000Y-86947810D01*
X116979998Y-87015931D01*
X116963095Y-87036905D01*
X116836905Y-87163095D01*
X116774593Y-87197121D01*
X116747810Y-87200000D01*
X112626000Y-87200000D01*
X112557879Y-87179998D01*
X112511386Y-87126342D01*
X112500000Y-87074000D01*
X112500000Y-83726000D01*
X112520002Y-83657879D01*
X112573658Y-83611386D01*
X112626000Y-83600000D01*
X116747810Y-83600000D01*
X116815931Y-83620002D01*
G37*
%TD.AperFunction*%
%TD*%
%TA.AperFunction,Conductor*%
%TO.N,GND*%
G36*
X160912235Y-51002447D02*
G01*
X162348823Y-51289765D01*
X162411698Y-51322738D01*
X162428950Y-51343426D01*
X162578838Y-51568257D01*
X162600000Y-51638149D01*
X162600000Y-54237000D01*
X162579998Y-54305121D01*
X162549600Y-54337800D01*
X162233600Y-54574800D01*
X162167102Y-54599671D01*
X162158000Y-54600000D01*
X160152190Y-54600000D01*
X160084069Y-54579998D01*
X160063095Y-54563095D01*
X159936905Y-54436905D01*
X159902879Y-54374593D01*
X159900000Y-54347810D01*
X159900000Y-53652190D01*
X159920002Y-53584069D01*
X159936905Y-53563095D01*
X160100000Y-53400000D01*
X160100000Y-51229745D01*
X160113302Y-51173396D01*
X160165175Y-51069651D01*
X160213530Y-51017667D01*
X160277873Y-51000000D01*
X160887524Y-51000000D01*
X160912235Y-51002447D01*
G37*
%TD.AperFunction*%
%TD*%
%TA.AperFunction,Conductor*%
%TO.N,GND*%
G36*
X143715931Y-77720002D02*
G01*
X143736905Y-77736905D01*
X143863095Y-77863095D01*
X143897121Y-77925407D01*
X143900000Y-77952190D01*
X143900000Y-79842048D01*
X143879998Y-79910169D01*
X143856000Y-79937714D01*
X143534876Y-80212963D01*
X143200000Y-80500000D01*
X143200000Y-82847810D01*
X143179998Y-82915931D01*
X143163095Y-82936905D01*
X142936905Y-83163095D01*
X142874593Y-83197121D01*
X142847810Y-83200000D01*
X142052190Y-83200000D01*
X141984069Y-83179998D01*
X141963095Y-83163095D01*
X141736905Y-82936905D01*
X141702879Y-82874593D01*
X141700000Y-82847810D01*
X141700000Y-80100000D01*
X141689653Y-80084479D01*
X141689652Y-80084477D01*
X141521162Y-79831743D01*
X141500000Y-79761851D01*
X141500000Y-77952190D01*
X141520002Y-77884069D01*
X141536905Y-77863095D01*
X141663095Y-77736905D01*
X141725407Y-77702879D01*
X141752190Y-77700000D01*
X143647810Y-77700000D01*
X143715931Y-77720002D01*
G37*
%TD.AperFunction*%
%TD*%
%TA.AperFunction,Conductor*%
%TO.N,VBATT*%
G36*
X143015931Y-83720002D02*
G01*
X143036905Y-83736905D01*
X143163095Y-83863095D01*
X143197121Y-83925407D01*
X143200000Y-83952190D01*
X143200000Y-87047810D01*
X143179998Y-87115931D01*
X143163095Y-87136905D01*
X143036905Y-87263095D01*
X142974593Y-87297121D01*
X142947810Y-87300000D01*
X138826000Y-87300000D01*
X138757879Y-87279998D01*
X138711386Y-87226342D01*
X138700000Y-87174000D01*
X138700000Y-83826000D01*
X138720002Y-83757879D01*
X138773658Y-83711386D01*
X138826000Y-83700000D01*
X142947810Y-83700000D01*
X143015931Y-83720002D01*
G37*
%TD.AperFunction*%
%TD*%
%TA.AperFunction,Conductor*%
%TO.N,GND*%
G36*
X118890248Y-79520002D02*
G01*
X118934825Y-79569651D01*
X118986698Y-79673396D01*
X119000000Y-79729745D01*
X119000000Y-82347810D01*
X118979998Y-82415931D01*
X118963095Y-82436905D01*
X118836905Y-82563095D01*
X118774593Y-82597121D01*
X118747810Y-82600000D01*
X115452190Y-82600000D01*
X115384069Y-82579998D01*
X115363095Y-82563095D01*
X115236905Y-82436905D01*
X115202879Y-82374593D01*
X115200000Y-82347810D01*
X115200000Y-79752190D01*
X115220002Y-79684069D01*
X115236905Y-79663095D01*
X115363095Y-79536905D01*
X115425407Y-79502879D01*
X115452190Y-79500000D01*
X118822127Y-79500000D01*
X118890248Y-79520002D01*
G37*
%TD.AperFunction*%
%TD*%
M02*
