%TF.GenerationSoftware,KiCad,Pcbnew,(6.0.7)*%
%TF.CreationDate,2022-09-20T09:41:07-05:00*%
%TF.ProjectId,BTSTest,42545354-6573-4742-9e6b-696361645f70,rev?*%
%TF.SameCoordinates,Original*%
%TF.FileFunction,Soldermask,Bot*%
%TF.FilePolarity,Negative*%
%FSLAX46Y46*%
G04 Gerber Fmt 4.6, Leading zero omitted, Abs format (unit mm)*
G04 Created by KiCad (PCBNEW (6.0.7)) date 2022-09-20 09:41:07*
%MOMM*%
%LPD*%
G01*
G04 APERTURE LIST*
G04 Aperture macros list*
%AMRotRect*
0 Rectangle, with rotation*
0 The origin of the aperture is its center*
0 $1 length*
0 $2 width*
0 $3 Rotation angle, in degrees counterclockwise*
0 Add horizontal line*
21,1,$1,$2,0,0,$3*%
%AMOutline5P*
0 Free polygon, 5 corners , with rotation*
0 The origin of the aperture is its center*
0 number of corners: always 5*
0 $1 to $10 corner X, Y*
0 $11 Rotation angle, in degrees counterclockwise*
0 create outline with 5 corners*
4,1,5,$1,$2,$3,$4,$5,$6,$7,$8,$9,$10,$1,$2,$11*%
%AMOutline6P*
0 Free polygon, 6 corners , with rotation*
0 The origin of the aperture is its center*
0 number of corners: always 6*
0 $1 to $12 corner X, Y*
0 $13 Rotation angle, in degrees counterclockwise*
0 create outline with 6 corners*
4,1,6,$1,$2,$3,$4,$5,$6,$7,$8,$9,$10,$11,$12,$1,$2,$13*%
%AMOutline7P*
0 Free polygon, 7 corners , with rotation*
0 The origin of the aperture is its center*
0 number of corners: always 7*
0 $1 to $14 corner X, Y*
0 $15 Rotation angle, in degrees counterclockwise*
0 create outline with 7 corners*
4,1,7,$1,$2,$3,$4,$5,$6,$7,$8,$9,$10,$11,$12,$13,$14,$1,$2,$15*%
%AMOutline8P*
0 Free polygon, 8 corners , with rotation*
0 The origin of the aperture is its center*
0 number of corners: always 8*
0 $1 to $16 corner X, Y*
0 $17 Rotation angle, in degrees counterclockwise*
0 create outline with 8 corners*
4,1,8,$1,$2,$3,$4,$5,$6,$7,$8,$9,$10,$11,$12,$13,$14,$15,$16,$1,$2,$17*%
G04 Aperture macros list end*
%ADD10C,0.200000*%
%ADD11C,4.700000*%
%ADD12C,8.600000*%
%ADD13R,0.750000X0.750000*%
%ADD14Outline6P,-2.540000X1.200000X-1.740000X2.000000X2.540000X2.000000X2.540000X-2.000000X-1.740000X-2.000000X-2.540000X-1.200000X90.000000*%
%ADD15Outline6P,-2.540000X2.000000X1.740000X2.000000X2.540000X1.200000X2.540000X-1.200000X1.740000X-2.000000X-2.540000X-2.000000X90.000000*%
%ADD16Outline6P,-2.540000X1.200000X-1.740000X2.000000X2.540000X2.000000X2.540000X-2.000000X-1.740000X-2.000000X-2.540000X-1.200000X0.000000*%
%ADD17Outline6P,-2.540000X2.000000X1.740000X2.000000X2.540000X1.200000X2.540000X-1.200000X1.740000X-2.000000X-2.540000X-2.000000X0.000000*%
%ADD18O,1.800000X1.800000*%
%ADD19O,1.500000X1.500000*%
%ADD20O,1.700000X1.700000*%
%ADD21R,1.700000X1.700000*%
%ADD22RotRect,7.810000X5.870000X105.000000*%
G04 APERTURE END LIST*
D10*
G36*
X172991077Y-75207442D02*
G01*
X172991077Y-83907442D01*
X172091077Y-84807442D01*
X169691077Y-84807442D01*
X164291077Y-83707442D01*
X163691077Y-83807442D01*
X161591077Y-76007442D01*
X169291077Y-74307442D01*
X172091077Y-74307442D01*
X172991077Y-75207442D01*
G37*
X172991077Y-75207442D02*
X172991077Y-83907442D01*
X172091077Y-84807442D01*
X169691077Y-84807442D01*
X164291077Y-83707442D01*
X163691077Y-83807442D01*
X161591077Y-76007442D01*
X169291077Y-74307442D01*
X172091077Y-74307442D01*
X172991077Y-75207442D01*
G36*
X148995022Y-87697130D02*
G01*
X138895022Y-87097130D01*
X103395022Y-87097130D01*
X103395022Y-83697130D01*
X138895022Y-83697130D01*
X146795022Y-80297130D01*
X148995022Y-87697130D01*
G37*
X148995022Y-87697130D02*
X138895022Y-87097130D01*
X103395022Y-87097130D01*
X103395022Y-83697130D01*
X138895022Y-83697130D01*
X146795022Y-80297130D01*
X148995022Y-87697130D01*
D11*
%TO.C,H1*%
X176000000Y-48000000D03*
D12*
X176000000Y-48000000D03*
%TD*%
D11*
%TO.C,H3*%
X175850000Y-96000000D03*
D12*
X175850000Y-96000000D03*
%TD*%
%TO.C,H4*%
X87850000Y-95850000D03*
D11*
X87850000Y-95850000D03*
%TD*%
D13*
%TO.C,U1*%
X105865200Y-84047350D03*
X109465200Y-84047350D03*
X108565200Y-86747350D03*
X111265200Y-86747350D03*
X106765200Y-84947350D03*
X105865200Y-85847350D03*
X107665200Y-85847350D03*
X112165200Y-86747350D03*
X112165200Y-85847350D03*
X104065200Y-85847350D03*
X111265200Y-84047350D03*
X111265200Y-85847350D03*
X104965200Y-84947350D03*
X109465200Y-84947350D03*
X105865200Y-84947350D03*
X109465200Y-85847350D03*
X105865200Y-86747350D03*
X104065200Y-84947350D03*
X112165200Y-84947350D03*
X108565200Y-85847350D03*
X111265200Y-84947350D03*
X110365200Y-86747350D03*
X104065200Y-84047350D03*
X107665200Y-84947350D03*
X112165200Y-84047350D03*
X106765200Y-84047350D03*
X104965200Y-86747350D03*
X104965200Y-84047350D03*
X106765200Y-86747350D03*
X108565200Y-84047350D03*
X110365200Y-84947350D03*
X110365200Y-85847350D03*
X106765200Y-85847350D03*
X107665200Y-84047350D03*
X107665200Y-86747350D03*
X104065200Y-86747350D03*
X110365200Y-84047350D03*
X109465200Y-86747350D03*
X104965200Y-85847350D03*
X108565200Y-84947350D03*
%TD*%
D14*
%TO.C,U4*%
X170825000Y-82195000D03*
D15*
X170825000Y-77120000D03*
%TD*%
D13*
%TO.C,U5*%
X136532100Y-84097350D03*
X137432100Y-85897350D03*
X138332100Y-84997350D03*
X137432100Y-84997350D03*
X138332100Y-86797350D03*
X133832100Y-84997350D03*
X138332100Y-84097350D03*
X137432100Y-84097350D03*
X135632100Y-84997350D03*
X136532100Y-84997350D03*
X133832100Y-86797350D03*
X134732100Y-84097350D03*
X134732100Y-84997350D03*
X136532100Y-86797350D03*
X134732100Y-86797350D03*
X135632100Y-85897350D03*
X135632100Y-86797350D03*
X133832100Y-85897350D03*
X133832100Y-84097350D03*
X138332100Y-85897350D03*
X135632100Y-84097350D03*
X134732100Y-85897350D03*
X137432100Y-86797350D03*
X136532100Y-85897350D03*
%TD*%
D11*
%TO.C,H2*%
X88000000Y-47850000D03*
D12*
X88000000Y-47850000D03*
%TD*%
D15*
%TO.C,H5*%
X88500000Y-75875000D03*
D14*
X88500000Y-80950000D03*
%TD*%
D16*
%TO.C,J2*%
X133295000Y-93805000D03*
D17*
X138370000Y-93805000D03*
%TD*%
D16*
%TO.C,J1*%
X105745000Y-93825000D03*
D17*
X110820000Y-93825000D03*
%TD*%
D18*
%TO.C,U2*%
X99925000Y-62660000D03*
D19*
X102955000Y-62360000D03*
D18*
X99925000Y-57210000D03*
D19*
X102955000Y-57510000D03*
D20*
X99795000Y-68825000D03*
X102335000Y-68825000D03*
D21*
X104875000Y-68825000D03*
D20*
X107415000Y-68825000D03*
X109955000Y-68825000D03*
X112495000Y-68825000D03*
X115035000Y-68825000D03*
D21*
X117575000Y-68825000D03*
D20*
X120115000Y-68825000D03*
X122655000Y-68825000D03*
X125195000Y-68825000D03*
X127735000Y-68825000D03*
D21*
X130275000Y-68825000D03*
D20*
X132815000Y-68825000D03*
X135355000Y-68825000D03*
X137895000Y-68825000D03*
X140435000Y-68825000D03*
D21*
X142975000Y-68825000D03*
D20*
X145515000Y-68825000D03*
X148055000Y-68825000D03*
X148055000Y-51045000D03*
X145515000Y-51045000D03*
D21*
X142975000Y-51045000D03*
D20*
X140435000Y-51045000D03*
X137895000Y-51045000D03*
X135355000Y-51045000D03*
X132815000Y-51045000D03*
D21*
X130275000Y-51045000D03*
D20*
X127735000Y-51045000D03*
X125195000Y-51045000D03*
X122655000Y-51045000D03*
X120115000Y-51045000D03*
D21*
X117575000Y-51045000D03*
D20*
X115035000Y-51045000D03*
X112495000Y-51045000D03*
X109955000Y-51045000D03*
X107415000Y-51045000D03*
D21*
X104875000Y-51045000D03*
D20*
X102335000Y-51045000D03*
X99795000Y-51045000D03*
X147825000Y-62475000D03*
D21*
X147825000Y-59935000D03*
D20*
X147825000Y-57395000D03*
%TD*%
D22*
%TO.C,R25*%
X160403837Y-80681906D03*
X150416163Y-83358094D03*
%TD*%
M02*
