%TF.GenerationSoftware,KiCad,Pcbnew,(6.0.7)*%
%TF.CreationDate,2022-09-20T09:41:07-05:00*%
%TF.ProjectId,BTSTest,42545354-6573-4742-9e6b-696361645f70,rev?*%
%TF.SameCoordinates,Original*%
%TF.FileFunction,Copper,L2,Bot*%
%TF.FilePolarity,Positive*%
%FSLAX46Y46*%
G04 Gerber Fmt 4.6, Leading zero omitted, Abs format (unit mm)*
G04 Created by KiCad (PCBNEW (6.0.7)) date 2022-09-20 09:41:07*
%MOMM*%
%LPD*%
G01*
G04 APERTURE LIST*
G04 Aperture macros list*
%AMRotRect*
0 Rectangle, with rotation*
0 The origin of the aperture is its center*
0 $1 length*
0 $2 width*
0 $3 Rotation angle, in degrees counterclockwise*
0 Add horizontal line*
21,1,$1,$2,0,0,$3*%
%AMOutline5P*
0 Free polygon, 5 corners , with rotation*
0 The origin of the aperture is its center*
0 number of corners: always 5*
0 $1 to $10 corner X, Y*
0 $11 Rotation angle, in degrees counterclockwise*
0 create outline with 5 corners*
4,1,5,$1,$2,$3,$4,$5,$6,$7,$8,$9,$10,$1,$2,$11*%
%AMOutline6P*
0 Free polygon, 6 corners , with rotation*
0 The origin of the aperture is its center*
0 number of corners: always 6*
0 $1 to $12 corner X, Y*
0 $13 Rotation angle, in degrees counterclockwise*
0 create outline with 6 corners*
4,1,6,$1,$2,$3,$4,$5,$6,$7,$8,$9,$10,$11,$12,$1,$2,$13*%
%AMOutline7P*
0 Free polygon, 7 corners , with rotation*
0 The origin of the aperture is its center*
0 number of corners: always 7*
0 $1 to $14 corner X, Y*
0 $15 Rotation angle, in degrees counterclockwise*
0 create outline with 7 corners*
4,1,7,$1,$2,$3,$4,$5,$6,$7,$8,$9,$10,$11,$12,$13,$14,$1,$2,$15*%
%AMOutline8P*
0 Free polygon, 8 corners , with rotation*
0 The origin of the aperture is its center*
0 number of corners: always 8*
0 $1 to $16 corner X, Y*
0 $17 Rotation angle, in degrees counterclockwise*
0 create outline with 8 corners*
4,1,8,$1,$2,$3,$4,$5,$6,$7,$8,$9,$10,$11,$12,$13,$14,$15,$16,$1,$2,$17*%
G04 Aperture macros list end*
%TA.AperFunction,NonConductor*%
%ADD10C,0.200000*%
%TD*%
%TA.AperFunction,ComponentPad*%
%ADD11C,4.700000*%
%TD*%
%TA.AperFunction,ConnectorPad*%
%ADD12C,8.600000*%
%TD*%
%TA.AperFunction,ComponentPad*%
%ADD13R,0.750000X0.750000*%
%TD*%
%TA.AperFunction,ComponentPad*%
%ADD14Outline6P,-2.540000X1.200000X-1.740000X2.000000X2.540000X2.000000X2.540000X-2.000000X-1.740000X-2.000000X-2.540000X-1.200000X90.000000*%
%TD*%
%TA.AperFunction,ComponentPad*%
%ADD15Outline6P,-2.540000X2.000000X1.740000X2.000000X2.540000X1.200000X2.540000X-1.200000X1.740000X-2.000000X-2.540000X-2.000000X90.000000*%
%TD*%
%TA.AperFunction,ComponentPad*%
%ADD16Outline6P,-2.540000X1.200000X-1.740000X2.000000X2.540000X2.000000X2.540000X-2.000000X-1.740000X-2.000000X-2.540000X-1.200000X0.000000*%
%TD*%
%TA.AperFunction,ComponentPad*%
%ADD17Outline6P,-2.540000X2.000000X1.740000X2.000000X2.540000X1.200000X2.540000X-1.200000X1.740000X-2.000000X-2.540000X-2.000000X0.000000*%
%TD*%
%TA.AperFunction,ComponentPad*%
%ADD18O,1.700000X1.700000*%
%TD*%
%TA.AperFunction,ComponentPad*%
%ADD19R,1.700000X1.700000*%
%TD*%
%TA.AperFunction,SMDPad,CuDef*%
%ADD20RotRect,7.810000X5.870000X105.000000*%
%TD*%
%TA.AperFunction,ViaPad*%
%ADD21C,0.800000*%
%TD*%
%TA.AperFunction,ViaPad*%
%ADD22C,0.700000*%
%TD*%
%TA.AperFunction,Conductor*%
%ADD23C,0.300000*%
%TD*%
%TA.AperFunction,Conductor*%
%ADD24C,0.500000*%
%TD*%
G04 APERTURE END LIST*
D10*
G36*
X173000000Y-75200000D02*
G01*
X173000000Y-83900000D01*
X172100000Y-84800000D01*
X169700000Y-84800000D01*
X164300000Y-83700000D01*
X163700000Y-83800000D01*
X161600000Y-76000000D01*
X169300000Y-74300000D01*
X172100000Y-74300000D01*
X173000000Y-75200000D01*
G37*
X173000000Y-75200000D02*
X173000000Y-83900000D01*
X172100000Y-84800000D01*
X169700000Y-84800000D01*
X164300000Y-83700000D01*
X163700000Y-83800000D01*
X161600000Y-76000000D01*
X169300000Y-74300000D01*
X172100000Y-74300000D01*
X173000000Y-75200000D01*
G36*
X149000000Y-87700000D02*
G01*
X138900000Y-87100000D01*
X103400000Y-87100000D01*
X103400000Y-83700000D01*
X138900000Y-83700000D01*
X146800000Y-80300000D01*
X149000000Y-87700000D01*
G37*
X149000000Y-87700000D02*
X138900000Y-87100000D01*
X103400000Y-87100000D01*
X103400000Y-83700000D01*
X138900000Y-83700000D01*
X146800000Y-80300000D01*
X149000000Y-87700000D01*
D11*
%TO.P,H1,1,1*%
%TO.N,GND*%
X176000000Y-48000000D03*
D12*
X176000000Y-48000000D03*
%TD*%
D11*
%TO.P,H3,1,1*%
%TO.N,GND*%
X175850000Y-96000000D03*
D12*
X175850000Y-96000000D03*
%TD*%
%TO.P,H4,1,1*%
%TO.N,GND*%
X87850000Y-95850000D03*
D11*
X87850000Y-95850000D03*
%TD*%
D13*
%TO.P,U1,EPAD,VS*%
%TO.N,VBATT*%
X105865200Y-84047350D03*
X109465200Y-84047350D03*
X108565200Y-86747350D03*
X111265200Y-86747350D03*
X106765200Y-84947350D03*
X105865200Y-85847350D03*
X107665200Y-85847350D03*
X112165200Y-86747350D03*
X112165200Y-85847350D03*
X104065200Y-85847350D03*
X111265200Y-84047350D03*
X111265200Y-85847350D03*
X104965200Y-84947350D03*
X109465200Y-84947350D03*
X105865200Y-84947350D03*
X109465200Y-85847350D03*
X105865200Y-86747350D03*
X104065200Y-84947350D03*
X112165200Y-84947350D03*
X108565200Y-85847350D03*
X111265200Y-84947350D03*
X110365200Y-86747350D03*
X104065200Y-84047350D03*
X107665200Y-84947350D03*
X112165200Y-84047350D03*
X106765200Y-84047350D03*
X104965200Y-86747350D03*
X104965200Y-84047350D03*
X106765200Y-86747350D03*
X108565200Y-84047350D03*
X110365200Y-84947350D03*
X110365200Y-85847350D03*
X106765200Y-85847350D03*
X107665200Y-84047350D03*
X107665200Y-86747350D03*
X104065200Y-86747350D03*
X110365200Y-84047350D03*
X109465200Y-86747350D03*
X104965200Y-85847350D03*
X108565200Y-84947350D03*
%TD*%
D14*
%TO.P,U4,1,VBATTIN*%
%TO.N,/VBATTIN*%
X170825000Y-82195000D03*
D15*
X170825000Y-77120000D03*
%TD*%
D13*
%TO.P,U5,EPAD,VS*%
%TO.N,VBATT*%
X136532100Y-84097350D03*
X137432100Y-85897350D03*
X138332100Y-84997350D03*
X137432100Y-84997350D03*
X138332100Y-86797350D03*
X133832100Y-84997350D03*
X138332100Y-84097350D03*
X137432100Y-84097350D03*
X135632100Y-84997350D03*
X136532100Y-84997350D03*
X133832100Y-86797350D03*
X134732100Y-84097350D03*
X134732100Y-84997350D03*
X136532100Y-86797350D03*
X134732100Y-86797350D03*
X135632100Y-85897350D03*
X135632100Y-86797350D03*
X133832100Y-85897350D03*
X133832100Y-84097350D03*
X138332100Y-85897350D03*
X135632100Y-84097350D03*
X134732100Y-85897350D03*
X137432100Y-86797350D03*
X136532100Y-85897350D03*
%TD*%
D11*
%TO.P,H2,1,1*%
%TO.N,GND*%
X88000000Y-47850000D03*
D12*
X88000000Y-47850000D03*
%TD*%
D15*
%TO.P,H5,1,1*%
%TO.N,GND*%
X88500000Y-75875000D03*
D14*
X88500000Y-80950000D03*
%TD*%
D16*
%TO.P,J2,1,Pin_1*%
%TO.N,/OUT_CH2*%
X133295000Y-93805000D03*
D17*
X138370000Y-93805000D03*
%TD*%
D16*
%TO.P,J1,1,Pin_1*%
%TO.N,/OUT_CH1*%
X105745000Y-93825000D03*
D17*
X110820000Y-93825000D03*
%TD*%
D18*
%TO.P,U2,1,GPIO0*%
%TO.N,I2C_SDA*%
X99795000Y-68825000D03*
%TO.P,U2,2,GPIO1*%
%TO.N,I2C_SCL*%
X102335000Y-68825000D03*
D19*
%TO.P,U2,3,GND*%
%TO.N,GND*%
X104875000Y-68825000D03*
D18*
%TO.P,U2,4,GPIO2*%
%TO.N,/TEMP_SIG_CH1*%
X107415000Y-68825000D03*
%TO.P,U2,5,GPIO3*%
%TO.N,/DEN_CH1*%
X109955000Y-68825000D03*
%TO.P,U2,6,GPIO4*%
%TO.N,/IN_CH1*%
X112495000Y-68825000D03*
%TO.P,U2,7,GPIO5*%
%TO.N,/LED_ST_CH1*%
X115035000Y-68825000D03*
D19*
%TO.P,U2,8,GND*%
%TO.N,GND*%
X117575000Y-68825000D03*
D18*
%TO.P,U2,9,GPIO6*%
%TO.N,unconnected-(U2-Pad9)*%
X120115000Y-68825000D03*
%TO.P,U2,10,GPIO7*%
%TO.N,unconnected-(U2-Pad10)*%
X122655000Y-68825000D03*
%TO.P,U2,11,GPIO8*%
%TO.N,unconnected-(U2-Pad11)*%
X125195000Y-68825000D03*
%TO.P,U2,12,GPIO9*%
%TO.N,unconnected-(U2-Pad12)*%
X127735000Y-68825000D03*
D19*
%TO.P,U2,13,GND*%
%TO.N,GND*%
X130275000Y-68825000D03*
D18*
%TO.P,U2,14,GPIO10*%
%TO.N,/TEMP_SIG_CH2*%
X132815000Y-68825000D03*
%TO.P,U2,15,GPIO11*%
%TO.N,/DEN_CH2*%
X135355000Y-68825000D03*
%TO.P,U2,16,GPIO12*%
%TO.N,/IN_CH2*%
X137895000Y-68825000D03*
%TO.P,U2,17,GPIO13*%
%TO.N,/LED_ST_CH2*%
X140435000Y-68825000D03*
D19*
%TO.P,U2,18,GND*%
%TO.N,GND*%
X142975000Y-68825000D03*
D18*
%TO.P,U2,19,GPIO14*%
%TO.N,unconnected-(U2-Pad19)*%
X145515000Y-68825000D03*
%TO.P,U2,20,GPIO15*%
%TO.N,unconnected-(U2-Pad20)*%
X148055000Y-68825000D03*
%TO.P,U2,21,GPIO16*%
%TO.N,unconnected-(U2-Pad21)*%
X148055000Y-51045000D03*
%TO.P,U2,22,GPIO17*%
%TO.N,unconnected-(U2-Pad22)*%
X145515000Y-51045000D03*
D19*
%TO.P,U2,23,GND*%
%TO.N,GND*%
X142975000Y-51045000D03*
D18*
%TO.P,U2,24,GPIO18*%
%TO.N,unconnected-(U2-Pad24)*%
X140435000Y-51045000D03*
%TO.P,U2,25,GPIO19*%
%TO.N,unconnected-(U2-Pad25)*%
X137895000Y-51045000D03*
%TO.P,U2,26,GPIO20*%
%TO.N,unconnected-(U2-Pad26)*%
X135355000Y-51045000D03*
%TO.P,U2,27,GPIO21*%
%TO.N,unconnected-(U2-Pad27)*%
X132815000Y-51045000D03*
D19*
%TO.P,U2,28,GND*%
%TO.N,GND*%
X130275000Y-51045000D03*
D18*
%TO.P,U2,29,GPIO22*%
%TO.N,/OL_DET_SIG*%
X127735000Y-51045000D03*
%TO.P,U2,30,RUN*%
%TO.N,unconnected-(U2-Pad30)*%
X125195000Y-51045000D03*
%TO.P,U2,31,GPIO26_ADC0*%
%TO.N,/IS_CH2*%
X122655000Y-51045000D03*
%TO.P,U2,32,GPIO27_ADC1*%
%TO.N,/IS_CH1*%
X120115000Y-51045000D03*
D19*
%TO.P,U2,33,AGND*%
%TO.N,GND*%
X117575000Y-51045000D03*
D18*
%TO.P,U2,34,GPIO28_ADC2*%
%TO.N,/TEMP_IN*%
X115035000Y-51045000D03*
%TO.P,U2,35,ADC_VREF*%
%TO.N,unconnected-(U2-Pad35)*%
X112495000Y-51045000D03*
%TO.P,U2,36,3V3*%
%TO.N,+3V3*%
X109955000Y-51045000D03*
%TO.P,U2,37,3V3_EN*%
%TO.N,unconnected-(U2-Pad37)*%
X107415000Y-51045000D03*
D19*
%TO.P,U2,38,GND*%
%TO.N,GND*%
X104875000Y-51045000D03*
D18*
%TO.P,U2,39,VSYS*%
%TO.N,unconnected-(U2-Pad39)*%
X102335000Y-51045000D03*
%TO.P,U2,40,VBUS*%
%TO.N,unconnected-(U2-Pad40)*%
X99795000Y-51045000D03*
%TO.P,U2,41,SWCLK*%
%TO.N,unconnected-(U2-Pad41)*%
X147825000Y-62475000D03*
D19*
%TO.P,U2,42,GND*%
%TO.N,GND*%
X147825000Y-59935000D03*
D18*
%TO.P,U2,43,SWDIO*%
%TO.N,unconnected-(U2-Pad43)*%
X147825000Y-57395000D03*
%TD*%
D20*
%TO.P,R25,1*%
%TO.N,/VBATTIN*%
X160403837Y-80681906D03*
%TO.P,R25,2*%
%TO.N,VBATT*%
X150416163Y-83358094D03*
%TD*%
D21*
%TO.N,GND*%
X132100000Y-79400000D03*
X117300000Y-81000000D03*
X100400000Y-81000000D03*
X162995000Y-68605000D03*
X117300000Y-82100000D03*
X162000000Y-54000000D03*
X118400000Y-81000000D03*
X99500000Y-92400000D03*
X130400000Y-88100000D03*
X99000000Y-84700000D03*
X154000000Y-88700000D03*
X102300000Y-87800000D03*
X99000000Y-86700000D03*
X112800000Y-44800000D03*
X89400000Y-68000000D03*
X118400000Y-80000000D03*
X100600000Y-92400000D03*
X117300000Y-80000000D03*
X104800000Y-78200000D03*
X118400000Y-82100000D03*
X100000000Y-87800000D03*
X132400000Y-88100000D03*
X162000000Y-53000000D03*
X128900000Y-81700000D03*
X142000000Y-78200000D03*
X142100000Y-79400000D03*
X103400000Y-88200000D03*
X114500000Y-88600000D03*
X129300000Y-88100000D03*
X130100000Y-44800000D03*
X162000000Y-52000000D03*
X131400000Y-88100000D03*
X143300000Y-79700000D03*
X101100000Y-87800000D03*
X128200000Y-92700000D03*
X143200000Y-78400000D03*
X99000000Y-85700000D03*
X149300000Y-89300000D03*
X103000000Y-81000000D03*
X154000000Y-66600000D03*
X144300000Y-89200000D03*
X113500000Y-88600000D03*
%TO.N,VBATT*%
X114500000Y-85400000D03*
X113500000Y-86400000D03*
X113500000Y-85400000D03*
X128500000Y-84900000D03*
X141693846Y-86493728D03*
X128500000Y-86900000D03*
X128500000Y-83900000D03*
X142700000Y-85500000D03*
X115493846Y-86393728D03*
D22*
X153000000Y-77100000D03*
D21*
X141700000Y-85500000D03*
X139700000Y-86500000D03*
X115500000Y-85400000D03*
X128500000Y-85900000D03*
X116500000Y-86400000D03*
D22*
X152500000Y-68400000D03*
D21*
X139700000Y-85500000D03*
X142700000Y-86500000D03*
X116500000Y-85400000D03*
X114500000Y-86400000D03*
X140700000Y-85500000D03*
X140700000Y-86500000D03*
D22*
%TO.N,+3V3*%
X92775000Y-66425000D03*
X94250000Y-67350000D03*
X113400000Y-58300000D03*
%TO.N,/TEMP_SIG_CH2*%
X131400000Y-78100000D03*
%TO.N,/IN_CH1*%
X112915000Y-78385000D03*
%TO.N,/IS_T_CH1*%
X106600000Y-73900000D03*
X120400000Y-44800000D03*
%TO.N,/OL_DET*%
X97000000Y-82500000D03*
X154300000Y-52400000D03*
X125600000Y-80200000D03*
X119900000Y-75600000D03*
%TO.N,/IN_CH2*%
X139787500Y-77687500D03*
%TO.N,/IS_T_CH2*%
X122300000Y-44800000D03*
X127000000Y-77000000D03*
%TO.N,I2C_SDA*%
X116400000Y-64900000D03*
%TO.N,I2C_SCL*%
X117400000Y-66200000D03*
%TO.N,/OL_DET_SIG*%
X153200000Y-53900000D03*
%TO.N,/VBATTIN*%
X155400000Y-76500000D03*
%TD*%
D23*
%TO.N,VBATT*%
X150416163Y-79683837D02*
X150416163Y-83358094D01*
X150416163Y-70483837D02*
X150416163Y-83358094D01*
X153000000Y-77100000D02*
X150416163Y-79683837D01*
X152500000Y-68400000D02*
X150416163Y-70483837D01*
D24*
%TO.N,+3V3*%
X93700000Y-66800000D02*
X93700000Y-59300000D01*
X97900000Y-55100000D02*
X107400000Y-55100000D01*
X94250000Y-67350000D02*
X93700000Y-66800000D01*
X107400000Y-55100000D02*
X109955000Y-52545000D01*
X109955000Y-51045000D02*
X109955000Y-54855000D01*
X109955000Y-54855000D02*
X113400000Y-58300000D01*
X93700000Y-59300000D02*
X97900000Y-55100000D01*
X92775000Y-66425000D02*
X93325000Y-66425000D01*
X109955000Y-52545000D02*
X109955000Y-51045000D01*
X93325000Y-66425000D02*
X94250000Y-67350000D01*
D23*
%TO.N,/TEMP_SIG_CH2*%
X131400000Y-73900000D02*
X132815000Y-72485000D01*
X131400000Y-78100000D02*
X131400000Y-73900000D01*
X132815000Y-72485000D02*
X132815000Y-68825000D01*
%TO.N,/IN_CH1*%
X112495000Y-77965000D02*
X112495000Y-68825000D01*
X112915000Y-78385000D02*
X112495000Y-77965000D01*
%TO.N,/IS_T_CH1*%
X118775000Y-65225000D02*
X116344780Y-62794780D01*
X118775000Y-73925000D02*
X118775000Y-65225000D01*
X112300000Y-79600000D02*
X113100000Y-79600000D01*
X116344780Y-48855220D02*
X120400000Y-44800000D01*
X106600000Y-73900000D02*
X112300000Y-79600000D01*
X116344780Y-62794780D02*
X116344780Y-48855220D01*
X113100000Y-79600000D02*
X118775000Y-73925000D01*
%TO.N,/OL_DET*%
X111500000Y-82500000D02*
X97000000Y-82500000D01*
X154300000Y-64839339D02*
X154300000Y-52400000D01*
X114900000Y-79100000D02*
X118400000Y-75600000D01*
X138239339Y-80900000D02*
X154300000Y-64839339D01*
X114900000Y-79100000D02*
X111500000Y-82500000D01*
X118400000Y-75600000D02*
X119900000Y-75600000D01*
X126300000Y-80900000D02*
X138239339Y-80900000D01*
X125600000Y-80200000D02*
X126300000Y-80900000D01*
%TO.N,/IN_CH2*%
X139787500Y-77687500D02*
X137895000Y-75795000D01*
X137895000Y-75795000D02*
X137895000Y-68825000D01*
%TO.N,/IS_T_CH2*%
X122300000Y-44800000D02*
X123855000Y-46355000D01*
X123855000Y-54855000D02*
X124400000Y-55400000D01*
X126535000Y-57535000D02*
X126535000Y-76535000D01*
X124400000Y-55400000D02*
X126535000Y-57535000D01*
X123855000Y-46355000D02*
X123855000Y-54855000D01*
X126535000Y-76535000D02*
X127000000Y-77000000D01*
%TO.N,I2C_SDA*%
X103100000Y-65800000D02*
X115500000Y-65800000D01*
X115500000Y-65800000D02*
X116400000Y-64900000D01*
X102820000Y-65800000D02*
X103100000Y-65800000D01*
X99795000Y-68825000D02*
X102820000Y-65800000D01*
%TO.N,I2C_SCL*%
X103660000Y-67500000D02*
X109900000Y-67500000D01*
X109900000Y-67500000D02*
X116100000Y-67500000D01*
X102335000Y-68825000D02*
X103660000Y-67500000D01*
X116100000Y-67500000D02*
X117400000Y-66200000D01*
%TO.N,/OL_DET_SIG*%
X130590000Y-53900000D02*
X137900000Y-53900000D01*
X127735000Y-51045000D02*
X130590000Y-53900000D01*
X137900000Y-53900000D02*
X153200000Y-53900000D01*
%TO.N,/VBATTIN*%
X159581906Y-80681906D02*
X160403837Y-80681906D01*
X155400000Y-76500000D02*
X159581906Y-80681906D01*
%TD*%
%TA.AperFunction,Conductor*%
%TO.N,GND*%
G36*
X176980242Y-42202466D02*
G01*
X176985811Y-42202476D01*
X176999641Y-42205656D01*
X177013482Y-42202524D01*
X177027669Y-42202549D01*
X177027669Y-42202772D01*
X177035651Y-42202057D01*
X177358614Y-42216158D01*
X177412809Y-42218524D01*
X177423757Y-42219482D01*
X177827981Y-42272698D01*
X177838786Y-42274604D01*
X178236837Y-42362850D01*
X178247447Y-42365693D01*
X178636283Y-42488292D01*
X178646596Y-42492045D01*
X179023288Y-42648077D01*
X179033233Y-42652715D01*
X179394867Y-42840969D01*
X179404387Y-42846465D01*
X179748235Y-43065521D01*
X179757239Y-43071825D01*
X180080700Y-43320025D01*
X180089120Y-43327091D01*
X180389703Y-43602524D01*
X180397472Y-43610293D01*
X180672909Y-43910880D01*
X180679975Y-43919300D01*
X180928175Y-44242761D01*
X180934479Y-44251765D01*
X181153535Y-44595613D01*
X181159030Y-44605132D01*
X181339255Y-44951340D01*
X181347281Y-44966758D01*
X181351923Y-44976712D01*
X181505849Y-45348320D01*
X181507952Y-45353396D01*
X181511708Y-45363717D01*
X181520335Y-45391077D01*
X181634307Y-45752552D01*
X181637150Y-45763163D01*
X181725396Y-46161214D01*
X181727302Y-46172019D01*
X181779720Y-46570179D01*
X181780518Y-46576242D01*
X181781476Y-46587192D01*
X181797919Y-46963780D01*
X181797201Y-46971624D01*
X181797549Y-46971625D01*
X181797524Y-46985811D01*
X181794344Y-46999641D01*
X181797475Y-47013480D01*
X181797467Y-47018311D01*
X181799500Y-47036504D01*
X181799500Y-96962920D01*
X181797534Y-96980242D01*
X181797524Y-96985811D01*
X181794344Y-96999641D01*
X181797476Y-97013482D01*
X181797451Y-97027669D01*
X181797228Y-97027669D01*
X181797943Y-97035651D01*
X181781476Y-97412808D01*
X181780518Y-97423758D01*
X181727303Y-97827973D01*
X181725396Y-97838786D01*
X181637152Y-98236831D01*
X181634307Y-98247448D01*
X181511711Y-98636275D01*
X181507952Y-98646604D01*
X181351927Y-99023280D01*
X181347285Y-99033233D01*
X181159031Y-99394867D01*
X181153535Y-99404387D01*
X180934479Y-99748235D01*
X180928175Y-99757239D01*
X180679975Y-100080700D01*
X180672911Y-100089117D01*
X180574107Y-100196944D01*
X180397476Y-100389703D01*
X180389703Y-100397476D01*
X180089120Y-100672909D01*
X180080700Y-100679975D01*
X179757239Y-100928175D01*
X179748235Y-100934479D01*
X179404387Y-101153535D01*
X179394868Y-101159030D01*
X179033233Y-101347285D01*
X179023288Y-101351923D01*
X178646596Y-101507955D01*
X178636283Y-101511708D01*
X178427259Y-101577613D01*
X178247448Y-101634307D01*
X178236837Y-101637150D01*
X177838786Y-101725396D01*
X177827981Y-101727302D01*
X177423758Y-101780518D01*
X177412809Y-101781476D01*
X177036216Y-101797919D01*
X177028376Y-101797201D01*
X177028375Y-101797549D01*
X177014189Y-101797524D01*
X177000359Y-101794344D01*
X176986520Y-101797475D01*
X176981689Y-101797467D01*
X176963496Y-101799500D01*
X87037080Y-101799500D01*
X87019758Y-101797534D01*
X87014189Y-101797524D01*
X87000359Y-101794344D01*
X86986518Y-101797476D01*
X86972331Y-101797451D01*
X86972331Y-101797228D01*
X86964349Y-101797943D01*
X86641386Y-101783842D01*
X86587191Y-101781476D01*
X86576242Y-101780518D01*
X86172019Y-101727302D01*
X86161214Y-101725396D01*
X85763163Y-101637150D01*
X85752552Y-101634307D01*
X85572741Y-101577613D01*
X85363717Y-101511708D01*
X85353404Y-101507955D01*
X84976712Y-101351923D01*
X84966767Y-101347285D01*
X84605132Y-101159030D01*
X84595613Y-101153535D01*
X84251765Y-100934479D01*
X84242761Y-100928175D01*
X83919300Y-100679975D01*
X83910880Y-100672909D01*
X83610297Y-100397476D01*
X83602524Y-100389703D01*
X83425894Y-100196944D01*
X83327089Y-100089117D01*
X83320025Y-100080700D01*
X83071825Y-99757239D01*
X83065521Y-99748235D01*
X82846465Y-99404387D01*
X82840969Y-99394867D01*
X82652715Y-99033233D01*
X82648073Y-99023280D01*
X82492048Y-98646604D01*
X82488289Y-98636275D01*
X82365693Y-98247448D01*
X82362848Y-98236831D01*
X82274604Y-97838786D01*
X82272697Y-97827973D01*
X82219482Y-97423758D01*
X82218524Y-97412808D01*
X82202094Y-97036508D01*
X82204090Y-97014863D01*
X82203226Y-97014764D01*
X82204042Y-97007678D01*
X82205655Y-97000718D01*
X82205656Y-97000000D01*
X82203654Y-96991225D01*
X82200500Y-96963210D01*
X82200500Y-95044841D01*
X103004499Y-95044841D01*
X103016269Y-95103561D01*
X103049195Y-95152745D01*
X103877254Y-95980804D01*
X103882446Y-95984262D01*
X103882447Y-95984263D01*
X103916785Y-96007134D01*
X103916787Y-96007135D01*
X103927099Y-96014003D01*
X103939255Y-96016410D01*
X103979110Y-96024302D01*
X103979114Y-96024302D01*
X103985162Y-96025500D01*
X108260252Y-96025500D01*
X112573608Y-96025501D01*
X112579841Y-96025501D01*
X112638561Y-96013731D01*
X112687745Y-95980805D01*
X113515804Y-95152746D01*
X113526186Y-95137159D01*
X113542134Y-95113215D01*
X113542135Y-95113213D01*
X113549003Y-95102901D01*
X113551410Y-95090745D01*
X113559302Y-95050890D01*
X113559302Y-95050886D01*
X113560500Y-95044838D01*
X113560500Y-95024841D01*
X130554499Y-95024841D01*
X130566269Y-95083561D01*
X130599195Y-95132745D01*
X131427254Y-95960804D01*
X131432446Y-95964262D01*
X131432447Y-95964263D01*
X131466785Y-95987134D01*
X131466787Y-95987135D01*
X131477099Y-95994003D01*
X131489255Y-95996410D01*
X131529110Y-96004302D01*
X131529114Y-96004302D01*
X131535162Y-96005500D01*
X135810252Y-96005500D01*
X140123608Y-96005501D01*
X140129841Y-96005501D01*
X140188561Y-95993731D01*
X140237745Y-95960805D01*
X141065804Y-95132746D01*
X141085243Y-95103561D01*
X141092134Y-95093215D01*
X141092135Y-95093213D01*
X141099003Y-95082901D01*
X141105330Y-95050950D01*
X141109302Y-95030890D01*
X141109302Y-95030886D01*
X141110500Y-95024838D01*
X141110501Y-92585159D01*
X141098731Y-92526439D01*
X141065805Y-92477255D01*
X140237746Y-91649196D01*
X140228685Y-91643161D01*
X140198215Y-91622866D01*
X140198213Y-91622865D01*
X140187901Y-91615997D01*
X140175745Y-91613590D01*
X140135890Y-91605698D01*
X140135886Y-91605698D01*
X140129838Y-91604500D01*
X135854748Y-91604500D01*
X131541392Y-91604499D01*
X131535159Y-91604499D01*
X131476439Y-91616269D01*
X131427255Y-91649195D01*
X130599196Y-92477254D01*
X130595738Y-92482446D01*
X130595737Y-92482447D01*
X130572866Y-92516785D01*
X130572865Y-92516787D01*
X130565997Y-92527099D01*
X130563590Y-92539255D01*
X130562168Y-92546439D01*
X130554500Y-92585162D01*
X130554499Y-95024841D01*
X113560500Y-95024841D01*
X113560501Y-92605159D01*
X113548731Y-92546439D01*
X113515805Y-92497255D01*
X112687746Y-91669196D01*
X112664344Y-91653609D01*
X112648215Y-91642866D01*
X112648213Y-91642865D01*
X112637901Y-91635997D01*
X112625745Y-91633590D01*
X112585890Y-91625698D01*
X112585886Y-91625698D01*
X112579838Y-91624500D01*
X108304748Y-91624500D01*
X103991392Y-91624499D01*
X103985159Y-91624499D01*
X103926439Y-91636269D01*
X103877255Y-91669195D01*
X103049196Y-92497254D01*
X103045738Y-92502446D01*
X103045737Y-92502447D01*
X103022866Y-92536785D01*
X103022865Y-92536787D01*
X103015997Y-92547099D01*
X103013590Y-92559255D01*
X103007227Y-92591392D01*
X103004500Y-92605162D01*
X103004499Y-95044841D01*
X82200500Y-95044841D01*
X82200500Y-82500000D01*
X96444750Y-82500000D01*
X96463670Y-82643709D01*
X96519139Y-82777625D01*
X96607379Y-82892621D01*
X96722375Y-82980861D01*
X96856291Y-83036330D01*
X97000000Y-83055250D01*
X97143709Y-83036330D01*
X97277625Y-82980861D01*
X97392621Y-82892621D01*
X97396849Y-82887111D01*
X97458630Y-82853379D01*
X97485409Y-82850500D01*
X102300000Y-82850500D01*
X102300000Y-87400000D01*
X102400000Y-89300000D01*
X142200000Y-88700000D01*
X151200000Y-90000000D01*
X162000000Y-87000000D01*
X176300000Y-87500000D01*
X175800000Y-71800000D01*
X162200000Y-72700000D01*
X150766663Y-77247350D01*
X150766663Y-70681209D01*
X150786665Y-70613088D01*
X150803568Y-70592114D01*
X152404605Y-68991077D01*
X152466917Y-68957051D01*
X152492661Y-68954284D01*
X152500000Y-68955250D01*
X152643709Y-68936330D01*
X152777625Y-68880861D01*
X152892621Y-68792621D01*
X152980861Y-68677625D01*
X153036330Y-68543709D01*
X153055250Y-68400000D01*
X153036330Y-68256291D01*
X152980861Y-68122375D01*
X152892621Y-68007379D01*
X152777625Y-67919139D01*
X152643709Y-67863670D01*
X152500000Y-67844750D01*
X152356291Y-67863670D01*
X152222375Y-67919139D01*
X152107379Y-68007379D01*
X152019139Y-68122375D01*
X151963670Y-68256291D01*
X151944750Y-68400000D01*
X151945656Y-68406885D01*
X151925826Y-68474421D01*
X151908923Y-68495395D01*
X150204264Y-70200054D01*
X150189310Y-70212132D01*
X150185758Y-70215364D01*
X150177011Y-70221012D01*
X150170565Y-70229189D01*
X150158161Y-70244923D01*
X150154664Y-70248858D01*
X150154768Y-70248946D01*
X150151413Y-70252905D01*
X150147735Y-70256583D01*
X150144716Y-70260808D01*
X150144709Y-70260816D01*
X150137491Y-70270917D01*
X150133927Y-70275664D01*
X150104771Y-70312648D01*
X150101970Y-70320624D01*
X150097052Y-70327506D01*
X150083544Y-70372673D01*
X150081722Y-70378279D01*
X150068735Y-70415260D01*
X150068734Y-70415266D01*
X150066108Y-70422743D01*
X150065663Y-70427881D01*
X150065663Y-70430600D01*
X150065568Y-70432782D01*
X150065408Y-70433317D01*
X150065381Y-70433316D01*
X150065374Y-70433434D01*
X150063619Y-70439301D01*
X150064028Y-70449709D01*
X150065566Y-70488856D01*
X150065663Y-70493803D01*
X150065663Y-77526157D01*
X144600000Y-79700000D01*
X136100000Y-82100000D01*
X118500000Y-82000000D01*
X112224519Y-82271163D01*
X114295682Y-80200000D01*
X125044750Y-80200000D01*
X125063670Y-80343709D01*
X125119139Y-80477625D01*
X125207379Y-80592621D01*
X125322375Y-80680861D01*
X125456291Y-80736330D01*
X125591812Y-80754172D01*
X125600000Y-80755250D01*
X125606885Y-80754344D01*
X125674421Y-80774174D01*
X125695395Y-80791077D01*
X126016217Y-81111899D01*
X126028295Y-81126853D01*
X126031527Y-81130405D01*
X126037175Y-81139152D01*
X126045352Y-81145598D01*
X126061086Y-81158002D01*
X126065021Y-81161499D01*
X126065109Y-81161395D01*
X126069068Y-81164750D01*
X126072746Y-81168428D01*
X126076971Y-81171447D01*
X126076979Y-81171454D01*
X126087080Y-81178672D01*
X126091827Y-81182236D01*
X126093768Y-81183766D01*
X126128811Y-81211392D01*
X126136787Y-81214193D01*
X126143669Y-81219111D01*
X126153647Y-81222095D01*
X126188791Y-81232605D01*
X126194437Y-81234439D01*
X126231427Y-81247429D01*
X126231430Y-81247430D01*
X126238906Y-81250055D01*
X126244044Y-81250500D01*
X126246749Y-81250500D01*
X126248948Y-81250595D01*
X126249480Y-81250754D01*
X126249479Y-81250781D01*
X126249595Y-81250788D01*
X126255463Y-81252543D01*
X126305003Y-81250597D01*
X126309950Y-81250500D01*
X138188515Y-81250500D01*
X138207614Y-81252533D01*
X138212422Y-81252760D01*
X138222600Y-81254951D01*
X138252830Y-81251373D01*
X138258085Y-81251063D01*
X138258074Y-81250928D01*
X138263253Y-81250500D01*
X138268454Y-81250500D01*
X138273582Y-81249646D01*
X138273588Y-81249646D01*
X138285812Y-81247611D01*
X138291688Y-81246774D01*
X138328138Y-81242460D01*
X138328140Y-81242460D01*
X138338477Y-81241236D01*
X138346097Y-81237577D01*
X138354442Y-81236188D01*
X138395923Y-81213806D01*
X138401209Y-81211113D01*
X138405568Y-81209020D01*
X138443665Y-81190726D01*
X138447613Y-81187408D01*
X138449546Y-81185475D01*
X138451143Y-81184010D01*
X138451633Y-81183746D01*
X138451652Y-81183766D01*
X138451741Y-81183687D01*
X138457133Y-81180778D01*
X138468550Y-81168428D01*
X138490794Y-81144364D01*
X138494223Y-81140798D01*
X154511899Y-65123122D01*
X154526853Y-65111044D01*
X154530405Y-65107812D01*
X154539152Y-65102164D01*
X154558002Y-65078253D01*
X154561500Y-65074317D01*
X154561396Y-65074229D01*
X154564751Y-65070270D01*
X154568429Y-65066592D01*
X154571448Y-65062367D01*
X154571455Y-65062359D01*
X154578669Y-65052263D01*
X154582236Y-65047513D01*
X154604944Y-65018708D01*
X154604945Y-65018705D01*
X154611392Y-65010528D01*
X154614194Y-65002550D01*
X154619111Y-64995669D01*
X154632621Y-64950496D01*
X154634442Y-64944892D01*
X154650055Y-64900433D01*
X154650500Y-64895295D01*
X154650500Y-64892590D01*
X154650595Y-64890393D01*
X154650755Y-64889859D01*
X154650782Y-64889860D01*
X154650789Y-64889742D01*
X154652544Y-64883875D01*
X154650597Y-64834320D01*
X154650500Y-64829373D01*
X154650500Y-52885409D01*
X154670502Y-52817288D01*
X154686748Y-52797128D01*
X154692621Y-52792621D01*
X154780861Y-52677625D01*
X154836330Y-52543709D01*
X154855250Y-52400000D01*
X154836330Y-52256291D01*
X154780861Y-52122375D01*
X154692621Y-52007379D01*
X154577625Y-51919139D01*
X154443709Y-51863670D01*
X154300000Y-51844750D01*
X154156291Y-51863670D01*
X154022375Y-51919139D01*
X153907379Y-52007379D01*
X153819139Y-52122375D01*
X153763670Y-52256291D01*
X153744750Y-52400000D01*
X153763670Y-52543709D01*
X153819139Y-52677625D01*
X153907379Y-52792621D01*
X153912889Y-52796849D01*
X153946621Y-52858630D01*
X153949500Y-52885409D01*
X153949500Y-53637483D01*
X153929498Y-53705604D01*
X153875842Y-53752097D01*
X153805568Y-53762201D01*
X153740988Y-53732707D01*
X153707091Y-53685700D01*
X153684023Y-53630007D01*
X153684020Y-53630002D01*
X153680861Y-53622375D01*
X153592621Y-53507379D01*
X153477625Y-53419139D01*
X153343709Y-53363670D01*
X153200000Y-53344750D01*
X153056291Y-53363670D01*
X152922375Y-53419139D01*
X152807379Y-53507379D01*
X152803151Y-53512889D01*
X152741370Y-53546621D01*
X152714591Y-53549500D01*
X130787372Y-53549500D01*
X130719251Y-53529498D01*
X130698277Y-53512595D01*
X128744540Y-51558858D01*
X128710514Y-51496546D01*
X128714077Y-51429991D01*
X128762404Y-51284715D01*
X128764351Y-51278863D01*
X128790171Y-51074474D01*
X128790583Y-51045000D01*
X128789138Y-51030262D01*
X131759520Y-51030262D01*
X131776759Y-51235553D01*
X131833544Y-51433586D01*
X131836359Y-51439063D01*
X131836360Y-51439066D01*
X131857247Y-51479707D01*
X131927712Y-51616818D01*
X132055677Y-51778270D01*
X132060370Y-51782264D01*
X132060371Y-51782265D01*
X132167582Y-51873508D01*
X132212564Y-51911791D01*
X132217942Y-51914797D01*
X132217944Y-51914798D01*
X132234710Y-51924168D01*
X132392398Y-52012297D01*
X132487238Y-52043113D01*
X132582471Y-52074056D01*
X132582475Y-52074057D01*
X132588329Y-52075959D01*
X132792894Y-52100351D01*
X132799029Y-52099879D01*
X132799031Y-52099879D01*
X132855039Y-52095569D01*
X132998300Y-52084546D01*
X133004230Y-52082890D01*
X133004232Y-52082890D01*
X133190797Y-52030800D01*
X133190796Y-52030800D01*
X133196725Y-52029145D01*
X133202214Y-52026372D01*
X133202220Y-52026370D01*
X133375116Y-51939033D01*
X133380610Y-51936258D01*
X133402522Y-51919139D01*
X133496356Y-51845828D01*
X133542951Y-51809424D01*
X133552898Y-51797901D01*
X133673540Y-51658134D01*
X133673540Y-51658133D01*
X133677564Y-51653472D01*
X133698387Y-51616818D01*
X133776276Y-51479707D01*
X133779323Y-51474344D01*
X133844351Y-51278863D01*
X133870171Y-51074474D01*
X133870583Y-51045000D01*
X133869138Y-51030262D01*
X134299520Y-51030262D01*
X134316759Y-51235553D01*
X134373544Y-51433586D01*
X134376359Y-51439063D01*
X134376360Y-51439066D01*
X134397247Y-51479707D01*
X134467712Y-51616818D01*
X134595677Y-51778270D01*
X134600370Y-51782264D01*
X134600371Y-51782265D01*
X134707582Y-51873508D01*
X134752564Y-51911791D01*
X134757942Y-51914797D01*
X134757944Y-51914798D01*
X134774710Y-51924168D01*
X134932398Y-52012297D01*
X135027238Y-52043113D01*
X135122471Y-52074056D01*
X135122475Y-52074057D01*
X135128329Y-52075959D01*
X135332894Y-52100351D01*
X135339029Y-52099879D01*
X135339031Y-52099879D01*
X135395039Y-52095569D01*
X135538300Y-52084546D01*
X135544230Y-52082890D01*
X135544232Y-52082890D01*
X135730797Y-52030800D01*
X135730796Y-52030800D01*
X135736725Y-52029145D01*
X135742214Y-52026372D01*
X135742220Y-52026370D01*
X135915116Y-51939033D01*
X135920610Y-51936258D01*
X135942522Y-51919139D01*
X136036356Y-51845828D01*
X136082951Y-51809424D01*
X136092898Y-51797901D01*
X136213540Y-51658134D01*
X136213540Y-51658133D01*
X136217564Y-51653472D01*
X136238387Y-51616818D01*
X136316276Y-51479707D01*
X136319323Y-51474344D01*
X136384351Y-51278863D01*
X136410171Y-51074474D01*
X136410583Y-51045000D01*
X136409138Y-51030262D01*
X136839520Y-51030262D01*
X136856759Y-51235553D01*
X136913544Y-51433586D01*
X136916359Y-51439063D01*
X136916360Y-51439066D01*
X136937247Y-51479707D01*
X137007712Y-51616818D01*
X137135677Y-51778270D01*
X137140370Y-51782264D01*
X137140371Y-51782265D01*
X137247582Y-51873508D01*
X137292564Y-51911791D01*
X137297942Y-51914797D01*
X137297944Y-51914798D01*
X137314710Y-51924168D01*
X137472398Y-52012297D01*
X137567238Y-52043113D01*
X137662471Y-52074056D01*
X137662475Y-52074057D01*
X137668329Y-52075959D01*
X137872894Y-52100351D01*
X137879029Y-52099879D01*
X137879031Y-52099879D01*
X137935039Y-52095569D01*
X138078300Y-52084546D01*
X138084230Y-52082890D01*
X138084232Y-52082890D01*
X138270797Y-52030800D01*
X138270796Y-52030800D01*
X138276725Y-52029145D01*
X138282214Y-52026372D01*
X138282220Y-52026370D01*
X138455116Y-51939033D01*
X138460610Y-51936258D01*
X138482522Y-51919139D01*
X138576356Y-51845828D01*
X138622951Y-51809424D01*
X138632898Y-51797901D01*
X138753540Y-51658134D01*
X138753540Y-51658133D01*
X138757564Y-51653472D01*
X138778387Y-51616818D01*
X138856276Y-51479707D01*
X138859323Y-51474344D01*
X138924351Y-51278863D01*
X138950171Y-51074474D01*
X138950583Y-51045000D01*
X138949138Y-51030262D01*
X139379520Y-51030262D01*
X139396759Y-51235553D01*
X139453544Y-51433586D01*
X139456359Y-51439063D01*
X139456360Y-51439066D01*
X139477247Y-51479707D01*
X139547712Y-51616818D01*
X139675677Y-51778270D01*
X139680370Y-51782264D01*
X139680371Y-51782265D01*
X139787582Y-51873508D01*
X139832564Y-51911791D01*
X139837942Y-51914797D01*
X139837944Y-51914798D01*
X139854710Y-51924168D01*
X140012398Y-52012297D01*
X140107238Y-52043113D01*
X140202471Y-52074056D01*
X140202475Y-52074057D01*
X140208329Y-52075959D01*
X140412894Y-52100351D01*
X140419029Y-52099879D01*
X140419031Y-52099879D01*
X140475039Y-52095569D01*
X140618300Y-52084546D01*
X140624230Y-52082890D01*
X140624232Y-52082890D01*
X140810797Y-52030800D01*
X140810796Y-52030800D01*
X140816725Y-52029145D01*
X140822214Y-52026372D01*
X140822220Y-52026370D01*
X140995116Y-51939033D01*
X141000610Y-51936258D01*
X141022522Y-51919139D01*
X141116356Y-51845828D01*
X141162951Y-51809424D01*
X141172898Y-51797901D01*
X141293540Y-51658134D01*
X141293540Y-51658133D01*
X141297564Y-51653472D01*
X141318387Y-51616818D01*
X141396276Y-51479707D01*
X141399323Y-51474344D01*
X141464351Y-51278863D01*
X141490171Y-51074474D01*
X141490583Y-51045000D01*
X141489138Y-51030262D01*
X144459520Y-51030262D01*
X144476759Y-51235553D01*
X144533544Y-51433586D01*
X144536359Y-51439063D01*
X144536360Y-51439066D01*
X144557247Y-51479707D01*
X144627712Y-51616818D01*
X144755677Y-51778270D01*
X144760370Y-51782264D01*
X144760371Y-51782265D01*
X144867582Y-51873508D01*
X144912564Y-51911791D01*
X144917942Y-51914797D01*
X144917944Y-51914798D01*
X144934710Y-51924168D01*
X145092398Y-52012297D01*
X145187238Y-52043113D01*
X145282471Y-52074056D01*
X145282475Y-52074057D01*
X145288329Y-52075959D01*
X145492894Y-52100351D01*
X145499029Y-52099879D01*
X145499031Y-52099879D01*
X145555039Y-52095569D01*
X145698300Y-52084546D01*
X145704230Y-52082890D01*
X145704232Y-52082890D01*
X145890797Y-52030800D01*
X145890796Y-52030800D01*
X145896725Y-52029145D01*
X145902214Y-52026372D01*
X145902220Y-52026370D01*
X146075116Y-51939033D01*
X146080610Y-51936258D01*
X146102522Y-51919139D01*
X146196356Y-51845828D01*
X146242951Y-51809424D01*
X146252898Y-51797901D01*
X146373540Y-51658134D01*
X146373540Y-51658133D01*
X146377564Y-51653472D01*
X146398387Y-51616818D01*
X146476276Y-51479707D01*
X146479323Y-51474344D01*
X146544351Y-51278863D01*
X146570171Y-51074474D01*
X146570583Y-51045000D01*
X146569138Y-51030262D01*
X146999520Y-51030262D01*
X147016759Y-51235553D01*
X147073544Y-51433586D01*
X147076359Y-51439063D01*
X147076360Y-51439066D01*
X147097247Y-51479707D01*
X147167712Y-51616818D01*
X147295677Y-51778270D01*
X147300370Y-51782264D01*
X147300371Y-51782265D01*
X147407582Y-51873508D01*
X147452564Y-51911791D01*
X147457942Y-51914797D01*
X147457944Y-51914798D01*
X147474710Y-51924168D01*
X147632398Y-52012297D01*
X147727238Y-52043113D01*
X147822471Y-52074056D01*
X147822475Y-52074057D01*
X147828329Y-52075959D01*
X148032894Y-52100351D01*
X148039029Y-52099879D01*
X148039031Y-52099879D01*
X148095039Y-52095569D01*
X148238300Y-52084546D01*
X148244230Y-52082890D01*
X148244232Y-52082890D01*
X148430797Y-52030800D01*
X148430796Y-52030800D01*
X148436725Y-52029145D01*
X148442214Y-52026372D01*
X148442220Y-52026370D01*
X148615116Y-51939033D01*
X148620610Y-51936258D01*
X148642522Y-51919139D01*
X148736356Y-51845828D01*
X148782951Y-51809424D01*
X148792898Y-51797901D01*
X148913540Y-51658134D01*
X148913540Y-51658133D01*
X148917564Y-51653472D01*
X148938387Y-51616818D01*
X149016276Y-51479707D01*
X149019323Y-51474344D01*
X149084351Y-51278863D01*
X149110171Y-51074474D01*
X149110583Y-51045000D01*
X149090480Y-50839970D01*
X149030935Y-50642749D01*
X148934218Y-50460849D01*
X148860859Y-50370902D01*
X148807906Y-50305975D01*
X148807903Y-50305972D01*
X148804011Y-50301200D01*
X148719374Y-50231182D01*
X148650025Y-50173811D01*
X148650021Y-50173809D01*
X148645275Y-50169882D01*
X148464055Y-50071897D01*
X148267254Y-50010977D01*
X148261129Y-50010333D01*
X148261128Y-50010333D01*
X148068498Y-49990087D01*
X148068496Y-49990087D01*
X148062369Y-49989443D01*
X147975529Y-49997346D01*
X147863342Y-50007555D01*
X147863339Y-50007556D01*
X147857203Y-50008114D01*
X147659572Y-50066280D01*
X147477002Y-50161726D01*
X147472201Y-50165586D01*
X147472198Y-50165588D01*
X147378049Y-50241286D01*
X147316447Y-50290815D01*
X147184024Y-50448630D01*
X147181056Y-50454028D01*
X147181053Y-50454033D01*
X147174315Y-50466290D01*
X147084776Y-50629162D01*
X147022484Y-50825532D01*
X147021798Y-50831649D01*
X147021797Y-50831653D01*
X147000207Y-51024137D01*
X146999520Y-51030262D01*
X146569138Y-51030262D01*
X146550480Y-50839970D01*
X146490935Y-50642749D01*
X146394218Y-50460849D01*
X146320859Y-50370902D01*
X146267906Y-50305975D01*
X146267903Y-50305972D01*
X146264011Y-50301200D01*
X146179374Y-50231182D01*
X146110025Y-50173811D01*
X146110021Y-50173809D01*
X146105275Y-50169882D01*
X145924055Y-50071897D01*
X145727254Y-50010977D01*
X145721129Y-50010333D01*
X145721128Y-50010333D01*
X145528498Y-49990087D01*
X145528496Y-49990087D01*
X145522369Y-49989443D01*
X145435529Y-49997346D01*
X145323342Y-50007555D01*
X145323339Y-50007556D01*
X145317203Y-50008114D01*
X145119572Y-50066280D01*
X144937002Y-50161726D01*
X144932201Y-50165586D01*
X144932198Y-50165588D01*
X144838049Y-50241286D01*
X144776447Y-50290815D01*
X144644024Y-50448630D01*
X144641056Y-50454028D01*
X144641053Y-50454033D01*
X144634315Y-50466290D01*
X144544776Y-50629162D01*
X144482484Y-50825532D01*
X144481798Y-50831649D01*
X144481797Y-50831653D01*
X144460207Y-51024137D01*
X144459520Y-51030262D01*
X141489138Y-51030262D01*
X141470480Y-50839970D01*
X141410935Y-50642749D01*
X141314218Y-50460849D01*
X141240859Y-50370902D01*
X141187906Y-50305975D01*
X141187903Y-50305972D01*
X141184011Y-50301200D01*
X141099374Y-50231182D01*
X141030025Y-50173811D01*
X141030021Y-50173809D01*
X141025275Y-50169882D01*
X140844055Y-50071897D01*
X140647254Y-50010977D01*
X140641129Y-50010333D01*
X140641128Y-50010333D01*
X140448498Y-49990087D01*
X140448496Y-49990087D01*
X140442369Y-49989443D01*
X140355529Y-49997346D01*
X140243342Y-50007555D01*
X140243339Y-50007556D01*
X140237203Y-50008114D01*
X140039572Y-50066280D01*
X139857002Y-50161726D01*
X139852201Y-50165586D01*
X139852198Y-50165588D01*
X139758049Y-50241286D01*
X139696447Y-50290815D01*
X139564024Y-50448630D01*
X139561056Y-50454028D01*
X139561053Y-50454033D01*
X139554315Y-50466290D01*
X139464776Y-50629162D01*
X139402484Y-50825532D01*
X139401798Y-50831649D01*
X139401797Y-50831653D01*
X139380207Y-51024137D01*
X139379520Y-51030262D01*
X138949138Y-51030262D01*
X138930480Y-50839970D01*
X138870935Y-50642749D01*
X138774218Y-50460849D01*
X138700859Y-50370902D01*
X138647906Y-50305975D01*
X138647903Y-50305972D01*
X138644011Y-50301200D01*
X138559374Y-50231182D01*
X138490025Y-50173811D01*
X138490021Y-50173809D01*
X138485275Y-50169882D01*
X138304055Y-50071897D01*
X138107254Y-50010977D01*
X138101129Y-50010333D01*
X138101128Y-50010333D01*
X137908498Y-49990087D01*
X137908496Y-49990087D01*
X137902369Y-49989443D01*
X137815529Y-49997346D01*
X137703342Y-50007555D01*
X137703339Y-50007556D01*
X137697203Y-50008114D01*
X137499572Y-50066280D01*
X137317002Y-50161726D01*
X137312201Y-50165586D01*
X137312198Y-50165588D01*
X137218049Y-50241286D01*
X137156447Y-50290815D01*
X137024024Y-50448630D01*
X137021056Y-50454028D01*
X137021053Y-50454033D01*
X137014315Y-50466290D01*
X136924776Y-50629162D01*
X136862484Y-50825532D01*
X136861798Y-50831649D01*
X136861797Y-50831653D01*
X136840207Y-51024137D01*
X136839520Y-51030262D01*
X136409138Y-51030262D01*
X136390480Y-50839970D01*
X136330935Y-50642749D01*
X136234218Y-50460849D01*
X136160859Y-50370902D01*
X136107906Y-50305975D01*
X136107903Y-50305972D01*
X136104011Y-50301200D01*
X136019374Y-50231182D01*
X135950025Y-50173811D01*
X135950021Y-50173809D01*
X135945275Y-50169882D01*
X135764055Y-50071897D01*
X135567254Y-50010977D01*
X135561129Y-50010333D01*
X135561128Y-50010333D01*
X135368498Y-49990087D01*
X135368496Y-49990087D01*
X135362369Y-49989443D01*
X135275529Y-49997346D01*
X135163342Y-50007555D01*
X135163339Y-50007556D01*
X135157203Y-50008114D01*
X134959572Y-50066280D01*
X134777002Y-50161726D01*
X134772201Y-50165586D01*
X134772198Y-50165588D01*
X134678049Y-50241286D01*
X134616447Y-50290815D01*
X134484024Y-50448630D01*
X134481056Y-50454028D01*
X134481053Y-50454033D01*
X134474315Y-50466290D01*
X134384776Y-50629162D01*
X134322484Y-50825532D01*
X134321798Y-50831649D01*
X134321797Y-50831653D01*
X134300207Y-51024137D01*
X134299520Y-51030262D01*
X133869138Y-51030262D01*
X133850480Y-50839970D01*
X133790935Y-50642749D01*
X133694218Y-50460849D01*
X133620859Y-50370902D01*
X133567906Y-50305975D01*
X133567903Y-50305972D01*
X133564011Y-50301200D01*
X133479374Y-50231182D01*
X133410025Y-50173811D01*
X133410021Y-50173809D01*
X133405275Y-50169882D01*
X133224055Y-50071897D01*
X133027254Y-50010977D01*
X133021129Y-50010333D01*
X133021128Y-50010333D01*
X132828498Y-49990087D01*
X132828496Y-49990087D01*
X132822369Y-49989443D01*
X132735529Y-49997346D01*
X132623342Y-50007555D01*
X132623339Y-50007556D01*
X132617203Y-50008114D01*
X132419572Y-50066280D01*
X132237002Y-50161726D01*
X132232201Y-50165586D01*
X132232198Y-50165588D01*
X132138049Y-50241286D01*
X132076447Y-50290815D01*
X131944024Y-50448630D01*
X131941056Y-50454028D01*
X131941053Y-50454033D01*
X131934315Y-50466290D01*
X131844776Y-50629162D01*
X131782484Y-50825532D01*
X131781798Y-50831649D01*
X131781797Y-50831653D01*
X131760207Y-51024137D01*
X131759520Y-51030262D01*
X128789138Y-51030262D01*
X128770480Y-50839970D01*
X128710935Y-50642749D01*
X128614218Y-50460849D01*
X128540859Y-50370902D01*
X128487906Y-50305975D01*
X128487903Y-50305972D01*
X128484011Y-50301200D01*
X128399374Y-50231182D01*
X128330025Y-50173811D01*
X128330021Y-50173809D01*
X128325275Y-50169882D01*
X128144055Y-50071897D01*
X127947254Y-50010977D01*
X127941129Y-50010333D01*
X127941128Y-50010333D01*
X127748498Y-49990087D01*
X127748496Y-49990087D01*
X127742369Y-49989443D01*
X127655529Y-49997346D01*
X127543342Y-50007555D01*
X127543339Y-50007556D01*
X127537203Y-50008114D01*
X127339572Y-50066280D01*
X127157002Y-50161726D01*
X127152201Y-50165586D01*
X127152198Y-50165588D01*
X127058049Y-50241286D01*
X126996447Y-50290815D01*
X126864024Y-50448630D01*
X126861056Y-50454028D01*
X126861053Y-50454033D01*
X126854315Y-50466290D01*
X126764776Y-50629162D01*
X126702484Y-50825532D01*
X126701798Y-50831649D01*
X126701797Y-50831653D01*
X126680207Y-51024137D01*
X126679520Y-51030262D01*
X126696759Y-51235553D01*
X126753544Y-51433586D01*
X126756359Y-51439063D01*
X126756360Y-51439066D01*
X126777247Y-51479707D01*
X126847712Y-51616818D01*
X126975677Y-51778270D01*
X126980370Y-51782264D01*
X126980371Y-51782265D01*
X127087582Y-51873508D01*
X127132564Y-51911791D01*
X127137942Y-51914797D01*
X127137944Y-51914798D01*
X127154710Y-51924168D01*
X127312398Y-52012297D01*
X127407238Y-52043113D01*
X127502471Y-52074056D01*
X127502475Y-52074057D01*
X127508329Y-52075959D01*
X127712894Y-52100351D01*
X127719029Y-52099879D01*
X127719031Y-52099879D01*
X127775039Y-52095569D01*
X127918300Y-52084546D01*
X127924230Y-52082890D01*
X127924232Y-52082890D01*
X128110792Y-52030802D01*
X128110796Y-52030800D01*
X128116725Y-52029145D01*
X128118160Y-52028420D01*
X128187333Y-52022567D01*
X128251249Y-52056931D01*
X130306217Y-54111899D01*
X130318295Y-54126853D01*
X130321527Y-54130405D01*
X130327175Y-54139152D01*
X130335352Y-54145598D01*
X130351086Y-54158002D01*
X130355021Y-54161499D01*
X130355109Y-54161395D01*
X130359066Y-54164748D01*
X130362747Y-54168429D01*
X130366979Y-54171453D01*
X130377072Y-54178666D01*
X130381818Y-54182229D01*
X130418811Y-54211392D01*
X130426787Y-54214193D01*
X130433669Y-54219111D01*
X130478836Y-54232619D01*
X130484442Y-54234441D01*
X130521423Y-54247428D01*
X130521429Y-54247429D01*
X130528906Y-54250055D01*
X130534044Y-54250500D01*
X130536763Y-54250500D01*
X130538945Y-54250595D01*
X130539480Y-54250755D01*
X130539479Y-54250782D01*
X130539597Y-54250789D01*
X130545464Y-54252544D01*
X130595019Y-54250597D01*
X130599966Y-54250500D01*
X152714591Y-54250500D01*
X152782712Y-54270502D01*
X152802872Y-54286748D01*
X152807379Y-54292621D01*
X152922375Y-54380861D01*
X153056291Y-54436330D01*
X153200000Y-54455250D01*
X153343709Y-54436330D01*
X153477625Y-54380861D01*
X153592621Y-54292621D01*
X153680861Y-54177625D01*
X153684020Y-54169998D01*
X153684023Y-54169993D01*
X153707091Y-54114300D01*
X153751639Y-54059018D01*
X153819002Y-54036597D01*
X153887793Y-54054155D01*
X153936172Y-54106116D01*
X153949500Y-54162517D01*
X153949500Y-64641967D01*
X153929498Y-64710088D01*
X153912595Y-64731062D01*
X149191660Y-69451997D01*
X149129348Y-69486023D01*
X149058533Y-69480958D01*
X149001697Y-69438411D01*
X148976886Y-69371891D01*
X148993009Y-69300665D01*
X149016276Y-69259707D01*
X149019323Y-69254344D01*
X149084351Y-69058863D01*
X149110171Y-68854474D01*
X149110583Y-68825000D01*
X149090480Y-68619970D01*
X149030935Y-68422749D01*
X148934218Y-68240849D01*
X148857625Y-68146937D01*
X148807906Y-68085975D01*
X148807903Y-68085972D01*
X148804011Y-68081200D01*
X148786266Y-68066520D01*
X148650025Y-67953811D01*
X148650021Y-67953809D01*
X148645275Y-67949882D01*
X148464055Y-67851897D01*
X148267254Y-67790977D01*
X148261129Y-67790333D01*
X148261128Y-67790333D01*
X148068498Y-67770087D01*
X148068496Y-67770087D01*
X148062369Y-67769443D01*
X147987373Y-67776268D01*
X147863342Y-67787555D01*
X147863339Y-67787556D01*
X147857203Y-67788114D01*
X147659572Y-67846280D01*
X147477002Y-67941726D01*
X147472201Y-67945586D01*
X147472198Y-67945588D01*
X147375045Y-68023701D01*
X147316447Y-68070815D01*
X147184024Y-68228630D01*
X147181056Y-68234028D01*
X147181053Y-68234033D01*
X147109586Y-68364032D01*
X147084776Y-68409162D01*
X147022484Y-68605532D01*
X147021798Y-68611649D01*
X147021797Y-68611653D01*
X147013662Y-68684178D01*
X146999520Y-68810262D01*
X147000036Y-68816406D01*
X147014704Y-68991077D01*
X147016759Y-69015553D01*
X147073544Y-69213586D01*
X147076359Y-69219063D01*
X147076360Y-69219066D01*
X147097247Y-69259707D01*
X147167712Y-69396818D01*
X147295677Y-69558270D01*
X147300370Y-69562264D01*
X147300371Y-69562265D01*
X147445867Y-69686091D01*
X147452564Y-69691791D01*
X147632398Y-69792297D01*
X147704499Y-69815724D01*
X147822471Y-69854056D01*
X147822475Y-69854057D01*
X147828329Y-69855959D01*
X148032894Y-69880351D01*
X148039029Y-69879879D01*
X148039031Y-69879879D01*
X148095039Y-69875569D01*
X148238300Y-69864546D01*
X148244230Y-69862890D01*
X148244232Y-69862890D01*
X148405500Y-69817863D01*
X148436725Y-69809145D01*
X148469095Y-69792794D01*
X148491459Y-69781497D01*
X148538411Y-69757780D01*
X148608232Y-69744920D01*
X148673923Y-69771849D01*
X148714627Y-69830019D01*
X148717420Y-69900961D01*
X148684316Y-69959341D01*
X138131062Y-80512595D01*
X138068750Y-80546621D01*
X138041967Y-80549500D01*
X126497372Y-80549500D01*
X126429251Y-80529498D01*
X126408276Y-80512595D01*
X126191076Y-80295394D01*
X126157051Y-80233082D01*
X126154284Y-80207339D01*
X126155250Y-80200000D01*
X126136330Y-80056291D01*
X126080861Y-79922375D01*
X125992621Y-79807379D01*
X125877625Y-79719139D01*
X125743709Y-79663670D01*
X125600000Y-79644750D01*
X125456291Y-79663670D01*
X125322375Y-79719139D01*
X125207379Y-79807379D01*
X125119139Y-79922375D01*
X125063670Y-80056291D01*
X125044750Y-80200000D01*
X114295682Y-80200000D01*
X116395682Y-78100000D01*
X130844750Y-78100000D01*
X130863670Y-78243709D01*
X130919139Y-78377625D01*
X131007379Y-78492621D01*
X131122375Y-78580861D01*
X131256291Y-78636330D01*
X131400000Y-78655250D01*
X131543709Y-78636330D01*
X131677625Y-78580861D01*
X131792621Y-78492621D01*
X131880861Y-78377625D01*
X131936330Y-78243709D01*
X131955250Y-78100000D01*
X131936330Y-77956291D01*
X131880861Y-77822375D01*
X131792621Y-77707379D01*
X131787111Y-77703151D01*
X131753379Y-77641370D01*
X131750500Y-77614591D01*
X131750500Y-74097372D01*
X131770502Y-74029251D01*
X131787405Y-74008277D01*
X133026899Y-72768783D01*
X133041853Y-72756705D01*
X133045405Y-72753473D01*
X133054152Y-72747825D01*
X133073002Y-72723914D01*
X133076499Y-72719979D01*
X133076395Y-72719891D01*
X133079750Y-72715932D01*
X133083428Y-72712254D01*
X133086447Y-72708029D01*
X133086454Y-72708021D01*
X133093672Y-72697920D01*
X133097236Y-72693173D01*
X133119946Y-72664365D01*
X133126392Y-72656189D01*
X133129193Y-72648213D01*
X133134111Y-72641331D01*
X133147611Y-72596191D01*
X133149446Y-72590543D01*
X133162428Y-72553577D01*
X133162429Y-72553571D01*
X133165055Y-72546094D01*
X133165500Y-72540956D01*
X133165500Y-72538251D01*
X133165595Y-72536055D01*
X133165755Y-72535520D01*
X133165782Y-72535521D01*
X133165789Y-72535405D01*
X133167544Y-72529537D01*
X133165597Y-72479981D01*
X133165500Y-72475034D01*
X133165500Y-69902434D01*
X133185502Y-69834313D01*
X133234689Y-69789968D01*
X133236031Y-69789290D01*
X133380610Y-69716258D01*
X133542951Y-69589424D01*
X133567002Y-69561561D01*
X133673540Y-69438134D01*
X133673540Y-69438133D01*
X133677564Y-69433472D01*
X133698387Y-69396818D01*
X133776276Y-69259707D01*
X133779323Y-69254344D01*
X133844351Y-69058863D01*
X133870171Y-68854474D01*
X133870583Y-68825000D01*
X133869138Y-68810262D01*
X134299520Y-68810262D01*
X134300036Y-68816406D01*
X134314704Y-68991077D01*
X134316759Y-69015553D01*
X134373544Y-69213586D01*
X134376359Y-69219063D01*
X134376360Y-69219066D01*
X134397247Y-69259707D01*
X134467712Y-69396818D01*
X134595677Y-69558270D01*
X134600370Y-69562264D01*
X134600371Y-69562265D01*
X134745867Y-69686091D01*
X134752564Y-69691791D01*
X134932398Y-69792297D01*
X135004499Y-69815724D01*
X135122471Y-69854056D01*
X135122475Y-69854057D01*
X135128329Y-69855959D01*
X135332894Y-69880351D01*
X135339029Y-69879879D01*
X135339031Y-69879879D01*
X135395039Y-69875569D01*
X135538300Y-69864546D01*
X135544230Y-69862890D01*
X135544232Y-69862890D01*
X135705500Y-69817863D01*
X135736725Y-69809145D01*
X135742214Y-69806372D01*
X135742220Y-69806370D01*
X135915116Y-69719033D01*
X135920610Y-69716258D01*
X136082951Y-69589424D01*
X136107002Y-69561561D01*
X136213540Y-69438134D01*
X136213540Y-69438133D01*
X136217564Y-69433472D01*
X136238387Y-69396818D01*
X136316276Y-69259707D01*
X136319323Y-69254344D01*
X136384351Y-69058863D01*
X136410171Y-68854474D01*
X136410583Y-68825000D01*
X136409138Y-68810262D01*
X136839520Y-68810262D01*
X136840036Y-68816406D01*
X136854704Y-68991077D01*
X136856759Y-69015553D01*
X136913544Y-69213586D01*
X136916359Y-69219063D01*
X136916360Y-69219066D01*
X136937247Y-69259707D01*
X137007712Y-69396818D01*
X137135677Y-69558270D01*
X137140370Y-69562264D01*
X137140371Y-69562265D01*
X137285867Y-69686091D01*
X137292564Y-69691791D01*
X137469782Y-69790835D01*
X137472398Y-69792297D01*
X137472120Y-69792794D01*
X137523359Y-69835731D01*
X137544500Y-69905593D01*
X137544500Y-75744176D01*
X137542467Y-75763275D01*
X137542240Y-75768083D01*
X137540049Y-75778261D01*
X137541273Y-75788600D01*
X137543627Y-75808491D01*
X137543937Y-75813746D01*
X137544072Y-75813735D01*
X137544500Y-75818914D01*
X137544500Y-75824115D01*
X137545354Y-75829243D01*
X137545354Y-75829249D01*
X137547389Y-75841473D01*
X137548226Y-75847349D01*
X137551810Y-75877625D01*
X137553764Y-75894138D01*
X137557423Y-75901758D01*
X137558812Y-75910103D01*
X137566715Y-75924750D01*
X137581192Y-75951580D01*
X137583884Y-75956865D01*
X137604274Y-75999326D01*
X137607592Y-76003274D01*
X137609525Y-76005207D01*
X137610990Y-76006804D01*
X137611254Y-76007294D01*
X137611234Y-76007313D01*
X137611313Y-76007402D01*
X137614222Y-76012794D01*
X137621870Y-76019864D01*
X137621871Y-76019865D01*
X137650636Y-76046455D01*
X137654202Y-76049884D01*
X139196423Y-77592105D01*
X139230449Y-77654417D01*
X139233216Y-77680161D01*
X139232250Y-77687500D01*
X139251170Y-77831209D01*
X139306639Y-77965125D01*
X139394879Y-78080121D01*
X139509875Y-78168361D01*
X139643791Y-78223830D01*
X139787500Y-78242750D01*
X139931209Y-78223830D01*
X140065125Y-78168361D01*
X140180121Y-78080121D01*
X140268361Y-77965125D01*
X140323830Y-77831209D01*
X140342750Y-77687500D01*
X140323830Y-77543791D01*
X140268361Y-77409875D01*
X140180121Y-77294879D01*
X140065125Y-77206639D01*
X139931209Y-77151170D01*
X139787500Y-77132250D01*
X139780615Y-77133156D01*
X139713079Y-77113326D01*
X139692105Y-77096423D01*
X138282405Y-75686723D01*
X138248379Y-75624411D01*
X138245500Y-75597628D01*
X138245500Y-69902434D01*
X138265502Y-69834313D01*
X138314689Y-69789968D01*
X138316031Y-69789290D01*
X138460610Y-69716258D01*
X138622951Y-69589424D01*
X138647002Y-69561561D01*
X138753540Y-69438134D01*
X138753540Y-69438133D01*
X138757564Y-69433472D01*
X138778387Y-69396818D01*
X138856276Y-69259707D01*
X138859323Y-69254344D01*
X138924351Y-69058863D01*
X138950171Y-68854474D01*
X138950583Y-68825000D01*
X138949138Y-68810262D01*
X139379520Y-68810262D01*
X139380036Y-68816406D01*
X139394704Y-68991077D01*
X139396759Y-69015553D01*
X139453544Y-69213586D01*
X139456359Y-69219063D01*
X139456360Y-69219066D01*
X139477247Y-69259707D01*
X139547712Y-69396818D01*
X139675677Y-69558270D01*
X139680370Y-69562264D01*
X139680371Y-69562265D01*
X139825867Y-69686091D01*
X139832564Y-69691791D01*
X140012398Y-69792297D01*
X140084499Y-69815724D01*
X140202471Y-69854056D01*
X140202475Y-69854057D01*
X140208329Y-69855959D01*
X140412894Y-69880351D01*
X140419029Y-69879879D01*
X140419031Y-69879879D01*
X140475039Y-69875569D01*
X140618300Y-69864546D01*
X140624230Y-69862890D01*
X140624232Y-69862890D01*
X140785500Y-69817863D01*
X140816725Y-69809145D01*
X140822214Y-69806372D01*
X140822220Y-69806370D01*
X140995116Y-69719033D01*
X141000610Y-69716258D01*
X141162951Y-69589424D01*
X141187002Y-69561561D01*
X141293540Y-69438134D01*
X141293540Y-69438133D01*
X141297564Y-69433472D01*
X141318387Y-69396818D01*
X141396276Y-69259707D01*
X141399323Y-69254344D01*
X141464351Y-69058863D01*
X141490171Y-68854474D01*
X141490583Y-68825000D01*
X141489138Y-68810262D01*
X144459520Y-68810262D01*
X144460036Y-68816406D01*
X144474704Y-68991077D01*
X144476759Y-69015553D01*
X144533544Y-69213586D01*
X144536359Y-69219063D01*
X144536360Y-69219066D01*
X144557247Y-69259707D01*
X144627712Y-69396818D01*
X144755677Y-69558270D01*
X144760370Y-69562264D01*
X144760371Y-69562265D01*
X144905867Y-69686091D01*
X144912564Y-69691791D01*
X145092398Y-69792297D01*
X145164499Y-69815724D01*
X145282471Y-69854056D01*
X145282475Y-69854057D01*
X145288329Y-69855959D01*
X145492894Y-69880351D01*
X145499029Y-69879879D01*
X145499031Y-69879879D01*
X145555039Y-69875569D01*
X145698300Y-69864546D01*
X145704230Y-69862890D01*
X145704232Y-69862890D01*
X145865500Y-69817863D01*
X145896725Y-69809145D01*
X145902214Y-69806372D01*
X145902220Y-69806370D01*
X146075116Y-69719033D01*
X146080610Y-69716258D01*
X146242951Y-69589424D01*
X146267002Y-69561561D01*
X146373540Y-69438134D01*
X146373540Y-69438133D01*
X146377564Y-69433472D01*
X146398387Y-69396818D01*
X146476276Y-69259707D01*
X146479323Y-69254344D01*
X146544351Y-69058863D01*
X146570171Y-68854474D01*
X146570583Y-68825000D01*
X146550480Y-68619970D01*
X146490935Y-68422749D01*
X146394218Y-68240849D01*
X146317625Y-68146937D01*
X146267906Y-68085975D01*
X146267903Y-68085972D01*
X146264011Y-68081200D01*
X146246266Y-68066520D01*
X146110025Y-67953811D01*
X146110021Y-67953809D01*
X146105275Y-67949882D01*
X145924055Y-67851897D01*
X145727254Y-67790977D01*
X145721129Y-67790333D01*
X145721128Y-67790333D01*
X145528498Y-67770087D01*
X145528496Y-67770087D01*
X145522369Y-67769443D01*
X145447373Y-67776268D01*
X145323342Y-67787555D01*
X145323339Y-67787556D01*
X145317203Y-67788114D01*
X145119572Y-67846280D01*
X144937002Y-67941726D01*
X144932201Y-67945586D01*
X144932198Y-67945588D01*
X144835045Y-68023701D01*
X144776447Y-68070815D01*
X144644024Y-68228630D01*
X144641056Y-68234028D01*
X144641053Y-68234033D01*
X144569586Y-68364032D01*
X144544776Y-68409162D01*
X144482484Y-68605532D01*
X144481798Y-68611649D01*
X144481797Y-68611653D01*
X144473662Y-68684178D01*
X144459520Y-68810262D01*
X141489138Y-68810262D01*
X141470480Y-68619970D01*
X141410935Y-68422749D01*
X141314218Y-68240849D01*
X141237625Y-68146937D01*
X141187906Y-68085975D01*
X141187903Y-68085972D01*
X141184011Y-68081200D01*
X141166266Y-68066520D01*
X141030025Y-67953811D01*
X141030021Y-67953809D01*
X141025275Y-67949882D01*
X140844055Y-67851897D01*
X140647254Y-67790977D01*
X140641129Y-67790333D01*
X140641128Y-67790333D01*
X140448498Y-67770087D01*
X140448496Y-67770087D01*
X140442369Y-67769443D01*
X140367373Y-67776268D01*
X140243342Y-67787555D01*
X140243339Y-67787556D01*
X140237203Y-67788114D01*
X140039572Y-67846280D01*
X139857002Y-67941726D01*
X139852201Y-67945586D01*
X139852198Y-67945588D01*
X139755045Y-68023701D01*
X139696447Y-68070815D01*
X139564024Y-68228630D01*
X139561056Y-68234028D01*
X139561053Y-68234033D01*
X139489586Y-68364032D01*
X139464776Y-68409162D01*
X139402484Y-68605532D01*
X139401798Y-68611649D01*
X139401797Y-68611653D01*
X139393662Y-68684178D01*
X139379520Y-68810262D01*
X138949138Y-68810262D01*
X138930480Y-68619970D01*
X138870935Y-68422749D01*
X138774218Y-68240849D01*
X138697625Y-68146937D01*
X138647906Y-68085975D01*
X138647903Y-68085972D01*
X138644011Y-68081200D01*
X138626266Y-68066520D01*
X138490025Y-67953811D01*
X138490021Y-67953809D01*
X138485275Y-67949882D01*
X138304055Y-67851897D01*
X138107254Y-67790977D01*
X138101129Y-67790333D01*
X138101128Y-67790333D01*
X137908498Y-67770087D01*
X137908496Y-67770087D01*
X137902369Y-67769443D01*
X137827373Y-67776268D01*
X137703342Y-67787555D01*
X137703339Y-67787556D01*
X137697203Y-67788114D01*
X137499572Y-67846280D01*
X137317002Y-67941726D01*
X137312201Y-67945586D01*
X137312198Y-67945588D01*
X137215045Y-68023701D01*
X137156447Y-68070815D01*
X137024024Y-68228630D01*
X137021056Y-68234028D01*
X137021053Y-68234033D01*
X136949586Y-68364032D01*
X136924776Y-68409162D01*
X136862484Y-68605532D01*
X136861798Y-68611649D01*
X136861797Y-68611653D01*
X136853662Y-68684178D01*
X136839520Y-68810262D01*
X136409138Y-68810262D01*
X136390480Y-68619970D01*
X136330935Y-68422749D01*
X136234218Y-68240849D01*
X136157625Y-68146937D01*
X136107906Y-68085975D01*
X136107903Y-68085972D01*
X136104011Y-68081200D01*
X136086266Y-68066520D01*
X135950025Y-67953811D01*
X135950021Y-67953809D01*
X135945275Y-67949882D01*
X135764055Y-67851897D01*
X135567254Y-67790977D01*
X135561129Y-67790333D01*
X135561128Y-67790333D01*
X135368498Y-67770087D01*
X135368496Y-67770087D01*
X135362369Y-67769443D01*
X135287373Y-67776268D01*
X135163342Y-67787555D01*
X135163339Y-67787556D01*
X135157203Y-67788114D01*
X134959572Y-67846280D01*
X134777002Y-67941726D01*
X134772201Y-67945586D01*
X134772198Y-67945588D01*
X134675045Y-68023701D01*
X134616447Y-68070815D01*
X134484024Y-68228630D01*
X134481056Y-68234028D01*
X134481053Y-68234033D01*
X134409586Y-68364032D01*
X134384776Y-68409162D01*
X134322484Y-68605532D01*
X134321798Y-68611649D01*
X134321797Y-68611653D01*
X134313662Y-68684178D01*
X134299520Y-68810262D01*
X133869138Y-68810262D01*
X133850480Y-68619970D01*
X133790935Y-68422749D01*
X133694218Y-68240849D01*
X133617625Y-68146937D01*
X133567906Y-68085975D01*
X133567903Y-68085972D01*
X133564011Y-68081200D01*
X133546266Y-68066520D01*
X133410025Y-67953811D01*
X133410021Y-67953809D01*
X133405275Y-67949882D01*
X133224055Y-67851897D01*
X133027254Y-67790977D01*
X133021129Y-67790333D01*
X133021128Y-67790333D01*
X132828498Y-67770087D01*
X132828496Y-67770087D01*
X132822369Y-67769443D01*
X132747373Y-67776268D01*
X132623342Y-67787555D01*
X132623339Y-67787556D01*
X132617203Y-67788114D01*
X132419572Y-67846280D01*
X132237002Y-67941726D01*
X132232201Y-67945586D01*
X132232198Y-67945588D01*
X132135045Y-68023701D01*
X132076447Y-68070815D01*
X131944024Y-68228630D01*
X131941056Y-68234028D01*
X131941053Y-68234033D01*
X131869586Y-68364032D01*
X131844776Y-68409162D01*
X131782484Y-68605532D01*
X131781798Y-68611649D01*
X131781797Y-68611653D01*
X131773662Y-68684178D01*
X131759520Y-68810262D01*
X131760036Y-68816406D01*
X131774704Y-68991077D01*
X131776759Y-69015553D01*
X131833544Y-69213586D01*
X131836359Y-69219063D01*
X131836360Y-69219066D01*
X131857247Y-69259707D01*
X131927712Y-69396818D01*
X132055677Y-69558270D01*
X132060370Y-69562264D01*
X132060371Y-69562265D01*
X132205867Y-69686091D01*
X132212564Y-69691791D01*
X132389782Y-69790835D01*
X132392398Y-69792297D01*
X132392120Y-69792794D01*
X132443359Y-69835731D01*
X132464500Y-69905593D01*
X132464500Y-72287628D01*
X132444498Y-72355749D01*
X132427595Y-72376723D01*
X131188101Y-73616217D01*
X131173147Y-73628295D01*
X131169595Y-73631527D01*
X131160848Y-73637175D01*
X131154402Y-73645352D01*
X131141998Y-73661086D01*
X131138501Y-73665021D01*
X131138605Y-73665109D01*
X131135250Y-73669068D01*
X131131572Y-73672746D01*
X131128553Y-73676971D01*
X131128546Y-73676979D01*
X131121328Y-73687080D01*
X131117764Y-73691827D01*
X131088608Y-73728811D01*
X131085807Y-73736787D01*
X131080889Y-73743669D01*
X131067381Y-73788836D01*
X131065559Y-73794442D01*
X131052572Y-73831423D01*
X131052571Y-73831429D01*
X131049945Y-73838906D01*
X131049500Y-73844044D01*
X131049500Y-73846763D01*
X131049405Y-73848945D01*
X131049245Y-73849480D01*
X131049218Y-73849479D01*
X131049211Y-73849597D01*
X131047456Y-73855464D01*
X131047865Y-73865872D01*
X131049403Y-73905019D01*
X131049500Y-73909966D01*
X131049500Y-77614591D01*
X131029498Y-77682712D01*
X131013252Y-77702872D01*
X131007379Y-77707379D01*
X130919139Y-77822375D01*
X130863670Y-77956291D01*
X130844750Y-78100000D01*
X116395682Y-78100000D01*
X118508277Y-75987405D01*
X118570589Y-75953379D01*
X118597372Y-75950500D01*
X119414591Y-75950500D01*
X119482712Y-75970502D01*
X119502872Y-75986748D01*
X119507379Y-75992621D01*
X119622375Y-76080861D01*
X119756291Y-76136330D01*
X119900000Y-76155250D01*
X120043709Y-76136330D01*
X120177625Y-76080861D01*
X120292621Y-75992621D01*
X120380861Y-75877625D01*
X120436330Y-75743709D01*
X120455250Y-75600000D01*
X120436330Y-75456291D01*
X120380861Y-75322375D01*
X120292621Y-75207379D01*
X120177625Y-75119139D01*
X120043709Y-75063670D01*
X119900000Y-75044750D01*
X119756291Y-75063670D01*
X119622375Y-75119139D01*
X119507379Y-75207379D01*
X119503151Y-75212889D01*
X119441370Y-75246621D01*
X119414591Y-75249500D01*
X118450824Y-75249500D01*
X118431725Y-75247467D01*
X118426917Y-75247240D01*
X118416739Y-75245049D01*
X118386509Y-75248627D01*
X118381254Y-75248937D01*
X118381265Y-75249072D01*
X118376087Y-75249500D01*
X118370885Y-75249500D01*
X118353515Y-75252391D01*
X118347644Y-75253227D01*
X118311200Y-75257540D01*
X118311198Y-75257541D01*
X118300861Y-75258764D01*
X118293240Y-75262423D01*
X118284897Y-75263812D01*
X118275735Y-75268756D01*
X118265876Y-75272131D01*
X118265444Y-75270868D01*
X118206507Y-75283382D01*
X118140111Y-75258240D01*
X118097848Y-75201193D01*
X118093137Y-75130352D01*
X118127027Y-75068654D01*
X118986896Y-74208785D01*
X119001855Y-74196703D01*
X119005404Y-74193473D01*
X119014152Y-74187825D01*
X119033005Y-74163910D01*
X119036498Y-74159980D01*
X119036394Y-74159892D01*
X119039753Y-74155928D01*
X119043428Y-74152253D01*
X119053656Y-74137941D01*
X119057219Y-74133195D01*
X119079947Y-74104364D01*
X119086392Y-74096189D01*
X119089193Y-74088213D01*
X119094111Y-74081331D01*
X119107619Y-74036164D01*
X119109441Y-74030558D01*
X119122428Y-73993577D01*
X119122429Y-73993571D01*
X119125055Y-73986094D01*
X119125500Y-73980956D01*
X119125500Y-73978237D01*
X119125595Y-73976055D01*
X119125755Y-73975520D01*
X119125782Y-73975521D01*
X119125789Y-73975403D01*
X119127544Y-73969536D01*
X119125597Y-73919981D01*
X119125500Y-73915034D01*
X119125500Y-69629682D01*
X119145502Y-69561561D01*
X119199158Y-69515068D01*
X119269432Y-69504964D01*
X119334012Y-69534458D01*
X119350243Y-69551414D01*
X119355677Y-69558270D01*
X119360370Y-69562264D01*
X119360371Y-69562265D01*
X119505867Y-69686091D01*
X119512564Y-69691791D01*
X119692398Y-69792297D01*
X119764499Y-69815724D01*
X119882471Y-69854056D01*
X119882475Y-69854057D01*
X119888329Y-69855959D01*
X120092894Y-69880351D01*
X120099029Y-69879879D01*
X120099031Y-69879879D01*
X120155039Y-69875569D01*
X120298300Y-69864546D01*
X120304230Y-69862890D01*
X120304232Y-69862890D01*
X120465500Y-69817863D01*
X120496725Y-69809145D01*
X120502214Y-69806372D01*
X120502220Y-69806370D01*
X120675116Y-69719033D01*
X120680610Y-69716258D01*
X120842951Y-69589424D01*
X120867002Y-69561561D01*
X120973540Y-69438134D01*
X120973540Y-69438133D01*
X120977564Y-69433472D01*
X120998387Y-69396818D01*
X121076276Y-69259707D01*
X121079323Y-69254344D01*
X121144351Y-69058863D01*
X121170171Y-68854474D01*
X121170583Y-68825000D01*
X121169138Y-68810262D01*
X121599520Y-68810262D01*
X121600036Y-68816406D01*
X121614704Y-68991077D01*
X121616759Y-69015553D01*
X121673544Y-69213586D01*
X121676359Y-69219063D01*
X121676360Y-69219066D01*
X121697247Y-69259707D01*
X121767712Y-69396818D01*
X121895677Y-69558270D01*
X121900370Y-69562264D01*
X121900371Y-69562265D01*
X122045867Y-69686091D01*
X122052564Y-69691791D01*
X122232398Y-69792297D01*
X122304499Y-69815724D01*
X122422471Y-69854056D01*
X122422475Y-69854057D01*
X122428329Y-69855959D01*
X122632894Y-69880351D01*
X122639029Y-69879879D01*
X122639031Y-69879879D01*
X122695039Y-69875569D01*
X122838300Y-69864546D01*
X122844230Y-69862890D01*
X122844232Y-69862890D01*
X123005500Y-69817863D01*
X123036725Y-69809145D01*
X123042214Y-69806372D01*
X123042220Y-69806370D01*
X123215116Y-69719033D01*
X123220610Y-69716258D01*
X123382951Y-69589424D01*
X123407002Y-69561561D01*
X123513540Y-69438134D01*
X123513540Y-69438133D01*
X123517564Y-69433472D01*
X123538387Y-69396818D01*
X123616276Y-69259707D01*
X123619323Y-69254344D01*
X123684351Y-69058863D01*
X123710171Y-68854474D01*
X123710583Y-68825000D01*
X123690480Y-68619970D01*
X123630935Y-68422749D01*
X123534218Y-68240849D01*
X123457625Y-68146937D01*
X123407906Y-68085975D01*
X123407903Y-68085972D01*
X123404011Y-68081200D01*
X123386266Y-68066520D01*
X123250025Y-67953811D01*
X123250021Y-67953809D01*
X123245275Y-67949882D01*
X123064055Y-67851897D01*
X122867254Y-67790977D01*
X122861129Y-67790333D01*
X122861128Y-67790333D01*
X122668498Y-67770087D01*
X122668496Y-67770087D01*
X122662369Y-67769443D01*
X122587373Y-67776268D01*
X122463342Y-67787555D01*
X122463339Y-67787556D01*
X122457203Y-67788114D01*
X122259572Y-67846280D01*
X122077002Y-67941726D01*
X122072201Y-67945586D01*
X122072198Y-67945588D01*
X121975045Y-68023701D01*
X121916447Y-68070815D01*
X121784024Y-68228630D01*
X121781056Y-68234028D01*
X121781053Y-68234033D01*
X121709586Y-68364032D01*
X121684776Y-68409162D01*
X121622484Y-68605532D01*
X121621798Y-68611649D01*
X121621797Y-68611653D01*
X121613662Y-68684178D01*
X121599520Y-68810262D01*
X121169138Y-68810262D01*
X121150480Y-68619970D01*
X121090935Y-68422749D01*
X120994218Y-68240849D01*
X120917625Y-68146937D01*
X120867906Y-68085975D01*
X120867903Y-68085972D01*
X120864011Y-68081200D01*
X120846266Y-68066520D01*
X120710025Y-67953811D01*
X120710021Y-67953809D01*
X120705275Y-67949882D01*
X120524055Y-67851897D01*
X120327254Y-67790977D01*
X120321129Y-67790333D01*
X120321128Y-67790333D01*
X120128498Y-67770087D01*
X120128496Y-67770087D01*
X120122369Y-67769443D01*
X120047373Y-67776268D01*
X119923342Y-67787555D01*
X119923339Y-67787556D01*
X119917203Y-67788114D01*
X119719572Y-67846280D01*
X119537002Y-67941726D01*
X119532201Y-67945586D01*
X119532198Y-67945588D01*
X119435045Y-68023701D01*
X119376447Y-68070815D01*
X119348019Y-68104694D01*
X119288912Y-68144019D01*
X119217925Y-68145145D01*
X119157597Y-68107714D01*
X119127083Y-68043610D01*
X119125500Y-68023701D01*
X119125500Y-65275824D01*
X119127533Y-65256725D01*
X119127760Y-65251917D01*
X119129951Y-65241739D01*
X119126373Y-65211509D01*
X119126063Y-65206254D01*
X119125928Y-65206265D01*
X119125500Y-65201087D01*
X119125500Y-65195885D01*
X119122609Y-65178515D01*
X119121773Y-65172644D01*
X119117460Y-65136205D01*
X119116236Y-65125861D01*
X119112577Y-65118241D01*
X119111188Y-65109897D01*
X119102604Y-65093987D01*
X119088819Y-65068441D01*
X119086122Y-65063150D01*
X119085743Y-65062359D01*
X119065726Y-65020674D01*
X119062408Y-65016726D01*
X119060469Y-65014787D01*
X119059010Y-65013196D01*
X119058746Y-65012706D01*
X119058766Y-65012687D01*
X119058687Y-65012598D01*
X119055778Y-65007206D01*
X119043298Y-64995669D01*
X119019364Y-64973545D01*
X119015798Y-64970116D01*
X116732185Y-62686503D01*
X116698159Y-62624191D01*
X116695280Y-62597408D01*
X116695280Y-51030262D01*
X119059520Y-51030262D01*
X119076759Y-51235553D01*
X119133544Y-51433586D01*
X119136359Y-51439063D01*
X119136360Y-51439066D01*
X119157247Y-51479707D01*
X119227712Y-51616818D01*
X119355677Y-51778270D01*
X119360370Y-51782264D01*
X119360371Y-51782265D01*
X119467582Y-51873508D01*
X119512564Y-51911791D01*
X119517942Y-51914797D01*
X119517944Y-51914798D01*
X119534710Y-51924168D01*
X119692398Y-52012297D01*
X119787238Y-52043113D01*
X119882471Y-52074056D01*
X119882475Y-52074057D01*
X119888329Y-52075959D01*
X120092894Y-52100351D01*
X120099029Y-52099879D01*
X120099031Y-52099879D01*
X120155039Y-52095569D01*
X120298300Y-52084546D01*
X120304230Y-52082890D01*
X120304232Y-52082890D01*
X120490797Y-52030800D01*
X120490796Y-52030800D01*
X120496725Y-52029145D01*
X120502214Y-52026372D01*
X120502220Y-52026370D01*
X120675116Y-51939033D01*
X120680610Y-51936258D01*
X120702522Y-51919139D01*
X120796356Y-51845828D01*
X120842951Y-51809424D01*
X120852898Y-51797901D01*
X120973540Y-51658134D01*
X120973540Y-51658133D01*
X120977564Y-51653472D01*
X120998387Y-51616818D01*
X121076276Y-51479707D01*
X121079323Y-51474344D01*
X121144351Y-51278863D01*
X121170171Y-51074474D01*
X121170583Y-51045000D01*
X121169138Y-51030262D01*
X121599520Y-51030262D01*
X121616759Y-51235553D01*
X121673544Y-51433586D01*
X121676359Y-51439063D01*
X121676360Y-51439066D01*
X121697247Y-51479707D01*
X121767712Y-51616818D01*
X121895677Y-51778270D01*
X121900370Y-51782264D01*
X121900371Y-51782265D01*
X122007582Y-51873508D01*
X122052564Y-51911791D01*
X122057942Y-51914797D01*
X122057944Y-51914798D01*
X122074710Y-51924168D01*
X122232398Y-52012297D01*
X122327238Y-52043113D01*
X122422471Y-52074056D01*
X122422475Y-52074057D01*
X122428329Y-52075959D01*
X122632894Y-52100351D01*
X122639029Y-52099879D01*
X122639031Y-52099879D01*
X122695039Y-52095569D01*
X122838300Y-52084546D01*
X122844230Y-52082890D01*
X122844232Y-52082890D01*
X123030797Y-52030800D01*
X123030796Y-52030800D01*
X123036725Y-52029145D01*
X123042214Y-52026372D01*
X123042220Y-52026370D01*
X123215116Y-51939033D01*
X123220610Y-51936258D01*
X123242522Y-51919139D01*
X123300927Y-51873508D01*
X123366922Y-51847331D01*
X123436592Y-51860989D01*
X123487819Y-51910145D01*
X123504500Y-51972798D01*
X123504500Y-54804176D01*
X123502467Y-54823275D01*
X123502240Y-54828083D01*
X123500049Y-54838261D01*
X123501273Y-54848600D01*
X123503627Y-54868491D01*
X123503937Y-54873746D01*
X123504072Y-54873735D01*
X123504500Y-54878914D01*
X123504500Y-54884115D01*
X123505354Y-54889243D01*
X123505354Y-54889249D01*
X123507389Y-54901473D01*
X123508226Y-54907349D01*
X123513764Y-54954138D01*
X123517423Y-54961758D01*
X123518812Y-54970103D01*
X123540842Y-55010931D01*
X123541192Y-55011580D01*
X123543884Y-55016865D01*
X123564274Y-55059326D01*
X123567592Y-55063274D01*
X123569525Y-55065207D01*
X123570990Y-55066804D01*
X123571254Y-55067294D01*
X123571234Y-55067313D01*
X123571313Y-55067402D01*
X123574222Y-55072794D01*
X123581870Y-55079864D01*
X123581871Y-55079865D01*
X123610636Y-55106455D01*
X123614202Y-55109884D01*
X124112592Y-55608274D01*
X125145134Y-56640815D01*
X126147595Y-57643276D01*
X126181621Y-57705588D01*
X126184500Y-57732371D01*
X126184500Y-68022219D01*
X126164498Y-68090340D01*
X126110842Y-68136833D01*
X126040568Y-68146937D01*
X125975988Y-68117443D01*
X125960857Y-68101855D01*
X125947906Y-68085976D01*
X125947905Y-68085975D01*
X125944011Y-68081200D01*
X125926266Y-68066520D01*
X125790025Y-67953811D01*
X125790021Y-67953809D01*
X125785275Y-67949882D01*
X125604055Y-67851897D01*
X125407254Y-67790977D01*
X125401129Y-67790333D01*
X125401128Y-67790333D01*
X125208498Y-67770087D01*
X125208496Y-67770087D01*
X125202369Y-67769443D01*
X125127373Y-67776268D01*
X125003342Y-67787555D01*
X125003339Y-67787556D01*
X124997203Y-67788114D01*
X124799572Y-67846280D01*
X124617002Y-67941726D01*
X124612201Y-67945586D01*
X124612198Y-67945588D01*
X124515045Y-68023701D01*
X124456447Y-68070815D01*
X124324024Y-68228630D01*
X124321056Y-68234028D01*
X124321053Y-68234033D01*
X124249586Y-68364032D01*
X124224776Y-68409162D01*
X124162484Y-68605532D01*
X124161798Y-68611649D01*
X124161797Y-68611653D01*
X124153662Y-68684178D01*
X124139520Y-68810262D01*
X124140036Y-68816406D01*
X124154704Y-68991077D01*
X124156759Y-69015553D01*
X124213544Y-69213586D01*
X124216359Y-69219063D01*
X124216360Y-69219066D01*
X124237247Y-69259707D01*
X124307712Y-69396818D01*
X124435677Y-69558270D01*
X124440370Y-69562264D01*
X124440371Y-69562265D01*
X124585867Y-69686091D01*
X124592564Y-69691791D01*
X124772398Y-69792297D01*
X124844499Y-69815724D01*
X124962471Y-69854056D01*
X124962475Y-69854057D01*
X124968329Y-69855959D01*
X125172894Y-69880351D01*
X125179029Y-69879879D01*
X125179031Y-69879879D01*
X125235039Y-69875569D01*
X125378300Y-69864546D01*
X125384230Y-69862890D01*
X125384232Y-69862890D01*
X125545500Y-69817863D01*
X125576725Y-69809145D01*
X125582214Y-69806372D01*
X125582220Y-69806370D01*
X125755116Y-69719033D01*
X125760610Y-69716258D01*
X125922951Y-69589424D01*
X125926977Y-69584760D01*
X125963119Y-69542890D01*
X126022771Y-69504393D01*
X126093768Y-69504257D01*
X126153567Y-69542527D01*
X126183183Y-69607052D01*
X126184500Y-69625221D01*
X126184500Y-76484176D01*
X126182467Y-76503275D01*
X126182240Y-76508083D01*
X126180049Y-76518261D01*
X126183184Y-76544750D01*
X126183627Y-76548491D01*
X126183937Y-76553746D01*
X126184072Y-76553735D01*
X126184500Y-76558914D01*
X126184500Y-76564115D01*
X126185354Y-76569243D01*
X126185354Y-76569249D01*
X126187389Y-76581473D01*
X126188226Y-76587349D01*
X126191989Y-76619139D01*
X126193764Y-76634138D01*
X126197423Y-76641758D01*
X126198812Y-76650103D01*
X126203757Y-76659267D01*
X126221192Y-76691580D01*
X126223884Y-76696865D01*
X126244274Y-76739326D01*
X126247592Y-76743274D01*
X126249525Y-76745207D01*
X126250990Y-76746804D01*
X126251254Y-76747294D01*
X126251234Y-76747313D01*
X126251313Y-76747402D01*
X126254222Y-76752794D01*
X126261870Y-76759864D01*
X126261871Y-76759865D01*
X126290636Y-76786455D01*
X126294202Y-76789884D01*
X126408923Y-76904605D01*
X126442949Y-76966917D01*
X126445716Y-76992661D01*
X126444750Y-77000000D01*
X126463670Y-77143709D01*
X126519139Y-77277625D01*
X126607379Y-77392621D01*
X126722375Y-77480861D01*
X126856291Y-77536330D01*
X127000000Y-77555250D01*
X127143709Y-77536330D01*
X127277625Y-77480861D01*
X127392621Y-77392621D01*
X127480861Y-77277625D01*
X127536330Y-77143709D01*
X127555250Y-77000000D01*
X127536330Y-76856291D01*
X127480861Y-76722375D01*
X127392621Y-76607379D01*
X127277625Y-76519139D01*
X127143709Y-76463670D01*
X127000000Y-76444750D01*
X127000291Y-76442537D01*
X126943379Y-76425826D01*
X126896886Y-76372170D01*
X126885500Y-76319828D01*
X126885500Y-69754212D01*
X126905502Y-69686091D01*
X126959158Y-69639598D01*
X127029432Y-69629494D01*
X127093163Y-69658258D01*
X127125867Y-69686091D01*
X127132564Y-69691791D01*
X127312398Y-69792297D01*
X127384499Y-69815724D01*
X127502471Y-69854056D01*
X127502475Y-69854057D01*
X127508329Y-69855959D01*
X127712894Y-69880351D01*
X127719029Y-69879879D01*
X127719031Y-69879879D01*
X127775039Y-69875569D01*
X127918300Y-69864546D01*
X127924230Y-69862890D01*
X127924232Y-69862890D01*
X128085500Y-69817863D01*
X128116725Y-69809145D01*
X128122214Y-69806372D01*
X128122220Y-69806370D01*
X128295116Y-69719033D01*
X128300610Y-69716258D01*
X128462951Y-69589424D01*
X128487002Y-69561561D01*
X128593540Y-69438134D01*
X128593540Y-69438133D01*
X128597564Y-69433472D01*
X128618387Y-69396818D01*
X128696276Y-69259707D01*
X128699323Y-69254344D01*
X128764351Y-69058863D01*
X128790171Y-68854474D01*
X128790583Y-68825000D01*
X128770480Y-68619970D01*
X128710935Y-68422749D01*
X128614218Y-68240849D01*
X128537625Y-68146937D01*
X128487906Y-68085975D01*
X128487903Y-68085972D01*
X128484011Y-68081200D01*
X128466266Y-68066520D01*
X128330025Y-67953811D01*
X128330021Y-67953809D01*
X128325275Y-67949882D01*
X128144055Y-67851897D01*
X127947254Y-67790977D01*
X127941129Y-67790333D01*
X127941128Y-67790333D01*
X127748498Y-67770087D01*
X127748496Y-67770087D01*
X127742369Y-67769443D01*
X127667373Y-67776268D01*
X127543342Y-67787555D01*
X127543339Y-67787556D01*
X127537203Y-67788114D01*
X127339572Y-67846280D01*
X127157002Y-67941726D01*
X127132770Y-67961209D01*
X127090452Y-67995233D01*
X127024829Y-68022329D01*
X126954975Y-68009645D01*
X126903067Y-67961209D01*
X126885500Y-67897036D01*
X126885500Y-62460262D01*
X146769520Y-62460262D01*
X146770036Y-62466406D01*
X146781037Y-62597408D01*
X146786759Y-62665553D01*
X146788458Y-62671478D01*
X146829798Y-62815647D01*
X146843544Y-62863586D01*
X146846359Y-62869063D01*
X146846360Y-62869066D01*
X146913191Y-62999106D01*
X146937712Y-63046818D01*
X147065677Y-63208270D01*
X147070370Y-63212264D01*
X147070371Y-63212265D01*
X147196833Y-63319892D01*
X147222564Y-63341791D01*
X147227942Y-63344797D01*
X147227944Y-63344798D01*
X147266342Y-63366258D01*
X147402398Y-63442297D01*
X147497238Y-63473113D01*
X147592471Y-63504056D01*
X147592475Y-63504057D01*
X147598329Y-63505959D01*
X147802894Y-63530351D01*
X147809029Y-63529879D01*
X147809031Y-63529879D01*
X147865039Y-63525569D01*
X148008300Y-63514546D01*
X148014230Y-63512890D01*
X148014232Y-63512890D01*
X148200797Y-63460800D01*
X148200796Y-63460800D01*
X148206725Y-63459145D01*
X148212214Y-63456372D01*
X148212220Y-63456370D01*
X148385116Y-63369033D01*
X148390610Y-63366258D01*
X148398092Y-63360413D01*
X148548101Y-63243213D01*
X148552951Y-63239424D01*
X148557460Y-63234201D01*
X148683540Y-63088134D01*
X148683540Y-63088133D01*
X148687564Y-63083472D01*
X148704578Y-63053523D01*
X148747346Y-62978237D01*
X148789323Y-62904344D01*
X148854351Y-62708863D01*
X148880171Y-62504474D01*
X148880583Y-62475000D01*
X148860480Y-62269970D01*
X148800935Y-62072749D01*
X148704218Y-61890849D01*
X148586409Y-61746401D01*
X148577906Y-61735975D01*
X148577903Y-61735972D01*
X148574011Y-61731200D01*
X148556786Y-61716950D01*
X148420025Y-61603811D01*
X148420021Y-61603809D01*
X148415275Y-61599882D01*
X148248923Y-61509936D01*
X148239474Y-61504827D01*
X148234055Y-61501897D01*
X148037254Y-61440977D01*
X148031129Y-61440333D01*
X148031128Y-61440333D01*
X147838498Y-61420087D01*
X147838496Y-61420087D01*
X147832369Y-61419443D01*
X147745529Y-61427346D01*
X147633342Y-61437555D01*
X147633339Y-61437556D01*
X147627203Y-61438114D01*
X147429572Y-61496280D01*
X147247002Y-61591726D01*
X147242201Y-61595586D01*
X147242198Y-61595588D01*
X147231971Y-61603811D01*
X147086447Y-61720815D01*
X146954024Y-61878630D01*
X146951056Y-61884028D01*
X146951053Y-61884033D01*
X146878705Y-62015635D01*
X146854776Y-62059162D01*
X146852913Y-62065035D01*
X146810111Y-62199966D01*
X146792484Y-62255532D01*
X146791798Y-62261649D01*
X146791797Y-62261653D01*
X146781267Y-62355530D01*
X146769520Y-62460262D01*
X126885500Y-62460262D01*
X126885500Y-57585824D01*
X126887533Y-57566725D01*
X126887760Y-57561917D01*
X126889951Y-57551739D01*
X126886373Y-57521509D01*
X126886063Y-57516254D01*
X126885928Y-57516265D01*
X126885500Y-57511086D01*
X126885500Y-57505885D01*
X126882611Y-57488527D01*
X126881774Y-57482651D01*
X126877460Y-57446201D01*
X126877460Y-57446199D01*
X126876236Y-57435862D01*
X126872577Y-57428242D01*
X126871188Y-57419897D01*
X126849802Y-57380262D01*
X146769520Y-57380262D01*
X146770036Y-57386406D01*
X146785656Y-57572413D01*
X146786759Y-57585553D01*
X146788458Y-57591478D01*
X146838740Y-57766831D01*
X146843544Y-57783586D01*
X146846359Y-57789063D01*
X146846360Y-57789066D01*
X146934897Y-57961341D01*
X146937712Y-57966818D01*
X147065677Y-58128270D01*
X147070370Y-58132264D01*
X147070371Y-58132265D01*
X147144279Y-58195165D01*
X147222564Y-58261791D01*
X147227942Y-58264797D01*
X147227944Y-58264798D01*
X147312481Y-58312044D01*
X147402398Y-58362297D01*
X147481082Y-58387863D01*
X147592471Y-58424056D01*
X147592475Y-58424057D01*
X147598329Y-58425959D01*
X147802894Y-58450351D01*
X147809029Y-58449879D01*
X147809031Y-58449879D01*
X147865039Y-58445569D01*
X148008300Y-58434546D01*
X148014230Y-58432890D01*
X148014232Y-58432890D01*
X148200797Y-58380800D01*
X148200796Y-58380800D01*
X148206725Y-58379145D01*
X148212214Y-58376372D01*
X148212220Y-58376370D01*
X148385116Y-58289033D01*
X148390610Y-58286258D01*
X148415722Y-58266639D01*
X148491192Y-58207675D01*
X148552951Y-58159424D01*
X148562243Y-58148660D01*
X148683540Y-58008134D01*
X148683540Y-58008133D01*
X148687564Y-58003472D01*
X148708387Y-57966818D01*
X148736334Y-57917622D01*
X148789323Y-57824344D01*
X148854351Y-57628863D01*
X148880171Y-57424474D01*
X148880583Y-57395000D01*
X148860480Y-57189970D01*
X148800935Y-56992749D01*
X148704218Y-56810849D01*
X148624067Y-56712575D01*
X148577906Y-56655975D01*
X148577903Y-56655972D01*
X148574011Y-56651200D01*
X148556786Y-56636950D01*
X148420025Y-56523811D01*
X148420021Y-56523809D01*
X148415275Y-56519882D01*
X148234055Y-56421897D01*
X148037254Y-56360977D01*
X148031129Y-56360333D01*
X148031128Y-56360333D01*
X147838498Y-56340087D01*
X147838496Y-56340087D01*
X147832369Y-56339443D01*
X147745529Y-56347346D01*
X147633342Y-56357555D01*
X147633339Y-56357556D01*
X147627203Y-56358114D01*
X147429572Y-56416280D01*
X147247002Y-56511726D01*
X147242201Y-56515586D01*
X147242198Y-56515588D01*
X147100393Y-56629602D01*
X147086447Y-56640815D01*
X146954024Y-56798630D01*
X146951056Y-56804028D01*
X146951053Y-56804033D01*
X146895255Y-56905530D01*
X146854776Y-56979162D01*
X146852913Y-56985035D01*
X146795624Y-57165635D01*
X146792484Y-57175532D01*
X146791798Y-57181649D01*
X146791797Y-57181653D01*
X146775889Y-57323483D01*
X146769520Y-57380262D01*
X126849802Y-57380262D01*
X126848806Y-57378416D01*
X126846113Y-57373130D01*
X126825726Y-57330674D01*
X126822408Y-57326726D01*
X126820475Y-57324793D01*
X126819010Y-57323196D01*
X126818746Y-57322706D01*
X126818766Y-57322687D01*
X126818687Y-57322598D01*
X126815778Y-57317206D01*
X126804037Y-57306352D01*
X126779364Y-57283545D01*
X126775798Y-57280116D01*
X124242405Y-54746723D01*
X124208379Y-54684411D01*
X124205500Y-54657628D01*
X124205500Y-51849682D01*
X124225502Y-51781561D01*
X124279158Y-51735068D01*
X124349432Y-51724964D01*
X124414012Y-51754458D01*
X124430243Y-51771414D01*
X124435677Y-51778270D01*
X124440370Y-51782264D01*
X124440371Y-51782265D01*
X124547582Y-51873508D01*
X124592564Y-51911791D01*
X124597942Y-51914797D01*
X124597944Y-51914798D01*
X124614710Y-51924168D01*
X124772398Y-52012297D01*
X124867238Y-52043113D01*
X124962471Y-52074056D01*
X124962475Y-52074057D01*
X124968329Y-52075959D01*
X125172894Y-52100351D01*
X125179029Y-52099879D01*
X125179031Y-52099879D01*
X125235039Y-52095569D01*
X125378300Y-52084546D01*
X125384230Y-52082890D01*
X125384232Y-52082890D01*
X125570797Y-52030800D01*
X125570796Y-52030800D01*
X125576725Y-52029145D01*
X125582214Y-52026372D01*
X125582220Y-52026370D01*
X125755116Y-51939033D01*
X125760610Y-51936258D01*
X125782522Y-51919139D01*
X125876356Y-51845828D01*
X125922951Y-51809424D01*
X125932898Y-51797901D01*
X126053540Y-51658134D01*
X126053540Y-51658133D01*
X126057564Y-51653472D01*
X126078387Y-51616818D01*
X126156276Y-51479707D01*
X126159323Y-51474344D01*
X126224351Y-51278863D01*
X126250171Y-51074474D01*
X126250583Y-51045000D01*
X126230480Y-50839970D01*
X126170935Y-50642749D01*
X126074218Y-50460849D01*
X126000859Y-50370902D01*
X125947906Y-50305975D01*
X125947903Y-50305972D01*
X125944011Y-50301200D01*
X125859374Y-50231182D01*
X125790025Y-50173811D01*
X125790021Y-50173809D01*
X125785275Y-50169882D01*
X125604055Y-50071897D01*
X125407254Y-50010977D01*
X125401129Y-50010333D01*
X125401128Y-50010333D01*
X125208498Y-49990087D01*
X125208496Y-49990087D01*
X125202369Y-49989443D01*
X125115529Y-49997346D01*
X125003342Y-50007555D01*
X125003339Y-50007556D01*
X124997203Y-50008114D01*
X124799572Y-50066280D01*
X124617002Y-50161726D01*
X124612201Y-50165586D01*
X124612198Y-50165588D01*
X124518049Y-50241286D01*
X124456447Y-50290815D01*
X124428019Y-50324694D01*
X124368912Y-50364019D01*
X124297925Y-50365145D01*
X124237597Y-50327714D01*
X124207083Y-50263610D01*
X124205500Y-50243701D01*
X124205500Y-46405824D01*
X124207533Y-46386725D01*
X124207760Y-46381917D01*
X124209951Y-46371739D01*
X124206373Y-46341509D01*
X124206063Y-46336254D01*
X124205928Y-46336265D01*
X124205500Y-46331087D01*
X124205500Y-46325885D01*
X124202609Y-46308515D01*
X124201773Y-46302644D01*
X124197460Y-46266205D01*
X124196236Y-46255861D01*
X124192577Y-46248241D01*
X124191188Y-46239897D01*
X124168819Y-46198441D01*
X124166122Y-46193150D01*
X124149153Y-46157811D01*
X124145726Y-46150674D01*
X124142408Y-46146726D01*
X124140469Y-46144787D01*
X124139010Y-46143196D01*
X124138746Y-46142706D01*
X124138766Y-46142687D01*
X124138687Y-46142598D01*
X124135778Y-46137206D01*
X124099364Y-46103545D01*
X124095798Y-46100116D01*
X122891077Y-44895395D01*
X122857051Y-44833083D01*
X122854284Y-44807339D01*
X122855250Y-44800000D01*
X122836330Y-44656291D01*
X122780861Y-44522375D01*
X122692621Y-44407379D01*
X122577625Y-44319139D01*
X122443709Y-44263670D01*
X122300000Y-44244750D01*
X122156291Y-44263670D01*
X122022375Y-44319139D01*
X121907379Y-44407379D01*
X121819139Y-44522375D01*
X121763670Y-44656291D01*
X121744750Y-44800000D01*
X121763670Y-44943709D01*
X121819139Y-45077625D01*
X121907379Y-45192621D01*
X122022375Y-45280861D01*
X122156291Y-45336330D01*
X122285918Y-45353396D01*
X122291812Y-45354172D01*
X122300000Y-45355250D01*
X122306885Y-45354344D01*
X122374421Y-45374174D01*
X122395395Y-45391077D01*
X123467595Y-46463277D01*
X123501621Y-46525589D01*
X123504500Y-46552372D01*
X123504500Y-50116568D01*
X123484498Y-50184689D01*
X123430842Y-50231182D01*
X123360568Y-50241286D01*
X123298185Y-50213653D01*
X123250025Y-50173811D01*
X123250021Y-50173809D01*
X123245275Y-50169882D01*
X123064055Y-50071897D01*
X122867254Y-50010977D01*
X122861129Y-50010333D01*
X122861128Y-50010333D01*
X122668498Y-49990087D01*
X122668496Y-49990087D01*
X122662369Y-49989443D01*
X122575529Y-49997346D01*
X122463342Y-50007555D01*
X122463339Y-50007556D01*
X122457203Y-50008114D01*
X122259572Y-50066280D01*
X122077002Y-50161726D01*
X122072201Y-50165586D01*
X122072198Y-50165588D01*
X121978049Y-50241286D01*
X121916447Y-50290815D01*
X121784024Y-50448630D01*
X121781056Y-50454028D01*
X121781053Y-50454033D01*
X121774315Y-50466290D01*
X121684776Y-50629162D01*
X121622484Y-50825532D01*
X121621798Y-50831649D01*
X121621797Y-50831653D01*
X121600207Y-51024137D01*
X121599520Y-51030262D01*
X121169138Y-51030262D01*
X121150480Y-50839970D01*
X121090935Y-50642749D01*
X120994218Y-50460849D01*
X120920859Y-50370902D01*
X120867906Y-50305975D01*
X120867903Y-50305972D01*
X120864011Y-50301200D01*
X120779374Y-50231182D01*
X120710025Y-50173811D01*
X120710021Y-50173809D01*
X120705275Y-50169882D01*
X120524055Y-50071897D01*
X120327254Y-50010977D01*
X120321129Y-50010333D01*
X120321128Y-50010333D01*
X120128498Y-49990087D01*
X120128496Y-49990087D01*
X120122369Y-49989443D01*
X120035529Y-49997346D01*
X119923342Y-50007555D01*
X119923339Y-50007556D01*
X119917203Y-50008114D01*
X119719572Y-50066280D01*
X119537002Y-50161726D01*
X119532201Y-50165586D01*
X119532198Y-50165588D01*
X119438049Y-50241286D01*
X119376447Y-50290815D01*
X119244024Y-50448630D01*
X119241056Y-50454028D01*
X119241053Y-50454033D01*
X119234315Y-50466290D01*
X119144776Y-50629162D01*
X119082484Y-50825532D01*
X119081798Y-50831649D01*
X119081797Y-50831653D01*
X119060207Y-51024137D01*
X119059520Y-51030262D01*
X116695280Y-51030262D01*
X116695280Y-49052592D01*
X116715282Y-48984471D01*
X116732185Y-48963497D01*
X120304605Y-45391077D01*
X120366917Y-45357051D01*
X120392661Y-45354284D01*
X120400000Y-45355250D01*
X120543709Y-45336330D01*
X120677625Y-45280861D01*
X120792621Y-45192621D01*
X120880861Y-45077625D01*
X120936330Y-44943709D01*
X120955250Y-44800000D01*
X120936330Y-44656291D01*
X120880861Y-44522375D01*
X120792621Y-44407379D01*
X120677625Y-44319139D01*
X120543709Y-44263670D01*
X120400000Y-44244750D01*
X120256291Y-44263670D01*
X120122375Y-44319139D01*
X120007379Y-44407379D01*
X119919139Y-44522375D01*
X119863670Y-44656291D01*
X119844750Y-44800000D01*
X119845656Y-44806885D01*
X119825826Y-44874421D01*
X119808923Y-44895395D01*
X116132881Y-48571437D01*
X116117927Y-48583515D01*
X116114375Y-48586747D01*
X116105628Y-48592395D01*
X116099182Y-48600572D01*
X116086778Y-48616306D01*
X116083281Y-48620241D01*
X116083385Y-48620329D01*
X116080030Y-48624288D01*
X116076352Y-48627966D01*
X116073333Y-48632191D01*
X116073326Y-48632199D01*
X116066108Y-48642300D01*
X116062544Y-48647047D01*
X116033388Y-48684031D01*
X116030587Y-48692007D01*
X116025669Y-48698889D01*
X116012161Y-48744056D01*
X116010339Y-48749662D01*
X115997352Y-48786643D01*
X115997351Y-48786649D01*
X115994725Y-48794126D01*
X115994280Y-48799264D01*
X115994280Y-48801983D01*
X115994185Y-48804165D01*
X115994025Y-48804700D01*
X115993998Y-48804699D01*
X115993991Y-48804817D01*
X115992236Y-48810684D01*
X115992645Y-48821092D01*
X115994183Y-48860239D01*
X115994280Y-48865186D01*
X115994280Y-50208097D01*
X115974278Y-50276218D01*
X115920622Y-50322711D01*
X115850348Y-50332815D01*
X115785768Y-50303321D01*
X115785654Y-50303214D01*
X115784011Y-50301200D01*
X115643174Y-50184689D01*
X115630025Y-50173811D01*
X115630021Y-50173809D01*
X115625275Y-50169882D01*
X115444055Y-50071897D01*
X115247254Y-50010977D01*
X115241129Y-50010333D01*
X115241128Y-50010333D01*
X115048498Y-49990087D01*
X115048496Y-49990087D01*
X115042369Y-49989443D01*
X114955529Y-49997346D01*
X114843342Y-50007555D01*
X114843339Y-50007556D01*
X114837203Y-50008114D01*
X114639572Y-50066280D01*
X114457002Y-50161726D01*
X114452201Y-50165586D01*
X114452198Y-50165588D01*
X114358049Y-50241286D01*
X114296447Y-50290815D01*
X114164024Y-50448630D01*
X114161056Y-50454028D01*
X114161053Y-50454033D01*
X114154315Y-50466290D01*
X114064776Y-50629162D01*
X114002484Y-50825532D01*
X114001798Y-50831649D01*
X114001797Y-50831653D01*
X113980207Y-51024137D01*
X113979520Y-51030262D01*
X113996759Y-51235553D01*
X114053544Y-51433586D01*
X114056359Y-51439063D01*
X114056360Y-51439066D01*
X114077247Y-51479707D01*
X114147712Y-51616818D01*
X114275677Y-51778270D01*
X114280370Y-51782264D01*
X114280371Y-51782265D01*
X114387582Y-51873508D01*
X114432564Y-51911791D01*
X114437942Y-51914797D01*
X114437944Y-51914798D01*
X114454710Y-51924168D01*
X114612398Y-52012297D01*
X114707238Y-52043113D01*
X114802471Y-52074056D01*
X114802475Y-52074057D01*
X114808329Y-52075959D01*
X115012894Y-52100351D01*
X115019029Y-52099879D01*
X115019031Y-52099879D01*
X115075039Y-52095569D01*
X115218300Y-52084546D01*
X115224230Y-52082890D01*
X115224232Y-52082890D01*
X115410797Y-52030800D01*
X115410796Y-52030800D01*
X115416725Y-52029145D01*
X115422214Y-52026372D01*
X115422220Y-52026370D01*
X115595116Y-51939033D01*
X115600610Y-51936258D01*
X115622522Y-51919139D01*
X115716356Y-51845828D01*
X115762951Y-51809424D01*
X115766972Y-51804766D01*
X115766976Y-51804762D01*
X115772898Y-51797901D01*
X115832550Y-51759403D01*
X115903547Y-51759267D01*
X115963346Y-51797536D01*
X115992963Y-51862060D01*
X115994280Y-51880231D01*
X115994280Y-62743956D01*
X115992247Y-62763055D01*
X115992020Y-62767863D01*
X115989829Y-62778041D01*
X115991053Y-62788380D01*
X115993407Y-62808271D01*
X115993717Y-62813526D01*
X115993852Y-62813515D01*
X115994280Y-62818694D01*
X115994280Y-62823895D01*
X115995134Y-62829023D01*
X115995134Y-62829029D01*
X115997169Y-62841253D01*
X115998006Y-62847129D01*
X116000603Y-62869066D01*
X116003544Y-62893918D01*
X116007203Y-62901538D01*
X116008592Y-62909883D01*
X116013537Y-62919047D01*
X116030972Y-62951360D01*
X116033664Y-62956645D01*
X116054054Y-62999106D01*
X116057372Y-63003054D01*
X116059305Y-63004987D01*
X116060770Y-63006584D01*
X116061034Y-63007074D01*
X116061014Y-63007093D01*
X116061093Y-63007182D01*
X116064002Y-63012574D01*
X116071650Y-63019644D01*
X116071651Y-63019645D01*
X116100416Y-63046235D01*
X116103982Y-63049664D01*
X118387595Y-65333277D01*
X118421621Y-65395589D01*
X118424500Y-65422372D01*
X118424500Y-73727628D01*
X118404498Y-73795749D01*
X118387595Y-73816723D01*
X113679793Y-78524525D01*
X113617481Y-78558551D01*
X113546666Y-78553486D01*
X113489830Y-78510939D01*
X113465019Y-78444419D01*
X113465776Y-78418984D01*
X113469172Y-78393189D01*
X113469172Y-78393188D01*
X113470250Y-78385000D01*
X113451330Y-78241291D01*
X113395861Y-78107375D01*
X113307621Y-77992379D01*
X113192625Y-77904139D01*
X113058709Y-77848670D01*
X113011294Y-77842428D01*
X112955053Y-77835023D01*
X112890126Y-77806300D01*
X112851035Y-77747035D01*
X112845500Y-77710101D01*
X112845500Y-69902434D01*
X112865502Y-69834313D01*
X112914689Y-69789968D01*
X112916031Y-69789290D01*
X113060610Y-69716258D01*
X113222951Y-69589424D01*
X113247002Y-69561561D01*
X113353540Y-69438134D01*
X113353540Y-69438133D01*
X113357564Y-69433472D01*
X113378387Y-69396818D01*
X113456276Y-69259707D01*
X113459323Y-69254344D01*
X113524351Y-69058863D01*
X113550171Y-68854474D01*
X113550583Y-68825000D01*
X113530480Y-68619970D01*
X113470935Y-68422749D01*
X113374218Y-68240849D01*
X113297625Y-68146937D01*
X113247906Y-68085975D01*
X113247903Y-68085972D01*
X113244011Y-68081200D01*
X113234806Y-68073585D01*
X113195068Y-68014751D01*
X113193445Y-67943773D01*
X113230454Y-67883186D01*
X113294344Y-67852225D01*
X113315121Y-67850500D01*
X114213531Y-67850500D01*
X114281652Y-67870502D01*
X114328145Y-67924158D01*
X114338249Y-67994432D01*
X114308755Y-68059012D01*
X114301692Y-68066520D01*
X114301247Y-68066955D01*
X114296447Y-68070815D01*
X114292488Y-68075533D01*
X114292484Y-68075537D01*
X114257321Y-68117443D01*
X114164024Y-68228630D01*
X114161056Y-68234028D01*
X114161053Y-68234033D01*
X114089586Y-68364032D01*
X114064776Y-68409162D01*
X114002484Y-68605532D01*
X114001798Y-68611649D01*
X114001797Y-68611653D01*
X113993662Y-68684178D01*
X113979520Y-68810262D01*
X113980036Y-68816406D01*
X113994704Y-68991077D01*
X113996759Y-69015553D01*
X114053544Y-69213586D01*
X114056359Y-69219063D01*
X114056360Y-69219066D01*
X114077247Y-69259707D01*
X114147712Y-69396818D01*
X114275677Y-69558270D01*
X114280370Y-69562264D01*
X114280371Y-69562265D01*
X114425867Y-69686091D01*
X114432564Y-69691791D01*
X114612398Y-69792297D01*
X114684499Y-69815724D01*
X114802471Y-69854056D01*
X114802475Y-69854057D01*
X114808329Y-69855959D01*
X115012894Y-69880351D01*
X115019029Y-69879879D01*
X115019031Y-69879879D01*
X115075039Y-69875569D01*
X115218300Y-69864546D01*
X115224230Y-69862890D01*
X115224232Y-69862890D01*
X115385500Y-69817863D01*
X115416725Y-69809145D01*
X115422214Y-69806372D01*
X115422220Y-69806370D01*
X115595116Y-69719033D01*
X115600610Y-69716258D01*
X115762951Y-69589424D01*
X115787002Y-69561561D01*
X115893540Y-69438134D01*
X115893540Y-69438133D01*
X115897564Y-69433472D01*
X115918387Y-69396818D01*
X115996276Y-69259707D01*
X115999323Y-69254344D01*
X116064351Y-69058863D01*
X116090171Y-68854474D01*
X116090583Y-68825000D01*
X116070480Y-68619970D01*
X116010935Y-68422749D01*
X115914218Y-68240849D01*
X115837625Y-68146937D01*
X115787906Y-68085975D01*
X115787903Y-68085972D01*
X115784011Y-68081200D01*
X115774806Y-68073585D01*
X115735068Y-68014751D01*
X115733445Y-67943773D01*
X115770454Y-67883186D01*
X115834344Y-67852225D01*
X115855121Y-67850500D01*
X116049176Y-67850500D01*
X116068275Y-67852533D01*
X116073083Y-67852760D01*
X116083261Y-67854951D01*
X116113491Y-67851373D01*
X116118746Y-67851063D01*
X116118735Y-67850928D01*
X116123914Y-67850500D01*
X116129115Y-67850500D01*
X116134243Y-67849646D01*
X116134249Y-67849646D01*
X116146473Y-67847611D01*
X116152349Y-67846774D01*
X116188799Y-67842460D01*
X116188801Y-67842460D01*
X116199138Y-67841236D01*
X116206758Y-67837577D01*
X116215103Y-67836188D01*
X116256584Y-67813806D01*
X116261870Y-67811113D01*
X116304326Y-67790726D01*
X116308274Y-67787408D01*
X116310207Y-67785475D01*
X116311804Y-67784010D01*
X116312294Y-67783746D01*
X116312313Y-67783766D01*
X116312402Y-67783687D01*
X116317794Y-67780778D01*
X116327756Y-67770002D01*
X116351455Y-67744364D01*
X116354884Y-67740798D01*
X117304605Y-66791077D01*
X117366917Y-66757051D01*
X117392661Y-66754284D01*
X117400000Y-66755250D01*
X117543709Y-66736330D01*
X117677625Y-66680861D01*
X117792621Y-66592621D01*
X117880861Y-66477625D01*
X117936330Y-66343709D01*
X117955250Y-66200000D01*
X117936330Y-66056291D01*
X117880861Y-65922375D01*
X117792621Y-65807379D01*
X117677625Y-65719139D01*
X117543709Y-65663670D01*
X117400000Y-65644750D01*
X117256291Y-65663670D01*
X117122375Y-65719139D01*
X117007379Y-65807379D01*
X116919139Y-65922375D01*
X116863670Y-66056291D01*
X116844750Y-66200000D01*
X116845656Y-66206885D01*
X116825826Y-66274421D01*
X116808923Y-66295395D01*
X115991723Y-67112595D01*
X115929411Y-67146621D01*
X115902628Y-67149500D01*
X103710824Y-67149500D01*
X103691725Y-67147467D01*
X103686917Y-67147240D01*
X103676739Y-67145049D01*
X103646509Y-67148627D01*
X103641254Y-67148937D01*
X103641265Y-67149072D01*
X103636086Y-67149500D01*
X103630885Y-67149500D01*
X103625757Y-67150354D01*
X103625751Y-67150354D01*
X103613527Y-67152389D01*
X103607651Y-67153226D01*
X103571201Y-67157540D01*
X103571199Y-67157540D01*
X103560862Y-67158764D01*
X103553242Y-67162423D01*
X103544897Y-67163812D01*
X103503420Y-67186192D01*
X103498135Y-67188884D01*
X103455674Y-67209274D01*
X103451726Y-67212592D01*
X103449793Y-67214525D01*
X103448196Y-67215990D01*
X103447706Y-67216254D01*
X103447687Y-67216234D01*
X103447598Y-67216313D01*
X103442206Y-67219222D01*
X103435136Y-67226870D01*
X103435135Y-67226871D01*
X103408545Y-67255636D01*
X103405116Y-67259202D01*
X102850007Y-67814311D01*
X102787695Y-67848337D01*
X102723653Y-67845581D01*
X102612303Y-67811113D01*
X102547254Y-67790977D01*
X102541129Y-67790333D01*
X102541128Y-67790333D01*
X102348498Y-67770087D01*
X102348496Y-67770087D01*
X102342369Y-67769443D01*
X102267373Y-67776268D01*
X102143342Y-67787555D01*
X102143339Y-67787556D01*
X102137203Y-67788114D01*
X101939572Y-67846280D01*
X101757002Y-67941726D01*
X101752201Y-67945586D01*
X101752198Y-67945588D01*
X101655045Y-68023701D01*
X101596447Y-68070815D01*
X101464024Y-68228630D01*
X101461056Y-68234028D01*
X101461053Y-68234033D01*
X101389586Y-68364032D01*
X101364776Y-68409162D01*
X101302484Y-68605532D01*
X101301798Y-68611649D01*
X101301797Y-68611653D01*
X101293662Y-68684178D01*
X101279520Y-68810262D01*
X101280036Y-68816406D01*
X101294704Y-68991077D01*
X101296759Y-69015553D01*
X101353544Y-69213586D01*
X101356359Y-69219063D01*
X101356360Y-69219066D01*
X101377247Y-69259707D01*
X101447712Y-69396818D01*
X101575677Y-69558270D01*
X101580370Y-69562264D01*
X101580371Y-69562265D01*
X101725867Y-69686091D01*
X101732564Y-69691791D01*
X101912398Y-69792297D01*
X101984499Y-69815724D01*
X102102471Y-69854056D01*
X102102475Y-69854057D01*
X102108329Y-69855959D01*
X102312894Y-69880351D01*
X102319029Y-69879879D01*
X102319031Y-69879879D01*
X102375039Y-69875569D01*
X102518300Y-69864546D01*
X102524230Y-69862890D01*
X102524232Y-69862890D01*
X102685500Y-69817863D01*
X102716725Y-69809145D01*
X102722214Y-69806372D01*
X102722220Y-69806370D01*
X102895116Y-69719033D01*
X102900610Y-69716258D01*
X103062951Y-69589424D01*
X103087002Y-69561561D01*
X103193540Y-69438134D01*
X103193540Y-69438133D01*
X103197564Y-69433472D01*
X103218387Y-69396818D01*
X103296276Y-69259707D01*
X103299323Y-69254344D01*
X103364351Y-69058863D01*
X103390171Y-68854474D01*
X103390583Y-68825000D01*
X103370480Y-68619970D01*
X103314642Y-68435026D01*
X103314101Y-68364033D01*
X103346168Y-68309514D01*
X103768276Y-67887405D01*
X103830589Y-67853380D01*
X103857372Y-67850500D01*
X106593531Y-67850500D01*
X106661652Y-67870502D01*
X106708145Y-67924158D01*
X106718249Y-67994432D01*
X106688755Y-68059012D01*
X106681692Y-68066520D01*
X106681247Y-68066955D01*
X106676447Y-68070815D01*
X106672488Y-68075533D01*
X106672484Y-68075537D01*
X106637321Y-68117443D01*
X106544024Y-68228630D01*
X106541056Y-68234028D01*
X106541053Y-68234033D01*
X106469586Y-68364032D01*
X106444776Y-68409162D01*
X106382484Y-68605532D01*
X106381798Y-68611649D01*
X106381797Y-68611653D01*
X106373662Y-68684178D01*
X106359520Y-68810262D01*
X106360036Y-68816406D01*
X106374704Y-68991077D01*
X106376759Y-69015553D01*
X106433544Y-69213586D01*
X106436359Y-69219063D01*
X106436360Y-69219066D01*
X106457247Y-69259707D01*
X106527712Y-69396818D01*
X106655677Y-69558270D01*
X106660370Y-69562264D01*
X106660371Y-69562265D01*
X106805867Y-69686091D01*
X106812564Y-69691791D01*
X106992398Y-69792297D01*
X107064499Y-69815724D01*
X107182471Y-69854056D01*
X107182475Y-69854057D01*
X107188329Y-69855959D01*
X107392894Y-69880351D01*
X107399029Y-69879879D01*
X107399031Y-69879879D01*
X107455039Y-69875569D01*
X107598300Y-69864546D01*
X107604230Y-69862890D01*
X107604232Y-69862890D01*
X107765500Y-69817863D01*
X107796725Y-69809145D01*
X107802214Y-69806372D01*
X107802220Y-69806370D01*
X107975116Y-69719033D01*
X107980610Y-69716258D01*
X108142951Y-69589424D01*
X108167002Y-69561561D01*
X108273540Y-69438134D01*
X108273540Y-69438133D01*
X108277564Y-69433472D01*
X108298387Y-69396818D01*
X108376276Y-69259707D01*
X108379323Y-69254344D01*
X108444351Y-69058863D01*
X108470171Y-68854474D01*
X108470583Y-68825000D01*
X108450480Y-68619970D01*
X108390935Y-68422749D01*
X108294218Y-68240849D01*
X108217625Y-68146937D01*
X108167906Y-68085975D01*
X108167903Y-68085972D01*
X108164011Y-68081200D01*
X108154806Y-68073585D01*
X108115068Y-68014751D01*
X108113445Y-67943773D01*
X108150454Y-67883186D01*
X108214344Y-67852225D01*
X108235121Y-67850500D01*
X109133531Y-67850500D01*
X109201652Y-67870502D01*
X109248145Y-67924158D01*
X109258249Y-67994432D01*
X109228755Y-68059012D01*
X109221692Y-68066520D01*
X109221247Y-68066955D01*
X109216447Y-68070815D01*
X109212488Y-68075533D01*
X109212484Y-68075537D01*
X109177321Y-68117443D01*
X109084024Y-68228630D01*
X109081056Y-68234028D01*
X109081053Y-68234033D01*
X109009586Y-68364032D01*
X108984776Y-68409162D01*
X108922484Y-68605532D01*
X108921798Y-68611649D01*
X108921797Y-68611653D01*
X108913662Y-68684178D01*
X108899520Y-68810262D01*
X108900036Y-68816406D01*
X108914704Y-68991077D01*
X108916759Y-69015553D01*
X108973544Y-69213586D01*
X108976359Y-69219063D01*
X108976360Y-69219066D01*
X108997247Y-69259707D01*
X109067712Y-69396818D01*
X109195677Y-69558270D01*
X109200370Y-69562264D01*
X109200371Y-69562265D01*
X109345867Y-69686091D01*
X109352564Y-69691791D01*
X109532398Y-69792297D01*
X109604499Y-69815724D01*
X109722471Y-69854056D01*
X109722475Y-69854057D01*
X109728329Y-69855959D01*
X109932894Y-69880351D01*
X109939029Y-69879879D01*
X109939031Y-69879879D01*
X109995039Y-69875569D01*
X110138300Y-69864546D01*
X110144230Y-69862890D01*
X110144232Y-69862890D01*
X110305500Y-69817863D01*
X110336725Y-69809145D01*
X110342214Y-69806372D01*
X110342220Y-69806370D01*
X110515116Y-69719033D01*
X110520610Y-69716258D01*
X110682951Y-69589424D01*
X110707002Y-69561561D01*
X110813540Y-69438134D01*
X110813540Y-69438133D01*
X110817564Y-69433472D01*
X110838387Y-69396818D01*
X110916276Y-69259707D01*
X110919323Y-69254344D01*
X110984351Y-69058863D01*
X111010171Y-68854474D01*
X111010583Y-68825000D01*
X110990480Y-68619970D01*
X110930935Y-68422749D01*
X110834218Y-68240849D01*
X110757625Y-68146937D01*
X110707906Y-68085975D01*
X110707903Y-68085972D01*
X110704011Y-68081200D01*
X110694806Y-68073585D01*
X110655068Y-68014751D01*
X110653445Y-67943773D01*
X110690454Y-67883186D01*
X110754344Y-67852225D01*
X110775121Y-67850500D01*
X111673531Y-67850500D01*
X111741652Y-67870502D01*
X111788145Y-67924158D01*
X111798249Y-67994432D01*
X111768755Y-68059012D01*
X111761692Y-68066520D01*
X111761247Y-68066955D01*
X111756447Y-68070815D01*
X111752488Y-68075533D01*
X111752484Y-68075537D01*
X111717321Y-68117443D01*
X111624024Y-68228630D01*
X111621056Y-68234028D01*
X111621053Y-68234033D01*
X111549586Y-68364032D01*
X111524776Y-68409162D01*
X111462484Y-68605532D01*
X111461798Y-68611649D01*
X111461797Y-68611653D01*
X111453662Y-68684178D01*
X111439520Y-68810262D01*
X111440036Y-68816406D01*
X111454704Y-68991077D01*
X111456759Y-69015553D01*
X111513544Y-69213586D01*
X111516359Y-69219063D01*
X111516360Y-69219066D01*
X111537247Y-69259707D01*
X111607712Y-69396818D01*
X111735677Y-69558270D01*
X111740370Y-69562264D01*
X111740371Y-69562265D01*
X111885867Y-69686091D01*
X111892564Y-69691791D01*
X112069782Y-69790835D01*
X112072398Y-69792297D01*
X112072120Y-69792794D01*
X112123359Y-69835731D01*
X112144500Y-69905593D01*
X112144500Y-77914176D01*
X112142467Y-77933275D01*
X112142240Y-77938083D01*
X112140049Y-77948261D01*
X112141273Y-77958600D01*
X112143627Y-77978491D01*
X112143937Y-77983746D01*
X112144072Y-77983735D01*
X112144500Y-77988914D01*
X112144500Y-77994115D01*
X112145354Y-77999243D01*
X112145354Y-77999249D01*
X112147389Y-78011473D01*
X112148226Y-78017349D01*
X112151799Y-78047532D01*
X112153764Y-78064138D01*
X112157423Y-78071758D01*
X112158812Y-78080103D01*
X112173527Y-78107375D01*
X112181192Y-78121580D01*
X112183884Y-78126865D01*
X112204274Y-78169326D01*
X112207592Y-78173274D01*
X112209525Y-78175207D01*
X112210990Y-78176804D01*
X112211254Y-78177294D01*
X112211234Y-78177313D01*
X112211313Y-78177402D01*
X112214222Y-78182794D01*
X112221870Y-78189864D01*
X112221871Y-78189865D01*
X112250636Y-78216455D01*
X112254202Y-78219884D01*
X112323923Y-78289605D01*
X112357949Y-78351917D01*
X112360716Y-78377661D01*
X112359750Y-78385000D01*
X112378670Y-78528709D01*
X112434139Y-78662625D01*
X112522379Y-78777621D01*
X112637375Y-78865861D01*
X112771291Y-78921330D01*
X112915000Y-78940250D01*
X112923188Y-78939172D01*
X112923189Y-78939172D01*
X112948984Y-78935776D01*
X113019132Y-78946715D01*
X113072231Y-78993843D01*
X113091421Y-79062197D01*
X113070610Y-79130075D01*
X113054525Y-79149793D01*
X112991723Y-79212595D01*
X112929411Y-79246621D01*
X112902628Y-79249500D01*
X112497372Y-79249500D01*
X112429251Y-79229498D01*
X112408277Y-79212595D01*
X107191077Y-73995395D01*
X107157051Y-73933083D01*
X107154284Y-73907339D01*
X107155250Y-73900000D01*
X107136330Y-73756291D01*
X107080861Y-73622375D01*
X106992621Y-73507379D01*
X106877625Y-73419139D01*
X106743709Y-73363670D01*
X106600000Y-73344750D01*
X106456291Y-73363670D01*
X106322375Y-73419139D01*
X106207379Y-73507379D01*
X106119139Y-73622375D01*
X106063670Y-73756291D01*
X106044750Y-73900000D01*
X106063670Y-74043709D01*
X106119139Y-74177625D01*
X106207379Y-74292621D01*
X106322375Y-74380861D01*
X106456291Y-74436330D01*
X106591812Y-74454172D01*
X106600000Y-74455250D01*
X106606885Y-74454344D01*
X106674421Y-74474174D01*
X106695395Y-74491077D01*
X112016217Y-79811899D01*
X112028295Y-79826853D01*
X112031527Y-79830405D01*
X112037175Y-79839152D01*
X112045352Y-79845598D01*
X112061086Y-79858002D01*
X112065021Y-79861499D01*
X112065109Y-79861395D01*
X112069068Y-79864750D01*
X112072746Y-79868428D01*
X112076971Y-79871447D01*
X112076979Y-79871454D01*
X112087080Y-79878672D01*
X112091827Y-79882236D01*
X112128811Y-79911392D01*
X112136787Y-79914193D01*
X112143669Y-79919111D01*
X112153647Y-79922095D01*
X112188791Y-79932605D01*
X112194437Y-79934439D01*
X112231427Y-79947429D01*
X112231430Y-79947430D01*
X112238906Y-79950055D01*
X112244044Y-79950500D01*
X112246749Y-79950500D01*
X112248948Y-79950595D01*
X112249480Y-79950754D01*
X112249479Y-79950781D01*
X112249595Y-79950788D01*
X112255463Y-79952543D01*
X112305003Y-79950597D01*
X112309950Y-79950500D01*
X113049176Y-79950500D01*
X113068275Y-79952533D01*
X113073083Y-79952760D01*
X113083261Y-79954951D01*
X113113491Y-79951373D01*
X113118746Y-79951063D01*
X113118735Y-79950928D01*
X113123914Y-79950500D01*
X113129115Y-79950500D01*
X113134243Y-79949646D01*
X113134249Y-79949646D01*
X113146473Y-79947611D01*
X113152349Y-79946774D01*
X113188799Y-79942460D01*
X113188801Y-79942460D01*
X113199138Y-79941236D01*
X113206758Y-79937577D01*
X113215103Y-79936188D01*
X113224267Y-79931243D01*
X113234119Y-79927870D01*
X113234551Y-79929133D01*
X113293492Y-79916618D01*
X113359888Y-79941760D01*
X113402151Y-79998807D01*
X113406862Y-80069648D01*
X113372972Y-80131346D01*
X111391723Y-82112595D01*
X111329411Y-82146621D01*
X111302628Y-82149500D01*
X97485409Y-82149500D01*
X97417288Y-82129498D01*
X97397128Y-82113252D01*
X97392621Y-82107379D01*
X97277625Y-82019139D01*
X97143709Y-81963670D01*
X97000000Y-81944750D01*
X96856291Y-81963670D01*
X96722375Y-82019139D01*
X96607379Y-82107379D01*
X96519139Y-82222375D01*
X96463670Y-82356291D01*
X96444750Y-82500000D01*
X82200500Y-82500000D01*
X82200500Y-68810262D01*
X98739520Y-68810262D01*
X98740036Y-68816406D01*
X98754704Y-68991077D01*
X98756759Y-69015553D01*
X98813544Y-69213586D01*
X98816359Y-69219063D01*
X98816360Y-69219066D01*
X98837247Y-69259707D01*
X98907712Y-69396818D01*
X99035677Y-69558270D01*
X99040370Y-69562264D01*
X99040371Y-69562265D01*
X99185867Y-69686091D01*
X99192564Y-69691791D01*
X99372398Y-69792297D01*
X99444499Y-69815724D01*
X99562471Y-69854056D01*
X99562475Y-69854057D01*
X99568329Y-69855959D01*
X99772894Y-69880351D01*
X99779029Y-69879879D01*
X99779031Y-69879879D01*
X99835039Y-69875569D01*
X99978300Y-69864546D01*
X99984230Y-69862890D01*
X99984232Y-69862890D01*
X100145500Y-69817863D01*
X100176725Y-69809145D01*
X100182214Y-69806372D01*
X100182220Y-69806370D01*
X100355116Y-69719033D01*
X100360610Y-69716258D01*
X100522951Y-69589424D01*
X100547002Y-69561561D01*
X100653540Y-69438134D01*
X100653540Y-69438133D01*
X100657564Y-69433472D01*
X100678387Y-69396818D01*
X100756276Y-69259707D01*
X100759323Y-69254344D01*
X100824351Y-69058863D01*
X100850171Y-68854474D01*
X100850583Y-68825000D01*
X100830480Y-68619970D01*
X100786536Y-68474421D01*
X100774642Y-68435026D01*
X100774101Y-68364032D01*
X100806169Y-68309513D01*
X102928277Y-66187405D01*
X102990589Y-66153379D01*
X103017372Y-66150500D01*
X115449176Y-66150500D01*
X115468275Y-66152533D01*
X115473083Y-66152760D01*
X115483261Y-66154951D01*
X115513491Y-66151373D01*
X115518746Y-66151063D01*
X115518735Y-66150928D01*
X115523914Y-66150500D01*
X115529115Y-66150500D01*
X115534243Y-66149646D01*
X115534249Y-66149646D01*
X115546473Y-66147611D01*
X115552349Y-66146774D01*
X115588799Y-66142460D01*
X115588801Y-66142460D01*
X115599138Y-66141236D01*
X115606758Y-66137577D01*
X115615103Y-66136188D01*
X115656584Y-66113806D01*
X115661870Y-66111113D01*
X115704326Y-66090726D01*
X115708274Y-66087408D01*
X115710207Y-66085475D01*
X115711804Y-66084010D01*
X115712294Y-66083746D01*
X115712313Y-66083766D01*
X115712402Y-66083687D01*
X115717794Y-66080778D01*
X115751455Y-66044364D01*
X115754884Y-66040798D01*
X116304605Y-65491077D01*
X116366917Y-65457051D01*
X116392661Y-65454284D01*
X116400000Y-65455250D01*
X116543709Y-65436330D01*
X116677625Y-65380861D01*
X116792621Y-65292621D01*
X116880861Y-65177625D01*
X116936330Y-65043709D01*
X116955250Y-64900000D01*
X116936330Y-64756291D01*
X116880861Y-64622375D01*
X116792621Y-64507379D01*
X116677625Y-64419139D01*
X116543709Y-64363670D01*
X116400000Y-64344750D01*
X116256291Y-64363670D01*
X116122375Y-64419139D01*
X116007379Y-64507379D01*
X115919139Y-64622375D01*
X115863670Y-64756291D01*
X115844750Y-64900000D01*
X115845656Y-64906885D01*
X115825826Y-64974421D01*
X115808923Y-64995395D01*
X115391723Y-65412595D01*
X115329411Y-65446621D01*
X115302628Y-65449500D01*
X102870824Y-65449500D01*
X102851725Y-65447467D01*
X102846917Y-65447240D01*
X102836739Y-65445049D01*
X102809103Y-65448320D01*
X102806509Y-65448627D01*
X102801254Y-65448937D01*
X102801265Y-65449072D01*
X102796087Y-65449500D01*
X102790885Y-65449500D01*
X102773515Y-65452391D01*
X102767645Y-65453227D01*
X102720861Y-65458764D01*
X102713241Y-65462423D01*
X102704897Y-65463812D01*
X102695732Y-65468757D01*
X102695730Y-65468758D01*
X102663441Y-65486181D01*
X102658162Y-65488872D01*
X102615674Y-65509274D01*
X102611726Y-65512592D01*
X102609787Y-65514531D01*
X102608196Y-65515990D01*
X102607706Y-65516254D01*
X102607687Y-65516234D01*
X102607598Y-65516313D01*
X102602206Y-65519222D01*
X102595136Y-65526870D01*
X102595135Y-65526871D01*
X102568545Y-65555636D01*
X102565116Y-65559202D01*
X100310007Y-67814311D01*
X100247695Y-67848337D01*
X100183653Y-67845581D01*
X100072303Y-67811113D01*
X100007254Y-67790977D01*
X100001129Y-67790333D01*
X100001128Y-67790333D01*
X99808498Y-67770087D01*
X99808496Y-67770087D01*
X99802369Y-67769443D01*
X99727373Y-67776268D01*
X99603342Y-67787555D01*
X99603339Y-67787556D01*
X99597203Y-67788114D01*
X99399572Y-67846280D01*
X99217002Y-67941726D01*
X99212201Y-67945586D01*
X99212198Y-67945588D01*
X99115045Y-68023701D01*
X99056447Y-68070815D01*
X98924024Y-68228630D01*
X98921056Y-68234028D01*
X98921053Y-68234033D01*
X98849586Y-68364032D01*
X98824776Y-68409162D01*
X98762484Y-68605532D01*
X98761798Y-68611649D01*
X98761797Y-68611653D01*
X98753662Y-68684178D01*
X98739520Y-68810262D01*
X82200500Y-68810262D01*
X82200500Y-66425000D01*
X92219750Y-66425000D01*
X92238670Y-66568709D01*
X92294139Y-66702625D01*
X92382379Y-66817621D01*
X92497375Y-66905861D01*
X92631291Y-66961330D01*
X92775000Y-66980250D01*
X92918709Y-66961330D01*
X93052625Y-66905861D01*
X93053529Y-66908043D01*
X93110735Y-66894168D01*
X93177825Y-66917393D01*
X93193827Y-66930930D01*
X93372952Y-67110055D01*
X93376381Y-67113620D01*
X93415146Y-67155556D01*
X93421505Y-67159249D01*
X93427663Y-67164766D01*
X93676916Y-67414019D01*
X93710942Y-67476331D01*
X93712452Y-67484997D01*
X93712592Y-67485518D01*
X93713670Y-67493709D01*
X93769139Y-67627625D01*
X93857379Y-67742621D01*
X93972375Y-67830861D01*
X94106291Y-67886330D01*
X94250000Y-67905250D01*
X94393709Y-67886330D01*
X94527625Y-67830861D01*
X94642621Y-67742621D01*
X94730861Y-67627625D01*
X94786330Y-67493709D01*
X94805250Y-67350000D01*
X94786330Y-67206291D01*
X94730861Y-67072375D01*
X94642621Y-66957379D01*
X94527625Y-66869139D01*
X94393709Y-66813670D01*
X94385519Y-66812592D01*
X94377545Y-66810455D01*
X94377964Y-66808892D01*
X94321741Y-66784020D01*
X94314020Y-66776916D01*
X94187405Y-66650301D01*
X94153379Y-66587989D01*
X94150500Y-66561206D01*
X94150500Y-62750654D01*
X98773133Y-62750654D01*
X98774112Y-62756351D01*
X98774112Y-62756352D01*
X98788701Y-62841253D01*
X98808941Y-62959047D01*
X98882127Y-63157425D01*
X98885079Y-63162386D01*
X98885079Y-63162387D01*
X98976499Y-63316050D01*
X98990238Y-63339144D01*
X99129655Y-63498119D01*
X99295708Y-63629024D01*
X99300819Y-63631713D01*
X99300822Y-63631715D01*
X99331241Y-63647719D01*
X99482836Y-63727477D01*
X99684773Y-63790180D01*
X99690510Y-63790859D01*
X99852768Y-63810064D01*
X99852775Y-63810064D01*
X99856455Y-63810500D01*
X99978641Y-63810500D01*
X100135560Y-63796081D01*
X100141122Y-63794512D01*
X100141124Y-63794512D01*
X100197225Y-63778690D01*
X100339069Y-63738686D01*
X100344247Y-63736133D01*
X100344251Y-63736131D01*
X100523531Y-63647719D01*
X100528710Y-63645165D01*
X100698133Y-63518651D01*
X100790910Y-63418286D01*
X100837743Y-63367622D01*
X100837745Y-63367620D01*
X100841663Y-63363381D01*
X100855285Y-63341791D01*
X100951416Y-63189434D01*
X100951416Y-63189433D01*
X100954495Y-63184554D01*
X101032848Y-62988160D01*
X101033973Y-62982503D01*
X101033975Y-62982497D01*
X101072972Y-62786442D01*
X101072972Y-62786440D01*
X101074099Y-62780775D01*
X101074406Y-62757367D01*
X101076416Y-62603780D01*
X101076867Y-62569346D01*
X101049337Y-62409126D01*
X101950541Y-62409126D01*
X101980935Y-62610097D01*
X102051119Y-62800852D01*
X102054479Y-62806272D01*
X102054480Y-62806273D01*
X102154863Y-62968176D01*
X102154866Y-62968180D01*
X102158226Y-62973599D01*
X102297881Y-63121280D01*
X102464379Y-63237863D01*
X102650919Y-63318586D01*
X102696947Y-63328202D01*
X102845144Y-63359162D01*
X102845149Y-63359163D01*
X102849880Y-63360151D01*
X102854762Y-63360407D01*
X102854871Y-63360413D01*
X102854887Y-63360413D01*
X102856539Y-63360500D01*
X103005800Y-63360500D01*
X103053793Y-63355625D01*
X103150868Y-63345765D01*
X103150870Y-63345765D01*
X103157216Y-63345120D01*
X103351172Y-63284338D01*
X103528944Y-63185797D01*
X103683271Y-63053523D01*
X103692721Y-63041341D01*
X103760973Y-62953350D01*
X103807848Y-62892919D01*
X103897587Y-62710545D01*
X103909307Y-62665553D01*
X103947212Y-62520034D01*
X103947212Y-62520031D01*
X103948822Y-62513852D01*
X103958064Y-62337503D01*
X103959125Y-62317256D01*
X103959125Y-62317252D01*
X103959459Y-62310874D01*
X103929065Y-62109903D01*
X103858881Y-61919148D01*
X103805345Y-61832802D01*
X103755137Y-61751824D01*
X103755134Y-61751820D01*
X103751774Y-61746401D01*
X103672267Y-61662325D01*
X103616508Y-61603361D01*
X103616507Y-61603360D01*
X103612119Y-61598720D01*
X103445621Y-61482137D01*
X103259081Y-61401414D01*
X103213053Y-61391798D01*
X103064856Y-61360838D01*
X103064851Y-61360837D01*
X103060120Y-61359849D01*
X103055238Y-61359593D01*
X103055129Y-61359587D01*
X103055113Y-61359587D01*
X103053461Y-61359500D01*
X102904200Y-61359500D01*
X102856207Y-61364375D01*
X102759132Y-61374235D01*
X102759130Y-61374235D01*
X102752784Y-61374880D01*
X102558828Y-61435662D01*
X102553239Y-61438760D01*
X102545953Y-61442799D01*
X102381056Y-61534203D01*
X102226729Y-61666477D01*
X102222822Y-61671514D01*
X102222820Y-61671516D01*
X102204951Y-61694553D01*
X102102152Y-61827081D01*
X102012413Y-62009455D01*
X102010804Y-62015633D01*
X102010803Y-62015635D01*
X101978198Y-62140809D01*
X101961178Y-62206148D01*
X101960844Y-62212527D01*
X101953350Y-62355530D01*
X101950541Y-62409126D01*
X101049337Y-62409126D01*
X101041059Y-62360953D01*
X100967873Y-62162575D01*
X100932969Y-62103907D01*
X100862716Y-61985821D01*
X100862715Y-61985820D01*
X100859762Y-61980856D01*
X100720345Y-61821881D01*
X100554292Y-61690976D01*
X100549181Y-61688287D01*
X100549178Y-61688285D01*
X100454362Y-61638400D01*
X100367164Y-61592523D01*
X100165227Y-61529820D01*
X100150801Y-61528113D01*
X99997232Y-61509936D01*
X99997225Y-61509936D01*
X99993545Y-61509500D01*
X99871359Y-61509500D01*
X99714440Y-61523919D01*
X99708878Y-61525488D01*
X99708876Y-61525488D01*
X99677975Y-61534203D01*
X99510931Y-61581314D01*
X99505753Y-61583867D01*
X99505749Y-61583869D01*
X99346658Y-61662325D01*
X99321290Y-61674835D01*
X99151867Y-61801349D01*
X99084799Y-61873903D01*
X99037439Y-61925137D01*
X99008337Y-61956619D01*
X99005256Y-61961502D01*
X98911622Y-62109903D01*
X98895505Y-62135446D01*
X98817152Y-62331840D01*
X98816027Y-62337497D01*
X98816025Y-62337503D01*
X98790385Y-62466406D01*
X98775901Y-62539225D01*
X98775825Y-62545000D01*
X98775825Y-62545004D01*
X98775431Y-62575128D01*
X98773133Y-62750654D01*
X94150500Y-62750654D01*
X94150500Y-59538793D01*
X94170502Y-59470672D01*
X94187405Y-59449698D01*
X96336449Y-57300654D01*
X98773133Y-57300654D01*
X98774112Y-57306351D01*
X98774112Y-57306352D01*
X98807516Y-57500751D01*
X98808941Y-57509047D01*
X98882127Y-57707425D01*
X98885079Y-57712386D01*
X98885079Y-57712387D01*
X98951582Y-57824168D01*
X98990238Y-57889144D01*
X99129655Y-58048119D01*
X99295708Y-58179024D01*
X99300819Y-58181713D01*
X99300822Y-58181715D01*
X99350164Y-58207675D01*
X99482836Y-58277477D01*
X99684773Y-58340180D01*
X99690510Y-58340859D01*
X99852768Y-58360064D01*
X99852775Y-58360064D01*
X99856455Y-58360500D01*
X99978641Y-58360500D01*
X100135560Y-58346081D01*
X100141122Y-58344512D01*
X100141124Y-58344512D01*
X100197225Y-58328690D01*
X100339069Y-58288686D01*
X100344247Y-58286133D01*
X100344251Y-58286131D01*
X100523531Y-58197719D01*
X100528710Y-58195165D01*
X100698133Y-58068651D01*
X100807025Y-57950852D01*
X100837743Y-57917622D01*
X100837745Y-57917620D01*
X100841663Y-57913381D01*
X100854215Y-57893488D01*
X100951416Y-57739434D01*
X100951416Y-57739433D01*
X100954495Y-57734554D01*
X101024483Y-57559126D01*
X101950541Y-57559126D01*
X101980935Y-57760097D01*
X102051119Y-57950852D01*
X102054479Y-57956272D01*
X102054480Y-57956273D01*
X102154863Y-58118176D01*
X102154866Y-58118180D01*
X102158226Y-58123599D01*
X102162612Y-58128237D01*
X102288908Y-58261791D01*
X102297881Y-58271280D01*
X102464379Y-58387863D01*
X102650919Y-58468586D01*
X102696947Y-58478202D01*
X102845144Y-58509162D01*
X102845149Y-58509163D01*
X102849880Y-58510151D01*
X102854762Y-58510407D01*
X102854871Y-58510413D01*
X102854887Y-58510413D01*
X102856539Y-58510500D01*
X103005800Y-58510500D01*
X103053793Y-58505625D01*
X103150868Y-58495765D01*
X103150870Y-58495765D01*
X103157216Y-58495120D01*
X103351172Y-58434338D01*
X103528944Y-58335797D01*
X103683271Y-58203523D01*
X103702275Y-58179024D01*
X103791175Y-58064414D01*
X103807848Y-58042919D01*
X103897587Y-57860545D01*
X103908373Y-57819139D01*
X103947212Y-57670034D01*
X103947212Y-57670031D01*
X103948822Y-57663852D01*
X103955706Y-57532497D01*
X103959125Y-57467256D01*
X103959125Y-57467252D01*
X103959459Y-57460874D01*
X103929065Y-57259903D01*
X103858881Y-57069148D01*
X103803088Y-56979162D01*
X103755137Y-56901824D01*
X103755134Y-56901820D01*
X103751774Y-56896401D01*
X103672267Y-56812325D01*
X103616508Y-56753361D01*
X103616507Y-56753360D01*
X103612119Y-56748720D01*
X103464767Y-56645543D01*
X103450851Y-56635799D01*
X103450850Y-56635799D01*
X103445621Y-56632137D01*
X103259081Y-56551414D01*
X103213053Y-56541798D01*
X103064856Y-56510838D01*
X103064851Y-56510837D01*
X103060120Y-56509849D01*
X103055238Y-56509593D01*
X103055129Y-56509587D01*
X103055113Y-56509587D01*
X103053461Y-56509500D01*
X102904200Y-56509500D01*
X102856207Y-56514375D01*
X102759132Y-56524235D01*
X102759130Y-56524235D01*
X102752784Y-56524880D01*
X102558828Y-56585662D01*
X102381056Y-56684203D01*
X102226729Y-56816477D01*
X102102152Y-56977081D01*
X102012413Y-57159455D01*
X102010804Y-57165633D01*
X102010803Y-57165635D01*
X101965953Y-57337818D01*
X101961178Y-57356148D01*
X101957897Y-57418752D01*
X101951359Y-57543524D01*
X101950541Y-57559126D01*
X101024483Y-57559126D01*
X101032848Y-57538160D01*
X101033973Y-57532503D01*
X101033975Y-57532497D01*
X101072972Y-57336442D01*
X101072972Y-57336440D01*
X101074099Y-57330775D01*
X101074195Y-57323483D01*
X101076791Y-57125128D01*
X101076867Y-57119346D01*
X101054179Y-56987310D01*
X101042038Y-56916650D01*
X101042038Y-56916649D01*
X101041059Y-56910953D01*
X100967873Y-56712575D01*
X100927993Y-56645543D01*
X100862716Y-56535821D01*
X100862715Y-56535820D01*
X100859762Y-56530856D01*
X100720345Y-56371881D01*
X100554292Y-56240976D01*
X100549181Y-56238287D01*
X100549178Y-56238285D01*
X100454362Y-56188400D01*
X100367164Y-56142523D01*
X100165227Y-56079820D01*
X100150801Y-56078113D01*
X99997232Y-56059936D01*
X99997225Y-56059936D01*
X99993545Y-56059500D01*
X99871359Y-56059500D01*
X99714440Y-56073919D01*
X99708878Y-56075488D01*
X99708876Y-56075488D01*
X99652775Y-56091310D01*
X99510931Y-56131314D01*
X99505753Y-56133867D01*
X99505749Y-56133869D01*
X99330508Y-56220289D01*
X99321290Y-56224835D01*
X99151867Y-56351349D01*
X99008337Y-56506619D01*
X99005256Y-56511502D01*
X98993045Y-56530856D01*
X98895505Y-56685446D01*
X98817152Y-56881840D01*
X98816027Y-56887497D01*
X98816025Y-56887503D01*
X98778703Y-57075137D01*
X98775901Y-57089225D01*
X98775825Y-57095000D01*
X98775825Y-57095004D01*
X98774901Y-57165635D01*
X98773133Y-57300654D01*
X96336449Y-57300654D01*
X98049698Y-55587405D01*
X98112010Y-55553379D01*
X98138793Y-55550500D01*
X107365780Y-55550500D01*
X107380589Y-55551373D01*
X107414310Y-55555364D01*
X107423574Y-55553672D01*
X107423575Y-55553672D01*
X107472001Y-55544828D01*
X107475904Y-55544178D01*
X107524645Y-55536850D01*
X107524646Y-55536850D01*
X107533962Y-55535449D01*
X107540475Y-55532321D01*
X107547573Y-55531025D01*
X107599647Y-55503975D01*
X107603137Y-55502232D01*
X107656079Y-55476809D01*
X107661365Y-55471923D01*
X107661413Y-55471890D01*
X107667788Y-55468579D01*
X107672828Y-55464275D01*
X107710055Y-55427048D01*
X107713621Y-55423618D01*
X107748641Y-55391246D01*
X107755556Y-55384854D01*
X107759249Y-55378495D01*
X107764766Y-55372337D01*
X109289405Y-53847698D01*
X109351717Y-53813672D01*
X109422532Y-53818737D01*
X109479368Y-53861284D01*
X109504179Y-53927804D01*
X109504500Y-53936793D01*
X109504500Y-54820780D01*
X109503627Y-54835589D01*
X109499636Y-54869310D01*
X109501328Y-54878574D01*
X109501328Y-54878575D01*
X109510172Y-54927001D01*
X109510822Y-54930904D01*
X109516716Y-54970103D01*
X109519551Y-54988962D01*
X109522679Y-54995475D01*
X109523975Y-55002573D01*
X109551025Y-55054647D01*
X109552768Y-55058137D01*
X109578191Y-55111079D01*
X109583077Y-55116365D01*
X109583110Y-55116413D01*
X109586421Y-55122788D01*
X109590725Y-55127828D01*
X109627952Y-55165055D01*
X109631381Y-55168620D01*
X109670146Y-55210556D01*
X109676505Y-55214249D01*
X109682663Y-55219766D01*
X112826916Y-58364019D01*
X112860942Y-58426331D01*
X112862452Y-58434997D01*
X112862592Y-58435518D01*
X112863670Y-58443709D01*
X112919139Y-58577625D01*
X113007379Y-58692621D01*
X113122375Y-58780861D01*
X113256291Y-58836330D01*
X113400000Y-58855250D01*
X113543709Y-58836330D01*
X113677625Y-58780861D01*
X113792621Y-58692621D01*
X113880861Y-58577625D01*
X113936330Y-58443709D01*
X113955250Y-58300000D01*
X113936330Y-58156291D01*
X113880861Y-58022375D01*
X113792621Y-57907379D01*
X113677625Y-57819139D01*
X113543709Y-57763670D01*
X113535519Y-57762592D01*
X113527545Y-57760455D01*
X113527964Y-57758892D01*
X113471742Y-57734022D01*
X113464019Y-57726916D01*
X110442405Y-54705302D01*
X110408379Y-54642990D01*
X110405500Y-54616207D01*
X110405500Y-52556994D01*
X110405597Y-52552048D01*
X110407468Y-52504415D01*
X110407838Y-52495006D01*
X110405954Y-52487900D01*
X110405500Y-52479653D01*
X110405500Y-52071920D01*
X110425502Y-52003799D01*
X110474688Y-51959455D01*
X110520610Y-51936258D01*
X110682951Y-51809424D01*
X110692898Y-51797901D01*
X110813540Y-51658134D01*
X110813540Y-51658133D01*
X110817564Y-51653472D01*
X110838387Y-51616818D01*
X110916276Y-51479707D01*
X110919323Y-51474344D01*
X110984351Y-51278863D01*
X111010171Y-51074474D01*
X111010583Y-51045000D01*
X111009138Y-51030262D01*
X111439520Y-51030262D01*
X111456759Y-51235553D01*
X111513544Y-51433586D01*
X111516359Y-51439063D01*
X111516360Y-51439066D01*
X111537247Y-51479707D01*
X111607712Y-51616818D01*
X111735677Y-51778270D01*
X111740370Y-51782264D01*
X111740371Y-51782265D01*
X111847582Y-51873508D01*
X111892564Y-51911791D01*
X111897942Y-51914797D01*
X111897944Y-51914798D01*
X111914710Y-51924168D01*
X112072398Y-52012297D01*
X112167238Y-52043113D01*
X112262471Y-52074056D01*
X112262475Y-52074057D01*
X112268329Y-52075959D01*
X112472894Y-52100351D01*
X112479029Y-52099879D01*
X112479031Y-52099879D01*
X112535039Y-52095569D01*
X112678300Y-52084546D01*
X112684230Y-52082890D01*
X112684232Y-52082890D01*
X112870797Y-52030800D01*
X112870796Y-52030800D01*
X112876725Y-52029145D01*
X112882214Y-52026372D01*
X112882220Y-52026370D01*
X113055116Y-51939033D01*
X113060610Y-51936258D01*
X113082522Y-51919139D01*
X113176356Y-51845828D01*
X113222951Y-51809424D01*
X113232898Y-51797901D01*
X113353540Y-51658134D01*
X113353540Y-51658133D01*
X113357564Y-51653472D01*
X113378387Y-51616818D01*
X113456276Y-51479707D01*
X113459323Y-51474344D01*
X113524351Y-51278863D01*
X113550171Y-51074474D01*
X113550583Y-51045000D01*
X113530480Y-50839970D01*
X113470935Y-50642749D01*
X113374218Y-50460849D01*
X113300859Y-50370902D01*
X113247906Y-50305975D01*
X113247903Y-50305972D01*
X113244011Y-50301200D01*
X113159374Y-50231182D01*
X113090025Y-50173811D01*
X113090021Y-50173809D01*
X113085275Y-50169882D01*
X112904055Y-50071897D01*
X112707254Y-50010977D01*
X112701129Y-50010333D01*
X112701128Y-50010333D01*
X112508498Y-49990087D01*
X112508496Y-49990087D01*
X112502369Y-49989443D01*
X112415529Y-49997346D01*
X112303342Y-50007555D01*
X112303339Y-50007556D01*
X112297203Y-50008114D01*
X112099572Y-50066280D01*
X111917002Y-50161726D01*
X111912201Y-50165586D01*
X111912198Y-50165588D01*
X111818049Y-50241286D01*
X111756447Y-50290815D01*
X111624024Y-50448630D01*
X111621056Y-50454028D01*
X111621053Y-50454033D01*
X111614315Y-50466290D01*
X111524776Y-50629162D01*
X111462484Y-50825532D01*
X111461798Y-50831649D01*
X111461797Y-50831653D01*
X111440207Y-51024137D01*
X111439520Y-51030262D01*
X111009138Y-51030262D01*
X110990480Y-50839970D01*
X110930935Y-50642749D01*
X110834218Y-50460849D01*
X110760859Y-50370902D01*
X110707906Y-50305975D01*
X110707903Y-50305972D01*
X110704011Y-50301200D01*
X110619374Y-50231182D01*
X110550025Y-50173811D01*
X110550021Y-50173809D01*
X110545275Y-50169882D01*
X110364055Y-50071897D01*
X110167254Y-50010977D01*
X110161129Y-50010333D01*
X110161128Y-50010333D01*
X109968498Y-49990087D01*
X109968496Y-49990087D01*
X109962369Y-49989443D01*
X109875529Y-49997346D01*
X109763342Y-50007555D01*
X109763339Y-50007556D01*
X109757203Y-50008114D01*
X109559572Y-50066280D01*
X109377002Y-50161726D01*
X109372201Y-50165586D01*
X109372198Y-50165588D01*
X109278049Y-50241286D01*
X109216447Y-50290815D01*
X109084024Y-50448630D01*
X109081056Y-50454028D01*
X109081053Y-50454033D01*
X109074315Y-50466290D01*
X108984776Y-50629162D01*
X108922484Y-50825532D01*
X108921798Y-50831649D01*
X108921797Y-50831653D01*
X108900207Y-51024137D01*
X108899520Y-51030262D01*
X108916759Y-51235553D01*
X108973544Y-51433586D01*
X108976359Y-51439063D01*
X108976360Y-51439066D01*
X108997247Y-51479707D01*
X109067712Y-51616818D01*
X109195677Y-51778270D01*
X109200370Y-51782264D01*
X109200371Y-51782265D01*
X109307582Y-51873508D01*
X109352564Y-51911791D01*
X109357942Y-51914797D01*
X109357944Y-51914798D01*
X109374710Y-51924168D01*
X109439971Y-51960641D01*
X109489676Y-52011333D01*
X109504500Y-52070628D01*
X109504500Y-52306207D01*
X109484498Y-52374328D01*
X109467595Y-52395302D01*
X107250302Y-54612595D01*
X107187990Y-54646621D01*
X107161207Y-54649500D01*
X97934220Y-54649500D01*
X97919411Y-54648627D01*
X97895043Y-54645743D01*
X97885690Y-54644636D01*
X97876426Y-54646328D01*
X97876425Y-54646328D01*
X97827999Y-54655172D01*
X97824096Y-54655822D01*
X97775355Y-54663150D01*
X97775354Y-54663150D01*
X97766038Y-54664551D01*
X97759525Y-54667679D01*
X97752427Y-54668975D01*
X97700353Y-54696025D01*
X97696863Y-54697768D01*
X97643921Y-54723191D01*
X97638635Y-54728077D01*
X97638587Y-54728110D01*
X97632212Y-54731421D01*
X97627172Y-54735725D01*
X97589945Y-54772952D01*
X97586380Y-54776381D01*
X97544444Y-54815146D01*
X97540751Y-54821505D01*
X97535234Y-54827663D01*
X93405650Y-58957247D01*
X93394561Y-58967101D01*
X93375291Y-58982293D01*
X93375289Y-58982295D01*
X93367890Y-58988128D01*
X93362535Y-58995875D01*
X93362534Y-58995877D01*
X93334545Y-59036375D01*
X93332250Y-59039587D01*
X93297366Y-59086816D01*
X93294973Y-59093632D01*
X93290869Y-59099569D01*
X93288029Y-59108549D01*
X93288028Y-59108551D01*
X93273182Y-59155495D01*
X93271929Y-59159250D01*
X93252481Y-59214631D01*
X93252199Y-59221819D01*
X93252188Y-59221878D01*
X93250020Y-59228730D01*
X93249500Y-59235337D01*
X93249500Y-59288016D01*
X93249403Y-59292962D01*
X93247162Y-59349994D01*
X93249046Y-59357100D01*
X93249500Y-59365347D01*
X93249500Y-65840812D01*
X93229498Y-65908933D01*
X93175842Y-65955426D01*
X93105568Y-65965530D01*
X93060496Y-65949929D01*
X93059181Y-65949170D01*
X93052625Y-65944139D01*
X92918709Y-65888670D01*
X92775000Y-65869750D01*
X92631291Y-65888670D01*
X92497375Y-65944139D01*
X92382379Y-66032379D01*
X92294139Y-66147375D01*
X92238670Y-66281291D01*
X92219750Y-66425000D01*
X82200500Y-66425000D01*
X82200500Y-51030262D01*
X98739520Y-51030262D01*
X98756759Y-51235553D01*
X98813544Y-51433586D01*
X98816359Y-51439063D01*
X98816360Y-51439066D01*
X98837247Y-51479707D01*
X98907712Y-51616818D01*
X99035677Y-51778270D01*
X99040370Y-51782264D01*
X99040371Y-51782265D01*
X99147582Y-51873508D01*
X99192564Y-51911791D01*
X99197942Y-51914797D01*
X99197944Y-51914798D01*
X99214710Y-51924168D01*
X99372398Y-52012297D01*
X99467238Y-52043113D01*
X99562471Y-52074056D01*
X99562475Y-52074057D01*
X99568329Y-52075959D01*
X99772894Y-52100351D01*
X99779029Y-52099879D01*
X99779031Y-52099879D01*
X99835039Y-52095569D01*
X99978300Y-52084546D01*
X99984230Y-52082890D01*
X99984232Y-52082890D01*
X100170797Y-52030800D01*
X100170796Y-52030800D01*
X100176725Y-52029145D01*
X100182214Y-52026372D01*
X100182220Y-52026370D01*
X100355116Y-51939033D01*
X100360610Y-51936258D01*
X100382522Y-51919139D01*
X100476356Y-51845828D01*
X100522951Y-51809424D01*
X100532898Y-51797901D01*
X100653540Y-51658134D01*
X100653540Y-51658133D01*
X100657564Y-51653472D01*
X100678387Y-51616818D01*
X100756276Y-51479707D01*
X100759323Y-51474344D01*
X100824351Y-51278863D01*
X100850171Y-51074474D01*
X100850583Y-51045000D01*
X100849138Y-51030262D01*
X101279520Y-51030262D01*
X101296759Y-51235553D01*
X101353544Y-51433586D01*
X101356359Y-51439063D01*
X101356360Y-51439066D01*
X101377247Y-51479707D01*
X101447712Y-51616818D01*
X101575677Y-51778270D01*
X101580370Y-51782264D01*
X101580371Y-51782265D01*
X101687582Y-51873508D01*
X101732564Y-51911791D01*
X101737942Y-51914797D01*
X101737944Y-51914798D01*
X101754710Y-51924168D01*
X101912398Y-52012297D01*
X102007238Y-52043113D01*
X102102471Y-52074056D01*
X102102475Y-52074057D01*
X102108329Y-52075959D01*
X102312894Y-52100351D01*
X102319029Y-52099879D01*
X102319031Y-52099879D01*
X102375039Y-52095569D01*
X102518300Y-52084546D01*
X102524230Y-52082890D01*
X102524232Y-52082890D01*
X102710797Y-52030800D01*
X102710796Y-52030800D01*
X102716725Y-52029145D01*
X102722214Y-52026372D01*
X102722220Y-52026370D01*
X102895116Y-51939033D01*
X102900610Y-51936258D01*
X102922522Y-51919139D01*
X103016356Y-51845828D01*
X103062951Y-51809424D01*
X103072898Y-51797901D01*
X103193540Y-51658134D01*
X103193540Y-51658133D01*
X103197564Y-51653472D01*
X103218387Y-51616818D01*
X103296276Y-51479707D01*
X103299323Y-51474344D01*
X103364351Y-51278863D01*
X103390171Y-51074474D01*
X103390583Y-51045000D01*
X103389138Y-51030262D01*
X106359520Y-51030262D01*
X106376759Y-51235553D01*
X106433544Y-51433586D01*
X106436359Y-51439063D01*
X106436360Y-51439066D01*
X106457247Y-51479707D01*
X106527712Y-51616818D01*
X106655677Y-51778270D01*
X106660370Y-51782264D01*
X106660371Y-51782265D01*
X106767582Y-51873508D01*
X106812564Y-51911791D01*
X106817942Y-51914797D01*
X106817944Y-51914798D01*
X106834710Y-51924168D01*
X106992398Y-52012297D01*
X107087238Y-52043113D01*
X107182471Y-52074056D01*
X107182475Y-52074057D01*
X107188329Y-52075959D01*
X107392894Y-52100351D01*
X107399029Y-52099879D01*
X107399031Y-52099879D01*
X107455039Y-52095569D01*
X107598300Y-52084546D01*
X107604230Y-52082890D01*
X107604232Y-52082890D01*
X107790797Y-52030800D01*
X107790796Y-52030800D01*
X107796725Y-52029145D01*
X107802214Y-52026372D01*
X107802220Y-52026370D01*
X107975116Y-51939033D01*
X107980610Y-51936258D01*
X108002522Y-51919139D01*
X108096356Y-51845828D01*
X108142951Y-51809424D01*
X108152898Y-51797901D01*
X108273540Y-51658134D01*
X108273540Y-51658133D01*
X108277564Y-51653472D01*
X108298387Y-51616818D01*
X108376276Y-51479707D01*
X108379323Y-51474344D01*
X108444351Y-51278863D01*
X108470171Y-51074474D01*
X108470583Y-51045000D01*
X108450480Y-50839970D01*
X108390935Y-50642749D01*
X108294218Y-50460849D01*
X108220859Y-50370902D01*
X108167906Y-50305975D01*
X108167903Y-50305972D01*
X108164011Y-50301200D01*
X108079374Y-50231182D01*
X108010025Y-50173811D01*
X108010021Y-50173809D01*
X108005275Y-50169882D01*
X107824055Y-50071897D01*
X107627254Y-50010977D01*
X107621129Y-50010333D01*
X107621128Y-50010333D01*
X107428498Y-49990087D01*
X107428496Y-49990087D01*
X107422369Y-49989443D01*
X107335529Y-49997346D01*
X107223342Y-50007555D01*
X107223339Y-50007556D01*
X107217203Y-50008114D01*
X107019572Y-50066280D01*
X106837002Y-50161726D01*
X106832201Y-50165586D01*
X106832198Y-50165588D01*
X106738049Y-50241286D01*
X106676447Y-50290815D01*
X106544024Y-50448630D01*
X106541056Y-50454028D01*
X106541053Y-50454033D01*
X106534315Y-50466290D01*
X106444776Y-50629162D01*
X106382484Y-50825532D01*
X106381798Y-50831649D01*
X106381797Y-50831653D01*
X106360207Y-51024137D01*
X106359520Y-51030262D01*
X103389138Y-51030262D01*
X103370480Y-50839970D01*
X103310935Y-50642749D01*
X103214218Y-50460849D01*
X103140859Y-50370902D01*
X103087906Y-50305975D01*
X103087903Y-50305972D01*
X103084011Y-50301200D01*
X102999374Y-50231182D01*
X102930025Y-50173811D01*
X102930021Y-50173809D01*
X102925275Y-50169882D01*
X102744055Y-50071897D01*
X102547254Y-50010977D01*
X102541129Y-50010333D01*
X102541128Y-50010333D01*
X102348498Y-49990087D01*
X102348496Y-49990087D01*
X102342369Y-49989443D01*
X102255529Y-49997346D01*
X102143342Y-50007555D01*
X102143339Y-50007556D01*
X102137203Y-50008114D01*
X101939572Y-50066280D01*
X101757002Y-50161726D01*
X101752201Y-50165586D01*
X101752198Y-50165588D01*
X101658049Y-50241286D01*
X101596447Y-50290815D01*
X101464024Y-50448630D01*
X101461056Y-50454028D01*
X101461053Y-50454033D01*
X101454315Y-50466290D01*
X101364776Y-50629162D01*
X101302484Y-50825532D01*
X101301798Y-50831649D01*
X101301797Y-50831653D01*
X101280207Y-51024137D01*
X101279520Y-51030262D01*
X100849138Y-51030262D01*
X100830480Y-50839970D01*
X100770935Y-50642749D01*
X100674218Y-50460849D01*
X100600859Y-50370902D01*
X100547906Y-50305975D01*
X100547903Y-50305972D01*
X100544011Y-50301200D01*
X100459374Y-50231182D01*
X100390025Y-50173811D01*
X100390021Y-50173809D01*
X100385275Y-50169882D01*
X100204055Y-50071897D01*
X100007254Y-50010977D01*
X100001129Y-50010333D01*
X100001128Y-50010333D01*
X99808498Y-49990087D01*
X99808496Y-49990087D01*
X99802369Y-49989443D01*
X99715529Y-49997346D01*
X99603342Y-50007555D01*
X99603339Y-50007556D01*
X99597203Y-50008114D01*
X99399572Y-50066280D01*
X99217002Y-50161726D01*
X99212201Y-50165586D01*
X99212198Y-50165588D01*
X99118049Y-50241286D01*
X99056447Y-50290815D01*
X98924024Y-50448630D01*
X98921056Y-50454028D01*
X98921053Y-50454033D01*
X98914315Y-50466290D01*
X98824776Y-50629162D01*
X98762484Y-50825532D01*
X98761798Y-50831649D01*
X98761797Y-50831653D01*
X98740207Y-51024137D01*
X98739520Y-51030262D01*
X82200500Y-51030262D01*
X82200500Y-47037371D01*
X82203755Y-47008918D01*
X82204043Y-47007676D01*
X82204044Y-47007669D01*
X82205655Y-47000718D01*
X82205656Y-47000000D01*
X82204074Y-46993066D01*
X82203282Y-46985990D01*
X82204046Y-46985905D01*
X82202069Y-46964063D01*
X82218524Y-46587192D01*
X82219482Y-46576242D01*
X82220280Y-46570179D01*
X82272698Y-46172019D01*
X82274604Y-46161214D01*
X82362850Y-45763163D01*
X82365693Y-45752552D01*
X82479665Y-45391077D01*
X82488292Y-45363717D01*
X82492048Y-45353396D01*
X82494151Y-45348320D01*
X82648077Y-44976712D01*
X82652719Y-44966758D01*
X82660746Y-44951340D01*
X82840970Y-44605132D01*
X82846465Y-44595613D01*
X83065521Y-44251765D01*
X83071825Y-44242761D01*
X83320025Y-43919300D01*
X83327091Y-43910880D01*
X83602528Y-43610293D01*
X83610297Y-43602524D01*
X83910880Y-43327091D01*
X83919300Y-43320025D01*
X84242761Y-43071825D01*
X84251765Y-43065521D01*
X84595613Y-42846465D01*
X84605133Y-42840969D01*
X84966767Y-42652715D01*
X84976712Y-42648077D01*
X85353404Y-42492045D01*
X85363717Y-42488292D01*
X85752553Y-42365693D01*
X85763163Y-42362850D01*
X86161214Y-42274604D01*
X86172019Y-42272698D01*
X86576243Y-42219482D01*
X86587191Y-42218524D01*
X86963784Y-42202081D01*
X86971624Y-42202799D01*
X86971625Y-42202451D01*
X86985811Y-42202476D01*
X86999641Y-42205656D01*
X87013480Y-42202525D01*
X87018311Y-42202533D01*
X87036504Y-42200500D01*
X176962920Y-42200500D01*
X176980242Y-42202466D01*
G37*
%TD.AperFunction*%
%TD*%
%TA.AperFunction,Conductor*%
%TO.N,GND*%
G36*
X176300000Y-87500000D02*
G01*
X162000000Y-87000000D01*
X151200000Y-90000000D01*
X142200000Y-88700000D01*
X102400000Y-89300000D01*
X102300000Y-87400000D01*
X102300000Y-83350500D01*
X102496381Y-83350500D01*
X102564502Y-83370502D01*
X102610995Y-83424158D01*
X102621099Y-83494432D01*
X102619158Y-83504710D01*
X102617022Y-83510578D01*
X102616667Y-83513386D01*
X102615719Y-83516049D01*
X102614955Y-83522456D01*
X102605461Y-83602082D01*
X102605378Y-83602755D01*
X102599500Y-83649283D01*
X102599500Y-83651391D01*
X102599241Y-83654236D01*
X102594455Y-83694376D01*
X102595191Y-83701379D01*
X102595191Y-83701380D01*
X102598810Y-83735812D01*
X102599500Y-83748982D01*
X102599500Y-87044578D01*
X102598614Y-87059497D01*
X102594455Y-87094376D01*
X102595191Y-87101379D01*
X102599267Y-87140157D01*
X102599500Y-87143055D01*
X102599500Y-87145155D01*
X102599891Y-87148643D01*
X102599892Y-87148656D01*
X102604088Y-87186062D01*
X102604183Y-87186935D01*
X102613227Y-87272983D01*
X102614139Y-87275661D01*
X102614454Y-87278472D01*
X102616586Y-87284593D01*
X102616586Y-87284595D01*
X102642917Y-87360207D01*
X102643204Y-87361039D01*
X102671103Y-87442993D01*
X102672585Y-87445401D01*
X102673515Y-87448073D01*
X102676952Y-87453573D01*
X102719405Y-87521513D01*
X102719867Y-87522259D01*
X102751118Y-87573056D01*
X102765206Y-87595955D01*
X102767185Y-87597976D01*
X102768684Y-87600375D01*
X102773238Y-87604960D01*
X102773238Y-87604961D01*
X102829687Y-87661805D01*
X102830305Y-87662432D01*
X102890859Y-87724268D01*
X102893238Y-87725801D01*
X102895230Y-87727807D01*
X102968550Y-87774338D01*
X102968740Y-87774459D01*
X103041817Y-87821554D01*
X103044477Y-87822522D01*
X103046864Y-87824037D01*
X103052957Y-87826207D01*
X103052966Y-87826211D01*
X103128433Y-87853083D01*
X103129262Y-87853381D01*
X103146760Y-87859750D01*
X103210578Y-87882978D01*
X103213386Y-87883333D01*
X103216049Y-87884281D01*
X103302192Y-87894553D01*
X103302755Y-87894622D01*
X103349283Y-87900500D01*
X103351391Y-87900500D01*
X103354236Y-87900759D01*
X103385410Y-87904476D01*
X103394376Y-87905545D01*
X103401379Y-87904809D01*
X103401380Y-87904809D01*
X103435812Y-87901190D01*
X103448982Y-87900500D01*
X128014722Y-87900500D01*
X128064459Y-87910732D01*
X128158470Y-87951122D01*
X128355740Y-87995760D01*
X128361509Y-87995987D01*
X128361512Y-87995987D01*
X128437683Y-87998979D01*
X128557842Y-88003700D01*
X128644132Y-87991189D01*
X128752286Y-87975508D01*
X128752291Y-87975507D01*
X128758007Y-87974678D01*
X128763479Y-87972820D01*
X128763481Y-87972820D01*
X128944063Y-87911520D01*
X128949531Y-87909664D01*
X128949730Y-87910250D01*
X128995596Y-87900500D01*
X138872502Y-87900500D01*
X138879974Y-87900722D01*
X148135612Y-88450561D01*
X148191138Y-88467220D01*
X148315009Y-88538736D01*
X148322297Y-88540853D01*
X148322301Y-88540855D01*
X148461443Y-88581279D01*
X148477824Y-88586038D01*
X148579665Y-88590306D01*
X148640540Y-88592858D01*
X148640541Y-88592858D01*
X148647223Y-88593138D01*
X148653809Y-88592006D01*
X148653813Y-88592006D01*
X148716240Y-88581279D01*
X148716251Y-88581277D01*
X148719077Y-88580791D01*
X148992647Y-88507488D01*
X149031946Y-88503373D01*
X149038510Y-88503722D01*
X149040137Y-88503809D01*
X149040138Y-88503809D01*
X149047173Y-88504183D01*
X149054121Y-88502988D01*
X149054124Y-88502988D01*
X149081771Y-88498234D01*
X149096528Y-88496584D01*
X149124534Y-88495116D01*
X149131574Y-88494747D01*
X149138353Y-88492829D01*
X149138358Y-88492828D01*
X149170921Y-88483614D01*
X149183870Y-88480677D01*
X149217224Y-88474941D01*
X149217226Y-88474941D01*
X149224166Y-88473747D01*
X149256585Y-88460281D01*
X149270603Y-88455406D01*
X149297601Y-88447766D01*
X149304379Y-88445848D01*
X149310564Y-88442476D01*
X149310571Y-88442473D01*
X149340281Y-88426275D01*
X149352260Y-88420541D01*
X149383509Y-88407560D01*
X149383511Y-88407559D01*
X149390018Y-88404856D01*
X149391398Y-88403877D01*
X149415237Y-88394256D01*
X154266451Y-87094376D01*
X154497230Y-87032539D01*
X154499938Y-87031540D01*
X154559360Y-87009619D01*
X154559362Y-87009618D01*
X154565632Y-87007305D01*
X154708786Y-86916457D01*
X154826137Y-86794084D01*
X154910911Y-86647251D01*
X154958213Y-86484435D01*
X154965314Y-86315037D01*
X154964182Y-86308451D01*
X154964182Y-86308446D01*
X154953455Y-86246020D01*
X154953453Y-86246009D01*
X154952967Y-86243183D01*
X154862376Y-85905091D01*
X152903354Y-78593928D01*
X152903353Y-78593926D01*
X152902605Y-78591133D01*
X152889014Y-78554291D01*
X152879062Y-78527312D01*
X152874252Y-78456478D01*
X152908180Y-78394609D01*
X153132098Y-78170691D01*
X153187309Y-78138428D01*
X153375788Y-78085804D01*
X153375801Y-78085799D01*
X153381725Y-78084145D01*
X153387214Y-78081372D01*
X153387220Y-78081370D01*
X153560116Y-77994033D01*
X153565610Y-77991258D01*
X153574715Y-77984145D01*
X153693605Y-77891258D01*
X153727951Y-77864424D01*
X153740692Y-77849664D01*
X153858540Y-77713134D01*
X153858540Y-77713133D01*
X153862564Y-77708472D01*
X153964323Y-77529344D01*
X154029351Y-77333863D01*
X154055171Y-77129474D01*
X154055583Y-77100000D01*
X154035480Y-76894970D01*
X153975935Y-76697749D01*
X153879218Y-76515849D01*
X153797660Y-76415849D01*
X153752906Y-76360975D01*
X153752903Y-76360972D01*
X153749011Y-76356200D01*
X153725552Y-76336793D01*
X153595025Y-76228811D01*
X153595021Y-76228809D01*
X153590275Y-76224882D01*
X153483117Y-76166942D01*
X154778425Y-75651763D01*
X154661447Y-75745815D01*
X154529024Y-75903630D01*
X154526056Y-75909028D01*
X154526053Y-75909033D01*
X154441347Y-76063114D01*
X154429776Y-76084162D01*
X154367484Y-76280532D01*
X154366798Y-76286649D01*
X154366797Y-76286653D01*
X154358461Y-76360975D01*
X154344520Y-76485262D01*
X154347545Y-76521290D01*
X154358646Y-76653477D01*
X154361759Y-76690553D01*
X154363458Y-76696478D01*
X154416235Y-76880532D01*
X154418544Y-76888586D01*
X154421359Y-76894063D01*
X154421360Y-76894066D01*
X154490950Y-77029474D01*
X154512712Y-77071818D01*
X154640677Y-77233270D01*
X154645370Y-77237264D01*
X154645371Y-77237265D01*
X154758874Y-77333863D01*
X154797564Y-77366791D01*
X154977398Y-77467297D01*
X155072238Y-77498113D01*
X155167471Y-77529056D01*
X155167475Y-77529057D01*
X155173329Y-77530959D01*
X155192267Y-77533217D01*
X155257541Y-77561142D01*
X155266447Y-77569236D01*
X155979688Y-78282477D01*
X156012300Y-78338960D01*
X156927542Y-81754689D01*
X157904983Y-85402543D01*
X157917395Y-85448867D01*
X157942628Y-85517269D01*
X157946208Y-85522911D01*
X157946210Y-85522914D01*
X157998136Y-85604734D01*
X158033477Y-85660422D01*
X158155849Y-85777774D01*
X158302683Y-85862548D01*
X158309971Y-85864665D01*
X158309975Y-85864667D01*
X158449117Y-85905091D01*
X158465498Y-85909850D01*
X158567339Y-85914118D01*
X158628214Y-85916670D01*
X158628215Y-85916670D01*
X158634897Y-85916950D01*
X158641483Y-85915818D01*
X158641487Y-85915818D01*
X158703914Y-85905091D01*
X158703925Y-85905089D01*
X158706751Y-85904603D01*
X158863703Y-85862548D01*
X160057465Y-85542680D01*
X163567539Y-84602158D01*
X163623196Y-84599991D01*
X163634946Y-84602177D01*
X163634947Y-84602177D01*
X163641876Y-84603466D01*
X163648914Y-84603188D01*
X163648916Y-84603188D01*
X163660195Y-84602742D01*
X163676662Y-84602091D01*
X163691583Y-84602387D01*
X163726266Y-84605136D01*
X163733236Y-84604123D01*
X163733237Y-84604123D01*
X163746626Y-84602177D01*
X163767027Y-84599212D01*
X163773681Y-84598600D01*
X163773671Y-84598507D01*
X163777614Y-84598102D01*
X163781574Y-84597946D01*
X163820016Y-84591539D01*
X163822563Y-84591142D01*
X163861081Y-84585544D01*
X163903990Y-84579309D01*
X163909980Y-84577001D01*
X163919670Y-84574930D01*
X164262422Y-84517805D01*
X164308283Y-84518627D01*
X169437609Y-85563489D01*
X169472557Y-85570608D01*
X169490503Y-85575671D01*
X169503959Y-85580569D01*
X169503960Y-85580569D01*
X169510578Y-85582978D01*
X169517564Y-85583860D01*
X169517566Y-85583861D01*
X169537121Y-85586331D01*
X169565652Y-85589935D01*
X169575006Y-85591478D01*
X169577067Y-85591897D01*
X169581011Y-85592701D01*
X169581015Y-85592702D01*
X169584463Y-85593404D01*
X169587957Y-85593717D01*
X169587980Y-85593720D01*
X169611863Y-85595857D01*
X169616392Y-85596345D01*
X169649283Y-85600500D01*
X169658132Y-85600500D01*
X169669363Y-85601002D01*
X169676403Y-85601632D01*
X169718082Y-85605362D01*
X169745721Y-85601632D01*
X169762571Y-85600500D01*
X172090917Y-85600500D01*
X172092238Y-85600507D01*
X172181407Y-85601441D01*
X172223296Y-85592384D01*
X172235870Y-85590325D01*
X172250477Y-85588686D01*
X172271476Y-85586331D01*
X172271478Y-85586330D01*
X172278472Y-85585546D01*
X172309759Y-85574650D01*
X172324564Y-85570489D01*
X172350061Y-85564977D01*
X172350064Y-85564976D01*
X172356942Y-85563489D01*
X172395799Y-85545370D01*
X172407582Y-85540586D01*
X172448073Y-85526485D01*
X172476167Y-85508930D01*
X172489682Y-85501592D01*
X172519707Y-85487591D01*
X172553567Y-85461326D01*
X172564024Y-85454031D01*
X172594400Y-85435050D01*
X172594403Y-85435048D01*
X172600375Y-85431316D01*
X172628893Y-85402997D01*
X172629515Y-85402415D01*
X172630177Y-85401901D01*
X172656037Y-85376041D01*
X172727807Y-85304770D01*
X172728459Y-85303743D01*
X172729543Y-85302535D01*
X173559559Y-84472519D01*
X173560497Y-84471590D01*
X173560768Y-84471325D01*
X173624268Y-84409141D01*
X173628083Y-84403221D01*
X173628088Y-84403215D01*
X173647490Y-84373109D01*
X173654930Y-84362755D01*
X173677267Y-84334774D01*
X173681664Y-84329266D01*
X173696082Y-84299441D01*
X173703611Y-84286025D01*
X173717735Y-84264109D01*
X173721554Y-84258183D01*
X173736213Y-84217909D01*
X173741172Y-84206169D01*
X173756763Y-84173916D01*
X173759827Y-84167578D01*
X173767279Y-84135302D01*
X173771648Y-84120554D01*
X173780568Y-84096045D01*
X173780569Y-84096041D01*
X173782978Y-84089422D01*
X173788352Y-84046882D01*
X173790582Y-84034363D01*
X173800226Y-83992589D01*
X173800367Y-83952418D01*
X173800396Y-83951545D01*
X173800500Y-83950717D01*
X173800500Y-83914108D01*
X173800853Y-83813000D01*
X173800587Y-83811812D01*
X173800500Y-83810200D01*
X173800500Y-75209083D01*
X173800507Y-75207763D01*
X173801367Y-75125640D01*
X173801441Y-75118593D01*
X173792384Y-75076704D01*
X173790324Y-75064126D01*
X173786331Y-75028524D01*
X173786330Y-75028522D01*
X173785546Y-75021528D01*
X173774650Y-74990241D01*
X173770489Y-74975436D01*
X173764978Y-74949944D01*
X173764977Y-74949942D01*
X173763489Y-74943058D01*
X173760513Y-74936676D01*
X173760511Y-74936670D01*
X173745379Y-74904219D01*
X173740583Y-74892408D01*
X173728803Y-74858580D01*
X173728799Y-74858571D01*
X173726485Y-74851927D01*
X173708925Y-74823824D01*
X173701594Y-74810323D01*
X173687590Y-74780292D01*
X173661323Y-74746429D01*
X173654029Y-74735973D01*
X173635049Y-74705599D01*
X173631316Y-74699625D01*
X173602997Y-74671107D01*
X173602415Y-74670485D01*
X173601901Y-74669823D01*
X173576041Y-74643963D01*
X173504770Y-74572193D01*
X173503743Y-74571541D01*
X173502535Y-74570457D01*
X172672519Y-73740441D01*
X172671590Y-73739503D01*
X172627980Y-73694970D01*
X172609141Y-73675732D01*
X172603221Y-73671917D01*
X172603215Y-73671912D01*
X172573109Y-73652510D01*
X172562755Y-73645070D01*
X172534774Y-73622733D01*
X172529266Y-73618336D01*
X172499441Y-73603918D01*
X172486025Y-73596389D01*
X172464109Y-73582265D01*
X172458183Y-73578446D01*
X172417909Y-73563787D01*
X172406169Y-73558828D01*
X172373916Y-73543237D01*
X172373917Y-73543237D01*
X172367578Y-73540173D01*
X172360723Y-73538590D01*
X172360719Y-73538589D01*
X172341757Y-73534212D01*
X172335302Y-73532721D01*
X172320554Y-73528352D01*
X172296045Y-73519432D01*
X172296041Y-73519431D01*
X172289422Y-73517022D01*
X172246882Y-73511648D01*
X172234363Y-73509418D01*
X172192589Y-73499774D01*
X172185548Y-73499749D01*
X172185545Y-73499749D01*
X172152418Y-73499633D01*
X172151545Y-73499604D01*
X172150717Y-73499500D01*
X172114262Y-73499500D01*
X172113822Y-73499499D01*
X172016493Y-73499159D01*
X172016490Y-73499159D01*
X172013000Y-73499147D01*
X172011812Y-73499413D01*
X172010200Y-73499500D01*
X169361477Y-73499500D01*
X169344921Y-73498408D01*
X169339949Y-73497749D01*
X169316168Y-73494597D01*
X169309149Y-73495242D01*
X169309148Y-73495242D01*
X169268568Y-73498971D01*
X169261875Y-73499278D01*
X169261876Y-73499304D01*
X169258371Y-73499500D01*
X169254845Y-73499500D01*
X169238282Y-73501358D01*
X169219968Y-73503412D01*
X169217453Y-73503668D01*
X169208971Y-73504448D01*
X169176947Y-73507390D01*
X169173080Y-73508244D01*
X169169164Y-73508853D01*
X169169149Y-73508755D01*
X169162527Y-73509855D01*
X169121528Y-73514454D01*
X169114875Y-73516771D01*
X169114874Y-73516771D01*
X169087969Y-73526140D01*
X169073697Y-73530185D01*
X164395138Y-74563114D01*
X161475258Y-75207763D01*
X161461040Y-75210902D01*
X161451996Y-75212555D01*
X161402986Y-75219677D01*
X161402984Y-75219678D01*
X161396010Y-75220691D01*
X161328961Y-75246521D01*
X161324375Y-75248186D01*
X161263044Y-75269124D01*
X161263038Y-75269127D01*
X161256371Y-75271403D01*
X161250370Y-75275102D01*
X161244004Y-75278105D01*
X161243941Y-75277972D01*
X161241183Y-75279339D01*
X161241251Y-75279469D01*
X161235002Y-75282718D01*
X161228425Y-75285251D01*
X161168741Y-75325309D01*
X161164679Y-75327922D01*
X161109492Y-75361939D01*
X161109486Y-75361943D01*
X161103491Y-75365639D01*
X161098462Y-75370572D01*
X161092913Y-75374916D01*
X161092824Y-75374802D01*
X161090438Y-75376744D01*
X161090533Y-75376856D01*
X161085163Y-75381405D01*
X161079307Y-75385335D01*
X161029987Y-75437614D01*
X161026595Y-75441072D01*
X160980316Y-75486471D01*
X160980314Y-75486474D01*
X160975288Y-75491404D01*
X160971477Y-75497328D01*
X160967031Y-75502790D01*
X160966919Y-75502699D01*
X160965020Y-75505126D01*
X160965135Y-75505213D01*
X160960905Y-75510841D01*
X160956068Y-75515968D01*
X160928471Y-75562760D01*
X160919570Y-75577852D01*
X160917011Y-75582006D01*
X160878134Y-75642447D01*
X160875729Y-75649074D01*
X160872606Y-75655378D01*
X160872476Y-75655313D01*
X160871160Y-75658103D01*
X160871293Y-75658162D01*
X160868414Y-75664589D01*
X160864834Y-75670659D01*
X160862688Y-75677371D01*
X160843905Y-75736114D01*
X160804106Y-75794906D01*
X160756503Y-75819445D01*
X159179710Y-76241946D01*
X157014101Y-76822219D01*
X156943125Y-76820529D01*
X156892395Y-76789607D01*
X156471099Y-76368311D01*
X156436594Y-76303692D01*
X156436081Y-76301104D01*
X156435480Y-76294970D01*
X156375935Y-76097749D01*
X156279218Y-75915849D01*
X156180579Y-75794906D01*
X156152906Y-75760975D01*
X156152903Y-75760972D01*
X156149011Y-75756200D01*
X156131786Y-75741950D01*
X155995025Y-75628811D01*
X155995021Y-75628809D01*
X155990275Y-75624882D01*
X155809055Y-75526897D01*
X155612254Y-75465977D01*
X155606129Y-75465333D01*
X155606128Y-75465333D01*
X155413498Y-75445087D01*
X155413496Y-75445087D01*
X155407369Y-75444443D01*
X155267737Y-75457150D01*
X162200000Y-72700000D01*
X175800000Y-71800000D01*
X176300000Y-87500000D01*
G37*
%TD.AperFunction*%
%TA.AperFunction,Conductor*%
G36*
X149565663Y-78721338D02*
G01*
X149545661Y-78789459D01*
X149492005Y-78835952D01*
X149472279Y-78843043D01*
X148060681Y-79221280D01*
X146998864Y-79505793D01*
X146945581Y-79508379D01*
X146938948Y-79507276D01*
X146932165Y-79505351D01*
X146911007Y-79504226D01*
X146894809Y-79503365D01*
X146880673Y-79501810D01*
X146850709Y-79496788D01*
X146850703Y-79496788D01*
X146843760Y-79495624D01*
X146805240Y-79497836D01*
X146791332Y-79497865D01*
X146769042Y-79496680D01*
X146759863Y-79496192D01*
X146752827Y-79495818D01*
X146741091Y-79497836D01*
X146715952Y-79502158D01*
X146701826Y-79503773D01*
X146674353Y-79505351D01*
X146664463Y-79505919D01*
X146627393Y-79516609D01*
X146613844Y-79519717D01*
X146606618Y-79520959D01*
X146582781Y-79525058D01*
X146582778Y-79525059D01*
X146575834Y-79526253D01*
X146538528Y-79541749D01*
X146533567Y-79543666D01*
X146530130Y-79544657D01*
X146492167Y-79560995D01*
X146490723Y-79561606D01*
X146423997Y-79589323D01*
X146409983Y-79595144D01*
X146406700Y-79597473D01*
X146401609Y-79599970D01*
X141587651Y-81671800D01*
X138781529Y-82879498D01*
X138758902Y-82889236D01*
X138709091Y-82899500D01*
X128986496Y-82899500D01*
X128939806Y-82890530D01*
X128819267Y-82842440D01*
X128813898Y-82840298D01*
X128615526Y-82800839D01*
X128609752Y-82800763D01*
X128609748Y-82800763D01*
X128507257Y-82799422D01*
X128413286Y-82798192D01*
X128407589Y-82799171D01*
X128407588Y-82799171D01*
X128219646Y-82831465D01*
X128219645Y-82831465D01*
X128213949Y-82832444D01*
X128086404Y-82879498D01*
X128053297Y-82891712D01*
X128009686Y-82899500D01*
X112607479Y-82899500D01*
X112539358Y-82879498D01*
X112492865Y-82825842D01*
X112482761Y-82755568D01*
X112512255Y-82690988D01*
X112518384Y-82684405D01*
X112963560Y-82239229D01*
X118500000Y-82000000D01*
X136100000Y-82100000D01*
X137337813Y-81750500D01*
X138198277Y-81750500D01*
X138208818Y-81750942D01*
X138260241Y-81755260D01*
X138267001Y-81754358D01*
X138267005Y-81754358D01*
X138339998Y-81744619D01*
X138343052Y-81744249D01*
X138416267Y-81736295D01*
X138416270Y-81736294D01*
X138423048Y-81735558D01*
X138429508Y-81733384D01*
X138432556Y-81732714D01*
X138433017Y-81732633D01*
X138433168Y-81732597D01*
X138433627Y-81732464D01*
X138436646Y-81731722D01*
X138443408Y-81730820D01*
X138449818Y-81728487D01*
X138449822Y-81728486D01*
X138519010Y-81703303D01*
X138521916Y-81702285D01*
X138591716Y-81678795D01*
X138591718Y-81678794D01*
X138598187Y-81676617D01*
X138604041Y-81673100D01*
X138606853Y-81671800D01*
X138607296Y-81671618D01*
X138607455Y-81671542D01*
X138607873Y-81671314D01*
X138610642Y-81669951D01*
X138617054Y-81667618D01*
X138622812Y-81663964D01*
X138622818Y-81663961D01*
X138684983Y-81624510D01*
X138687602Y-81622892D01*
X138750732Y-81584959D01*
X138750734Y-81584958D01*
X138756583Y-81581443D01*
X138761542Y-81576754D01*
X138764021Y-81574872D01*
X138764798Y-81574332D01*
X138768708Y-81571375D01*
X138773077Y-81568602D01*
X138777311Y-81564817D01*
X138830817Y-81511311D01*
X138833339Y-81508858D01*
X138885888Y-81459165D01*
X138885890Y-81459163D01*
X138890846Y-81454476D01*
X138894680Y-81448834D01*
X138899106Y-81443634D01*
X138899510Y-81443978D01*
X138906046Y-81436082D01*
X139084932Y-81257196D01*
X144600000Y-79700000D01*
X149565663Y-77725020D01*
X149565663Y-78721338D01*
G37*
%TD.AperFunction*%
%TA.AperFunction,Conductor*%
G36*
X151967484Y-76880532D02*
G01*
X151966798Y-76886649D01*
X151966797Y-76886653D01*
X151966187Y-76892095D01*
X151938715Y-76957562D01*
X151930067Y-76967144D01*
X151481758Y-77415453D01*
X151419446Y-77449479D01*
X151348631Y-77444414D01*
X151291795Y-77401867D01*
X151266984Y-77335347D01*
X151266663Y-77326358D01*
X151266663Y-77048486D01*
X152007700Y-76753756D01*
X151967484Y-76880532D01*
G37*
%TD.AperFunction*%
%TD*%
M02*
