%TF.GenerationSoftware,KiCad,Pcbnew,(6.0.7)*%
%TF.CreationDate,2022-09-20T09:41:07-05:00*%
%TF.ProjectId,BTSTest,42545354-6573-4742-9e6b-696361645f70,rev?*%
%TF.SameCoordinates,Original*%
%TF.FileFunction,Paste,Top*%
%TF.FilePolarity,Positive*%
%FSLAX46Y46*%
G04 Gerber Fmt 4.6, Leading zero omitted, Abs format (unit mm)*
G04 Created by KiCad (PCBNEW (6.0.7)) date 2022-09-20 09:41:07*
%MOMM*%
%LPD*%
G01*
G04 APERTURE LIST*
G04 Aperture macros list*
%AMRoundRect*
0 Rectangle with rounded corners*
0 $1 Rounding radius*
0 $2 $3 $4 $5 $6 $7 $8 $9 X,Y pos of 4 corners*
0 Add a 4 corners polygon primitive as box body*
4,1,4,$2,$3,$4,$5,$6,$7,$8,$9,$2,$3,0*
0 Add four circle primitives for the rounded corners*
1,1,$1+$1,$2,$3*
1,1,$1+$1,$4,$5*
1,1,$1+$1,$6,$7*
1,1,$1+$1,$8,$9*
0 Add four rect primitives between the rounded corners*
20,1,$1+$1,$2,$3,$4,$5,0*
20,1,$1+$1,$4,$5,$6,$7,0*
20,1,$1+$1,$6,$7,$8,$9,0*
20,1,$1+$1,$8,$9,$2,$3,0*%
G04 Aperture macros list end*
%ADD10C,0.100000*%
%ADD11RoundRect,0.200000X-0.275000X0.200000X-0.275000X-0.200000X0.275000X-0.200000X0.275000X0.200000X0*%
%ADD12RoundRect,0.200000X0.275000X-0.200000X0.275000X0.200000X-0.275000X0.200000X-0.275000X-0.200000X0*%
%ADD13RoundRect,0.218750X-0.218750X-0.256250X0.218750X-0.256250X0.218750X0.256250X-0.218750X0.256250X0*%
%ADD14RoundRect,0.200000X-0.200000X-0.275000X0.200000X-0.275000X0.200000X0.275000X-0.200000X0.275000X0*%
%ADD15RoundRect,0.200000X0.200000X0.275000X-0.200000X0.275000X-0.200000X-0.275000X0.200000X-0.275000X0*%
%ADD16RoundRect,0.225000X0.250000X-0.225000X0.250000X0.225000X-0.250000X0.225000X-0.250000X-0.225000X0*%
%ADD17RoundRect,0.225000X0.225000X0.250000X-0.225000X0.250000X-0.225000X-0.250000X0.225000X-0.250000X0*%
%ADD18R,1.200000X0.900000*%
%ADD19R,0.354800X1.454899*%
%ADD20RoundRect,0.150000X-0.150000X0.587500X-0.150000X-0.587500X0.150000X-0.587500X0.150000X0.587500X0*%
%ADD21R,1.309599X0.508000*%
%ADD22RoundRect,0.225000X-0.225000X-0.250000X0.225000X-0.250000X0.225000X0.250000X-0.225000X0.250000X0*%
%ADD23RoundRect,0.150000X-0.825000X-0.150000X0.825000X-0.150000X0.825000X0.150000X-0.825000X0.150000X0*%
%ADD24RoundRect,0.243750X0.456250X-0.243750X0.456250X0.243750X-0.456250X0.243750X-0.456250X-0.243750X0*%
%ADD25RoundRect,0.150000X0.150000X-0.587500X0.150000X0.587500X-0.150000X0.587500X-0.150000X-0.587500X0*%
%ADD26RoundRect,0.225000X-0.250000X0.225000X-0.250000X-0.225000X0.250000X-0.225000X0.250000X0.225000X0*%
G04 APERTURE END LIST*
%TO.C,U1*%
G36*
X110115920Y-85297350D02*
G01*
X109015440Y-85297350D01*
X109015440Y-84062250D01*
X110115920Y-84062250D01*
X110115920Y-85297350D01*
G37*
D10*
X110115920Y-85297350D02*
X109015440Y-85297350D01*
X109015440Y-84062250D01*
X110115920Y-84062250D01*
X110115920Y-85297350D01*
G36*
X110115920Y-86732450D02*
G01*
X109015440Y-86732450D01*
X109015440Y-85497350D01*
X110115920Y-85497350D01*
X110115920Y-86732450D01*
G37*
X110115920Y-86732450D02*
X109015440Y-86732450D01*
X109015440Y-85497350D01*
X110115920Y-85497350D01*
X110115920Y-86732450D01*
G36*
X111416400Y-85297350D02*
G01*
X110315920Y-85297350D01*
X110315920Y-84062250D01*
X111416400Y-84062250D01*
X111416400Y-85297350D01*
G37*
X111416400Y-85297350D02*
X110315920Y-85297350D01*
X110315920Y-84062250D01*
X111416400Y-84062250D01*
X111416400Y-85297350D01*
G36*
X106214480Y-85297350D02*
G01*
X105114000Y-85297350D01*
X105114000Y-84062250D01*
X106214480Y-84062250D01*
X106214480Y-85297350D01*
G37*
X106214480Y-85297350D02*
X105114000Y-85297350D01*
X105114000Y-84062250D01*
X106214480Y-84062250D01*
X106214480Y-85297350D01*
G36*
X111416400Y-86732450D02*
G01*
X110315920Y-86732450D01*
X110315920Y-85497350D01*
X111416400Y-85497350D01*
X111416400Y-86732450D01*
G37*
X111416400Y-86732450D02*
X110315920Y-86732450D01*
X110315920Y-85497350D01*
X111416400Y-85497350D01*
X111416400Y-86732450D01*
G36*
X108815440Y-86732450D02*
G01*
X107714960Y-86732450D01*
X107714960Y-85497350D01*
X108815440Y-85497350D01*
X108815440Y-86732450D01*
G37*
X108815440Y-86732450D02*
X107714960Y-86732450D01*
X107714960Y-85497350D01*
X108815440Y-85497350D01*
X108815440Y-86732450D01*
G36*
X107514960Y-86732450D02*
G01*
X106414480Y-86732450D01*
X106414480Y-85497350D01*
X107514960Y-85497350D01*
X107514960Y-86732450D01*
G37*
X107514960Y-86732450D02*
X106414480Y-86732450D01*
X106414480Y-85497350D01*
X107514960Y-85497350D01*
X107514960Y-86732450D01*
G36*
X106214480Y-86732450D02*
G01*
X105114000Y-86732450D01*
X105114000Y-85497350D01*
X106214480Y-85497350D01*
X106214480Y-86732450D01*
G37*
X106214480Y-86732450D02*
X105114000Y-86732450D01*
X105114000Y-85497350D01*
X106214480Y-85497350D01*
X106214480Y-86732450D01*
G36*
X108815440Y-85297350D02*
G01*
X107714960Y-85297350D01*
X107714960Y-84062250D01*
X108815440Y-84062250D01*
X108815440Y-85297350D01*
G37*
X108815440Y-85297350D02*
X107714960Y-85297350D01*
X107714960Y-84062250D01*
X108815440Y-84062250D01*
X108815440Y-85297350D01*
G36*
X107514960Y-85297350D02*
G01*
X106414480Y-85297350D01*
X106414480Y-84062250D01*
X107514960Y-84062250D01*
X107514960Y-85297350D01*
G37*
X107514960Y-85297350D02*
X106414480Y-85297350D01*
X106414480Y-84062250D01*
X107514960Y-84062250D01*
X107514960Y-85297350D01*
%TO.C,U5*%
G36*
X136613667Y-86718950D02*
G01*
X135450533Y-86718950D01*
X135450533Y-85547350D01*
X136613667Y-85547350D01*
X136613667Y-86718950D01*
G37*
X136613667Y-86718950D02*
X135450533Y-86718950D01*
X135450533Y-85547350D01*
X136613667Y-85547350D01*
X136613667Y-86718950D01*
G36*
X136613667Y-85347350D02*
G01*
X135450533Y-85347350D01*
X135450533Y-84175750D01*
X136613667Y-84175750D01*
X136613667Y-85347350D01*
G37*
X136613667Y-85347350D02*
X135450533Y-85347350D01*
X135450533Y-84175750D01*
X136613667Y-84175750D01*
X136613667Y-85347350D01*
G36*
X137976800Y-85347350D02*
G01*
X136813666Y-85347350D01*
X136813666Y-84175750D01*
X137976800Y-84175750D01*
X137976800Y-85347350D01*
G37*
X137976800Y-85347350D02*
X136813666Y-85347350D01*
X136813666Y-84175750D01*
X137976800Y-84175750D01*
X137976800Y-85347350D01*
G36*
X137976800Y-86718950D02*
G01*
X136813666Y-86718950D01*
X136813666Y-85547350D01*
X137976800Y-85547350D01*
X137976800Y-86718950D01*
G37*
X137976800Y-86718950D02*
X136813666Y-86718950D01*
X136813666Y-85547350D01*
X137976800Y-85547350D01*
X137976800Y-86718950D01*
G36*
X135250534Y-86718950D02*
G01*
X134087400Y-86718950D01*
X134087400Y-85547350D01*
X135250534Y-85547350D01*
X135250534Y-86718950D01*
G37*
X135250534Y-86718950D02*
X134087400Y-86718950D01*
X134087400Y-85547350D01*
X135250534Y-85547350D01*
X135250534Y-86718950D01*
G36*
X135250534Y-85347350D02*
G01*
X134087400Y-85347350D01*
X134087400Y-84175750D01*
X135250534Y-84175750D01*
X135250534Y-85347350D01*
G37*
X135250534Y-85347350D02*
X134087400Y-85347350D01*
X134087400Y-84175750D01*
X135250534Y-84175750D01*
X135250534Y-85347350D01*
%TD*%
D11*
%TO.C,R20*%
X138810000Y-78665000D03*
X138810000Y-80315000D03*
%TD*%
D12*
%TO.C,R4*%
X120768333Y-90253333D03*
X120768333Y-88603333D03*
%TD*%
D13*
%TO.C,D8*%
X146662500Y-93230000D03*
X148237500Y-93230000D03*
%TD*%
D11*
%TO.C,R3*%
X109460000Y-78385000D03*
X109460000Y-80035000D03*
%TD*%
D14*
%TO.C,R17*%
X154985000Y-47790000D03*
X156635000Y-47790000D03*
%TD*%
D13*
%TO.C,D12*%
X146662500Y-99640000D03*
X148237500Y-99640000D03*
%TD*%
%TO.C,D7*%
X146662500Y-95366666D03*
X148237500Y-95366666D03*
%TD*%
D15*
%TO.C,R9*%
X96835000Y-68690000D03*
X95185000Y-68690000D03*
%TD*%
D16*
%TO.C,C7*%
X142430000Y-84155000D03*
X142430000Y-82605000D03*
%TD*%
D11*
%TO.C,R6*%
X107710000Y-78385000D03*
X107710000Y-80035000D03*
%TD*%
D12*
%TO.C,R14*%
X115891667Y-90253333D03*
X115891667Y-88603333D03*
%TD*%
D17*
%TO.C,C12*%
X131615000Y-82310000D03*
X130065000Y-82310000D03*
%TD*%
D12*
%TO.C,R28*%
X147593333Y-89605000D03*
X147593333Y-87955000D03*
%TD*%
%TO.C,R19*%
X151086666Y-89605000D03*
X151086666Y-87955000D03*
%TD*%
D18*
%TO.C,D3*%
X103030000Y-76480000D03*
X103030000Y-79780000D03*
%TD*%
D15*
%TO.C,R7*%
X96835000Y-70430000D03*
X95185000Y-70430000D03*
%TD*%
D13*
%TO.C,D10*%
X146662500Y-97503332D03*
X148237500Y-97503332D03*
%TD*%
D14*
%TO.C,R30*%
X128195000Y-94030000D03*
X129845000Y-94030000D03*
%TD*%
%TO.C,R29*%
X128125000Y-89610000D03*
X129775000Y-89610000D03*
%TD*%
D19*
%TO.C,U1*%
X111840199Y-82676002D03*
X111190200Y-82676002D03*
X110540202Y-82676002D03*
X109890201Y-82676002D03*
X109240202Y-82676002D03*
X108590201Y-82676002D03*
X107940202Y-82676002D03*
X107290201Y-82676002D03*
X106640202Y-82676002D03*
X105990201Y-82676002D03*
X105340202Y-82676002D03*
X104690201Y-82676002D03*
X104690201Y-88118698D03*
X105340200Y-88118698D03*
X105990201Y-88118698D03*
X106640199Y-88118698D03*
X107290201Y-88118698D03*
X107940199Y-88118698D03*
X108590198Y-88118698D03*
X109240199Y-88118698D03*
X109890198Y-88118698D03*
X110540199Y-88118698D03*
X111190198Y-88118698D03*
X111840199Y-88118698D03*
%TD*%
D12*
%TO.C,R11*%
X117517222Y-90253333D03*
X117517222Y-88603333D03*
%TD*%
D20*
%TO.C,Q2*%
X156800000Y-49982500D03*
X154900000Y-49982500D03*
X155850000Y-51857500D03*
%TD*%
D13*
%TO.C,D2*%
X115812500Y-93534999D03*
X117387500Y-93534999D03*
%TD*%
D14*
%TO.C,R5*%
X117375000Y-44790000D03*
X119025000Y-44790000D03*
%TD*%
%TO.C,R16*%
X158845000Y-53980000D03*
X160495000Y-53980000D03*
%TD*%
D19*
%TO.C,U5*%
X137982101Y-82726002D03*
X137332100Y-82726002D03*
X136682099Y-82726002D03*
X136032100Y-82726002D03*
X135382101Y-82726002D03*
X134732100Y-82726002D03*
X134082101Y-82726002D03*
X134082099Y-88168698D03*
X134732100Y-88168698D03*
X135382099Y-88168698D03*
X136032100Y-88168698D03*
X136682099Y-88168698D03*
X137332100Y-88168698D03*
X137982099Y-88168698D03*
%TD*%
D15*
%TO.C,R23*%
X125335000Y-44800000D03*
X123685000Y-44800000D03*
%TD*%
D11*
%TO.C,R2*%
X111210000Y-78385000D03*
X111210000Y-80035000D03*
%TD*%
D14*
%TO.C,R15*%
X154995000Y-53980000D03*
X156645000Y-53980000D03*
%TD*%
D12*
%TO.C,R26*%
X133180000Y-80315000D03*
X133180000Y-78665000D03*
%TD*%
D16*
%TO.C,C3*%
X114050000Y-83565000D03*
X114050000Y-82015000D03*
%TD*%
D20*
%TO.C,U3*%
X102320000Y-84362500D03*
X100420000Y-84362500D03*
X101370000Y-86237500D03*
%TD*%
D18*
%TO.C,D9*%
X129430000Y-77030000D03*
X129430000Y-80330000D03*
%TD*%
D16*
%TO.C,C2*%
X115900000Y-83555000D03*
X115900000Y-82005000D03*
%TD*%
D14*
%TO.C,R13*%
X100625000Y-93600000D03*
X102275000Y-93600000D03*
%TD*%
D17*
%TO.C,C5*%
X102165000Y-82480000D03*
X100615000Y-82480000D03*
%TD*%
D11*
%TO.C,R24*%
X135056666Y-78665000D03*
X135056666Y-80315000D03*
%TD*%
D17*
%TO.C,C1*%
X115675000Y-44800000D03*
X114125000Y-44800000D03*
%TD*%
D15*
%TO.C,R27*%
X142325000Y-80820000D03*
X140675000Y-80820000D03*
%TD*%
D14*
%TO.C,R12*%
X100625000Y-89450000D03*
X102275000Y-89450000D03*
%TD*%
D21*
%TO.C,U7*%
X87854000Y-68914601D03*
X87854000Y-67964600D03*
X87854000Y-67014599D03*
X85263200Y-67014599D03*
X85263200Y-68914601D03*
%TD*%
D22*
%TO.C,C6*%
X127215000Y-44790000D03*
X128765000Y-44790000D03*
%TD*%
D15*
%TO.C,R10*%
X115805000Y-80210000D03*
X114155000Y-80210000D03*
%TD*%
D16*
%TO.C,C9*%
X164220000Y-69975000D03*
X164220000Y-68425000D03*
%TD*%
D23*
%TO.C,U6*%
X156145000Y-66065000D03*
X156145000Y-67335000D03*
X156145000Y-68605000D03*
X156145000Y-69875000D03*
X161095000Y-69875000D03*
X161095000Y-68605000D03*
X161095000Y-67335000D03*
X161095000Y-66065000D03*
%TD*%
D13*
%TO.C,D6*%
X115612500Y-99590000D03*
X117187500Y-99590000D03*
%TD*%
D20*
%TO.C,U8*%
X131900000Y-84592500D03*
X130000000Y-84592500D03*
X130950000Y-86467500D03*
%TD*%
D24*
%TO.C,D5*%
X97155000Y-86197500D03*
X97155000Y-84322500D03*
%TD*%
D15*
%TO.C,R18*%
X160435000Y-47790000D03*
X158785000Y-47790000D03*
%TD*%
D12*
%TO.C,R8*%
X105960000Y-80035000D03*
X105960000Y-78385000D03*
%TD*%
D25*
%TO.C,Q1*%
X158700000Y-51857500D03*
X160600000Y-51857500D03*
X159650000Y-49982500D03*
%TD*%
D12*
%TO.C,R31*%
X145900000Y-89605000D03*
X145900000Y-87955000D03*
%TD*%
D16*
%TO.C,C8*%
X140720000Y-84155000D03*
X140720000Y-82605000D03*
%TD*%
D13*
%TO.C,D4*%
X115712500Y-97571665D03*
X117287500Y-97571665D03*
%TD*%
D17*
%TO.C,C4*%
X102225000Y-91225000D03*
X100675000Y-91225000D03*
%TD*%
%TO.C,C10*%
X129755000Y-91460000D03*
X128205000Y-91460000D03*
%TD*%
D13*
%TO.C,D1*%
X115812500Y-95553332D03*
X117387500Y-95553332D03*
%TD*%
D12*
%TO.C,R1*%
X119142777Y-90253333D03*
X119142777Y-88603333D03*
%TD*%
D11*
%TO.C,R21*%
X136933332Y-78665000D03*
X136933332Y-80315000D03*
%TD*%
D26*
%TO.C,C11*%
X90850000Y-66425000D03*
X90850000Y-67975000D03*
%TD*%
D24*
%TO.C,D11*%
X126795000Y-86297500D03*
X126795000Y-84422500D03*
%TD*%
D12*
%TO.C,R22*%
X152780000Y-89605000D03*
X152780000Y-87955000D03*
%TD*%
M02*
