%TF.GenerationSoftware,KiCad,Pcbnew,(6.0.7)*%
%TF.CreationDate,2022-09-20T09:41:07-05:00*%
%TF.ProjectId,BTSTest,42545354-6573-4742-9e6b-696361645f70,rev?*%
%TF.SameCoordinates,Original*%
%TF.FileFunction,Legend,Bot*%
%TF.FilePolarity,Positive*%
%FSLAX46Y46*%
G04 Gerber Fmt 4.6, Leading zero omitted, Abs format (unit mm)*
G04 Created by KiCad (PCBNEW (6.0.7)) date 2022-09-20 09:41:07*
%MOMM*%
%LPD*%
G01*
G04 APERTURE LIST*
%ADD10C,1.000000*%
%ADD11C,0.127000*%
G04 APERTURE END LIST*
D10*
X150004761Y-76261904D02*
X152385714Y-76261904D01*
X152385714Y-71261904D01*
X146671428Y-73642857D02*
X148338095Y-73642857D01*
X148338095Y-76261904D02*
X148338095Y-71261904D01*
X145957142Y-71261904D01*
X141433333Y-71500000D02*
X141909523Y-71261904D01*
X142623809Y-71261904D01*
X143338095Y-71500000D01*
X143814285Y-71976190D01*
X144052380Y-72452380D01*
X144290476Y-73404761D01*
X144290476Y-74119047D01*
X144052380Y-75071428D01*
X143814285Y-75547619D01*
X143338095Y-76023809D01*
X142623809Y-76261904D01*
X142147619Y-76261904D01*
X141433333Y-76023809D01*
X141195238Y-75785714D01*
X141195238Y-74119047D01*
X142147619Y-74119047D01*
X135480952Y-74833333D02*
X133100000Y-74833333D01*
X135957142Y-76261904D02*
X134290476Y-71261904D01*
X132623809Y-76261904D01*
X128814285Y-72928571D02*
X128814285Y-76261904D01*
X130957142Y-72928571D02*
X130957142Y-75547619D01*
X130719047Y-76023809D01*
X130242857Y-76261904D01*
X129528571Y-76261904D01*
X129052380Y-76023809D01*
X128814285Y-75785714D01*
X127147619Y-72928571D02*
X125242857Y-72928571D01*
X126433333Y-71261904D02*
X126433333Y-75547619D01*
X126195238Y-76023809D01*
X125719047Y-76261904D01*
X125242857Y-76261904D01*
X122861904Y-76261904D02*
X123338095Y-76023809D01*
X123576190Y-75785714D01*
X123814285Y-75309523D01*
X123814285Y-73880952D01*
X123576190Y-73404761D01*
X123338095Y-73166666D01*
X122861904Y-72928571D01*
X122147619Y-72928571D01*
X121671428Y-73166666D01*
X121433333Y-73404761D01*
X121195238Y-73880952D01*
X121195238Y-75309523D01*
X121433333Y-75785714D01*
X121671428Y-76023809D01*
X122147619Y-76261904D01*
X122861904Y-76261904D01*
X119052380Y-76261904D02*
X119052380Y-72928571D01*
X119052380Y-73404761D02*
X118814285Y-73166666D01*
X118338095Y-72928571D01*
X117623809Y-72928571D01*
X117147619Y-73166666D01*
X116909523Y-73642857D01*
X116909523Y-76261904D01*
X116909523Y-73642857D02*
X116671428Y-73166666D01*
X116195238Y-72928571D01*
X115480952Y-72928571D01*
X115004761Y-73166666D01*
X114766666Y-73642857D01*
X114766666Y-76261904D01*
X111671428Y-76261904D02*
X112147619Y-76023809D01*
X112385714Y-75785714D01*
X112623809Y-75309523D01*
X112623809Y-73880952D01*
X112385714Y-73404761D01*
X112147619Y-73166666D01*
X111671428Y-72928571D01*
X110957142Y-72928571D01*
X110480952Y-73166666D01*
X110242857Y-73404761D01*
X110004761Y-73880952D01*
X110004761Y-75309523D01*
X110242857Y-75785714D01*
X110480952Y-76023809D01*
X110957142Y-76261904D01*
X111671428Y-76261904D01*
X108576190Y-72928571D02*
X106671428Y-72928571D01*
X107861904Y-71261904D02*
X107861904Y-75547619D01*
X107623809Y-76023809D01*
X107147619Y-76261904D01*
X106671428Y-76261904D01*
X105004761Y-76261904D02*
X105004761Y-72928571D01*
X105004761Y-71261904D02*
X105242857Y-71500000D01*
X105004761Y-71738095D01*
X104766666Y-71500000D01*
X105004761Y-71261904D01*
X105004761Y-71738095D01*
X103100000Y-72928571D02*
X101909523Y-76261904D01*
X100719047Y-72928571D01*
X96909523Y-76023809D02*
X97385714Y-76261904D01*
X98338095Y-76261904D01*
X98814285Y-76023809D01*
X99052380Y-75547619D01*
X99052380Y-73642857D01*
X98814285Y-73166666D01*
X98338095Y-72928571D01*
X97385714Y-72928571D01*
X96909523Y-73166666D01*
X96671428Y-73642857D01*
X96671428Y-74119047D01*
X99052380Y-74595238D01*
D11*
%TO.C,R25*%
X163808312Y-83998782D02*
X149126240Y-87932832D01*
X161693760Y-76107168D02*
X147011688Y-80041218D01*
%TD*%
M02*
