M48
; DRILL file {KiCad (6.0.7)} date Tue Sep 20 09:24:32 2022
; FORMAT={-:-/ absolute / inch / decimal}
; #@! TF.CreationDate,2022-09-20T09:24:32-05:00
; #@! TF.GenerationSoftware,Kicad,Pcbnew,(6.0.7)
; #@! TF.FileFunction,Plated,1,2,PTH
FMAT,2
INCH
; #@! TA.AperFunction,Plated,PTH,ViaDrill
T1C0.0118
; #@! TA.AperFunction,Plated,PTH,ComponentDrill
T2C0.0118
; #@! TA.AperFunction,Plated,PTH,ViaDrill
T3C0.0157
; #@! TA.AperFunction,Plated,PTH,ComponentDrill
T4C0.0402
; #@! TA.AperFunction,Plated,PTH,ComponentDrill
T5C0.0669
; #@! TA.AperFunction,Plated,PTH,ComponentDrill
T6C0.1693
%
G90
G05
T1
X3.6526Y-2.6152
X3.7106Y-2.6516
X3.8189Y-3.248
X4.1969Y-2.9094
X4.4455Y-3.086
X4.4646Y-2.2953
X4.5827Y-2.5551
X4.622Y-2.6063
X4.7205Y-2.9764
X4.7402Y-1.7638
X4.815Y-1.7638
X4.9449Y-3.1575
X5.0Y-3.0315
X5.1732Y-3.0748
X5.5034Y-3.0586
X6.0039Y-2.6929
X6.0236Y-3.0354
X6.0315Y-2.122
X6.0748Y-2.063
X6.1181Y-3.0118
T2
X4.0971Y-3.309
X4.0971Y-3.3444
X4.0971Y-3.3798
X4.0971Y-3.4152
X4.1325Y-3.309
X4.1325Y-3.3444
X4.1325Y-3.3798
X4.1325Y-3.4152
X4.1679Y-3.309
X4.1679Y-3.3444
X4.1679Y-3.3798
X4.1679Y-3.4152
X4.2034Y-3.309
X4.2034Y-3.3444
X4.2034Y-3.3798
X4.2034Y-3.4152
X4.2388Y-3.309
X4.2388Y-3.3444
X4.2388Y-3.3798
X4.2388Y-3.4152
X4.2742Y-3.309
X4.2742Y-3.3444
X4.2742Y-3.3798
X4.2742Y-3.4152
X4.3097Y-3.309
X4.3097Y-3.3444
X4.3097Y-3.3798
X4.3097Y-3.4152
X4.3451Y-3.309
X4.3451Y-3.3444
X4.3451Y-3.3798
X4.3451Y-3.4152
X4.3805Y-3.309
X4.3805Y-3.3444
X4.3805Y-3.3798
X4.3805Y-3.4152
X4.416Y-3.309
X4.416Y-3.3444
X4.416Y-3.3798
X4.416Y-3.4152
X5.269Y-3.3109
X5.269Y-3.3464
X5.269Y-3.3818
X5.269Y-3.4172
X5.3044Y-3.3109
X5.3044Y-3.3464
X5.3044Y-3.3818
X5.3044Y-3.4172
X5.3398Y-3.3109
X5.3398Y-3.3464
X5.3398Y-3.3818
X5.3398Y-3.4172
X5.3753Y-3.3109
X5.3753Y-3.3464
X5.3753Y-3.3818
X5.3753Y-3.4172
X5.4107Y-3.3109
X5.4107Y-3.3464
X5.4107Y-3.3818
X5.4107Y-3.4172
X5.4461Y-3.3109
X5.4461Y-3.3464
X5.4461Y-3.3818
X5.4461Y-3.4172
T3
X3.5197Y-2.6772
X3.8976Y-3.3346
X3.8976Y-3.374
X3.8976Y-3.4134
X3.9173Y-3.6378
X3.937Y-3.4567
X3.9528Y-3.189
X3.9606Y-3.6378
X3.9803Y-3.4567
X4.0276Y-3.4567
X4.0551Y-3.189
X4.0709Y-3.4724
X4.126Y-3.0787
X4.4409Y-1.7638
X4.4685Y-3.3622
X4.4685Y-3.4016
X4.4685Y-3.4882
X4.5079Y-3.3622
X4.5079Y-3.4016
X4.5079Y-3.4882
X4.547Y-3.4013
X4.5472Y-3.3622
X4.5866Y-3.3622
X4.5866Y-3.4016
X4.6181Y-3.1496
X4.6181Y-3.189
X4.6181Y-3.2323
X4.6614Y-3.1496
X4.6614Y-3.189
X4.6614Y-3.2323
X5.0472Y-3.6496
X5.0591Y-3.3031
X5.0591Y-3.3425
X5.0591Y-3.3819
X5.0591Y-3.4213
X5.0748Y-3.2165
X5.0906Y-3.4685
X5.122Y-1.7638
X5.1339Y-3.4685
X5.1732Y-3.4685
X5.2008Y-3.126
X5.2126Y-3.4685
X5.5Y-3.3661
X5.5Y-3.4055
X5.5394Y-3.3661
X5.5394Y-3.4055
X5.5785Y-3.4053
X5.5787Y-3.3661
X5.5906Y-3.0787
X5.5945Y-3.126
X5.6181Y-3.3661
X5.6181Y-3.4055
X5.6378Y-3.0866
X5.6417Y-3.1378
X5.6811Y-3.5118
X5.878Y-3.5157
X6.063Y-2.622
X6.063Y-3.4921
X6.378Y-2.0472
X6.378Y-2.0866
X6.378Y-2.126
X6.4171Y-2.701
T4
X3.9289Y-2.0096
X3.9289Y-2.7096
X4.0289Y-2.0096
X4.0289Y-2.7096
X4.1289Y-2.0096
X4.1289Y-2.7096
X4.2289Y-2.0096
X4.2289Y-2.7096
X4.3289Y-2.0096
X4.3289Y-2.7096
X4.4289Y-2.0096
X4.4289Y-2.7096
X4.5289Y-2.0096
X4.5289Y-2.7096
X4.6289Y-2.0096
X4.6289Y-2.7096
X4.7289Y-2.0096
X4.7289Y-2.7096
X4.8289Y-2.0096
X4.8289Y-2.7096
X4.9289Y-2.0096
X4.9289Y-2.7096
X5.0289Y-2.0096
X5.0289Y-2.7096
X5.1289Y-2.0096
X5.1289Y-2.7096
X5.2289Y-2.0096
X5.2289Y-2.7096
X5.3289Y-2.0096
X5.3289Y-2.7096
X5.4289Y-2.0096
X5.4289Y-2.7096
X5.5289Y-2.0096
X5.5289Y-2.7096
X5.6289Y-2.0096
X5.6289Y-2.7096
X5.7289Y-2.0096
X5.7289Y-2.7096
X5.8199Y-2.2596
X5.8199Y-2.3596
X5.8199Y-2.4596
X5.8289Y-2.0096
X5.8289Y-2.7096
T5
X3.4843Y-2.9872
X3.4843Y-3.187
X4.1632Y-3.6939
X4.363Y-3.6939
X5.2478Y-3.6931
X5.4476Y-3.6931
X6.7254Y-3.0362
X6.7254Y-3.236
T6
X3.4587Y-3.7736
X3.4646Y-1.8839
X6.9232Y-3.7795
X6.9291Y-1.8898
T0
M30
