%TF.GenerationSoftware,KiCad,Pcbnew,(6.0.7)*%
%TF.CreationDate,2022-09-20T09:41:07-05:00*%
%TF.ProjectId,BTSTest,42545354-6573-4742-9e6b-696361645f70,rev?*%
%TF.SameCoordinates,Original*%
%TF.FileFunction,Legend,Top*%
%TF.FilePolarity,Positive*%
%FSLAX46Y46*%
G04 Gerber Fmt 4.6, Leading zero omitted, Abs format (unit mm)*
G04 Created by KiCad (PCBNEW (6.0.7)) date 2022-09-20 09:41:07*
%MOMM*%
%LPD*%
G01*
G04 APERTURE LIST*
%ADD10C,0.300000*%
%ADD11C,0.150000*%
%ADD12C,0.120000*%
G04 APERTURE END LIST*
D10*
X129271428Y-60878571D02*
X129271428Y-61950000D01*
X129200000Y-62164285D01*
X129057142Y-62307142D01*
X128842857Y-62378571D01*
X128700000Y-62378571D01*
X130700000Y-62378571D02*
X129985714Y-62378571D01*
X129985714Y-60878571D01*
X132057142Y-62235714D02*
X131985714Y-62307142D01*
X131771428Y-62378571D01*
X131628571Y-62378571D01*
X131414285Y-62307142D01*
X131271428Y-62164285D01*
X131200000Y-62021428D01*
X131128571Y-61735714D01*
X131128571Y-61521428D01*
X131200000Y-61235714D01*
X131271428Y-61092857D01*
X131414285Y-60950000D01*
X131628571Y-60878571D01*
X131771428Y-60878571D01*
X131985714Y-60950000D01*
X132057142Y-61021428D01*
X133128571Y-60878571D02*
X133128571Y-61950000D01*
X133057142Y-62164285D01*
X132914285Y-62307142D01*
X132700000Y-62378571D01*
X132557142Y-62378571D01*
X134557142Y-62378571D02*
X133842857Y-62378571D01*
X133842857Y-60878571D01*
X135914285Y-62235714D02*
X135842857Y-62307142D01*
X135628571Y-62378571D01*
X135485714Y-62378571D01*
X135271428Y-62307142D01*
X135128571Y-62164285D01*
X135057142Y-62021428D01*
X134985714Y-61735714D01*
X134985714Y-61521428D01*
X135057142Y-61235714D01*
X135128571Y-61092857D01*
X135271428Y-60950000D01*
X135485714Y-60878571D01*
X135628571Y-60878571D01*
X135842857Y-60950000D01*
X135914285Y-61021428D01*
X136985714Y-60878571D02*
X136985714Y-61950000D01*
X136914285Y-62164285D01*
X136771428Y-62307142D01*
X136557142Y-62378571D01*
X136414285Y-62378571D01*
X138414285Y-62378571D02*
X137700000Y-62378571D01*
X137700000Y-60878571D01*
X139771428Y-62235714D02*
X139700000Y-62307142D01*
X139485714Y-62378571D01*
X139342857Y-62378571D01*
X139128571Y-62307142D01*
X138985714Y-62164285D01*
X138914285Y-62021428D01*
X138842857Y-61735714D01*
X138842857Y-61521428D01*
X138914285Y-61235714D01*
X138985714Y-61092857D01*
X139128571Y-60950000D01*
X139342857Y-60878571D01*
X139485714Y-60878571D01*
X139700000Y-60950000D01*
X139771428Y-61021428D01*
X140842857Y-60878571D02*
X140842857Y-61950000D01*
X140771428Y-62164285D01*
X140628571Y-62307142D01*
X140414285Y-62378571D01*
X140271428Y-62378571D01*
X142271428Y-62378571D02*
X141557142Y-62378571D01*
X141557142Y-60878571D01*
X143628571Y-62235714D02*
X143557142Y-62307142D01*
X143342857Y-62378571D01*
X143200000Y-62378571D01*
X142985714Y-62307142D01*
X142842857Y-62164285D01*
X142771428Y-62021428D01*
X142700000Y-61735714D01*
X142700000Y-61521428D01*
X142771428Y-61235714D01*
X142842857Y-61092857D01*
X142985714Y-60950000D01*
X143200000Y-60878571D01*
X143342857Y-60878571D01*
X143557142Y-60950000D01*
X143628571Y-61021428D01*
D11*
X124400000Y-74800000D02*
X156500000Y-74800000D01*
X156500000Y-74800000D02*
X156500000Y-101000000D01*
X156500000Y-101000000D02*
X124400000Y-101000000D01*
X124400000Y-101000000D02*
X124400000Y-74800000D01*
X95000000Y-74800000D02*
X124000000Y-74800000D01*
X124000000Y-74800000D02*
X124000000Y-101000000D01*
X124000000Y-101000000D02*
X95000000Y-101000000D01*
X95000000Y-101000000D02*
X95000000Y-74800000D01*
D10*
X100095238Y-99314285D02*
X100000000Y-99409523D01*
X99714285Y-99504761D01*
X99523809Y-99504761D01*
X99238095Y-99409523D01*
X99047619Y-99219047D01*
X98952380Y-99028571D01*
X98857142Y-98647619D01*
X98857142Y-98361904D01*
X98952380Y-97980952D01*
X99047619Y-97790476D01*
X99238095Y-97600000D01*
X99523809Y-97504761D01*
X99714285Y-97504761D01*
X100000000Y-97600000D01*
X100095238Y-97695238D01*
X100952380Y-99504761D02*
X100952380Y-97504761D01*
X100952380Y-98457142D02*
X102095238Y-98457142D01*
X102095238Y-99504761D02*
X102095238Y-97504761D01*
X104095238Y-99504761D02*
X102952380Y-99504761D01*
X103523809Y-99504761D02*
X103523809Y-97504761D01*
X103333333Y-97790476D01*
X103142857Y-97980952D01*
X102952380Y-98076190D01*
X106285714Y-97504761D02*
X107523809Y-97504761D01*
X106857142Y-98266666D01*
X107142857Y-98266666D01*
X107333333Y-98361904D01*
X107428571Y-98457142D01*
X107523809Y-98647619D01*
X107523809Y-99123809D01*
X107428571Y-99314285D01*
X107333333Y-99409523D01*
X107142857Y-99504761D01*
X106571428Y-99504761D01*
X106380952Y-99409523D01*
X106285714Y-99314285D01*
X108761904Y-97504761D02*
X108952380Y-97504761D01*
X109142857Y-97600000D01*
X109238095Y-97695238D01*
X109333333Y-97885714D01*
X109428571Y-98266666D01*
X109428571Y-98742857D01*
X109333333Y-99123809D01*
X109238095Y-99314285D01*
X109142857Y-99409523D01*
X108952380Y-99504761D01*
X108761904Y-99504761D01*
X108571428Y-99409523D01*
X108476190Y-99314285D01*
X108380952Y-99123809D01*
X108285714Y-98742857D01*
X108285714Y-98266666D01*
X108380952Y-97885714D01*
X108476190Y-97695238D01*
X108571428Y-97600000D01*
X108761904Y-97504761D01*
X110190476Y-98933333D02*
X111142857Y-98933333D01*
X110000000Y-99504761D02*
X110666666Y-97504761D01*
X111333333Y-99504761D01*
D11*
X118741904Y-96052380D02*
X118741904Y-95052380D01*
X118979999Y-95052380D01*
X119122856Y-95100000D01*
X119218095Y-95195238D01*
X119265714Y-95290476D01*
X119313333Y-95480952D01*
X119313333Y-95623809D01*
X119265714Y-95814285D01*
X119218095Y-95909523D01*
X119122856Y-96004761D01*
X118979999Y-96052380D01*
X118741904Y-96052380D01*
X119741904Y-96052380D02*
X119741904Y-95052380D01*
X120170476Y-95766666D02*
X120646666Y-95766666D01*
X120075237Y-96052380D02*
X120408571Y-95052380D01*
X120741904Y-96052380D01*
X121599047Y-95100000D02*
X121503809Y-95052380D01*
X121360952Y-95052380D01*
X121218095Y-95100000D01*
X121122856Y-95195238D01*
X121075237Y-95290476D01*
X121027618Y-95480952D01*
X121027618Y-95623809D01*
X121075237Y-95814285D01*
X121122856Y-95909523D01*
X121218095Y-96004761D01*
X121360952Y-96052380D01*
X121456190Y-96052380D01*
X121599047Y-96004761D01*
X121646666Y-95957142D01*
X121646666Y-95623809D01*
X121456190Y-95623809D01*
X118432381Y-99052380D02*
X118622857Y-99052380D01*
X118718095Y-99100000D01*
X118813333Y-99195238D01*
X118860952Y-99385714D01*
X118860952Y-99719047D01*
X118813333Y-99909523D01*
X118718095Y-100004761D01*
X118622857Y-100052380D01*
X118432381Y-100052380D01*
X118337143Y-100004761D01*
X118241904Y-99909523D01*
X118194285Y-99719047D01*
X118194285Y-99385714D01*
X118241904Y-99195238D01*
X118337143Y-99100000D01*
X118432381Y-99052380D01*
X119289523Y-99052380D02*
X119289523Y-99861904D01*
X119337143Y-99957142D01*
X119384762Y-100004761D01*
X119480000Y-100052380D01*
X119670476Y-100052380D01*
X119765714Y-100004761D01*
X119813333Y-99957142D01*
X119860952Y-99861904D01*
X119860952Y-99052380D01*
X120194285Y-99052380D02*
X120765714Y-99052380D01*
X120480000Y-100052380D02*
X120480000Y-99052380D01*
X121099047Y-100052380D02*
X121099047Y-99052380D01*
X121480000Y-99052380D01*
X121575238Y-99100000D01*
X121622857Y-99147619D01*
X121670476Y-99242857D01*
X121670476Y-99385714D01*
X121622857Y-99480952D01*
X121575238Y-99528571D01*
X121480000Y-99576190D01*
X121099047Y-99576190D01*
X122099047Y-99052380D02*
X122099047Y-99861904D01*
X122146666Y-99957142D01*
X122194285Y-100004761D01*
X122289523Y-100052380D01*
X122480000Y-100052380D01*
X122575238Y-100004761D01*
X122622857Y-99957142D01*
X122670476Y-99861904D01*
X122670476Y-99052380D01*
X123003809Y-99052380D02*
X123575238Y-99052380D01*
X123289523Y-100052380D02*
X123289523Y-99052380D01*
X149761905Y-99152380D02*
X149952381Y-99152380D01*
X150047619Y-99200000D01*
X150142857Y-99295238D01*
X150190476Y-99485714D01*
X150190476Y-99819047D01*
X150142857Y-100009523D01*
X150047619Y-100104761D01*
X149952381Y-100152380D01*
X149761905Y-100152380D01*
X149666667Y-100104761D01*
X149571428Y-100009523D01*
X149523809Y-99819047D01*
X149523809Y-99485714D01*
X149571428Y-99295238D01*
X149666667Y-99200000D01*
X149761905Y-99152380D01*
X150619047Y-99152380D02*
X150619047Y-99961904D01*
X150666667Y-100057142D01*
X150714286Y-100104761D01*
X150809524Y-100152380D01*
X151000000Y-100152380D01*
X151095238Y-100104761D01*
X151142857Y-100057142D01*
X151190476Y-99961904D01*
X151190476Y-99152380D01*
X151523809Y-99152380D02*
X152095238Y-99152380D01*
X151809524Y-100152380D02*
X151809524Y-99152380D01*
X152428571Y-100152380D02*
X152428571Y-99152380D01*
X152809524Y-99152380D01*
X152904762Y-99200000D01*
X152952381Y-99247619D01*
X153000000Y-99342857D01*
X153000000Y-99485714D01*
X152952381Y-99580952D01*
X152904762Y-99628571D01*
X152809524Y-99676190D01*
X152428571Y-99676190D01*
X153428571Y-99152380D02*
X153428571Y-99961904D01*
X153476190Y-100057142D01*
X153523809Y-100104761D01*
X153619047Y-100152380D01*
X153809524Y-100152380D01*
X153904762Y-100104761D01*
X153952381Y-100057142D01*
X154000000Y-99961904D01*
X154000000Y-99152380D01*
X154333333Y-99152380D02*
X154904762Y-99152380D01*
X154619047Y-100152380D02*
X154619047Y-99152380D01*
X149523809Y-97971427D02*
X149666666Y-98019046D01*
X149904761Y-98019046D01*
X150000000Y-97971427D01*
X150047619Y-97923808D01*
X150095238Y-97828570D01*
X150095238Y-97733332D01*
X150047619Y-97638094D01*
X150000000Y-97590475D01*
X149904761Y-97542856D01*
X149714285Y-97495237D01*
X149619047Y-97447618D01*
X149571428Y-97399999D01*
X149523809Y-97304761D01*
X149523809Y-97209523D01*
X149571428Y-97114285D01*
X149619047Y-97066666D01*
X149714285Y-97019046D01*
X149952380Y-97019046D01*
X150095238Y-97066666D01*
X150380952Y-97019046D02*
X150952380Y-97019046D01*
X150666666Y-98019046D02*
X150666666Y-97019046D01*
X151238095Y-97733332D02*
X151714285Y-97733332D01*
X151142857Y-98019046D02*
X151476190Y-97019046D01*
X151809523Y-98019046D01*
X152000000Y-97019046D02*
X152571428Y-97019046D01*
X152285714Y-98019046D02*
X152285714Y-97019046D01*
X152904761Y-97019046D02*
X152904761Y-97828570D01*
X152952380Y-97923808D01*
X153000000Y-97971427D01*
X153095238Y-98019046D01*
X153285714Y-98019046D01*
X153380952Y-97971427D01*
X153428571Y-97923808D01*
X153476190Y-97828570D01*
X153476190Y-97019046D01*
X153904761Y-97971427D02*
X154047619Y-98019046D01*
X154285714Y-98019046D01*
X154380952Y-97971427D01*
X154428571Y-97923808D01*
X154476190Y-97828570D01*
X154476190Y-97733332D01*
X154428571Y-97638094D01*
X154380952Y-97590475D01*
X154285714Y-97542856D01*
X154095238Y-97495237D01*
X154000000Y-97447618D01*
X153952380Y-97399999D01*
X153904761Y-97304761D01*
X153904761Y-97209523D01*
X153952380Y-97114285D01*
X154000000Y-97066666D01*
X154095238Y-97019046D01*
X154333333Y-97019046D01*
X154476190Y-97066666D01*
D10*
X160192857Y-90078571D02*
X159478571Y-90078571D01*
X159478571Y-88578571D01*
X161192857Y-89292857D02*
X160692857Y-89292857D01*
X160692857Y-90078571D02*
X160692857Y-88578571D01*
X161407142Y-88578571D01*
X162764285Y-88650000D02*
X162621428Y-88578571D01*
X162407142Y-88578571D01*
X162192857Y-88650000D01*
X162050000Y-88792857D01*
X161978571Y-88935714D01*
X161907142Y-89221428D01*
X161907142Y-89435714D01*
X161978571Y-89721428D01*
X162050000Y-89864285D01*
X162192857Y-90007142D01*
X162407142Y-90078571D01*
X162550000Y-90078571D01*
X162764285Y-90007142D01*
X162835714Y-89935714D01*
X162835714Y-89435714D01*
X162550000Y-89435714D01*
X164550000Y-89650000D02*
X165264285Y-89650000D01*
X164407142Y-90078571D02*
X164907142Y-88578571D01*
X165407142Y-90078571D01*
X166550000Y-89078571D02*
X166550000Y-90078571D01*
X165907142Y-89078571D02*
X165907142Y-89864285D01*
X165978571Y-90007142D01*
X166121428Y-90078571D01*
X166335714Y-90078571D01*
X166478571Y-90007142D01*
X166550000Y-89935714D01*
X167050000Y-89078571D02*
X167621428Y-89078571D01*
X167264285Y-88578571D02*
X167264285Y-89864285D01*
X167335714Y-90007142D01*
X167478571Y-90078571D01*
X167621428Y-90078571D01*
X168335714Y-90078571D02*
X168192857Y-90007142D01*
X168121428Y-89935714D01*
X168050000Y-89792857D01*
X168050000Y-89364285D01*
X168121428Y-89221428D01*
X168192857Y-89150000D01*
X168335714Y-89078571D01*
X168550000Y-89078571D01*
X168692857Y-89150000D01*
X168764285Y-89221428D01*
X168835714Y-89364285D01*
X168835714Y-89792857D01*
X168764285Y-89935714D01*
X168692857Y-90007142D01*
X168550000Y-90078571D01*
X168335714Y-90078571D01*
X169478571Y-90078571D02*
X169478571Y-89078571D01*
X169478571Y-89221428D02*
X169550000Y-89150000D01*
X169692857Y-89078571D01*
X169907142Y-89078571D01*
X170050000Y-89150000D01*
X170121428Y-89292857D01*
X170121428Y-90078571D01*
X170121428Y-89292857D02*
X170192857Y-89150000D01*
X170335714Y-89078571D01*
X170550000Y-89078571D01*
X170692857Y-89150000D01*
X170764285Y-89292857D01*
X170764285Y-90078571D01*
X171692857Y-90078571D02*
X171550000Y-90007142D01*
X171478571Y-89935714D01*
X171407142Y-89792857D01*
X171407142Y-89364285D01*
X171478571Y-89221428D01*
X171550000Y-89150000D01*
X171692857Y-89078571D01*
X171907142Y-89078571D01*
X172050000Y-89150000D01*
X172121428Y-89221428D01*
X172192857Y-89364285D01*
X172192857Y-89792857D01*
X172121428Y-89935714D01*
X172050000Y-90007142D01*
X171907142Y-90078571D01*
X171692857Y-90078571D01*
X172621428Y-89078571D02*
X173192857Y-89078571D01*
X172835714Y-88578571D02*
X172835714Y-89864285D01*
X172907142Y-90007142D01*
X173050000Y-90078571D01*
X173192857Y-90078571D01*
X173692857Y-90078571D02*
X173692857Y-89078571D01*
X173692857Y-88578571D02*
X173621428Y-88650000D01*
X173692857Y-88721428D01*
X173764285Y-88650000D01*
X173692857Y-88578571D01*
X173692857Y-88721428D01*
X174264285Y-89078571D02*
X174621428Y-90078571D01*
X174978571Y-89078571D01*
X176121428Y-90007142D02*
X175978571Y-90078571D01*
X175692857Y-90078571D01*
X175550000Y-90007142D01*
X175478571Y-89864285D01*
X175478571Y-89292857D01*
X175550000Y-89150000D01*
X175692857Y-89078571D01*
X175978571Y-89078571D01*
X176121428Y-89150000D01*
X176192857Y-89292857D01*
X176192857Y-89435714D01*
X175478571Y-89578571D01*
X129695238Y-99514285D02*
X129600000Y-99609523D01*
X129314285Y-99704761D01*
X129123809Y-99704761D01*
X128838095Y-99609523D01*
X128647619Y-99419047D01*
X128552380Y-99228571D01*
X128457142Y-98847619D01*
X128457142Y-98561904D01*
X128552380Y-98180952D01*
X128647619Y-97990476D01*
X128838095Y-97800000D01*
X129123809Y-97704761D01*
X129314285Y-97704761D01*
X129600000Y-97800000D01*
X129695238Y-97895238D01*
X130552380Y-99704761D02*
X130552380Y-97704761D01*
X130552380Y-98657142D02*
X131695238Y-98657142D01*
X131695238Y-99704761D02*
X131695238Y-97704761D01*
X132552380Y-97895238D02*
X132647619Y-97800000D01*
X132838095Y-97704761D01*
X133314285Y-97704761D01*
X133504761Y-97800000D01*
X133600000Y-97895238D01*
X133695238Y-98085714D01*
X133695238Y-98276190D01*
X133600000Y-98561904D01*
X132457142Y-99704761D01*
X133695238Y-99704761D01*
X137123809Y-99704761D02*
X135980952Y-99704761D01*
X136552380Y-99704761D02*
X136552380Y-97704761D01*
X136361904Y-97990476D01*
X136171428Y-98180952D01*
X135980952Y-98276190D01*
X138933333Y-97704761D02*
X137980952Y-97704761D01*
X137885714Y-98657142D01*
X137980952Y-98561904D01*
X138171428Y-98466666D01*
X138647619Y-98466666D01*
X138838095Y-98561904D01*
X138933333Y-98657142D01*
X139028571Y-98847619D01*
X139028571Y-99323809D01*
X138933333Y-99514285D01*
X138838095Y-99609523D01*
X138647619Y-99704761D01*
X138171428Y-99704761D01*
X137980952Y-99609523D01*
X137885714Y-99514285D01*
X139790476Y-99133333D02*
X140742857Y-99133333D01*
X139600000Y-99704761D02*
X140266666Y-97704761D01*
X140933333Y-99704761D01*
D11*
X167071428Y-82442857D02*
X167071428Y-81680952D01*
X167452380Y-82061904D02*
X166690476Y-82061904D01*
X167452380Y-80442857D02*
X166452380Y-80442857D01*
X166452380Y-80061904D01*
X166500000Y-79966666D01*
X166547619Y-79919047D01*
X166642857Y-79871428D01*
X166785714Y-79871428D01*
X166880952Y-79919047D01*
X166928571Y-79966666D01*
X166976190Y-80061904D01*
X166976190Y-80442857D01*
X166452380Y-79252380D02*
X166452380Y-79061904D01*
X166500000Y-78966666D01*
X166595238Y-78871428D01*
X166785714Y-78823809D01*
X167119047Y-78823809D01*
X167309523Y-78871428D01*
X167404761Y-78966666D01*
X167452380Y-79061904D01*
X167452380Y-79252380D01*
X167404761Y-79347619D01*
X167309523Y-79442857D01*
X167119047Y-79490476D01*
X166785714Y-79490476D01*
X166595238Y-79442857D01*
X166500000Y-79347619D01*
X166452380Y-79252380D01*
X167404761Y-78442857D02*
X167452380Y-78300000D01*
X167452380Y-78061904D01*
X167404761Y-77966666D01*
X167357142Y-77919047D01*
X167261904Y-77871428D01*
X167166666Y-77871428D01*
X167071428Y-77919047D01*
X167023809Y-77966666D01*
X166976190Y-78061904D01*
X166928571Y-78252380D01*
X166880952Y-78347619D01*
X166833333Y-78395238D01*
X166738095Y-78442857D01*
X166642857Y-78442857D01*
X166547619Y-78395238D01*
X166500000Y-78347619D01*
X166452380Y-78252380D01*
X166452380Y-78014285D01*
X166500000Y-77871428D01*
X167071428Y-76680952D02*
X167071428Y-75919047D01*
X167452380Y-76300000D02*
X166690476Y-76300000D01*
X118494285Y-98004761D02*
X118637142Y-98052380D01*
X118875237Y-98052380D01*
X118970476Y-98004761D01*
X119018095Y-97957142D01*
X119065714Y-97861904D01*
X119065714Y-97766666D01*
X119018095Y-97671428D01*
X118970476Y-97623809D01*
X118875237Y-97576190D01*
X118684761Y-97528571D01*
X118589523Y-97480952D01*
X118541904Y-97433333D01*
X118494285Y-97338095D01*
X118494285Y-97242857D01*
X118541904Y-97147619D01*
X118589523Y-97100000D01*
X118684761Y-97052380D01*
X118922856Y-97052380D01*
X119065714Y-97100000D01*
X119351428Y-97052380D02*
X119922856Y-97052380D01*
X119637142Y-98052380D02*
X119637142Y-97052380D01*
X120208571Y-97766666D02*
X120684761Y-97766666D01*
X120113333Y-98052380D02*
X120446666Y-97052380D01*
X120779999Y-98052380D01*
X120970476Y-97052380D02*
X121541904Y-97052380D01*
X121256190Y-98052380D02*
X121256190Y-97052380D01*
X121875237Y-97052380D02*
X121875237Y-97861904D01*
X121922856Y-97957142D01*
X121970476Y-98004761D01*
X122065714Y-98052380D01*
X122256190Y-98052380D01*
X122351428Y-98004761D01*
X122399047Y-97957142D01*
X122446666Y-97861904D01*
X122446666Y-97052380D01*
X122875237Y-98004761D02*
X123018095Y-98052380D01*
X123256190Y-98052380D01*
X123351428Y-98004761D01*
X123399047Y-97957142D01*
X123446666Y-97861904D01*
X123446666Y-97766666D01*
X123399047Y-97671428D01*
X123351428Y-97623809D01*
X123256190Y-97576190D01*
X123065714Y-97528571D01*
X122970476Y-97480952D01*
X122922856Y-97433333D01*
X122875237Y-97338095D01*
X122875237Y-97242857D01*
X122922856Y-97147619D01*
X122970476Y-97100000D01*
X123065714Y-97052380D01*
X123303809Y-97052380D01*
X123446666Y-97100000D01*
D10*
X161921428Y-59471071D02*
X161921428Y-57971071D01*
X162492857Y-57971071D01*
X162635714Y-58042500D01*
X162707142Y-58113928D01*
X162778571Y-58256785D01*
X162778571Y-58471071D01*
X162707142Y-58613928D01*
X162635714Y-58685357D01*
X162492857Y-58756785D01*
X161921428Y-58756785D01*
X164278571Y-59471071D02*
X163778571Y-58756785D01*
X163421428Y-59471071D02*
X163421428Y-57971071D01*
X163992857Y-57971071D01*
X164135714Y-58042500D01*
X164207142Y-58113928D01*
X164278571Y-58256785D01*
X164278571Y-58471071D01*
X164207142Y-58613928D01*
X164135714Y-58685357D01*
X163992857Y-58756785D01*
X163421428Y-58756785D01*
X165207142Y-57971071D02*
X165492857Y-57971071D01*
X165635714Y-58042500D01*
X165778571Y-58185357D01*
X165850000Y-58471071D01*
X165850000Y-58971071D01*
X165778571Y-59256785D01*
X165635714Y-59399642D01*
X165492857Y-59471071D01*
X165207142Y-59471071D01*
X165064285Y-59399642D01*
X164921428Y-59256785D01*
X164850000Y-58971071D01*
X164850000Y-58471071D01*
X164921428Y-58185357D01*
X165064285Y-58042500D01*
X165207142Y-57971071D01*
X166992857Y-58685357D02*
X166492857Y-58685357D01*
X166492857Y-59471071D02*
X166492857Y-57971071D01*
X167207142Y-57971071D01*
X167778571Y-58685357D02*
X168278571Y-58685357D01*
X168492857Y-59471071D02*
X167778571Y-59471071D01*
X167778571Y-57971071D01*
X168492857Y-57971071D01*
X168921428Y-57971071D02*
X169778571Y-57971071D01*
X169350000Y-59471071D02*
X169350000Y-57971071D01*
X171421428Y-58899642D02*
X172564285Y-58899642D01*
X171992857Y-59471071D02*
X171992857Y-58328214D01*
X173207142Y-58113928D02*
X173278571Y-58042500D01*
X173421428Y-57971071D01*
X173778571Y-57971071D01*
X173921428Y-58042500D01*
X173992857Y-58113928D01*
X174064285Y-58256785D01*
X174064285Y-58399642D01*
X173992857Y-58613928D01*
X173135714Y-59471071D01*
X174064285Y-59471071D01*
X176635714Y-59471071D02*
X175778571Y-59471071D01*
X176207142Y-59471071D02*
X176207142Y-57971071D01*
X176064285Y-58185357D01*
X175921428Y-58328214D01*
X175778571Y-58399642D01*
X177207142Y-58113928D02*
X177278571Y-58042500D01*
X177421428Y-57971071D01*
X177778571Y-57971071D01*
X177921428Y-58042500D01*
X177992857Y-58113928D01*
X178064285Y-58256785D01*
X178064285Y-58399642D01*
X177992857Y-58613928D01*
X177135714Y-59471071D01*
X178064285Y-59471071D01*
X178492857Y-57971071D02*
X178992857Y-59471071D01*
X179492857Y-57971071D01*
X162957142Y-60386071D02*
X163814285Y-60386071D01*
X163385714Y-61886071D02*
X163385714Y-60386071D01*
X164885714Y-61814642D02*
X164742857Y-61886071D01*
X164457142Y-61886071D01*
X164314285Y-61814642D01*
X164242857Y-61671785D01*
X164242857Y-61100357D01*
X164314285Y-60957500D01*
X164457142Y-60886071D01*
X164742857Y-60886071D01*
X164885714Y-60957500D01*
X164957142Y-61100357D01*
X164957142Y-61243214D01*
X164242857Y-61386071D01*
X165528571Y-61814642D02*
X165671428Y-61886071D01*
X165957142Y-61886071D01*
X166100000Y-61814642D01*
X166171428Y-61671785D01*
X166171428Y-61600357D01*
X166100000Y-61457500D01*
X165957142Y-61386071D01*
X165742857Y-61386071D01*
X165600000Y-61314642D01*
X165528571Y-61171785D01*
X165528571Y-61100357D01*
X165600000Y-60957500D01*
X165742857Y-60886071D01*
X165957142Y-60886071D01*
X166100000Y-60957500D01*
X166600000Y-60886071D02*
X167171428Y-60886071D01*
X166814285Y-60386071D02*
X166814285Y-61671785D01*
X166885714Y-61814642D01*
X167028571Y-61886071D01*
X167171428Y-61886071D01*
X167671428Y-61886071D02*
X167671428Y-60886071D01*
X167671428Y-60386071D02*
X167600000Y-60457500D01*
X167671428Y-60528928D01*
X167742857Y-60457500D01*
X167671428Y-60386071D01*
X167671428Y-60528928D01*
X168385714Y-60886071D02*
X168385714Y-61886071D01*
X168385714Y-61028928D02*
X168457142Y-60957500D01*
X168600000Y-60886071D01*
X168814285Y-60886071D01*
X168957142Y-60957500D01*
X169028571Y-61100357D01*
X169028571Y-61886071D01*
X170385714Y-60886071D02*
X170385714Y-62100357D01*
X170314285Y-62243214D01*
X170242857Y-62314642D01*
X170100000Y-62386071D01*
X169885714Y-62386071D01*
X169742857Y-62314642D01*
X170385714Y-61814642D02*
X170242857Y-61886071D01*
X169957142Y-61886071D01*
X169814285Y-61814642D01*
X169742857Y-61743214D01*
X169671428Y-61600357D01*
X169671428Y-61171785D01*
X169742857Y-61028928D01*
X169814285Y-60957500D01*
X169957142Y-60886071D01*
X170242857Y-60886071D01*
X170385714Y-60957500D01*
X172742857Y-61100357D02*
X172957142Y-61171785D01*
X173028571Y-61243214D01*
X173100000Y-61386071D01*
X173100000Y-61600357D01*
X173028571Y-61743214D01*
X172957142Y-61814642D01*
X172814285Y-61886071D01*
X172242857Y-61886071D01*
X172242857Y-60386071D01*
X172742857Y-60386071D01*
X172885714Y-60457500D01*
X172957142Y-60528928D01*
X173028571Y-60671785D01*
X173028571Y-60814642D01*
X172957142Y-60957500D01*
X172885714Y-61028928D01*
X172742857Y-61100357D01*
X172242857Y-61100357D01*
X173957142Y-61886071D02*
X173814285Y-61814642D01*
X173742857Y-61743214D01*
X173671428Y-61600357D01*
X173671428Y-61171785D01*
X173742857Y-61028928D01*
X173814285Y-60957500D01*
X173957142Y-60886071D01*
X174171428Y-60886071D01*
X174314285Y-60957500D01*
X174385714Y-61028928D01*
X174457142Y-61171785D01*
X174457142Y-61600357D01*
X174385714Y-61743214D01*
X174314285Y-61814642D01*
X174171428Y-61886071D01*
X173957142Y-61886071D01*
X175742857Y-61886071D02*
X175742857Y-61100357D01*
X175671428Y-60957500D01*
X175528571Y-60886071D01*
X175242857Y-60886071D01*
X175100000Y-60957500D01*
X175742857Y-61814642D02*
X175600000Y-61886071D01*
X175242857Y-61886071D01*
X175100000Y-61814642D01*
X175028571Y-61671785D01*
X175028571Y-61528928D01*
X175100000Y-61386071D01*
X175242857Y-61314642D01*
X175600000Y-61314642D01*
X175742857Y-61243214D01*
X176457142Y-61886071D02*
X176457142Y-60886071D01*
X176457142Y-61171785D02*
X176528571Y-61028928D01*
X176600000Y-60957500D01*
X176742857Y-60886071D01*
X176885714Y-60886071D01*
X178028571Y-61886071D02*
X178028571Y-60386071D01*
X178028571Y-61814642D02*
X177885714Y-61886071D01*
X177600000Y-61886071D01*
X177457142Y-61814642D01*
X177385714Y-61743214D01*
X177314285Y-61600357D01*
X177314285Y-61171785D01*
X177385714Y-61028928D01*
X177457142Y-60957500D01*
X177600000Y-60886071D01*
X177885714Y-60886071D01*
X178028571Y-60957500D01*
D11*
X149571428Y-93752380D02*
X149571428Y-92752380D01*
X150047619Y-93752380D02*
X150047619Y-92752380D01*
X150619047Y-93752380D01*
X150619047Y-92752380D01*
X151095238Y-93752380D02*
X151095238Y-92752380D01*
X151476190Y-92752380D01*
X151571428Y-92800000D01*
X151619047Y-92847619D01*
X151666666Y-92942857D01*
X151666666Y-93085714D01*
X151619047Y-93180952D01*
X151571428Y-93228571D01*
X151476190Y-93276190D01*
X151095238Y-93276190D01*
X152095238Y-92752380D02*
X152095238Y-93561904D01*
X152142857Y-93657142D01*
X152190476Y-93704761D01*
X152285714Y-93752380D01*
X152476190Y-93752380D01*
X152571428Y-93704761D01*
X152619047Y-93657142D01*
X152666666Y-93561904D01*
X152666666Y-92752380D01*
X153000000Y-92752380D02*
X153571428Y-92752380D01*
X153285714Y-93752380D02*
X153285714Y-92752380D01*
X118741904Y-94052380D02*
X118741904Y-93052380D01*
X119218095Y-94052380D02*
X119218095Y-93052380D01*
X119789523Y-94052380D01*
X119789523Y-93052380D01*
X120265714Y-94052380D02*
X120265714Y-93052380D01*
X120646666Y-93052380D01*
X120741904Y-93100000D01*
X120789523Y-93147619D01*
X120837142Y-93242857D01*
X120837142Y-93385714D01*
X120789523Y-93480952D01*
X120741904Y-93528571D01*
X120646666Y-93576190D01*
X120265714Y-93576190D01*
X121265714Y-93052380D02*
X121265714Y-93861904D01*
X121313333Y-93957142D01*
X121360952Y-94004761D01*
X121456190Y-94052380D01*
X121646666Y-94052380D01*
X121741904Y-94004761D01*
X121789523Y-93957142D01*
X121837142Y-93861904D01*
X121837142Y-93052380D01*
X122170476Y-93052380D02*
X122741904Y-93052380D01*
X122456190Y-94052380D02*
X122456190Y-93052380D01*
X149571428Y-95885713D02*
X149571428Y-94885713D01*
X149809523Y-94885713D01*
X149952380Y-94933333D01*
X150047619Y-95028571D01*
X150095238Y-95123809D01*
X150142857Y-95314285D01*
X150142857Y-95457142D01*
X150095238Y-95647618D01*
X150047619Y-95742856D01*
X149952380Y-95838094D01*
X149809523Y-95885713D01*
X149571428Y-95885713D01*
X150571428Y-95885713D02*
X150571428Y-94885713D01*
X151000000Y-95599999D02*
X151476190Y-95599999D01*
X150904761Y-95885713D02*
X151238095Y-94885713D01*
X151571428Y-95885713D01*
X152428571Y-94933333D02*
X152333333Y-94885713D01*
X152190476Y-94885713D01*
X152047619Y-94933333D01*
X151952380Y-95028571D01*
X151904761Y-95123809D01*
X151857142Y-95314285D01*
X151857142Y-95457142D01*
X151904761Y-95647618D01*
X151952380Y-95742856D01*
X152047619Y-95838094D01*
X152190476Y-95885713D01*
X152285714Y-95885713D01*
X152428571Y-95838094D01*
X152476190Y-95790475D01*
X152476190Y-95457142D01*
X152285714Y-95457142D01*
D10*
X160314285Y-94750000D02*
X160242857Y-94678571D01*
X160100000Y-94464285D01*
X160028571Y-94321428D01*
X159957142Y-94107142D01*
X159885714Y-93750000D01*
X159885714Y-93464285D01*
X159957142Y-93107142D01*
X160028571Y-92892857D01*
X160100000Y-92750000D01*
X160242857Y-92535714D01*
X160314285Y-92464285D01*
X161528571Y-94107142D02*
X161385714Y-94178571D01*
X161100000Y-94178571D01*
X160957142Y-94107142D01*
X160885714Y-94035714D01*
X160814285Y-93892857D01*
X160814285Y-93464285D01*
X160885714Y-93321428D01*
X160957142Y-93250000D01*
X161100000Y-93178571D01*
X161385714Y-93178571D01*
X161528571Y-93250000D01*
X162028571Y-94750000D02*
X162100000Y-94678571D01*
X162242857Y-94464285D01*
X162314285Y-94321428D01*
X162385714Y-94107142D01*
X162457142Y-93750000D01*
X162457142Y-93464285D01*
X162385714Y-93107142D01*
X162314285Y-92892857D01*
X162242857Y-92750000D01*
X162100000Y-92535714D01*
X162028571Y-92464285D01*
X164242857Y-92821428D02*
X164314285Y-92750000D01*
X164457142Y-92678571D01*
X164814285Y-92678571D01*
X164957142Y-92750000D01*
X165028571Y-92821428D01*
X165100000Y-92964285D01*
X165100000Y-93107142D01*
X165028571Y-93321428D01*
X164171428Y-94178571D01*
X165100000Y-94178571D01*
X166028571Y-92678571D02*
X166171428Y-92678571D01*
X166314285Y-92750000D01*
X166385714Y-92821428D01*
X166457142Y-92964285D01*
X166528571Y-93250000D01*
X166528571Y-93607142D01*
X166457142Y-93892857D01*
X166385714Y-94035714D01*
X166314285Y-94107142D01*
X166171428Y-94178571D01*
X166028571Y-94178571D01*
X165885714Y-94107142D01*
X165814285Y-94035714D01*
X165742857Y-93892857D01*
X165671428Y-93607142D01*
X165671428Y-93250000D01*
X165742857Y-92964285D01*
X165814285Y-92821428D01*
X165885714Y-92750000D01*
X166028571Y-92678571D01*
X167100000Y-92821428D02*
X167171428Y-92750000D01*
X167314285Y-92678571D01*
X167671428Y-92678571D01*
X167814285Y-92750000D01*
X167885714Y-92821428D01*
X167957142Y-92964285D01*
X167957142Y-93107142D01*
X167885714Y-93321428D01*
X167028571Y-94178571D01*
X167957142Y-94178571D01*
X168528571Y-92821428D02*
X168600000Y-92750000D01*
X168742857Y-92678571D01*
X169100000Y-92678571D01*
X169242857Y-92750000D01*
X169314285Y-92821428D01*
X169385714Y-92964285D01*
X169385714Y-93107142D01*
X169314285Y-93321428D01*
X168457142Y-94178571D01*
X169385714Y-94178571D01*
X160800000Y-98378571D02*
X160657142Y-98307142D01*
X160585714Y-98164285D01*
X160585714Y-96878571D01*
X161157142Y-97378571D02*
X161728571Y-97378571D01*
X161371428Y-98378571D02*
X161371428Y-97092857D01*
X161442857Y-96950000D01*
X161585714Y-96878571D01*
X161728571Y-96878571D01*
X162871428Y-97378571D02*
X162871428Y-98592857D01*
X162800000Y-98735714D01*
X162728571Y-98807142D01*
X162585714Y-98878571D01*
X162371428Y-98878571D01*
X162228571Y-98807142D01*
X162871428Y-98307142D02*
X162728571Y-98378571D01*
X162442857Y-98378571D01*
X162300000Y-98307142D01*
X162228571Y-98235714D01*
X162157142Y-98092857D01*
X162157142Y-97664285D01*
X162228571Y-97521428D01*
X162300000Y-97450000D01*
X162442857Y-97378571D01*
X162728571Y-97378571D01*
X162871428Y-97450000D01*
X164228571Y-98378571D02*
X164228571Y-97592857D01*
X164157142Y-97450000D01*
X164014285Y-97378571D01*
X163728571Y-97378571D01*
X163585714Y-97450000D01*
X164228571Y-98307142D02*
X164085714Y-98378571D01*
X163728571Y-98378571D01*
X163585714Y-98307142D01*
X163514285Y-98164285D01*
X163514285Y-98021428D01*
X163585714Y-97878571D01*
X163728571Y-97807142D01*
X164085714Y-97807142D01*
X164228571Y-97735714D01*
X164942857Y-98235714D02*
X165014285Y-98307142D01*
X164942857Y-98378571D01*
X164871428Y-98307142D01*
X164942857Y-98235714D01*
X164942857Y-98378571D01*
X165657142Y-98378571D02*
X165657142Y-97378571D01*
X165657142Y-96878571D02*
X165585714Y-96950000D01*
X165657142Y-97021428D01*
X165728571Y-96950000D01*
X165657142Y-96878571D01*
X165657142Y-97021428D01*
X166585714Y-98378571D02*
X166442857Y-98307142D01*
X166371428Y-98235714D01*
X166300000Y-98092857D01*
X166300000Y-97664285D01*
X166371428Y-97521428D01*
X166442857Y-97450000D01*
X166585714Y-97378571D01*
X166800000Y-97378571D01*
X166942857Y-97450000D01*
X167014285Y-97521428D01*
X167085714Y-97664285D01*
X167085714Y-98092857D01*
X167014285Y-98235714D01*
X166942857Y-98307142D01*
X166800000Y-98378571D01*
X166585714Y-98378571D01*
D11*
X92471428Y-81385714D02*
X92471428Y-80623809D01*
X91900000Y-78861904D02*
X91852380Y-78957142D01*
X91852380Y-79100000D01*
X91900000Y-79242857D01*
X91995238Y-79338095D01*
X92090476Y-79385714D01*
X92280952Y-79433333D01*
X92423809Y-79433333D01*
X92614285Y-79385714D01*
X92709523Y-79338095D01*
X92804761Y-79242857D01*
X92852380Y-79100000D01*
X92852380Y-79004761D01*
X92804761Y-78861904D01*
X92757142Y-78814285D01*
X92423809Y-78814285D01*
X92423809Y-79004761D01*
X92852380Y-78385714D02*
X91852380Y-78385714D01*
X92852380Y-77814285D01*
X91852380Y-77814285D01*
X92852380Y-77338095D02*
X91852380Y-77338095D01*
X91852380Y-77100000D01*
X91900000Y-76957142D01*
X91995238Y-76861904D01*
X92090476Y-76814285D01*
X92280952Y-76766666D01*
X92423809Y-76766666D01*
X92614285Y-76814285D01*
X92709523Y-76861904D01*
X92804761Y-76957142D01*
X92852380Y-77100000D01*
X92852380Y-77338095D01*
X92471428Y-75576190D02*
X92471428Y-74814285D01*
X174671428Y-82742857D02*
X174671428Y-81980952D01*
X175052380Y-82361904D02*
X174290476Y-82361904D01*
X175052380Y-80742857D02*
X174052380Y-80742857D01*
X174052380Y-80361904D01*
X174100000Y-80266666D01*
X174147619Y-80219047D01*
X174242857Y-80171428D01*
X174385714Y-80171428D01*
X174480952Y-80219047D01*
X174528571Y-80266666D01*
X174576190Y-80361904D01*
X174576190Y-80742857D01*
X174052380Y-79552380D02*
X174052380Y-79361904D01*
X174100000Y-79266666D01*
X174195238Y-79171428D01*
X174385714Y-79123809D01*
X174719047Y-79123809D01*
X174909523Y-79171428D01*
X175004761Y-79266666D01*
X175052380Y-79361904D01*
X175052380Y-79552380D01*
X175004761Y-79647619D01*
X174909523Y-79742857D01*
X174719047Y-79790476D01*
X174385714Y-79790476D01*
X174195238Y-79742857D01*
X174100000Y-79647619D01*
X174052380Y-79552380D01*
X175004761Y-78742857D02*
X175052380Y-78600000D01*
X175052380Y-78361904D01*
X175004761Y-78266666D01*
X174957142Y-78219047D01*
X174861904Y-78171428D01*
X174766666Y-78171428D01*
X174671428Y-78219047D01*
X174623809Y-78266666D01*
X174576190Y-78361904D01*
X174528571Y-78552380D01*
X174480952Y-78647619D01*
X174433333Y-78695238D01*
X174338095Y-78742857D01*
X174242857Y-78742857D01*
X174147619Y-78695238D01*
X174100000Y-78647619D01*
X174052380Y-78552380D01*
X174052380Y-78314285D01*
X174100000Y-78171428D01*
X174671428Y-76980952D02*
X174671428Y-76219047D01*
X175052380Y-76600000D02*
X174290476Y-76600000D01*
X84428571Y-74814285D02*
X84428571Y-75576190D01*
X85000000Y-77338095D02*
X85047619Y-77242857D01*
X85047619Y-77100000D01*
X85000000Y-76957142D01*
X84904761Y-76861904D01*
X84809523Y-76814285D01*
X84619047Y-76766666D01*
X84476190Y-76766666D01*
X84285714Y-76814285D01*
X84190476Y-76861904D01*
X84095238Y-76957142D01*
X84047619Y-77100000D01*
X84047619Y-77195238D01*
X84095238Y-77338095D01*
X84142857Y-77385714D01*
X84476190Y-77385714D01*
X84476190Y-77195238D01*
X84047619Y-77814285D02*
X85047619Y-77814285D01*
X84047619Y-78385714D01*
X85047619Y-78385714D01*
X84047619Y-78861904D02*
X85047619Y-78861904D01*
X85047619Y-79100000D01*
X85000000Y-79242857D01*
X84904761Y-79338095D01*
X84809523Y-79385714D01*
X84619047Y-79433333D01*
X84476190Y-79433333D01*
X84285714Y-79385714D01*
X84190476Y-79338095D01*
X84095238Y-79242857D01*
X84047619Y-79100000D01*
X84047619Y-78861904D01*
X84428571Y-80623809D02*
X84428571Y-81385714D01*
%TO.C,R20*%
X139292380Y-77132857D02*
X138816190Y-77466190D01*
X139292380Y-77704285D02*
X138292380Y-77704285D01*
X138292380Y-77323333D01*
X138340000Y-77228095D01*
X138387619Y-77180476D01*
X138482857Y-77132857D01*
X138625714Y-77132857D01*
X138720952Y-77180476D01*
X138768571Y-77228095D01*
X138816190Y-77323333D01*
X138816190Y-77704285D01*
X138387619Y-76751904D02*
X138340000Y-76704285D01*
X138292380Y-76609047D01*
X138292380Y-76370952D01*
X138340000Y-76275714D01*
X138387619Y-76228095D01*
X138482857Y-76180476D01*
X138578095Y-76180476D01*
X138720952Y-76228095D01*
X139292380Y-76799523D01*
X139292380Y-76180476D01*
X138292380Y-75561428D02*
X138292380Y-75466190D01*
X138340000Y-75370952D01*
X138387619Y-75323333D01*
X138482857Y-75275714D01*
X138673333Y-75228095D01*
X138911428Y-75228095D01*
X139101904Y-75275714D01*
X139197142Y-75323333D01*
X139244761Y-75370952D01*
X139292380Y-75466190D01*
X139292380Y-75561428D01*
X139244761Y-75656666D01*
X139197142Y-75704285D01*
X139101904Y-75751904D01*
X138911428Y-75799523D01*
X138673333Y-75799523D01*
X138482857Y-75751904D01*
X138387619Y-75704285D01*
X138340000Y-75656666D01*
X138292380Y-75561428D01*
%TO.C,R4*%
X121190713Y-86794999D02*
X120714523Y-87128333D01*
X121190713Y-87366428D02*
X120190713Y-87366428D01*
X120190713Y-86985475D01*
X120238333Y-86890237D01*
X120285952Y-86842618D01*
X120381190Y-86794999D01*
X120524047Y-86794999D01*
X120619285Y-86842618D01*
X120666904Y-86890237D01*
X120714523Y-86985475D01*
X120714523Y-87366428D01*
X120524047Y-85937856D02*
X121190713Y-85937856D01*
X120143094Y-86175952D02*
X120857380Y-86414047D01*
X120857380Y-85794999D01*
%TO.C,R3*%
X109942380Y-76776666D02*
X109466190Y-77110000D01*
X109942380Y-77348095D02*
X108942380Y-77348095D01*
X108942380Y-76967142D01*
X108990000Y-76871904D01*
X109037619Y-76824285D01*
X109132857Y-76776666D01*
X109275714Y-76776666D01*
X109370952Y-76824285D01*
X109418571Y-76871904D01*
X109466190Y-76967142D01*
X109466190Y-77348095D01*
X108942380Y-76443333D02*
X108942380Y-75824285D01*
X109323333Y-76157619D01*
X109323333Y-76014761D01*
X109370952Y-75919523D01*
X109418571Y-75871904D01*
X109513809Y-75824285D01*
X109751904Y-75824285D01*
X109847142Y-75871904D01*
X109894761Y-75919523D01*
X109942380Y-76014761D01*
X109942380Y-76300476D01*
X109894761Y-76395714D01*
X109847142Y-76443333D01*
%TO.C,R17*%
X155167142Y-46812380D02*
X154833809Y-46336190D01*
X154595714Y-46812380D02*
X154595714Y-45812380D01*
X154976666Y-45812380D01*
X155071904Y-45860000D01*
X155119523Y-45907619D01*
X155167142Y-46002857D01*
X155167142Y-46145714D01*
X155119523Y-46240952D01*
X155071904Y-46288571D01*
X154976666Y-46336190D01*
X154595714Y-46336190D01*
X156119523Y-46812380D02*
X155548095Y-46812380D01*
X155833809Y-46812380D02*
X155833809Y-45812380D01*
X155738571Y-45955238D01*
X155643333Y-46050476D01*
X155548095Y-46098095D01*
X156452857Y-45812380D02*
X157119523Y-45812380D01*
X156690952Y-46812380D01*
%TO.C,R9*%
X93243333Y-69172380D02*
X92910000Y-68696190D01*
X92671904Y-69172380D02*
X92671904Y-68172380D01*
X93052857Y-68172380D01*
X93148095Y-68220000D01*
X93195714Y-68267619D01*
X93243333Y-68362857D01*
X93243333Y-68505714D01*
X93195714Y-68600952D01*
X93148095Y-68648571D01*
X93052857Y-68696190D01*
X92671904Y-68696190D01*
X93719523Y-69172380D02*
X93910000Y-69172380D01*
X94005238Y-69124761D01*
X94052857Y-69077142D01*
X94148095Y-68934285D01*
X94195714Y-68743809D01*
X94195714Y-68362857D01*
X94148095Y-68267619D01*
X94100476Y-68220000D01*
X94005238Y-68172380D01*
X93814761Y-68172380D01*
X93719523Y-68220000D01*
X93671904Y-68267619D01*
X93624285Y-68362857D01*
X93624285Y-68600952D01*
X93671904Y-68696190D01*
X93719523Y-68743809D01*
X93814761Y-68791428D01*
X94005238Y-68791428D01*
X94100476Y-68743809D01*
X94148095Y-68696190D01*
X94195714Y-68600952D01*
%TO.C,C7*%
X142857142Y-88446666D02*
X142904761Y-88494285D01*
X142952380Y-88637142D01*
X142952380Y-88732380D01*
X142904761Y-88875238D01*
X142809523Y-88970476D01*
X142714285Y-89018095D01*
X142523809Y-89065714D01*
X142380952Y-89065714D01*
X142190476Y-89018095D01*
X142095238Y-88970476D01*
X142000000Y-88875238D01*
X141952380Y-88732380D01*
X141952380Y-88637142D01*
X142000000Y-88494285D01*
X142047619Y-88446666D01*
X141952380Y-88113333D02*
X141952380Y-87446666D01*
X142952380Y-87875238D01*
%TO.C,R6*%
X108192380Y-76776666D02*
X107716190Y-77110000D01*
X108192380Y-77348095D02*
X107192380Y-77348095D01*
X107192380Y-76967142D01*
X107240000Y-76871904D01*
X107287619Y-76824285D01*
X107382857Y-76776666D01*
X107525714Y-76776666D01*
X107620952Y-76824285D01*
X107668571Y-76871904D01*
X107716190Y-76967142D01*
X107716190Y-77348095D01*
X107192380Y-75919523D02*
X107192380Y-76110000D01*
X107240000Y-76205238D01*
X107287619Y-76252857D01*
X107430476Y-76348095D01*
X107620952Y-76395714D01*
X108001904Y-76395714D01*
X108097142Y-76348095D01*
X108144761Y-76300476D01*
X108192380Y-76205238D01*
X108192380Y-76014761D01*
X108144761Y-75919523D01*
X108097142Y-75871904D01*
X108001904Y-75824285D01*
X107763809Y-75824285D01*
X107668571Y-75871904D01*
X107620952Y-75919523D01*
X107573333Y-76014761D01*
X107573333Y-76205238D01*
X107620952Y-76300476D01*
X107668571Y-76348095D01*
X107763809Y-76395714D01*
%TO.C,R14*%
X114814047Y-91194999D02*
X114337857Y-91528332D01*
X114814047Y-91766427D02*
X113814047Y-91766427D01*
X113814047Y-91385475D01*
X113861667Y-91290237D01*
X113909286Y-91242618D01*
X114004524Y-91194999D01*
X114147381Y-91194999D01*
X114242619Y-91242618D01*
X114290238Y-91290237D01*
X114337857Y-91385475D01*
X114337857Y-91766427D01*
X114814047Y-90242618D02*
X114814047Y-90814046D01*
X114814047Y-90528332D02*
X113814047Y-90528332D01*
X113956905Y-90623570D01*
X114052143Y-90718808D01*
X114099762Y-90814046D01*
X114147381Y-89385475D02*
X114814047Y-89385475D01*
X113766428Y-89623570D02*
X114480714Y-89861665D01*
X114480714Y-89242618D01*
%TO.C,C12*%
X125897142Y-82697142D02*
X125849523Y-82744761D01*
X125706666Y-82792380D01*
X125611428Y-82792380D01*
X125468571Y-82744761D01*
X125373333Y-82649523D01*
X125325714Y-82554285D01*
X125278095Y-82363809D01*
X125278095Y-82220952D01*
X125325714Y-82030476D01*
X125373333Y-81935238D01*
X125468571Y-81840000D01*
X125611428Y-81792380D01*
X125706666Y-81792380D01*
X125849523Y-81840000D01*
X125897142Y-81887619D01*
X126849523Y-82792380D02*
X126278095Y-82792380D01*
X126563809Y-82792380D02*
X126563809Y-81792380D01*
X126468571Y-81935238D01*
X126373333Y-82030476D01*
X126278095Y-82078095D01*
X127230476Y-81887619D02*
X127278095Y-81840000D01*
X127373333Y-81792380D01*
X127611428Y-81792380D01*
X127706666Y-81840000D01*
X127754285Y-81887619D01*
X127801904Y-81982857D01*
X127801904Y-82078095D01*
X127754285Y-82220952D01*
X127182857Y-82792380D01*
X127801904Y-82792380D01*
%TO.C,R28*%
X148015713Y-86422857D02*
X147539523Y-86756190D01*
X148015713Y-86994285D02*
X147015713Y-86994285D01*
X147015713Y-86613333D01*
X147063333Y-86518095D01*
X147110952Y-86470476D01*
X147206190Y-86422857D01*
X147349047Y-86422857D01*
X147444285Y-86470476D01*
X147491904Y-86518095D01*
X147539523Y-86613333D01*
X147539523Y-86994285D01*
X147110952Y-86041904D02*
X147063333Y-85994285D01*
X147015713Y-85899047D01*
X147015713Y-85660952D01*
X147063333Y-85565714D01*
X147110952Y-85518095D01*
X147206190Y-85470476D01*
X147301428Y-85470476D01*
X147444285Y-85518095D01*
X148015713Y-86089523D01*
X148015713Y-85470476D01*
X147444285Y-84899047D02*
X147396666Y-84994285D01*
X147349047Y-85041904D01*
X147253809Y-85089523D01*
X147206190Y-85089523D01*
X147110952Y-85041904D01*
X147063333Y-84994285D01*
X147015713Y-84899047D01*
X147015713Y-84708571D01*
X147063333Y-84613333D01*
X147110952Y-84565714D01*
X147206190Y-84518095D01*
X147253809Y-84518095D01*
X147349047Y-84565714D01*
X147396666Y-84613333D01*
X147444285Y-84708571D01*
X147444285Y-84899047D01*
X147491904Y-84994285D01*
X147539523Y-85041904D01*
X147634761Y-85089523D01*
X147825237Y-85089523D01*
X147920475Y-85041904D01*
X147968094Y-84994285D01*
X148015713Y-84899047D01*
X148015713Y-84708571D01*
X147968094Y-84613333D01*
X147920475Y-84565714D01*
X147825237Y-84518095D01*
X147634761Y-84518095D01*
X147539523Y-84565714D01*
X147491904Y-84613333D01*
X147444285Y-84708571D01*
%TO.C,R19*%
X151509046Y-86422857D02*
X151032856Y-86756190D01*
X151509046Y-86994285D02*
X150509046Y-86994285D01*
X150509046Y-86613333D01*
X150556666Y-86518095D01*
X150604285Y-86470476D01*
X150699523Y-86422857D01*
X150842380Y-86422857D01*
X150937618Y-86470476D01*
X150985237Y-86518095D01*
X151032856Y-86613333D01*
X151032856Y-86994285D01*
X151509046Y-85470476D02*
X151509046Y-86041904D01*
X151509046Y-85756190D02*
X150509046Y-85756190D01*
X150651904Y-85851428D01*
X150747142Y-85946666D01*
X150794761Y-86041904D01*
X151509046Y-84994285D02*
X151509046Y-84803809D01*
X151461427Y-84708571D01*
X151413808Y-84660952D01*
X151270951Y-84565714D01*
X151080475Y-84518095D01*
X150699523Y-84518095D01*
X150604285Y-84565714D01*
X150556666Y-84613333D01*
X150509046Y-84708571D01*
X150509046Y-84899047D01*
X150556666Y-84994285D01*
X150604285Y-85041904D01*
X150699523Y-85089523D01*
X150937618Y-85089523D01*
X151032856Y-85041904D01*
X151080475Y-84994285D01*
X151128094Y-84899047D01*
X151128094Y-84708571D01*
X151080475Y-84613333D01*
X151032856Y-84565714D01*
X150937618Y-84518095D01*
%TO.C,D3*%
X103482380Y-78868095D02*
X102482380Y-78868095D01*
X102482380Y-78630000D01*
X102530000Y-78487142D01*
X102625238Y-78391904D01*
X102720476Y-78344285D01*
X102910952Y-78296666D01*
X103053809Y-78296666D01*
X103244285Y-78344285D01*
X103339523Y-78391904D01*
X103434761Y-78487142D01*
X103482380Y-78630000D01*
X103482380Y-78868095D01*
X102482380Y-77963333D02*
X102482380Y-77344285D01*
X102863333Y-77677619D01*
X102863333Y-77534761D01*
X102910952Y-77439523D01*
X102958571Y-77391904D01*
X103053809Y-77344285D01*
X103291904Y-77344285D01*
X103387142Y-77391904D01*
X103434761Y-77439523D01*
X103482380Y-77534761D01*
X103482380Y-77820476D01*
X103434761Y-77915714D01*
X103387142Y-77963333D01*
%TO.C,R7*%
X93243333Y-70912380D02*
X92910000Y-70436190D01*
X92671904Y-70912380D02*
X92671904Y-69912380D01*
X93052857Y-69912380D01*
X93148095Y-69960000D01*
X93195714Y-70007619D01*
X93243333Y-70102857D01*
X93243333Y-70245714D01*
X93195714Y-70340952D01*
X93148095Y-70388571D01*
X93052857Y-70436190D01*
X92671904Y-70436190D01*
X93576666Y-69912380D02*
X94243333Y-69912380D01*
X93814761Y-70912380D01*
%TO.C,R30*%
X125377142Y-94552380D02*
X125043809Y-94076190D01*
X124805714Y-94552380D02*
X124805714Y-93552380D01*
X125186666Y-93552380D01*
X125281904Y-93600000D01*
X125329523Y-93647619D01*
X125377142Y-93742857D01*
X125377142Y-93885714D01*
X125329523Y-93980952D01*
X125281904Y-94028571D01*
X125186666Y-94076190D01*
X124805714Y-94076190D01*
X125710476Y-93552380D02*
X126329523Y-93552380D01*
X125996190Y-93933333D01*
X126139047Y-93933333D01*
X126234285Y-93980952D01*
X126281904Y-94028571D01*
X126329523Y-94123809D01*
X126329523Y-94361904D01*
X126281904Y-94457142D01*
X126234285Y-94504761D01*
X126139047Y-94552380D01*
X125853333Y-94552380D01*
X125758095Y-94504761D01*
X125710476Y-94457142D01*
X126948571Y-93552380D02*
X127043809Y-93552380D01*
X127139047Y-93600000D01*
X127186666Y-93647619D01*
X127234285Y-93742857D01*
X127281904Y-93933333D01*
X127281904Y-94171428D01*
X127234285Y-94361904D01*
X127186666Y-94457142D01*
X127139047Y-94504761D01*
X127043809Y-94552380D01*
X126948571Y-94552380D01*
X126853333Y-94504761D01*
X126805714Y-94457142D01*
X126758095Y-94361904D01*
X126710476Y-94171428D01*
X126710476Y-93933333D01*
X126758095Y-93742857D01*
X126805714Y-93647619D01*
X126853333Y-93600000D01*
X126948571Y-93552380D01*
%TO.C,R29*%
X125307142Y-90032380D02*
X124973809Y-89556190D01*
X124735714Y-90032380D02*
X124735714Y-89032380D01*
X125116666Y-89032380D01*
X125211904Y-89080000D01*
X125259523Y-89127619D01*
X125307142Y-89222857D01*
X125307142Y-89365714D01*
X125259523Y-89460952D01*
X125211904Y-89508571D01*
X125116666Y-89556190D01*
X124735714Y-89556190D01*
X125688095Y-89127619D02*
X125735714Y-89080000D01*
X125830952Y-89032380D01*
X126069047Y-89032380D01*
X126164285Y-89080000D01*
X126211904Y-89127619D01*
X126259523Y-89222857D01*
X126259523Y-89318095D01*
X126211904Y-89460952D01*
X125640476Y-90032380D01*
X126259523Y-90032380D01*
X126735714Y-90032380D02*
X126926190Y-90032380D01*
X127021428Y-89984761D01*
X127069047Y-89937142D01*
X127164285Y-89794285D01*
X127211904Y-89603809D01*
X127211904Y-89222857D01*
X127164285Y-89127619D01*
X127116666Y-89080000D01*
X127021428Y-89032380D01*
X126830952Y-89032380D01*
X126735714Y-89080000D01*
X126688095Y-89127619D01*
X126640476Y-89222857D01*
X126640476Y-89460952D01*
X126688095Y-89556190D01*
X126735714Y-89603809D01*
X126830952Y-89651428D01*
X127021428Y-89651428D01*
X127116666Y-89603809D01*
X127164285Y-89556190D01*
X127211904Y-89460952D01*
%TO.C,U1*%
X112390380Y-82722000D02*
X112628476Y-82722000D01*
X112533238Y-82960095D02*
X112628476Y-82722000D01*
X112533238Y-82483904D01*
X112818952Y-82864857D02*
X112628476Y-82722000D01*
X112818952Y-82579142D01*
%TO.C,R11*%
X118339602Y-87094999D02*
X117863412Y-87428332D01*
X118339602Y-87666427D02*
X117339602Y-87666427D01*
X117339602Y-87285475D01*
X117387222Y-87190237D01*
X117434841Y-87142618D01*
X117530079Y-87094999D01*
X117672936Y-87094999D01*
X117768174Y-87142618D01*
X117815793Y-87190237D01*
X117863412Y-87285475D01*
X117863412Y-87666427D01*
X118339602Y-86142618D02*
X118339602Y-86714046D01*
X118339602Y-86428332D02*
X117339602Y-86428332D01*
X117482460Y-86523570D01*
X117577698Y-86618808D01*
X117625317Y-86714046D01*
X118339602Y-85190237D02*
X118339602Y-85761665D01*
X118339602Y-85475951D02*
X117339602Y-85475951D01*
X117482460Y-85571189D01*
X117577698Y-85666427D01*
X117625317Y-85761665D01*
%TO.C,Q2*%
X153797619Y-51015238D02*
X153750000Y-51110476D01*
X153654761Y-51205714D01*
X153511904Y-51348571D01*
X153464285Y-51443809D01*
X153464285Y-51539047D01*
X153702380Y-51491428D02*
X153654761Y-51586666D01*
X153559523Y-51681904D01*
X153369047Y-51729523D01*
X153035714Y-51729523D01*
X152845238Y-51681904D01*
X152750000Y-51586666D01*
X152702380Y-51491428D01*
X152702380Y-51300952D01*
X152750000Y-51205714D01*
X152845238Y-51110476D01*
X153035714Y-51062857D01*
X153369047Y-51062857D01*
X153559523Y-51110476D01*
X153654761Y-51205714D01*
X153702380Y-51300952D01*
X153702380Y-51491428D01*
X152797619Y-50681904D02*
X152750000Y-50634285D01*
X152702380Y-50539047D01*
X152702380Y-50300952D01*
X152750000Y-50205714D01*
X152797619Y-50158095D01*
X152892857Y-50110476D01*
X152988095Y-50110476D01*
X153130952Y-50158095D01*
X153702380Y-50729523D01*
X153702380Y-50110476D01*
%TO.C,R5*%
X118033333Y-43812380D02*
X117700000Y-43336190D01*
X117461904Y-43812380D02*
X117461904Y-42812380D01*
X117842857Y-42812380D01*
X117938095Y-42860000D01*
X117985714Y-42907619D01*
X118033333Y-43002857D01*
X118033333Y-43145714D01*
X117985714Y-43240952D01*
X117938095Y-43288571D01*
X117842857Y-43336190D01*
X117461904Y-43336190D01*
X118938095Y-42812380D02*
X118461904Y-42812380D01*
X118414285Y-43288571D01*
X118461904Y-43240952D01*
X118557142Y-43193333D01*
X118795238Y-43193333D01*
X118890476Y-43240952D01*
X118938095Y-43288571D01*
X118985714Y-43383809D01*
X118985714Y-43621904D01*
X118938095Y-43717142D01*
X118890476Y-43764761D01*
X118795238Y-43812380D01*
X118557142Y-43812380D01*
X118461904Y-43764761D01*
X118414285Y-43717142D01*
%TO.C,R16*%
X159027142Y-56002380D02*
X158693809Y-55526190D01*
X158455714Y-56002380D02*
X158455714Y-55002380D01*
X158836666Y-55002380D01*
X158931904Y-55050000D01*
X158979523Y-55097619D01*
X159027142Y-55192857D01*
X159027142Y-55335714D01*
X158979523Y-55430952D01*
X158931904Y-55478571D01*
X158836666Y-55526190D01*
X158455714Y-55526190D01*
X159979523Y-56002380D02*
X159408095Y-56002380D01*
X159693809Y-56002380D02*
X159693809Y-55002380D01*
X159598571Y-55145238D01*
X159503333Y-55240476D01*
X159408095Y-55288095D01*
X160836666Y-55002380D02*
X160646190Y-55002380D01*
X160550952Y-55050000D01*
X160503333Y-55097619D01*
X160408095Y-55240476D01*
X160360476Y-55430952D01*
X160360476Y-55811904D01*
X160408095Y-55907142D01*
X160455714Y-55954761D01*
X160550952Y-56002380D01*
X160741428Y-56002380D01*
X160836666Y-55954761D01*
X160884285Y-55907142D01*
X160931904Y-55811904D01*
X160931904Y-55573809D01*
X160884285Y-55478571D01*
X160836666Y-55430952D01*
X160741428Y-55383333D01*
X160550952Y-55383333D01*
X160455714Y-55430952D01*
X160408095Y-55478571D01*
X160360476Y-55573809D01*
%TO.C,U5*%
X138634480Y-82847350D02*
X138872576Y-82847350D01*
X138777338Y-83085445D02*
X138872576Y-82847350D01*
X138777338Y-82609254D01*
X139063052Y-82990207D02*
X138872576Y-82847350D01*
X139063052Y-82704492D01*
%TO.C,R23*%
X123667142Y-43682380D02*
X123333809Y-43206190D01*
X123095714Y-43682380D02*
X123095714Y-42682380D01*
X123476666Y-42682380D01*
X123571904Y-42730000D01*
X123619523Y-42777619D01*
X123667142Y-42872857D01*
X123667142Y-43015714D01*
X123619523Y-43110952D01*
X123571904Y-43158571D01*
X123476666Y-43206190D01*
X123095714Y-43206190D01*
X124048095Y-42777619D02*
X124095714Y-42730000D01*
X124190952Y-42682380D01*
X124429047Y-42682380D01*
X124524285Y-42730000D01*
X124571904Y-42777619D01*
X124619523Y-42872857D01*
X124619523Y-42968095D01*
X124571904Y-43110952D01*
X124000476Y-43682380D01*
X124619523Y-43682380D01*
X124952857Y-42682380D02*
X125571904Y-42682380D01*
X125238571Y-43063333D01*
X125381428Y-43063333D01*
X125476666Y-43110952D01*
X125524285Y-43158571D01*
X125571904Y-43253809D01*
X125571904Y-43491904D01*
X125524285Y-43587142D01*
X125476666Y-43634761D01*
X125381428Y-43682380D01*
X125095714Y-43682380D01*
X125000476Y-43634761D01*
X124952857Y-43587142D01*
%TO.C,R2*%
X111692380Y-76776666D02*
X111216190Y-77110000D01*
X111692380Y-77348095D02*
X110692380Y-77348095D01*
X110692380Y-76967142D01*
X110740000Y-76871904D01*
X110787619Y-76824285D01*
X110882857Y-76776666D01*
X111025714Y-76776666D01*
X111120952Y-76824285D01*
X111168571Y-76871904D01*
X111216190Y-76967142D01*
X111216190Y-77348095D01*
X110787619Y-76395714D02*
X110740000Y-76348095D01*
X110692380Y-76252857D01*
X110692380Y-76014761D01*
X110740000Y-75919523D01*
X110787619Y-75871904D01*
X110882857Y-75824285D01*
X110978095Y-75824285D01*
X111120952Y-75871904D01*
X111692380Y-76443333D01*
X111692380Y-75824285D01*
%TO.C,R15*%
X155177142Y-56202380D02*
X154843809Y-55726190D01*
X154605714Y-56202380D02*
X154605714Y-55202380D01*
X154986666Y-55202380D01*
X155081904Y-55250000D01*
X155129523Y-55297619D01*
X155177142Y-55392857D01*
X155177142Y-55535714D01*
X155129523Y-55630952D01*
X155081904Y-55678571D01*
X154986666Y-55726190D01*
X154605714Y-55726190D01*
X156129523Y-56202380D02*
X155558095Y-56202380D01*
X155843809Y-56202380D02*
X155843809Y-55202380D01*
X155748571Y-55345238D01*
X155653333Y-55440476D01*
X155558095Y-55488095D01*
X157034285Y-55202380D02*
X156558095Y-55202380D01*
X156510476Y-55678571D01*
X156558095Y-55630952D01*
X156653333Y-55583333D01*
X156891428Y-55583333D01*
X156986666Y-55630952D01*
X157034285Y-55678571D01*
X157081904Y-55773809D01*
X157081904Y-56011904D01*
X157034285Y-56107142D01*
X156986666Y-56154761D01*
X156891428Y-56202380D01*
X156653333Y-56202380D01*
X156558095Y-56154761D01*
X156510476Y-56107142D01*
%TO.C,R26*%
X133802380Y-77132857D02*
X133326190Y-77466190D01*
X133802380Y-77704285D02*
X132802380Y-77704285D01*
X132802380Y-77323333D01*
X132850000Y-77228095D01*
X132897619Y-77180476D01*
X132992857Y-77132857D01*
X133135714Y-77132857D01*
X133230952Y-77180476D01*
X133278571Y-77228095D01*
X133326190Y-77323333D01*
X133326190Y-77704285D01*
X132897619Y-76751904D02*
X132850000Y-76704285D01*
X132802380Y-76609047D01*
X132802380Y-76370952D01*
X132850000Y-76275714D01*
X132897619Y-76228095D01*
X132992857Y-76180476D01*
X133088095Y-76180476D01*
X133230952Y-76228095D01*
X133802380Y-76799523D01*
X133802380Y-76180476D01*
X132802380Y-75323333D02*
X132802380Y-75513809D01*
X132850000Y-75609047D01*
X132897619Y-75656666D01*
X133040476Y-75751904D01*
X133230952Y-75799523D01*
X133611904Y-75799523D01*
X133707142Y-75751904D01*
X133754761Y-75704285D01*
X133802380Y-75609047D01*
X133802380Y-75418571D01*
X133754761Y-75323333D01*
X133707142Y-75275714D01*
X133611904Y-75228095D01*
X133373809Y-75228095D01*
X133278571Y-75275714D01*
X133230952Y-75323333D01*
X133183333Y-75418571D01*
X133183333Y-75609047D01*
X133230952Y-75704285D01*
X133278571Y-75751904D01*
X133373809Y-75799523D01*
%TO.C,C3*%
X114377142Y-78356666D02*
X114424761Y-78404285D01*
X114472380Y-78547142D01*
X114472380Y-78642380D01*
X114424761Y-78785238D01*
X114329523Y-78880476D01*
X114234285Y-78928095D01*
X114043809Y-78975714D01*
X113900952Y-78975714D01*
X113710476Y-78928095D01*
X113615238Y-78880476D01*
X113520000Y-78785238D01*
X113472380Y-78642380D01*
X113472380Y-78547142D01*
X113520000Y-78404285D01*
X113567619Y-78356666D01*
X113472380Y-78023333D02*
X113472380Y-77404285D01*
X113853333Y-77737619D01*
X113853333Y-77594761D01*
X113900952Y-77499523D01*
X113948571Y-77451904D01*
X114043809Y-77404285D01*
X114281904Y-77404285D01*
X114377142Y-77451904D01*
X114424761Y-77499523D01*
X114472380Y-77594761D01*
X114472380Y-77880476D01*
X114424761Y-77975714D01*
X114377142Y-78023333D01*
%TO.C,D9*%
X129882380Y-79418095D02*
X128882380Y-79418095D01*
X128882380Y-79180000D01*
X128930000Y-79037142D01*
X129025238Y-78941904D01*
X129120476Y-78894285D01*
X129310952Y-78846666D01*
X129453809Y-78846666D01*
X129644285Y-78894285D01*
X129739523Y-78941904D01*
X129834761Y-79037142D01*
X129882380Y-79180000D01*
X129882380Y-79418095D01*
X129882380Y-78370476D02*
X129882380Y-78180000D01*
X129834761Y-78084761D01*
X129787142Y-78037142D01*
X129644285Y-77941904D01*
X129453809Y-77894285D01*
X129072857Y-77894285D01*
X128977619Y-77941904D01*
X128930000Y-77989523D01*
X128882380Y-78084761D01*
X128882380Y-78275238D01*
X128930000Y-78370476D01*
X128977619Y-78418095D01*
X129072857Y-78465714D01*
X129310952Y-78465714D01*
X129406190Y-78418095D01*
X129453809Y-78370476D01*
X129501428Y-78275238D01*
X129501428Y-78084761D01*
X129453809Y-77989523D01*
X129406190Y-77941904D01*
X129310952Y-77894285D01*
%TO.C,C2*%
X116227142Y-78346666D02*
X116274761Y-78394285D01*
X116322380Y-78537142D01*
X116322380Y-78632380D01*
X116274761Y-78775238D01*
X116179523Y-78870476D01*
X116084285Y-78918095D01*
X115893809Y-78965714D01*
X115750952Y-78965714D01*
X115560476Y-78918095D01*
X115465238Y-78870476D01*
X115370000Y-78775238D01*
X115322380Y-78632380D01*
X115322380Y-78537142D01*
X115370000Y-78394285D01*
X115417619Y-78346666D01*
X115417619Y-77965714D02*
X115370000Y-77918095D01*
X115322380Y-77822857D01*
X115322380Y-77584761D01*
X115370000Y-77489523D01*
X115417619Y-77441904D01*
X115512857Y-77394285D01*
X115608095Y-77394285D01*
X115750952Y-77441904D01*
X116322380Y-78013333D01*
X116322380Y-77394285D01*
%TO.C,R13*%
X97607142Y-94222380D02*
X97273809Y-93746190D01*
X97035714Y-94222380D02*
X97035714Y-93222380D01*
X97416666Y-93222380D01*
X97511904Y-93270000D01*
X97559523Y-93317619D01*
X97607142Y-93412857D01*
X97607142Y-93555714D01*
X97559523Y-93650952D01*
X97511904Y-93698571D01*
X97416666Y-93746190D01*
X97035714Y-93746190D01*
X98559523Y-94222380D02*
X97988095Y-94222380D01*
X98273809Y-94222380D02*
X98273809Y-93222380D01*
X98178571Y-93365238D01*
X98083333Y-93460476D01*
X97988095Y-93508095D01*
X98892857Y-93222380D02*
X99511904Y-93222380D01*
X99178571Y-93603333D01*
X99321428Y-93603333D01*
X99416666Y-93650952D01*
X99464285Y-93698571D01*
X99511904Y-93793809D01*
X99511904Y-94031904D01*
X99464285Y-94127142D01*
X99416666Y-94174761D01*
X99321428Y-94222380D01*
X99035714Y-94222380D01*
X98940476Y-94174761D01*
X98892857Y-94127142D01*
%TO.C,C5*%
X98423333Y-82867142D02*
X98375714Y-82914761D01*
X98232857Y-82962380D01*
X98137619Y-82962380D01*
X97994761Y-82914761D01*
X97899523Y-82819523D01*
X97851904Y-82724285D01*
X97804285Y-82533809D01*
X97804285Y-82390952D01*
X97851904Y-82200476D01*
X97899523Y-82105238D01*
X97994761Y-82010000D01*
X98137619Y-81962380D01*
X98232857Y-81962380D01*
X98375714Y-82010000D01*
X98423333Y-82057619D01*
X99328095Y-81962380D02*
X98851904Y-81962380D01*
X98804285Y-82438571D01*
X98851904Y-82390952D01*
X98947142Y-82343333D01*
X99185238Y-82343333D01*
X99280476Y-82390952D01*
X99328095Y-82438571D01*
X99375714Y-82533809D01*
X99375714Y-82771904D01*
X99328095Y-82867142D01*
X99280476Y-82914761D01*
X99185238Y-82962380D01*
X98947142Y-82962380D01*
X98851904Y-82914761D01*
X98804285Y-82867142D01*
%TO.C,R24*%
X135539046Y-77132857D02*
X135062856Y-77466190D01*
X135539046Y-77704285D02*
X134539046Y-77704285D01*
X134539046Y-77323333D01*
X134586666Y-77228095D01*
X134634285Y-77180476D01*
X134729523Y-77132857D01*
X134872380Y-77132857D01*
X134967618Y-77180476D01*
X135015237Y-77228095D01*
X135062856Y-77323333D01*
X135062856Y-77704285D01*
X134634285Y-76751904D02*
X134586666Y-76704285D01*
X134539046Y-76609047D01*
X134539046Y-76370952D01*
X134586666Y-76275714D01*
X134634285Y-76228095D01*
X134729523Y-76180476D01*
X134824761Y-76180476D01*
X134967618Y-76228095D01*
X135539046Y-76799523D01*
X135539046Y-76180476D01*
X134872380Y-75323333D02*
X135539046Y-75323333D01*
X134491427Y-75561428D02*
X135205713Y-75799523D01*
X135205713Y-75180476D01*
%TO.C,C1*%
X114733333Y-43787142D02*
X114685714Y-43834761D01*
X114542857Y-43882380D01*
X114447619Y-43882380D01*
X114304761Y-43834761D01*
X114209523Y-43739523D01*
X114161904Y-43644285D01*
X114114285Y-43453809D01*
X114114285Y-43310952D01*
X114161904Y-43120476D01*
X114209523Y-43025238D01*
X114304761Y-42930000D01*
X114447619Y-42882380D01*
X114542857Y-42882380D01*
X114685714Y-42930000D01*
X114733333Y-42977619D01*
X115685714Y-43882380D02*
X115114285Y-43882380D01*
X115400000Y-43882380D02*
X115400000Y-42882380D01*
X115304761Y-43025238D01*
X115209523Y-43120476D01*
X115114285Y-43168095D01*
%TO.C,R27*%
X143994400Y-81502380D02*
X143661067Y-81026190D01*
X143422972Y-81502380D02*
X143422972Y-80502380D01*
X143803924Y-80502380D01*
X143899162Y-80550000D01*
X143946781Y-80597619D01*
X143994400Y-80692857D01*
X143994400Y-80835714D01*
X143946781Y-80930952D01*
X143899162Y-80978571D01*
X143803924Y-81026190D01*
X143422972Y-81026190D01*
X144375353Y-80597619D02*
X144422972Y-80550000D01*
X144518210Y-80502380D01*
X144756305Y-80502380D01*
X144851543Y-80550000D01*
X144899162Y-80597619D01*
X144946781Y-80692857D01*
X144946781Y-80788095D01*
X144899162Y-80930952D01*
X144327734Y-81502380D01*
X144946781Y-81502380D01*
X145280115Y-80502380D02*
X145946781Y-80502380D01*
X145518210Y-81502380D01*
%TO.C,R12*%
X97607142Y-89872380D02*
X97273809Y-89396190D01*
X97035714Y-89872380D02*
X97035714Y-88872380D01*
X97416666Y-88872380D01*
X97511904Y-88920000D01*
X97559523Y-88967619D01*
X97607142Y-89062857D01*
X97607142Y-89205714D01*
X97559523Y-89300952D01*
X97511904Y-89348571D01*
X97416666Y-89396190D01*
X97035714Y-89396190D01*
X98559523Y-89872380D02*
X97988095Y-89872380D01*
X98273809Y-89872380D02*
X98273809Y-88872380D01*
X98178571Y-89015238D01*
X98083333Y-89110476D01*
X97988095Y-89158095D01*
X98940476Y-88967619D02*
X98988095Y-88920000D01*
X99083333Y-88872380D01*
X99321428Y-88872380D01*
X99416666Y-88920000D01*
X99464285Y-88967619D01*
X99511904Y-89062857D01*
X99511904Y-89158095D01*
X99464285Y-89300952D01*
X98892857Y-89872380D01*
X99511904Y-89872380D01*
%TO.C,U7*%
X85796695Y-64526980D02*
X85796695Y-65336504D01*
X85844314Y-65431742D01*
X85891933Y-65479361D01*
X85987171Y-65526980D01*
X86177647Y-65526980D01*
X86272885Y-65479361D01*
X86320504Y-65431742D01*
X86368123Y-65336504D01*
X86368123Y-64526980D01*
X86749076Y-64526980D02*
X87415742Y-64526980D01*
X86987171Y-65526980D01*
%TO.C,C6*%
X127823333Y-43717142D02*
X127775714Y-43764761D01*
X127632857Y-43812380D01*
X127537619Y-43812380D01*
X127394761Y-43764761D01*
X127299523Y-43669523D01*
X127251904Y-43574285D01*
X127204285Y-43383809D01*
X127204285Y-43240952D01*
X127251904Y-43050476D01*
X127299523Y-42955238D01*
X127394761Y-42860000D01*
X127537619Y-42812380D01*
X127632857Y-42812380D01*
X127775714Y-42860000D01*
X127823333Y-42907619D01*
X128680476Y-42812380D02*
X128490000Y-42812380D01*
X128394761Y-42860000D01*
X128347142Y-42907619D01*
X128251904Y-43050476D01*
X128204285Y-43240952D01*
X128204285Y-43621904D01*
X128251904Y-43717142D01*
X128299523Y-43764761D01*
X128394761Y-43812380D01*
X128585238Y-43812380D01*
X128680476Y-43764761D01*
X128728095Y-43717142D01*
X128775714Y-43621904D01*
X128775714Y-43383809D01*
X128728095Y-43288571D01*
X128680476Y-43240952D01*
X128585238Y-43193333D01*
X128394761Y-43193333D01*
X128299523Y-43240952D01*
X128251904Y-43288571D01*
X128204285Y-43383809D01*
%TO.C,R10*%
X117737142Y-78692380D02*
X117403809Y-78216190D01*
X117165714Y-78692380D02*
X117165714Y-77692380D01*
X117546666Y-77692380D01*
X117641904Y-77740000D01*
X117689523Y-77787619D01*
X117737142Y-77882857D01*
X117737142Y-78025714D01*
X117689523Y-78120952D01*
X117641904Y-78168571D01*
X117546666Y-78216190D01*
X117165714Y-78216190D01*
X118689523Y-78692380D02*
X118118095Y-78692380D01*
X118403809Y-78692380D02*
X118403809Y-77692380D01*
X118308571Y-77835238D01*
X118213333Y-77930476D01*
X118118095Y-77978095D01*
X119308571Y-77692380D02*
X119403809Y-77692380D01*
X119499047Y-77740000D01*
X119546666Y-77787619D01*
X119594285Y-77882857D01*
X119641904Y-78073333D01*
X119641904Y-78311428D01*
X119594285Y-78501904D01*
X119546666Y-78597142D01*
X119499047Y-78644761D01*
X119403809Y-78692380D01*
X119308571Y-78692380D01*
X119213333Y-78644761D01*
X119165714Y-78597142D01*
X119118095Y-78501904D01*
X119070476Y-78311428D01*
X119070476Y-78073333D01*
X119118095Y-77882857D01*
X119165714Y-77787619D01*
X119213333Y-77740000D01*
X119308571Y-77692380D01*
%TO.C,C9*%
X166147142Y-69566666D02*
X166194761Y-69614285D01*
X166242380Y-69757142D01*
X166242380Y-69852380D01*
X166194761Y-69995238D01*
X166099523Y-70090476D01*
X166004285Y-70138095D01*
X165813809Y-70185714D01*
X165670952Y-70185714D01*
X165480476Y-70138095D01*
X165385238Y-70090476D01*
X165290000Y-69995238D01*
X165242380Y-69852380D01*
X165242380Y-69757142D01*
X165290000Y-69614285D01*
X165337619Y-69566666D01*
X166242380Y-69090476D02*
X166242380Y-68900000D01*
X166194761Y-68804761D01*
X166147142Y-68757142D01*
X166004285Y-68661904D01*
X165813809Y-68614285D01*
X165432857Y-68614285D01*
X165337619Y-68661904D01*
X165290000Y-68709523D01*
X165242380Y-68804761D01*
X165242380Y-68995238D01*
X165290000Y-69090476D01*
X165337619Y-69138095D01*
X165432857Y-69185714D01*
X165670952Y-69185714D01*
X165766190Y-69138095D01*
X165813809Y-69090476D01*
X165861428Y-68995238D01*
X165861428Y-68804761D01*
X165813809Y-68709523D01*
X165766190Y-68661904D01*
X165670952Y-68614285D01*
%TO.C,U6*%
X157858095Y-64022380D02*
X157858095Y-64831904D01*
X157905714Y-64927142D01*
X157953333Y-64974761D01*
X158048571Y-65022380D01*
X158239047Y-65022380D01*
X158334285Y-64974761D01*
X158381904Y-64927142D01*
X158429523Y-64831904D01*
X158429523Y-64022380D01*
X159334285Y-64022380D02*
X159143809Y-64022380D01*
X159048571Y-64070000D01*
X159000952Y-64117619D01*
X158905714Y-64260476D01*
X158858095Y-64450952D01*
X158858095Y-64831904D01*
X158905714Y-64927142D01*
X158953333Y-64974761D01*
X159048571Y-65022380D01*
X159239047Y-65022380D01*
X159334285Y-64974761D01*
X159381904Y-64927142D01*
X159429523Y-64831904D01*
X159429523Y-64593809D01*
X159381904Y-64498571D01*
X159334285Y-64450952D01*
X159239047Y-64403333D01*
X159048571Y-64403333D01*
X158953333Y-64450952D01*
X158905714Y-64498571D01*
X158858095Y-64593809D01*
%TO.C,D5*%
X96552380Y-88898095D02*
X95552380Y-88898095D01*
X95552380Y-88660000D01*
X95600000Y-88517142D01*
X95695238Y-88421904D01*
X95790476Y-88374285D01*
X95980952Y-88326666D01*
X96123809Y-88326666D01*
X96314285Y-88374285D01*
X96409523Y-88421904D01*
X96504761Y-88517142D01*
X96552380Y-88660000D01*
X96552380Y-88898095D01*
X95552380Y-87421904D02*
X95552380Y-87898095D01*
X96028571Y-87945714D01*
X95980952Y-87898095D01*
X95933333Y-87802857D01*
X95933333Y-87564761D01*
X95980952Y-87469523D01*
X96028571Y-87421904D01*
X96123809Y-87374285D01*
X96361904Y-87374285D01*
X96457142Y-87421904D01*
X96504761Y-87469523D01*
X96552380Y-87564761D01*
X96552380Y-87802857D01*
X96504761Y-87898095D01*
X96457142Y-87945714D01*
%TO.C,R18*%
X158967142Y-46672380D02*
X158633809Y-46196190D01*
X158395714Y-46672380D02*
X158395714Y-45672380D01*
X158776666Y-45672380D01*
X158871904Y-45720000D01*
X158919523Y-45767619D01*
X158967142Y-45862857D01*
X158967142Y-46005714D01*
X158919523Y-46100952D01*
X158871904Y-46148571D01*
X158776666Y-46196190D01*
X158395714Y-46196190D01*
X159919523Y-46672380D02*
X159348095Y-46672380D01*
X159633809Y-46672380D02*
X159633809Y-45672380D01*
X159538571Y-45815238D01*
X159443333Y-45910476D01*
X159348095Y-45958095D01*
X160490952Y-46100952D02*
X160395714Y-46053333D01*
X160348095Y-46005714D01*
X160300476Y-45910476D01*
X160300476Y-45862857D01*
X160348095Y-45767619D01*
X160395714Y-45720000D01*
X160490952Y-45672380D01*
X160681428Y-45672380D01*
X160776666Y-45720000D01*
X160824285Y-45767619D01*
X160871904Y-45862857D01*
X160871904Y-45910476D01*
X160824285Y-46005714D01*
X160776666Y-46053333D01*
X160681428Y-46100952D01*
X160490952Y-46100952D01*
X160395714Y-46148571D01*
X160348095Y-46196190D01*
X160300476Y-46291428D01*
X160300476Y-46481904D01*
X160348095Y-46577142D01*
X160395714Y-46624761D01*
X160490952Y-46672380D01*
X160681428Y-46672380D01*
X160776666Y-46624761D01*
X160824285Y-46577142D01*
X160871904Y-46481904D01*
X160871904Y-46291428D01*
X160824285Y-46196190D01*
X160776666Y-46148571D01*
X160681428Y-46100952D01*
%TO.C,R8*%
X106382380Y-76776666D02*
X105906190Y-77110000D01*
X106382380Y-77348095D02*
X105382380Y-77348095D01*
X105382380Y-76967142D01*
X105430000Y-76871904D01*
X105477619Y-76824285D01*
X105572857Y-76776666D01*
X105715714Y-76776666D01*
X105810952Y-76824285D01*
X105858571Y-76871904D01*
X105906190Y-76967142D01*
X105906190Y-77348095D01*
X105810952Y-76205238D02*
X105763333Y-76300476D01*
X105715714Y-76348095D01*
X105620476Y-76395714D01*
X105572857Y-76395714D01*
X105477619Y-76348095D01*
X105430000Y-76300476D01*
X105382380Y-76205238D01*
X105382380Y-76014761D01*
X105430000Y-75919523D01*
X105477619Y-75871904D01*
X105572857Y-75824285D01*
X105620476Y-75824285D01*
X105715714Y-75871904D01*
X105763333Y-75919523D01*
X105810952Y-76014761D01*
X105810952Y-76205238D01*
X105858571Y-76300476D01*
X105906190Y-76348095D01*
X106001428Y-76395714D01*
X106191904Y-76395714D01*
X106287142Y-76348095D01*
X106334761Y-76300476D01*
X106382380Y-76205238D01*
X106382380Y-76014761D01*
X106334761Y-75919523D01*
X106287142Y-75871904D01*
X106191904Y-75824285D01*
X106001428Y-75824285D01*
X105906190Y-75871904D01*
X105858571Y-75919523D01*
X105810952Y-76014761D01*
%TO.C,Q1*%
X163097619Y-50315238D02*
X163050000Y-50410476D01*
X162954761Y-50505714D01*
X162811904Y-50648571D01*
X162764285Y-50743809D01*
X162764285Y-50839047D01*
X163002380Y-50791428D02*
X162954761Y-50886666D01*
X162859523Y-50981904D01*
X162669047Y-51029523D01*
X162335714Y-51029523D01*
X162145238Y-50981904D01*
X162050000Y-50886666D01*
X162002380Y-50791428D01*
X162002380Y-50600952D01*
X162050000Y-50505714D01*
X162145238Y-50410476D01*
X162335714Y-50362857D01*
X162669047Y-50362857D01*
X162859523Y-50410476D01*
X162954761Y-50505714D01*
X163002380Y-50600952D01*
X163002380Y-50791428D01*
X163002380Y-49410476D02*
X163002380Y-49981904D01*
X163002380Y-49696190D02*
X162002380Y-49696190D01*
X162145238Y-49791428D01*
X162240476Y-49886666D01*
X162288095Y-49981904D01*
%TO.C,R31*%
X146322380Y-86422857D02*
X145846190Y-86756190D01*
X146322380Y-86994285D02*
X145322380Y-86994285D01*
X145322380Y-86613333D01*
X145370000Y-86518095D01*
X145417619Y-86470476D01*
X145512857Y-86422857D01*
X145655714Y-86422857D01*
X145750952Y-86470476D01*
X145798571Y-86518095D01*
X145846190Y-86613333D01*
X145846190Y-86994285D01*
X145322380Y-86089523D02*
X145322380Y-85470476D01*
X145703333Y-85803809D01*
X145703333Y-85660952D01*
X145750952Y-85565714D01*
X145798571Y-85518095D01*
X145893809Y-85470476D01*
X146131904Y-85470476D01*
X146227142Y-85518095D01*
X146274761Y-85565714D01*
X146322380Y-85660952D01*
X146322380Y-85946666D01*
X146274761Y-86041904D01*
X146227142Y-86089523D01*
X146322380Y-84518095D02*
X146322380Y-85089523D01*
X146322380Y-84803809D02*
X145322380Y-84803809D01*
X145465238Y-84899047D01*
X145560476Y-84994285D01*
X145608095Y-85089523D01*
%TO.C,C8*%
X141147142Y-88446666D02*
X141194761Y-88494285D01*
X141242380Y-88637142D01*
X141242380Y-88732380D01*
X141194761Y-88875238D01*
X141099523Y-88970476D01*
X141004285Y-89018095D01*
X140813809Y-89065714D01*
X140670952Y-89065714D01*
X140480476Y-89018095D01*
X140385238Y-88970476D01*
X140290000Y-88875238D01*
X140242380Y-88732380D01*
X140242380Y-88637142D01*
X140290000Y-88494285D01*
X140337619Y-88446666D01*
X140670952Y-87875238D02*
X140623333Y-87970476D01*
X140575714Y-88018095D01*
X140480476Y-88065714D01*
X140432857Y-88065714D01*
X140337619Y-88018095D01*
X140290000Y-87970476D01*
X140242380Y-87875238D01*
X140242380Y-87684761D01*
X140290000Y-87589523D01*
X140337619Y-87541904D01*
X140432857Y-87494285D01*
X140480476Y-87494285D01*
X140575714Y-87541904D01*
X140623333Y-87589523D01*
X140670952Y-87684761D01*
X140670952Y-87875238D01*
X140718571Y-87970476D01*
X140766190Y-88018095D01*
X140861428Y-88065714D01*
X141051904Y-88065714D01*
X141147142Y-88018095D01*
X141194761Y-87970476D01*
X141242380Y-87875238D01*
X141242380Y-87684761D01*
X141194761Y-87589523D01*
X141147142Y-87541904D01*
X141051904Y-87494285D01*
X140861428Y-87494285D01*
X140766190Y-87541904D01*
X140718571Y-87589523D01*
X140670952Y-87684761D01*
%TO.C,C4*%
X98483333Y-91612142D02*
X98435714Y-91659761D01*
X98292857Y-91707380D01*
X98197619Y-91707380D01*
X98054761Y-91659761D01*
X97959523Y-91564523D01*
X97911904Y-91469285D01*
X97864285Y-91278809D01*
X97864285Y-91135952D01*
X97911904Y-90945476D01*
X97959523Y-90850238D01*
X98054761Y-90755000D01*
X98197619Y-90707380D01*
X98292857Y-90707380D01*
X98435714Y-90755000D01*
X98483333Y-90802619D01*
X99340476Y-91040714D02*
X99340476Y-91707380D01*
X99102380Y-90659761D02*
X98864285Y-91374047D01*
X99483333Y-91374047D01*
%TO.C,C10*%
X125337142Y-91847142D02*
X125289523Y-91894761D01*
X125146666Y-91942380D01*
X125051428Y-91942380D01*
X124908571Y-91894761D01*
X124813333Y-91799523D01*
X124765714Y-91704285D01*
X124718095Y-91513809D01*
X124718095Y-91370952D01*
X124765714Y-91180476D01*
X124813333Y-91085238D01*
X124908571Y-90990000D01*
X125051428Y-90942380D01*
X125146666Y-90942380D01*
X125289523Y-90990000D01*
X125337142Y-91037619D01*
X126289523Y-91942380D02*
X125718095Y-91942380D01*
X126003809Y-91942380D02*
X126003809Y-90942380D01*
X125908571Y-91085238D01*
X125813333Y-91180476D01*
X125718095Y-91228095D01*
X126908571Y-90942380D02*
X127003809Y-90942380D01*
X127099047Y-90990000D01*
X127146666Y-91037619D01*
X127194285Y-91132857D01*
X127241904Y-91323333D01*
X127241904Y-91561428D01*
X127194285Y-91751904D01*
X127146666Y-91847142D01*
X127099047Y-91894761D01*
X127003809Y-91942380D01*
X126908571Y-91942380D01*
X126813333Y-91894761D01*
X126765714Y-91847142D01*
X126718095Y-91751904D01*
X126670476Y-91561428D01*
X126670476Y-91323333D01*
X126718095Y-91132857D01*
X126765714Y-91037619D01*
X126813333Y-90990000D01*
X126908571Y-90942380D01*
%TO.C,R1*%
X119665157Y-86794999D02*
X119188967Y-87128333D01*
X119665157Y-87366428D02*
X118665157Y-87366428D01*
X118665157Y-86985475D01*
X118712777Y-86890237D01*
X118760396Y-86842618D01*
X118855634Y-86794999D01*
X118998491Y-86794999D01*
X119093729Y-86842618D01*
X119141348Y-86890237D01*
X119188967Y-86985475D01*
X119188967Y-87366428D01*
X119665157Y-85842618D02*
X119665157Y-86414047D01*
X119665157Y-86128333D02*
X118665157Y-86128333D01*
X118808015Y-86223571D01*
X118903253Y-86318809D01*
X118950872Y-86414047D01*
%TO.C,R21*%
X137415712Y-77132857D02*
X136939522Y-77466190D01*
X137415712Y-77704285D02*
X136415712Y-77704285D01*
X136415712Y-77323333D01*
X136463332Y-77228095D01*
X136510951Y-77180476D01*
X136606189Y-77132857D01*
X136749046Y-77132857D01*
X136844284Y-77180476D01*
X136891903Y-77228095D01*
X136939522Y-77323333D01*
X136939522Y-77704285D01*
X136510951Y-76751904D02*
X136463332Y-76704285D01*
X136415712Y-76609047D01*
X136415712Y-76370952D01*
X136463332Y-76275714D01*
X136510951Y-76228095D01*
X136606189Y-76180476D01*
X136701427Y-76180476D01*
X136844284Y-76228095D01*
X137415712Y-76799523D01*
X137415712Y-76180476D01*
X137415712Y-75228095D02*
X137415712Y-75799523D01*
X137415712Y-75513809D02*
X136415712Y-75513809D01*
X136558570Y-75609047D01*
X136653808Y-75704285D01*
X136701427Y-75799523D01*
%TO.C,C11*%
X91037142Y-64642857D02*
X91084761Y-64690476D01*
X91132380Y-64833333D01*
X91132380Y-64928571D01*
X91084761Y-65071428D01*
X90989523Y-65166666D01*
X90894285Y-65214285D01*
X90703809Y-65261904D01*
X90560952Y-65261904D01*
X90370476Y-65214285D01*
X90275238Y-65166666D01*
X90180000Y-65071428D01*
X90132380Y-64928571D01*
X90132380Y-64833333D01*
X90180000Y-64690476D01*
X90227619Y-64642857D01*
X91132380Y-63690476D02*
X91132380Y-64261904D01*
X91132380Y-63976190D02*
X90132380Y-63976190D01*
X90275238Y-64071428D01*
X90370476Y-64166666D01*
X90418095Y-64261904D01*
X91132380Y-62738095D02*
X91132380Y-63309523D01*
X91132380Y-63023809D02*
X90132380Y-63023809D01*
X90275238Y-63119047D01*
X90370476Y-63214285D01*
X90418095Y-63309523D01*
%TO.C,D11*%
X125597380Y-86574285D02*
X124597380Y-86574285D01*
X124597380Y-86336190D01*
X124645000Y-86193333D01*
X124740238Y-86098095D01*
X124835476Y-86050476D01*
X125025952Y-86002857D01*
X125168809Y-86002857D01*
X125359285Y-86050476D01*
X125454523Y-86098095D01*
X125549761Y-86193333D01*
X125597380Y-86336190D01*
X125597380Y-86574285D01*
X125597380Y-85050476D02*
X125597380Y-85621904D01*
X125597380Y-85336190D02*
X124597380Y-85336190D01*
X124740238Y-85431428D01*
X124835476Y-85526666D01*
X124883095Y-85621904D01*
X125597380Y-84098095D02*
X125597380Y-84669523D01*
X125597380Y-84383809D02*
X124597380Y-84383809D01*
X124740238Y-84479047D01*
X124835476Y-84574285D01*
X124883095Y-84669523D01*
%TO.C,R22*%
X153202380Y-86422857D02*
X152726190Y-86756190D01*
X153202380Y-86994285D02*
X152202380Y-86994285D01*
X152202380Y-86613333D01*
X152250000Y-86518095D01*
X152297619Y-86470476D01*
X152392857Y-86422857D01*
X152535714Y-86422857D01*
X152630952Y-86470476D01*
X152678571Y-86518095D01*
X152726190Y-86613333D01*
X152726190Y-86994285D01*
X152297619Y-86041904D02*
X152250000Y-85994285D01*
X152202380Y-85899047D01*
X152202380Y-85660952D01*
X152250000Y-85565714D01*
X152297619Y-85518095D01*
X152392857Y-85470476D01*
X152488095Y-85470476D01*
X152630952Y-85518095D01*
X153202380Y-86089523D01*
X153202380Y-85470476D01*
X152297619Y-85089523D02*
X152250000Y-85041904D01*
X152202380Y-84946666D01*
X152202380Y-84708571D01*
X152250000Y-84613333D01*
X152297619Y-84565714D01*
X152392857Y-84518095D01*
X152488095Y-84518095D01*
X152630952Y-84565714D01*
X153202380Y-85137142D01*
X153202380Y-84518095D01*
%TO.C,U2*%
X123377380Y-60696904D02*
X124186904Y-60696904D01*
X124282142Y-60649285D01*
X124329761Y-60601666D01*
X124377380Y-60506428D01*
X124377380Y-60315952D01*
X124329761Y-60220714D01*
X124282142Y-60173095D01*
X124186904Y-60125476D01*
X123377380Y-60125476D01*
X123472619Y-59696904D02*
X123425000Y-59649285D01*
X123377380Y-59554047D01*
X123377380Y-59315952D01*
X123425000Y-59220714D01*
X123472619Y-59173095D01*
X123567857Y-59125476D01*
X123663095Y-59125476D01*
X123805952Y-59173095D01*
X124377380Y-59744523D01*
X124377380Y-59125476D01*
X135745592Y-47837277D02*
X135772529Y-47918089D01*
X135853341Y-47998902D01*
X135961091Y-48052776D01*
X136068841Y-48052776D01*
X136149653Y-48025839D01*
X136284340Y-47945027D01*
X136365152Y-47864215D01*
X136445964Y-47729528D01*
X136472902Y-47648715D01*
X136472902Y-47540966D01*
X136419027Y-47433216D01*
X136365152Y-47379341D01*
X136257402Y-47325467D01*
X136203528Y-47325467D01*
X136014966Y-47514028D01*
X136122715Y-47621778D01*
X136014966Y-47029155D02*
X135449280Y-47594841D01*
X135233781Y-47379341D01*
X135206844Y-47298529D01*
X135206844Y-47244654D01*
X135233781Y-47163842D01*
X135314593Y-47083030D01*
X135395406Y-47056093D01*
X135449280Y-47056093D01*
X135530093Y-47083030D01*
X135745592Y-47298529D01*
X134964407Y-47002218D02*
X134910532Y-47002218D01*
X134829720Y-46975280D01*
X134695033Y-46840593D01*
X134668096Y-46759781D01*
X134668096Y-46705906D01*
X134695033Y-46625094D01*
X134748908Y-46571219D01*
X134856658Y-46517345D01*
X135503155Y-46517345D01*
X135152969Y-46167158D01*
X134237097Y-46382658D02*
X134183223Y-46328783D01*
X134156285Y-46247971D01*
X134156285Y-46194096D01*
X134183223Y-46113284D01*
X134264035Y-45978597D01*
X134398722Y-45843910D01*
X134533409Y-45763097D01*
X134614221Y-45736160D01*
X134668096Y-45736160D01*
X134748908Y-45763097D01*
X134802783Y-45816972D01*
X134829720Y-45897784D01*
X134829720Y-45951659D01*
X134802783Y-46032471D01*
X134721971Y-46167158D01*
X134587284Y-46301845D01*
X134452597Y-46382658D01*
X134371784Y-46409595D01*
X134317910Y-46409595D01*
X134237097Y-46382658D01*
X130423155Y-73448841D02*
X130450093Y-73529653D01*
X130530905Y-73610465D01*
X130638654Y-73664340D01*
X130746404Y-73664340D01*
X130827216Y-73637402D01*
X130961903Y-73556590D01*
X131042715Y-73475778D01*
X131123528Y-73341091D01*
X131150465Y-73260279D01*
X131150465Y-73152529D01*
X131096590Y-73044780D01*
X131042715Y-72990905D01*
X130934966Y-72937030D01*
X130881091Y-72937030D01*
X130692529Y-73125592D01*
X130800279Y-73233341D01*
X130692529Y-72640719D02*
X130126844Y-73206404D01*
X130369280Y-72317470D01*
X129803595Y-72883155D01*
X130099906Y-72048096D02*
X129534221Y-72613781D01*
X129399534Y-72479094D01*
X129345659Y-72371345D01*
X129345659Y-72263595D01*
X129372597Y-72182783D01*
X129453409Y-72048096D01*
X129534221Y-71967284D01*
X129668908Y-71886471D01*
X129749720Y-71859534D01*
X129857470Y-71859534D01*
X129965219Y-71913409D01*
X130099906Y-72048096D01*
X148445592Y-47837277D02*
X148472529Y-47918089D01*
X148553341Y-47998902D01*
X148661091Y-48052776D01*
X148768841Y-48052776D01*
X148849653Y-48025839D01*
X148984340Y-47945027D01*
X149065152Y-47864215D01*
X149145964Y-47729528D01*
X149172902Y-47648715D01*
X149172902Y-47540966D01*
X149119027Y-47433216D01*
X149065152Y-47379341D01*
X148957402Y-47325467D01*
X148903528Y-47325467D01*
X148714966Y-47514028D01*
X148822715Y-47621778D01*
X148714966Y-47029155D02*
X148149280Y-47594841D01*
X147933781Y-47379341D01*
X147906844Y-47298529D01*
X147906844Y-47244654D01*
X147933781Y-47163842D01*
X148014593Y-47083030D01*
X148095406Y-47056093D01*
X148149280Y-47056093D01*
X148230093Y-47083030D01*
X148445592Y-47298529D01*
X147852969Y-46167158D02*
X148176218Y-46490407D01*
X148014593Y-46328783D02*
X147448908Y-46894468D01*
X147583595Y-46867531D01*
X147691345Y-46867531D01*
X147772157Y-46894468D01*
X146802410Y-46247971D02*
X146910160Y-46355720D01*
X146990972Y-46382658D01*
X147044847Y-46382658D01*
X147179534Y-46355720D01*
X147314221Y-46274908D01*
X147529720Y-46059409D01*
X147556658Y-45978597D01*
X147556658Y-45924722D01*
X147529720Y-45843910D01*
X147421971Y-45736160D01*
X147341158Y-45709223D01*
X147287284Y-45709223D01*
X147206471Y-45736160D01*
X147071784Y-45870847D01*
X147044847Y-45951659D01*
X147044847Y-46005534D01*
X147071784Y-46086346D01*
X147179534Y-46194096D01*
X147260346Y-46221033D01*
X147314221Y-46221033D01*
X147395033Y-46194096D01*
X135745592Y-74091277D02*
X135772529Y-74172089D01*
X135853341Y-74252902D01*
X135961091Y-74306776D01*
X136068841Y-74306776D01*
X136149653Y-74279839D01*
X136284340Y-74199027D01*
X136365152Y-74118215D01*
X136445964Y-73983528D01*
X136472902Y-73902715D01*
X136472902Y-73794966D01*
X136419027Y-73687216D01*
X136365152Y-73633341D01*
X136257402Y-73579467D01*
X136203528Y-73579467D01*
X136014966Y-73768028D01*
X136122715Y-73875778D01*
X136014966Y-73283155D02*
X135449280Y-73848841D01*
X135233781Y-73633341D01*
X135206844Y-73552529D01*
X135206844Y-73498654D01*
X135233781Y-73417842D01*
X135314593Y-73337030D01*
X135395406Y-73310093D01*
X135449280Y-73310093D01*
X135530093Y-73337030D01*
X135745592Y-73552529D01*
X135152969Y-72421158D02*
X135476218Y-72744407D01*
X135314593Y-72582783D02*
X134748908Y-73148468D01*
X134883595Y-73121531D01*
X134991345Y-73121531D01*
X135072157Y-73148468D01*
X134614221Y-71882410D02*
X134937470Y-72205659D01*
X134775845Y-72044035D02*
X134210160Y-72609720D01*
X134344847Y-72582783D01*
X134452597Y-72582783D01*
X134533409Y-72609720D01*
X123045592Y-47837277D02*
X123072529Y-47918089D01*
X123153341Y-47998902D01*
X123261091Y-48052776D01*
X123368841Y-48052776D01*
X123449653Y-48025839D01*
X123584340Y-47945027D01*
X123665152Y-47864215D01*
X123745964Y-47729528D01*
X123772902Y-47648715D01*
X123772902Y-47540966D01*
X123719027Y-47433216D01*
X123665152Y-47379341D01*
X123557402Y-47325467D01*
X123503528Y-47325467D01*
X123314966Y-47514028D01*
X123422715Y-47621778D01*
X123314966Y-47029155D02*
X122749280Y-47594841D01*
X122533781Y-47379341D01*
X122506844Y-47298529D01*
X122506844Y-47244654D01*
X122533781Y-47163842D01*
X122614593Y-47083030D01*
X122695406Y-47056093D01*
X122749280Y-47056093D01*
X122830093Y-47083030D01*
X123045592Y-47298529D01*
X122264407Y-47002218D02*
X122210532Y-47002218D01*
X122129720Y-46975280D01*
X121995033Y-46840593D01*
X121968096Y-46759781D01*
X121968096Y-46705906D01*
X121995033Y-46625094D01*
X122048908Y-46571219D01*
X122156658Y-46517345D01*
X122803155Y-46517345D01*
X122452969Y-46167158D01*
X121402410Y-46247971D02*
X121510160Y-46355720D01*
X121590972Y-46382658D01*
X121644847Y-46382658D01*
X121779534Y-46355720D01*
X121914221Y-46274908D01*
X122129720Y-46059409D01*
X122156658Y-45978597D01*
X122156658Y-45924722D01*
X122129720Y-45843910D01*
X122021971Y-45736160D01*
X121941158Y-45709223D01*
X121887284Y-45709223D01*
X121806471Y-45736160D01*
X121671784Y-45870847D01*
X121644847Y-45951659D01*
X121644847Y-46005534D01*
X121671784Y-46086346D01*
X121779534Y-46194096D01*
X121860346Y-46221033D01*
X121914221Y-46221033D01*
X121995033Y-46194096D01*
X107536218Y-73521903D02*
X107563155Y-73602715D01*
X107643967Y-73683528D01*
X107751717Y-73737402D01*
X107859467Y-73737402D01*
X107940279Y-73710465D01*
X108074966Y-73629653D01*
X108155778Y-73548841D01*
X108236590Y-73414154D01*
X108263528Y-73333341D01*
X108263528Y-73225592D01*
X108209653Y-73117842D01*
X108155778Y-73063967D01*
X108048028Y-73010093D01*
X107994154Y-73010093D01*
X107805592Y-73198654D01*
X107913341Y-73306404D01*
X107805592Y-72713781D02*
X107239906Y-73279467D01*
X107024407Y-73063967D01*
X106997470Y-72983155D01*
X106997470Y-72929280D01*
X107024407Y-72848468D01*
X107105219Y-72767656D01*
X107186032Y-72740719D01*
X107239906Y-72740719D01*
X107320719Y-72767656D01*
X107536218Y-72983155D01*
X106755033Y-72686844D02*
X106701158Y-72686844D01*
X106620346Y-72659906D01*
X106485659Y-72525219D01*
X106458722Y-72444407D01*
X106458722Y-72390532D01*
X106485659Y-72309720D01*
X106539534Y-72255845D01*
X106647284Y-72201971D01*
X107293781Y-72201971D01*
X106943595Y-71851784D01*
X148445592Y-73945277D02*
X148472529Y-74026089D01*
X148553341Y-74106902D01*
X148661091Y-74160776D01*
X148768841Y-74160776D01*
X148849653Y-74133839D01*
X148984340Y-74053027D01*
X149065152Y-73972215D01*
X149145964Y-73837528D01*
X149172902Y-73756715D01*
X149172902Y-73648966D01*
X149119027Y-73541216D01*
X149065152Y-73487341D01*
X148957402Y-73433467D01*
X148903528Y-73433467D01*
X148714966Y-73622028D01*
X148822715Y-73729778D01*
X148714966Y-73137155D02*
X148149280Y-73702841D01*
X147933781Y-73487341D01*
X147906844Y-73406529D01*
X147906844Y-73352654D01*
X147933781Y-73271842D01*
X148014593Y-73191030D01*
X148095406Y-73164093D01*
X148149280Y-73164093D01*
X148230093Y-73191030D01*
X148445592Y-73406529D01*
X147852969Y-72275158D02*
X148176218Y-72598407D01*
X148014593Y-72436783D02*
X147448908Y-73002468D01*
X147583595Y-72975531D01*
X147691345Y-72975531D01*
X147772157Y-73002468D01*
X146775473Y-72329033D02*
X147044847Y-72598407D01*
X147341158Y-72355971D01*
X147287284Y-72355971D01*
X147206471Y-72329033D01*
X147071784Y-72194346D01*
X147044847Y-72113534D01*
X147044847Y-72059659D01*
X147071784Y-71978847D01*
X147206471Y-71844160D01*
X147287284Y-71817223D01*
X147341158Y-71817223D01*
X147421971Y-71844160D01*
X147556658Y-71978847D01*
X147583595Y-72059659D01*
X147583595Y-72113534D01*
X105023155Y-73448841D02*
X105050093Y-73529653D01*
X105130905Y-73610465D01*
X105238654Y-73664340D01*
X105346404Y-73664340D01*
X105427216Y-73637402D01*
X105561903Y-73556590D01*
X105642715Y-73475778D01*
X105723528Y-73341091D01*
X105750465Y-73260279D01*
X105750465Y-73152529D01*
X105696590Y-73044780D01*
X105642715Y-72990905D01*
X105534966Y-72937030D01*
X105481091Y-72937030D01*
X105292529Y-73125592D01*
X105400279Y-73233341D01*
X105292529Y-72640719D02*
X104726844Y-73206404D01*
X104969280Y-72317470D01*
X104403595Y-72883155D01*
X104699906Y-72048096D02*
X104134221Y-72613781D01*
X103999534Y-72479094D01*
X103945659Y-72371345D01*
X103945659Y-72263595D01*
X103972597Y-72182783D01*
X104053409Y-72048096D01*
X104134221Y-71967284D01*
X104268908Y-71886471D01*
X104349720Y-71859534D01*
X104457470Y-71859534D01*
X104565219Y-71913409D01*
X104699906Y-72048096D01*
X125868435Y-47096624D02*
X125787622Y-47554560D01*
X126191683Y-47419873D02*
X125625998Y-47985558D01*
X125410499Y-47770059D01*
X125383561Y-47689247D01*
X125383561Y-47635372D01*
X125410499Y-47554560D01*
X125491311Y-47473748D01*
X125572123Y-47446810D01*
X125625998Y-47446810D01*
X125706810Y-47473748D01*
X125922309Y-47689247D01*
X125060312Y-47419873D02*
X125518248Y-46961937D01*
X125545186Y-46881125D01*
X125545186Y-46827250D01*
X125518248Y-46746438D01*
X125410499Y-46638688D01*
X125329687Y-46611751D01*
X125275812Y-46611751D01*
X125195000Y-46638688D01*
X124737064Y-47096624D01*
X125033375Y-46261564D02*
X124467690Y-46827250D01*
X124710126Y-45938316D01*
X124144441Y-46504001D01*
X102994966Y-48014526D02*
X103372089Y-47260279D01*
X102617842Y-47637402D01*
X102994966Y-46937030D02*
X102941091Y-46829280D01*
X102806404Y-46694593D01*
X102725592Y-46667656D01*
X102671717Y-46667656D01*
X102590905Y-46694593D01*
X102537030Y-46748468D01*
X102510093Y-46829280D01*
X102510093Y-46883155D01*
X102537030Y-46963967D01*
X102617842Y-47098654D01*
X102644780Y-47179467D01*
X102644780Y-47233341D01*
X102617842Y-47314154D01*
X102563967Y-47368028D01*
X102483155Y-47394966D01*
X102429280Y-47394966D01*
X102348468Y-47368028D01*
X102213781Y-47233341D01*
X102159906Y-47125592D01*
X102079094Y-46506032D02*
X102348468Y-46236658D01*
X101971345Y-46990905D02*
X102079094Y-46506032D01*
X101594221Y-46613781D01*
X101971345Y-45913409D02*
X101917470Y-45805659D01*
X101782783Y-45670972D01*
X101701971Y-45644035D01*
X101648096Y-45644035D01*
X101567284Y-45670972D01*
X101513409Y-45724847D01*
X101486471Y-45805659D01*
X101486471Y-45859534D01*
X101513409Y-45940346D01*
X101594221Y-46075033D01*
X101621158Y-46155845D01*
X101621158Y-46209720D01*
X101594221Y-46290532D01*
X101540346Y-46344407D01*
X101459534Y-46371345D01*
X101405659Y-46371345D01*
X101324847Y-46344407D01*
X101190160Y-46209720D01*
X101136285Y-46101971D01*
X115171592Y-47837277D02*
X115198529Y-47918089D01*
X115279341Y-47998902D01*
X115387091Y-48052776D01*
X115494841Y-48052776D01*
X115575653Y-48025839D01*
X115710340Y-47945027D01*
X115791152Y-47864215D01*
X115871964Y-47729528D01*
X115898902Y-47648715D01*
X115898902Y-47540966D01*
X115845027Y-47433216D01*
X115791152Y-47379341D01*
X115683402Y-47325467D01*
X115629528Y-47325467D01*
X115440966Y-47514028D01*
X115548715Y-47621778D01*
X115440966Y-47029155D02*
X114875280Y-47594841D01*
X114659781Y-47379341D01*
X114632844Y-47298529D01*
X114632844Y-47244654D01*
X114659781Y-47163842D01*
X114740593Y-47083030D01*
X114821406Y-47056093D01*
X114875280Y-47056093D01*
X114956093Y-47083030D01*
X115171592Y-47298529D01*
X114390407Y-47002218D02*
X114336532Y-47002218D01*
X114255720Y-46975280D01*
X114121033Y-46840593D01*
X114094096Y-46759781D01*
X114094096Y-46705906D01*
X114121033Y-46625094D01*
X114174908Y-46571219D01*
X114282658Y-46517345D01*
X114929155Y-46517345D01*
X114578969Y-46167158D01*
X113932471Y-46167158D02*
X113959409Y-46247971D01*
X113959409Y-46301845D01*
X113932471Y-46382658D01*
X113905534Y-46409595D01*
X113824722Y-46436532D01*
X113770847Y-46436532D01*
X113690035Y-46409595D01*
X113582285Y-46301845D01*
X113555348Y-46221033D01*
X113555348Y-46167158D01*
X113582285Y-46086346D01*
X113609223Y-46059409D01*
X113690035Y-46032471D01*
X113743910Y-46032471D01*
X113824722Y-46059409D01*
X113932471Y-46167158D01*
X114013284Y-46194096D01*
X114067158Y-46194096D01*
X114147971Y-46167158D01*
X114255720Y-46059409D01*
X114282658Y-45978597D01*
X114282658Y-45924722D01*
X114255720Y-45843910D01*
X114147971Y-45736160D01*
X114067158Y-45709223D01*
X114013284Y-45709223D01*
X113932471Y-45736160D01*
X113824722Y-45843910D01*
X113797784Y-45924722D01*
X113797784Y-45978597D01*
X113824722Y-46059409D01*
X133215592Y-47837277D02*
X133242529Y-47918089D01*
X133323341Y-47998902D01*
X133431091Y-48052776D01*
X133538841Y-48052776D01*
X133619653Y-48025839D01*
X133754340Y-47945027D01*
X133835152Y-47864215D01*
X133915964Y-47729528D01*
X133942902Y-47648715D01*
X133942902Y-47540966D01*
X133889027Y-47433216D01*
X133835152Y-47379341D01*
X133727402Y-47325467D01*
X133673528Y-47325467D01*
X133484966Y-47514028D01*
X133592715Y-47621778D01*
X133484966Y-47029155D02*
X132919280Y-47594841D01*
X132703781Y-47379341D01*
X132676844Y-47298529D01*
X132676844Y-47244654D01*
X132703781Y-47163842D01*
X132784593Y-47083030D01*
X132865406Y-47056093D01*
X132919280Y-47056093D01*
X133000093Y-47083030D01*
X133215592Y-47298529D01*
X132434407Y-47002218D02*
X132380532Y-47002218D01*
X132299720Y-46975280D01*
X132165033Y-46840593D01*
X132138096Y-46759781D01*
X132138096Y-46705906D01*
X132165033Y-46625094D01*
X132218908Y-46571219D01*
X132326658Y-46517345D01*
X132973155Y-46517345D01*
X132622969Y-46167158D01*
X132084221Y-45628410D02*
X132407470Y-45951659D01*
X132245845Y-45790035D02*
X131680160Y-46355720D01*
X131814847Y-46328783D01*
X131922597Y-46328783D01*
X132003409Y-46355720D01*
X150448809Y-56030238D02*
X150486904Y-55915952D01*
X150486904Y-55725476D01*
X150448809Y-55649285D01*
X150410714Y-55611190D01*
X150334523Y-55573095D01*
X150258333Y-55573095D01*
X150182142Y-55611190D01*
X150144047Y-55649285D01*
X150105952Y-55725476D01*
X150067857Y-55877857D01*
X150029761Y-55954047D01*
X149991666Y-55992142D01*
X149915476Y-56030238D01*
X149839285Y-56030238D01*
X149763095Y-55992142D01*
X149725000Y-55954047D01*
X149686904Y-55877857D01*
X149686904Y-55687380D01*
X149725000Y-55573095D01*
X149686904Y-55306428D02*
X150486904Y-55115952D01*
X149915476Y-54963571D01*
X150486904Y-54811190D01*
X149686904Y-54620714D01*
X150486904Y-54315952D02*
X149686904Y-54315952D01*
X149686904Y-54125476D01*
X149725000Y-54011190D01*
X149801190Y-53935000D01*
X149877380Y-53896904D01*
X150029761Y-53858809D01*
X150144047Y-53858809D01*
X150296428Y-53896904D01*
X150372619Y-53935000D01*
X150448809Y-54011190D01*
X150486904Y-54125476D01*
X150486904Y-54315952D01*
X150486904Y-53515952D02*
X149686904Y-53515952D01*
X149686904Y-52982619D02*
X149686904Y-52830238D01*
X149725000Y-52754047D01*
X149801190Y-52677857D01*
X149953571Y-52639761D01*
X150220238Y-52639761D01*
X150372619Y-52677857D01*
X150448809Y-52754047D01*
X150486904Y-52830238D01*
X150486904Y-52982619D01*
X150448809Y-53058809D01*
X150372619Y-53135000D01*
X150220238Y-53173095D01*
X149953571Y-53173095D01*
X149801190Y-53135000D01*
X149725000Y-53058809D01*
X149686904Y-52982619D01*
X99916218Y-73421903D02*
X99943155Y-73502715D01*
X100023967Y-73583528D01*
X100131717Y-73637402D01*
X100239467Y-73637402D01*
X100320279Y-73610465D01*
X100454966Y-73529653D01*
X100535778Y-73448841D01*
X100616590Y-73314154D01*
X100643528Y-73233341D01*
X100643528Y-73125592D01*
X100589653Y-73017842D01*
X100535778Y-72963967D01*
X100428028Y-72910093D01*
X100374154Y-72910093D01*
X100185592Y-73098654D01*
X100293341Y-73206404D01*
X100185592Y-72613781D02*
X99619906Y-73179467D01*
X99404407Y-72963967D01*
X99377470Y-72883155D01*
X99377470Y-72829280D01*
X99404407Y-72748468D01*
X99485219Y-72667656D01*
X99566032Y-72640719D01*
X99619906Y-72640719D01*
X99700719Y-72667656D01*
X99916218Y-72883155D01*
X98946471Y-72506032D02*
X98892597Y-72452157D01*
X98865659Y-72371345D01*
X98865659Y-72317470D01*
X98892597Y-72236658D01*
X98973409Y-72101971D01*
X99108096Y-71967284D01*
X99242783Y-71886471D01*
X99323595Y-71859534D01*
X99377470Y-71859534D01*
X99458282Y-71886471D01*
X99512157Y-71940346D01*
X99539094Y-72021158D01*
X99539094Y-72075033D01*
X99512157Y-72155845D01*
X99431345Y-72290532D01*
X99296658Y-72425219D01*
X99161971Y-72506032D01*
X99081158Y-72532969D01*
X99027284Y-72532969D01*
X98946471Y-72506032D01*
X150448809Y-67444523D02*
X150486904Y-67330238D01*
X150486904Y-67139761D01*
X150448809Y-67063571D01*
X150410714Y-67025476D01*
X150334523Y-66987380D01*
X150258333Y-66987380D01*
X150182142Y-67025476D01*
X150144047Y-67063571D01*
X150105952Y-67139761D01*
X150067857Y-67292142D01*
X150029761Y-67368333D01*
X149991666Y-67406428D01*
X149915476Y-67444523D01*
X149839285Y-67444523D01*
X149763095Y-67406428D01*
X149725000Y-67368333D01*
X149686904Y-67292142D01*
X149686904Y-67101666D01*
X149725000Y-66987380D01*
X149686904Y-66720714D02*
X150486904Y-66530238D01*
X149915476Y-66377857D01*
X150486904Y-66225476D01*
X149686904Y-66035000D01*
X150410714Y-65273095D02*
X150448809Y-65311190D01*
X150486904Y-65425476D01*
X150486904Y-65501666D01*
X150448809Y-65615952D01*
X150372619Y-65692142D01*
X150296428Y-65730238D01*
X150144047Y-65768333D01*
X150029761Y-65768333D01*
X149877380Y-65730238D01*
X149801190Y-65692142D01*
X149725000Y-65615952D01*
X149686904Y-65501666D01*
X149686904Y-65425476D01*
X149725000Y-65311190D01*
X149763095Y-65273095D01*
X150486904Y-64549285D02*
X150486904Y-64930238D01*
X149686904Y-64930238D01*
X150486904Y-64282619D02*
X149686904Y-64282619D01*
X150486904Y-63825476D02*
X150029761Y-64168333D01*
X149686904Y-63825476D02*
X150144047Y-64282619D01*
X140825592Y-47837277D02*
X140852529Y-47918089D01*
X140933341Y-47998902D01*
X141041091Y-48052776D01*
X141148841Y-48052776D01*
X141229653Y-48025839D01*
X141364340Y-47945027D01*
X141445152Y-47864215D01*
X141525964Y-47729528D01*
X141552902Y-47648715D01*
X141552902Y-47540966D01*
X141499027Y-47433216D01*
X141445152Y-47379341D01*
X141337402Y-47325467D01*
X141283528Y-47325467D01*
X141094966Y-47514028D01*
X141202715Y-47621778D01*
X141094966Y-47029155D02*
X140529280Y-47594841D01*
X140313781Y-47379341D01*
X140286844Y-47298529D01*
X140286844Y-47244654D01*
X140313781Y-47163842D01*
X140394593Y-47083030D01*
X140475406Y-47056093D01*
X140529280Y-47056093D01*
X140610093Y-47083030D01*
X140825592Y-47298529D01*
X140232969Y-46167158D02*
X140556218Y-46490407D01*
X140394593Y-46328783D02*
X139828908Y-46894468D01*
X139963595Y-46867531D01*
X140071345Y-46867531D01*
X140152157Y-46894468D01*
X139586471Y-46167158D02*
X139613409Y-46247971D01*
X139613409Y-46301845D01*
X139586471Y-46382658D01*
X139559534Y-46409595D01*
X139478722Y-46436532D01*
X139424847Y-46436532D01*
X139344035Y-46409595D01*
X139236285Y-46301845D01*
X139209348Y-46221033D01*
X139209348Y-46167158D01*
X139236285Y-46086346D01*
X139263223Y-46059409D01*
X139344035Y-46032471D01*
X139397910Y-46032471D01*
X139478722Y-46059409D01*
X139586471Y-46167158D01*
X139667284Y-46194096D01*
X139721158Y-46194096D01*
X139801971Y-46167158D01*
X139909720Y-46059409D01*
X139936658Y-45978597D01*
X139936658Y-45924722D01*
X139909720Y-45843910D01*
X139801971Y-45736160D01*
X139721158Y-45709223D01*
X139667284Y-45709223D01*
X139586471Y-45736160D01*
X139478722Y-45843910D01*
X139451784Y-45924722D01*
X139451784Y-45978597D01*
X139478722Y-46059409D01*
X145905592Y-73991277D02*
X145932529Y-74072089D01*
X146013341Y-74152902D01*
X146121091Y-74206776D01*
X146228841Y-74206776D01*
X146309653Y-74179839D01*
X146444340Y-74099027D01*
X146525152Y-74018215D01*
X146605964Y-73883528D01*
X146632902Y-73802715D01*
X146632902Y-73694966D01*
X146579027Y-73587216D01*
X146525152Y-73533341D01*
X146417402Y-73479467D01*
X146363528Y-73479467D01*
X146174966Y-73668028D01*
X146282715Y-73775778D01*
X146174966Y-73183155D02*
X145609280Y-73748841D01*
X145393781Y-73533341D01*
X145366844Y-73452529D01*
X145366844Y-73398654D01*
X145393781Y-73317842D01*
X145474593Y-73237030D01*
X145555406Y-73210093D01*
X145609280Y-73210093D01*
X145690093Y-73237030D01*
X145905592Y-73452529D01*
X145312969Y-72321158D02*
X145636218Y-72644407D01*
X145474593Y-72482783D02*
X144908908Y-73048468D01*
X145043595Y-73021531D01*
X145151345Y-73021531D01*
X145232157Y-73048468D01*
X144450972Y-72213409D02*
X144828096Y-71836285D01*
X144370160Y-72563595D02*
X144908908Y-72294221D01*
X144558722Y-71944035D01*
X105023155Y-47848841D02*
X105050093Y-47929653D01*
X105130905Y-48010465D01*
X105238654Y-48064340D01*
X105346404Y-48064340D01*
X105427216Y-48037402D01*
X105561903Y-47956590D01*
X105642715Y-47875778D01*
X105723528Y-47741091D01*
X105750465Y-47660279D01*
X105750465Y-47552529D01*
X105696590Y-47444780D01*
X105642715Y-47390905D01*
X105534966Y-47337030D01*
X105481091Y-47337030D01*
X105292529Y-47525592D01*
X105400279Y-47633341D01*
X105292529Y-47040719D02*
X104726844Y-47606404D01*
X104969280Y-46717470D01*
X104403595Y-47283155D01*
X104699906Y-46448096D02*
X104134221Y-47013781D01*
X103999534Y-46879094D01*
X103945659Y-46771345D01*
X103945659Y-46663595D01*
X103972597Y-46582783D01*
X104053409Y-46448096D01*
X104134221Y-46367284D01*
X104268908Y-46286471D01*
X104349720Y-46259534D01*
X104457470Y-46259534D01*
X104565219Y-46313409D01*
X104699906Y-46448096D01*
X120515592Y-47837277D02*
X120542529Y-47918089D01*
X120623341Y-47998902D01*
X120731091Y-48052776D01*
X120838841Y-48052776D01*
X120919653Y-48025839D01*
X121054340Y-47945027D01*
X121135152Y-47864215D01*
X121215964Y-47729528D01*
X121242902Y-47648715D01*
X121242902Y-47540966D01*
X121189027Y-47433216D01*
X121135152Y-47379341D01*
X121027402Y-47325467D01*
X120973528Y-47325467D01*
X120784966Y-47514028D01*
X120892715Y-47621778D01*
X120784966Y-47029155D02*
X120219280Y-47594841D01*
X120003781Y-47379341D01*
X119976844Y-47298529D01*
X119976844Y-47244654D01*
X120003781Y-47163842D01*
X120084593Y-47083030D01*
X120165406Y-47056093D01*
X120219280Y-47056093D01*
X120300093Y-47083030D01*
X120515592Y-47298529D01*
X119734407Y-47002218D02*
X119680532Y-47002218D01*
X119599720Y-46975280D01*
X119465033Y-46840593D01*
X119438096Y-46759781D01*
X119438096Y-46705906D01*
X119465033Y-46625094D01*
X119518908Y-46571219D01*
X119626658Y-46517345D01*
X120273155Y-46517345D01*
X119922969Y-46167158D01*
X119168722Y-46544282D02*
X118791598Y-46167158D01*
X119599720Y-45843910D01*
X110415592Y-48045152D02*
X110065406Y-47694966D01*
X110469467Y-47668028D01*
X110388654Y-47587216D01*
X110361717Y-47506404D01*
X110361717Y-47452529D01*
X110388654Y-47371717D01*
X110523341Y-47237030D01*
X110604154Y-47210093D01*
X110658028Y-47210093D01*
X110738841Y-47237030D01*
X110900465Y-47398654D01*
X110927402Y-47479467D01*
X110927402Y-47533341D01*
X109903781Y-47533341D02*
X110280905Y-46779094D01*
X109526658Y-47156218D01*
X109391971Y-47021531D02*
X109041784Y-46671345D01*
X109445845Y-46644407D01*
X109365033Y-46563595D01*
X109338096Y-46482783D01*
X109338096Y-46428908D01*
X109365033Y-46348096D01*
X109499720Y-46213409D01*
X109580532Y-46186471D01*
X109634407Y-46186471D01*
X109715219Y-46213409D01*
X109876844Y-46375033D01*
X109903781Y-46455845D01*
X109903781Y-46509720D01*
X100452309Y-47981870D02*
X100829433Y-47227622D01*
X100075186Y-47604746D01*
X99967436Y-46958248D02*
X99913561Y-46850499D01*
X99913561Y-46796624D01*
X99940499Y-46715812D01*
X100021311Y-46635000D01*
X100102123Y-46608062D01*
X100155998Y-46608062D01*
X100236810Y-46635000D01*
X100452309Y-46850499D01*
X99886624Y-47416184D01*
X99698062Y-47227622D01*
X99671125Y-47146810D01*
X99671125Y-47092935D01*
X99698062Y-47012123D01*
X99751937Y-46958248D01*
X99832749Y-46931311D01*
X99886624Y-46931311D01*
X99967436Y-46958248D01*
X100155998Y-47146810D01*
X99320938Y-46850499D02*
X99778874Y-46392563D01*
X99805812Y-46311751D01*
X99805812Y-46257876D01*
X99778874Y-46177064D01*
X99671125Y-46069314D01*
X99590312Y-46042377D01*
X99536438Y-46042377D01*
X99455625Y-46069314D01*
X98997690Y-46527250D01*
X99294001Y-45746065D02*
X99240126Y-45638316D01*
X99105439Y-45503629D01*
X99024627Y-45476691D01*
X98970752Y-45476691D01*
X98889940Y-45503629D01*
X98836065Y-45557503D01*
X98809128Y-45638316D01*
X98809128Y-45692190D01*
X98836065Y-45773003D01*
X98916877Y-45907690D01*
X98943815Y-45988502D01*
X98943815Y-46042377D01*
X98916877Y-46123189D01*
X98863003Y-46177064D01*
X98782190Y-46204001D01*
X98728316Y-46204001D01*
X98647503Y-46177064D01*
X98512816Y-46042377D01*
X98458942Y-45934627D01*
X117723155Y-73448841D02*
X117750093Y-73529653D01*
X117830905Y-73610465D01*
X117938654Y-73664340D01*
X118046404Y-73664340D01*
X118127216Y-73637402D01*
X118261903Y-73556590D01*
X118342715Y-73475778D01*
X118423528Y-73341091D01*
X118450465Y-73260279D01*
X118450465Y-73152529D01*
X118396590Y-73044780D01*
X118342715Y-72990905D01*
X118234966Y-72937030D01*
X118181091Y-72937030D01*
X117992529Y-73125592D01*
X118100279Y-73233341D01*
X117992529Y-72640719D02*
X117426844Y-73206404D01*
X117669280Y-72317470D01*
X117103595Y-72883155D01*
X117399906Y-72048096D02*
X116834221Y-72613781D01*
X116699534Y-72479094D01*
X116645659Y-72371345D01*
X116645659Y-72263595D01*
X116672597Y-72182783D01*
X116753409Y-72048096D01*
X116834221Y-71967284D01*
X116968908Y-71886471D01*
X117049720Y-71859534D01*
X117157470Y-71859534D01*
X117265219Y-71913409D01*
X117399906Y-72048096D01*
X128125592Y-47837277D02*
X128152529Y-47918089D01*
X128233341Y-47998902D01*
X128341091Y-48052776D01*
X128448841Y-48052776D01*
X128529653Y-48025839D01*
X128664340Y-47945027D01*
X128745152Y-47864215D01*
X128825964Y-47729528D01*
X128852902Y-47648715D01*
X128852902Y-47540966D01*
X128799027Y-47433216D01*
X128745152Y-47379341D01*
X128637402Y-47325467D01*
X128583528Y-47325467D01*
X128394966Y-47514028D01*
X128502715Y-47621778D01*
X128394966Y-47029155D02*
X127829280Y-47594841D01*
X127613781Y-47379341D01*
X127586844Y-47298529D01*
X127586844Y-47244654D01*
X127613781Y-47163842D01*
X127694593Y-47083030D01*
X127775406Y-47056093D01*
X127829280Y-47056093D01*
X127910093Y-47083030D01*
X128125592Y-47298529D01*
X127344407Y-47002218D02*
X127290532Y-47002218D01*
X127209720Y-46975280D01*
X127075033Y-46840593D01*
X127048096Y-46759781D01*
X127048096Y-46705906D01*
X127075033Y-46625094D01*
X127128908Y-46571219D01*
X127236658Y-46517345D01*
X127883155Y-46517345D01*
X127532969Y-46167158D01*
X126805659Y-46463470D02*
X126751784Y-46463470D01*
X126670972Y-46436532D01*
X126536285Y-46301845D01*
X126509348Y-46221033D01*
X126509348Y-46167158D01*
X126536285Y-46086346D01*
X126590160Y-46032471D01*
X126697910Y-45978597D01*
X127344407Y-45978597D01*
X126994221Y-45628410D01*
X138285592Y-74091277D02*
X138312529Y-74172089D01*
X138393341Y-74252902D01*
X138501091Y-74306776D01*
X138608841Y-74306776D01*
X138689653Y-74279839D01*
X138824340Y-74199027D01*
X138905152Y-74118215D01*
X138985964Y-73983528D01*
X139012902Y-73902715D01*
X139012902Y-73794966D01*
X138959027Y-73687216D01*
X138905152Y-73633341D01*
X138797402Y-73579467D01*
X138743528Y-73579467D01*
X138554966Y-73768028D01*
X138662715Y-73875778D01*
X138554966Y-73283155D02*
X137989280Y-73848841D01*
X137773781Y-73633341D01*
X137746844Y-73552529D01*
X137746844Y-73498654D01*
X137773781Y-73417842D01*
X137854593Y-73337030D01*
X137935406Y-73310093D01*
X137989280Y-73310093D01*
X138070093Y-73337030D01*
X138285592Y-73552529D01*
X137692969Y-72421158D02*
X138016218Y-72744407D01*
X137854593Y-72582783D02*
X137288908Y-73148468D01*
X137423595Y-73121531D01*
X137531345Y-73121531D01*
X137612157Y-73148468D01*
X136965659Y-72717470D02*
X136911784Y-72717470D01*
X136830972Y-72690532D01*
X136696285Y-72555845D01*
X136669348Y-72475033D01*
X136669348Y-72421158D01*
X136696285Y-72340346D01*
X136750160Y-72286471D01*
X136857910Y-72232597D01*
X137504407Y-72232597D01*
X137154221Y-71882410D01*
X133205592Y-73945277D02*
X133232529Y-74026089D01*
X133313341Y-74106902D01*
X133421091Y-74160776D01*
X133528841Y-74160776D01*
X133609653Y-74133839D01*
X133744340Y-74053027D01*
X133825152Y-73972215D01*
X133905964Y-73837528D01*
X133932902Y-73756715D01*
X133932902Y-73648966D01*
X133879027Y-73541216D01*
X133825152Y-73487341D01*
X133717402Y-73433467D01*
X133663528Y-73433467D01*
X133474966Y-73622028D01*
X133582715Y-73729778D01*
X133474966Y-73137155D02*
X132909280Y-73702841D01*
X132693781Y-73487341D01*
X132666844Y-73406529D01*
X132666844Y-73352654D01*
X132693781Y-73271842D01*
X132774593Y-73191030D01*
X132855406Y-73164093D01*
X132909280Y-73164093D01*
X132990093Y-73191030D01*
X133205592Y-73406529D01*
X132612969Y-72275158D02*
X132936218Y-72598407D01*
X132774593Y-72436783D02*
X132208908Y-73002468D01*
X132343595Y-72975531D01*
X132451345Y-72975531D01*
X132532157Y-73002468D01*
X131697097Y-72490658D02*
X131643223Y-72436783D01*
X131616285Y-72355971D01*
X131616285Y-72302096D01*
X131643223Y-72221284D01*
X131724035Y-72086597D01*
X131858722Y-71951910D01*
X131993409Y-71871097D01*
X132074221Y-71844160D01*
X132128096Y-71844160D01*
X132208908Y-71871097D01*
X132262783Y-71924972D01*
X132289720Y-72005784D01*
X132289720Y-72059659D01*
X132262783Y-72140471D01*
X132181971Y-72275158D01*
X132047284Y-72409845D01*
X131912597Y-72490658D01*
X131831784Y-72517595D01*
X131777910Y-72517595D01*
X131697097Y-72490658D01*
X127856218Y-73421903D02*
X127883155Y-73502715D01*
X127963967Y-73583528D01*
X128071717Y-73637402D01*
X128179467Y-73637402D01*
X128260279Y-73610465D01*
X128394966Y-73529653D01*
X128475778Y-73448841D01*
X128556590Y-73314154D01*
X128583528Y-73233341D01*
X128583528Y-73125592D01*
X128529653Y-73017842D01*
X128475778Y-72963967D01*
X128368028Y-72910093D01*
X128314154Y-72910093D01*
X128125592Y-73098654D01*
X128233341Y-73206404D01*
X128125592Y-72613781D02*
X127559906Y-73179467D01*
X127344407Y-72963967D01*
X127317470Y-72883155D01*
X127317470Y-72829280D01*
X127344407Y-72748468D01*
X127425219Y-72667656D01*
X127506032Y-72640719D01*
X127559906Y-72640719D01*
X127640719Y-72667656D01*
X127856218Y-72883155D01*
X127532969Y-72021158D02*
X127425219Y-71913409D01*
X127344407Y-71886471D01*
X127290532Y-71886471D01*
X127155845Y-71913409D01*
X127021158Y-71994221D01*
X126805659Y-72209720D01*
X126778722Y-72290532D01*
X126778722Y-72344407D01*
X126805659Y-72425219D01*
X126913409Y-72532969D01*
X126994221Y-72559906D01*
X127048096Y-72559906D01*
X127128908Y-72532969D01*
X127263595Y-72398282D01*
X127290532Y-72317470D01*
X127290532Y-72263595D01*
X127263595Y-72182783D01*
X127155845Y-72075033D01*
X127075033Y-72048096D01*
X127021158Y-72048096D01*
X126940346Y-72075033D01*
X130423155Y-47848841D02*
X130450093Y-47929653D01*
X130530905Y-48010465D01*
X130638654Y-48064340D01*
X130746404Y-48064340D01*
X130827216Y-48037402D01*
X130961903Y-47956590D01*
X131042715Y-47875778D01*
X131123528Y-47741091D01*
X131150465Y-47660279D01*
X131150465Y-47552529D01*
X131096590Y-47444780D01*
X131042715Y-47390905D01*
X130934966Y-47337030D01*
X130881091Y-47337030D01*
X130692529Y-47525592D01*
X130800279Y-47633341D01*
X130692529Y-47040719D02*
X130126844Y-47606404D01*
X130369280Y-46717470D01*
X129803595Y-47283155D01*
X130099906Y-46448096D02*
X129534221Y-47013781D01*
X129399534Y-46879094D01*
X129345659Y-46771345D01*
X129345659Y-46663595D01*
X129372597Y-46582783D01*
X129453409Y-46448096D01*
X129534221Y-46367284D01*
X129668908Y-46286471D01*
X129749720Y-46259534D01*
X129857470Y-46259534D01*
X129965219Y-46313409D01*
X130099906Y-46448096D01*
X138285592Y-47837277D02*
X138312529Y-47918089D01*
X138393341Y-47998902D01*
X138501091Y-48052776D01*
X138608841Y-48052776D01*
X138689653Y-48025839D01*
X138824340Y-47945027D01*
X138905152Y-47864215D01*
X138985964Y-47729528D01*
X139012902Y-47648715D01*
X139012902Y-47540966D01*
X138959027Y-47433216D01*
X138905152Y-47379341D01*
X138797402Y-47325467D01*
X138743528Y-47325467D01*
X138554966Y-47514028D01*
X138662715Y-47621778D01*
X138554966Y-47029155D02*
X137989280Y-47594841D01*
X137773781Y-47379341D01*
X137746844Y-47298529D01*
X137746844Y-47244654D01*
X137773781Y-47163842D01*
X137854593Y-47083030D01*
X137935406Y-47056093D01*
X137989280Y-47056093D01*
X138070093Y-47083030D01*
X138285592Y-47298529D01*
X137692969Y-46167158D02*
X138016218Y-46490407D01*
X137854593Y-46328783D02*
X137288908Y-46894468D01*
X137423595Y-46867531D01*
X137531345Y-46867531D01*
X137612157Y-46894468D01*
X137423595Y-45897784D02*
X137315845Y-45790035D01*
X137235033Y-45763097D01*
X137181158Y-45763097D01*
X137046471Y-45790035D01*
X136911784Y-45870847D01*
X136696285Y-46086346D01*
X136669348Y-46167158D01*
X136669348Y-46221033D01*
X136696285Y-46301845D01*
X136804035Y-46409595D01*
X136884847Y-46436532D01*
X136938722Y-46436532D01*
X137019534Y-46409595D01*
X137154221Y-46274908D01*
X137181158Y-46194096D01*
X137181158Y-46140221D01*
X137154221Y-46059409D01*
X137046471Y-45951659D01*
X136965659Y-45924722D01*
X136911784Y-45924722D01*
X136830972Y-45951659D01*
X145905592Y-47837277D02*
X145932529Y-47918089D01*
X146013341Y-47998902D01*
X146121091Y-48052776D01*
X146228841Y-48052776D01*
X146309653Y-48025839D01*
X146444340Y-47945027D01*
X146525152Y-47864215D01*
X146605964Y-47729528D01*
X146632902Y-47648715D01*
X146632902Y-47540966D01*
X146579027Y-47433216D01*
X146525152Y-47379341D01*
X146417402Y-47325467D01*
X146363528Y-47325467D01*
X146174966Y-47514028D01*
X146282715Y-47621778D01*
X146174966Y-47029155D02*
X145609280Y-47594841D01*
X145393781Y-47379341D01*
X145366844Y-47298529D01*
X145366844Y-47244654D01*
X145393781Y-47163842D01*
X145474593Y-47083030D01*
X145555406Y-47056093D01*
X145609280Y-47056093D01*
X145690093Y-47083030D01*
X145905592Y-47298529D01*
X145312969Y-46167158D02*
X145636218Y-46490407D01*
X145474593Y-46328783D02*
X144908908Y-46894468D01*
X145043595Y-46867531D01*
X145151345Y-46867531D01*
X145232157Y-46894468D01*
X144558722Y-46544282D02*
X144181598Y-46167158D01*
X144989720Y-45843910D01*
X112616218Y-73421903D02*
X112643155Y-73502715D01*
X112723967Y-73583528D01*
X112831717Y-73637402D01*
X112939467Y-73637402D01*
X113020279Y-73610465D01*
X113154966Y-73529653D01*
X113235778Y-73448841D01*
X113316590Y-73314154D01*
X113343528Y-73233341D01*
X113343528Y-73125592D01*
X113289653Y-73017842D01*
X113235778Y-72963967D01*
X113128028Y-72910093D01*
X113074154Y-72910093D01*
X112885592Y-73098654D01*
X112993341Y-73206404D01*
X112885592Y-72613781D02*
X112319906Y-73179467D01*
X112104407Y-72963967D01*
X112077470Y-72883155D01*
X112077470Y-72829280D01*
X112104407Y-72748468D01*
X112185219Y-72667656D01*
X112266032Y-72640719D01*
X112319906Y-72640719D01*
X112400719Y-72667656D01*
X112616218Y-72883155D01*
X111700346Y-72182783D02*
X112077470Y-71805659D01*
X111619534Y-72532969D02*
X112158282Y-72263595D01*
X111808096Y-71913409D01*
X118665964Y-47783402D02*
X118396590Y-47514028D01*
X118881463Y-47675653D02*
X118127216Y-48052776D01*
X118504340Y-47298529D01*
X117480719Y-47352404D02*
X117507656Y-47433216D01*
X117588468Y-47514028D01*
X117696218Y-47567903D01*
X117803967Y-47567903D01*
X117884780Y-47540966D01*
X118019467Y-47460154D01*
X118100279Y-47379341D01*
X118181091Y-47244654D01*
X118208028Y-47163842D01*
X118208028Y-47056093D01*
X118154154Y-46948343D01*
X118100279Y-46894468D01*
X117992529Y-46840593D01*
X117938654Y-46840593D01*
X117750093Y-47029155D01*
X117857842Y-47136905D01*
X117750093Y-46544282D02*
X117184407Y-47109967D01*
X117426844Y-46221033D01*
X116861158Y-46786719D01*
X117157470Y-45951659D02*
X116591784Y-46517345D01*
X116457097Y-46382658D01*
X116403223Y-46274908D01*
X116403223Y-46167158D01*
X116430160Y-46086346D01*
X116510972Y-45951659D01*
X116591784Y-45870847D01*
X116726471Y-45790035D01*
X116807284Y-45763097D01*
X116915033Y-45763097D01*
X117022783Y-45816972D01*
X117157470Y-45951659D01*
X107883308Y-48012868D02*
X107533122Y-47662682D01*
X107937183Y-47635744D01*
X107856370Y-47554932D01*
X107829433Y-47474120D01*
X107829433Y-47420245D01*
X107856370Y-47339433D01*
X107991057Y-47204746D01*
X108071870Y-47177809D01*
X108125744Y-47177809D01*
X108206557Y-47204746D01*
X108368181Y-47366370D01*
X108395118Y-47447183D01*
X108395118Y-47501057D01*
X107371497Y-47501057D02*
X107748621Y-46746810D01*
X106994374Y-47123934D01*
X106859687Y-46989247D02*
X106509500Y-46639061D01*
X106913561Y-46612123D01*
X106832749Y-46531311D01*
X106805812Y-46450499D01*
X106805812Y-46396624D01*
X106832749Y-46315812D01*
X106967436Y-46181125D01*
X107048248Y-46154187D01*
X107102123Y-46154187D01*
X107182935Y-46181125D01*
X107344560Y-46342749D01*
X107371497Y-46423561D01*
X107371497Y-46477436D01*
X107021311Y-45911751D02*
X106590312Y-45480752D01*
X106105439Y-45696251D02*
X105916877Y-45507690D01*
X106132377Y-45130566D02*
X106401751Y-45399940D01*
X105836065Y-45965625D01*
X105566691Y-45696251D01*
X105889940Y-44888129D02*
X105324255Y-45453815D01*
X105566691Y-44564881D01*
X105001006Y-45130566D01*
X102446218Y-73521903D02*
X102473155Y-73602715D01*
X102553967Y-73683528D01*
X102661717Y-73737402D01*
X102769467Y-73737402D01*
X102850279Y-73710465D01*
X102984966Y-73629653D01*
X103065778Y-73548841D01*
X103146590Y-73414154D01*
X103173528Y-73333341D01*
X103173528Y-73225592D01*
X103119653Y-73117842D01*
X103065778Y-73063967D01*
X102958028Y-73010093D01*
X102904154Y-73010093D01*
X102715592Y-73198654D01*
X102823341Y-73306404D01*
X102715592Y-72713781D02*
X102149906Y-73279467D01*
X101934407Y-73063967D01*
X101907470Y-72983155D01*
X101907470Y-72929280D01*
X101934407Y-72848468D01*
X102015219Y-72767656D01*
X102096032Y-72740719D01*
X102149906Y-72740719D01*
X102230719Y-72767656D01*
X102446218Y-72983155D01*
X101853595Y-71851784D02*
X102176844Y-72175033D01*
X102015219Y-72013409D02*
X101449534Y-72579094D01*
X101584221Y-72552157D01*
X101691971Y-72552157D01*
X101772783Y-72579094D01*
X143123155Y-73448841D02*
X143150093Y-73529653D01*
X143230905Y-73610465D01*
X143338654Y-73664340D01*
X143446404Y-73664340D01*
X143527216Y-73637402D01*
X143661903Y-73556590D01*
X143742715Y-73475778D01*
X143823528Y-73341091D01*
X143850465Y-73260279D01*
X143850465Y-73152529D01*
X143796590Y-73044780D01*
X143742715Y-72990905D01*
X143634966Y-72937030D01*
X143581091Y-72937030D01*
X143392529Y-73125592D01*
X143500279Y-73233341D01*
X143392529Y-72640719D02*
X142826844Y-73206404D01*
X143069280Y-72317470D01*
X142503595Y-72883155D01*
X142799906Y-72048096D02*
X142234221Y-72613781D01*
X142099534Y-72479094D01*
X142045659Y-72371345D01*
X142045659Y-72263595D01*
X142072597Y-72182783D01*
X142153409Y-72048096D01*
X142234221Y-71967284D01*
X142368908Y-71886471D01*
X142449720Y-71859534D01*
X142557470Y-71859534D01*
X142665219Y-71913409D01*
X142799906Y-72048096D01*
X122746218Y-73321903D02*
X122773155Y-73402715D01*
X122853967Y-73483528D01*
X122961717Y-73537402D01*
X123069467Y-73537402D01*
X123150279Y-73510465D01*
X123284966Y-73429653D01*
X123365778Y-73348841D01*
X123446590Y-73214154D01*
X123473528Y-73133341D01*
X123473528Y-73025592D01*
X123419653Y-72917842D01*
X123365778Y-72863967D01*
X123258028Y-72810093D01*
X123204154Y-72810093D01*
X123015592Y-72998654D01*
X123123341Y-73106404D01*
X123015592Y-72513781D02*
X122449906Y-73079467D01*
X122234407Y-72863967D01*
X122207470Y-72783155D01*
X122207470Y-72729280D01*
X122234407Y-72648468D01*
X122315219Y-72567656D01*
X122396032Y-72540719D01*
X122449906Y-72540719D01*
X122530719Y-72567656D01*
X122746218Y-72783155D01*
X121938096Y-72567656D02*
X121560972Y-72190532D01*
X122369094Y-71867284D01*
X113458773Y-47780211D02*
X113189399Y-47510837D01*
X113674272Y-47672462D02*
X112920025Y-48049585D01*
X113297149Y-47295338D01*
X113108587Y-47106776D02*
X112542902Y-47672462D01*
X112408215Y-47537775D01*
X112354340Y-47430025D01*
X112354340Y-47322276D01*
X112381277Y-47241463D01*
X112462089Y-47106776D01*
X112542902Y-47025964D01*
X112677589Y-46945152D01*
X112758401Y-46918215D01*
X112866150Y-46918215D01*
X112973900Y-46972089D01*
X113108587Y-47106776D01*
X112165778Y-46271717D02*
X112219653Y-46271717D01*
X112327402Y-46325592D01*
X112381277Y-46379467D01*
X112435152Y-46487216D01*
X112435152Y-46594966D01*
X112408215Y-46675778D01*
X112327402Y-46810465D01*
X112246590Y-46891277D01*
X112111903Y-46972089D01*
X112031091Y-46999027D01*
X111923341Y-46999027D01*
X111815592Y-46945152D01*
X111761717Y-46891277D01*
X111707842Y-46783528D01*
X111707842Y-46729653D01*
X112165778Y-46056218D02*
X111734780Y-45625219D01*
X111061345Y-46190905D02*
X111438468Y-45436658D01*
X110684221Y-45813781D01*
X110738096Y-44736285D02*
X110657284Y-45194221D01*
X111061345Y-45059534D02*
X110495659Y-45625219D01*
X110280160Y-45409720D01*
X110253223Y-45328908D01*
X110253223Y-45275033D01*
X110280160Y-45194221D01*
X110360972Y-45113409D01*
X110441784Y-45086471D01*
X110495659Y-45086471D01*
X110576471Y-45113409D01*
X110791971Y-45328908D01*
X110199348Y-44790160D02*
X110010786Y-44601598D01*
X110226285Y-44224475D02*
X110495659Y-44493849D01*
X109929974Y-45059534D01*
X109660600Y-44790160D01*
X109498975Y-44089788D02*
X109687537Y-44278349D01*
X109983849Y-43982038D02*
X109418163Y-44547723D01*
X109148789Y-44278349D01*
X120236218Y-73421903D02*
X120263155Y-73502715D01*
X120343967Y-73583528D01*
X120451717Y-73637402D01*
X120559467Y-73637402D01*
X120640279Y-73610465D01*
X120774966Y-73529653D01*
X120855778Y-73448841D01*
X120936590Y-73314154D01*
X120963528Y-73233341D01*
X120963528Y-73125592D01*
X120909653Y-73017842D01*
X120855778Y-72963967D01*
X120748028Y-72910093D01*
X120694154Y-72910093D01*
X120505592Y-73098654D01*
X120613341Y-73206404D01*
X120505592Y-72613781D02*
X119939906Y-73179467D01*
X119724407Y-72963967D01*
X119697470Y-72883155D01*
X119697470Y-72829280D01*
X119724407Y-72748468D01*
X119805219Y-72667656D01*
X119886032Y-72640719D01*
X119939906Y-72640719D01*
X120020719Y-72667656D01*
X120236218Y-72883155D01*
X119131784Y-72371345D02*
X119239534Y-72479094D01*
X119320346Y-72506032D01*
X119374221Y-72506032D01*
X119508908Y-72479094D01*
X119643595Y-72398282D01*
X119859094Y-72182783D01*
X119886032Y-72101971D01*
X119886032Y-72048096D01*
X119859094Y-71967284D01*
X119751345Y-71859534D01*
X119670532Y-71832597D01*
X119616658Y-71832597D01*
X119535845Y-71859534D01*
X119401158Y-71994221D01*
X119374221Y-72075033D01*
X119374221Y-72128908D01*
X119401158Y-72209720D01*
X119508908Y-72317470D01*
X119589720Y-72344407D01*
X119643595Y-72344407D01*
X119724407Y-72317470D01*
X143123155Y-47848841D02*
X143150093Y-47929653D01*
X143230905Y-48010465D01*
X143338654Y-48064340D01*
X143446404Y-48064340D01*
X143527216Y-48037402D01*
X143661903Y-47956590D01*
X143742715Y-47875778D01*
X143823528Y-47741091D01*
X143850465Y-47660279D01*
X143850465Y-47552529D01*
X143796590Y-47444780D01*
X143742715Y-47390905D01*
X143634966Y-47337030D01*
X143581091Y-47337030D01*
X143392529Y-47525592D01*
X143500279Y-47633341D01*
X143392529Y-47040719D02*
X142826844Y-47606404D01*
X143069280Y-46717470D01*
X142503595Y-47283155D01*
X142799906Y-46448096D02*
X142234221Y-47013781D01*
X142099534Y-46879094D01*
X142045659Y-46771345D01*
X142045659Y-46663595D01*
X142072597Y-46582783D01*
X142153409Y-46448096D01*
X142234221Y-46367284D01*
X142368908Y-46286471D01*
X142449720Y-46259534D01*
X142557470Y-46259534D01*
X142665219Y-46313409D01*
X142799906Y-46448096D01*
X115156218Y-73421903D02*
X115183155Y-73502715D01*
X115263967Y-73583528D01*
X115371717Y-73637402D01*
X115479467Y-73637402D01*
X115560279Y-73610465D01*
X115694966Y-73529653D01*
X115775778Y-73448841D01*
X115856590Y-73314154D01*
X115883528Y-73233341D01*
X115883528Y-73125592D01*
X115829653Y-73017842D01*
X115775778Y-72963967D01*
X115668028Y-72910093D01*
X115614154Y-72910093D01*
X115425592Y-73098654D01*
X115533341Y-73206404D01*
X115425592Y-72613781D02*
X114859906Y-73179467D01*
X114644407Y-72963967D01*
X114617470Y-72883155D01*
X114617470Y-72829280D01*
X114644407Y-72748468D01*
X114725219Y-72667656D01*
X114806032Y-72640719D01*
X114859906Y-72640719D01*
X114940719Y-72667656D01*
X115156218Y-72883155D01*
X114024847Y-72344407D02*
X114294221Y-72613781D01*
X114590532Y-72371345D01*
X114536658Y-72371345D01*
X114455845Y-72344407D01*
X114321158Y-72209720D01*
X114294221Y-72128908D01*
X114294221Y-72075033D01*
X114321158Y-71994221D01*
X114455845Y-71859534D01*
X114536658Y-71832597D01*
X114590532Y-71832597D01*
X114671345Y-71859534D01*
X114806032Y-71994221D01*
X114832969Y-72075033D01*
X114832969Y-72128908D01*
X110076218Y-73421903D02*
X110103155Y-73502715D01*
X110183967Y-73583528D01*
X110291717Y-73637402D01*
X110399467Y-73637402D01*
X110480279Y-73610465D01*
X110614966Y-73529653D01*
X110695778Y-73448841D01*
X110776590Y-73314154D01*
X110803528Y-73233341D01*
X110803528Y-73125592D01*
X110749653Y-73017842D01*
X110695778Y-72963967D01*
X110588028Y-72910093D01*
X110534154Y-72910093D01*
X110345592Y-73098654D01*
X110453341Y-73206404D01*
X110345592Y-72613781D02*
X109779906Y-73179467D01*
X109564407Y-72963967D01*
X109537470Y-72883155D01*
X109537470Y-72829280D01*
X109564407Y-72748468D01*
X109645219Y-72667656D01*
X109726032Y-72640719D01*
X109779906Y-72640719D01*
X109860719Y-72667656D01*
X110076218Y-72883155D01*
X109268096Y-72667656D02*
X108917910Y-72317470D01*
X109321971Y-72290532D01*
X109241158Y-72209720D01*
X109214221Y-72128908D01*
X109214221Y-72075033D01*
X109241158Y-71994221D01*
X109375845Y-71859534D01*
X109456658Y-71832597D01*
X109510532Y-71832597D01*
X109591345Y-71859534D01*
X109752969Y-72021158D01*
X109779906Y-72101971D01*
X109779906Y-72155845D01*
X140825592Y-73945277D02*
X140852529Y-74026089D01*
X140933341Y-74106902D01*
X141041091Y-74160776D01*
X141148841Y-74160776D01*
X141229653Y-74133839D01*
X141364340Y-74053027D01*
X141445152Y-73972215D01*
X141525964Y-73837528D01*
X141552902Y-73756715D01*
X141552902Y-73648966D01*
X141499027Y-73541216D01*
X141445152Y-73487341D01*
X141337402Y-73433467D01*
X141283528Y-73433467D01*
X141094966Y-73622028D01*
X141202715Y-73729778D01*
X141094966Y-73137155D02*
X140529280Y-73702841D01*
X140313781Y-73487341D01*
X140286844Y-73406529D01*
X140286844Y-73352654D01*
X140313781Y-73271842D01*
X140394593Y-73191030D01*
X140475406Y-73164093D01*
X140529280Y-73164093D01*
X140610093Y-73191030D01*
X140825592Y-73406529D01*
X140232969Y-72275158D02*
X140556218Y-72598407D01*
X140394593Y-72436783D02*
X139828908Y-73002468D01*
X139963595Y-72975531D01*
X140071345Y-72975531D01*
X140152157Y-73002468D01*
X139478722Y-72652282D02*
X139128536Y-72302096D01*
X139532597Y-72275158D01*
X139451784Y-72194346D01*
X139424847Y-72113534D01*
X139424847Y-72059659D01*
X139451784Y-71978847D01*
X139586471Y-71844160D01*
X139667284Y-71817223D01*
X139721158Y-71817223D01*
X139801971Y-71844160D01*
X139963595Y-72005784D01*
X139990532Y-72086597D01*
X139990532Y-72140471D01*
X125316218Y-73421903D02*
X125343155Y-73502715D01*
X125423967Y-73583528D01*
X125531717Y-73637402D01*
X125639467Y-73637402D01*
X125720279Y-73610465D01*
X125854966Y-73529653D01*
X125935778Y-73448841D01*
X126016590Y-73314154D01*
X126043528Y-73233341D01*
X126043528Y-73125592D01*
X125989653Y-73017842D01*
X125935778Y-72963967D01*
X125828028Y-72910093D01*
X125774154Y-72910093D01*
X125585592Y-73098654D01*
X125693341Y-73206404D01*
X125585592Y-72613781D02*
X125019906Y-73179467D01*
X124804407Y-72963967D01*
X124777470Y-72883155D01*
X124777470Y-72829280D01*
X124804407Y-72748468D01*
X124885219Y-72667656D01*
X124966032Y-72640719D01*
X125019906Y-72640719D01*
X125100719Y-72667656D01*
X125316218Y-72883155D01*
X124615845Y-72290532D02*
X124642783Y-72371345D01*
X124642783Y-72425219D01*
X124615845Y-72506032D01*
X124588908Y-72532969D01*
X124508096Y-72559906D01*
X124454221Y-72559906D01*
X124373409Y-72532969D01*
X124265659Y-72425219D01*
X124238722Y-72344407D01*
X124238722Y-72290532D01*
X124265659Y-72209720D01*
X124292597Y-72182783D01*
X124373409Y-72155845D01*
X124427284Y-72155845D01*
X124508096Y-72182783D01*
X124615845Y-72290532D01*
X124696658Y-72317470D01*
X124750532Y-72317470D01*
X124831345Y-72290532D01*
X124939094Y-72182783D01*
X124966032Y-72101971D01*
X124966032Y-72048096D01*
X124939094Y-71967284D01*
X124831345Y-71859534D01*
X124750532Y-71832597D01*
X124696658Y-71832597D01*
X124615845Y-71859534D01*
X124508096Y-71967284D01*
X124481158Y-72048096D01*
X124481158Y-72101971D01*
X124508096Y-72182783D01*
D12*
%TO.C,R20*%
X139332500Y-79252742D02*
X139332500Y-79727258D01*
X138287500Y-79252742D02*
X138287500Y-79727258D01*
%TO.C,R4*%
X121290833Y-89665591D02*
X121290833Y-89191075D01*
X120245833Y-89665591D02*
X120245833Y-89191075D01*
%TO.C,D8*%
X145965000Y-92495000D02*
X145965000Y-93965000D01*
X145965000Y-93965000D02*
X148250000Y-93965000D01*
X148250000Y-92495000D02*
X145965000Y-92495000D01*
%TO.C,R3*%
X108937500Y-78972742D02*
X108937500Y-79447258D01*
X109982500Y-78972742D02*
X109982500Y-79447258D01*
%TO.C,R17*%
X155572742Y-47267500D02*
X156047258Y-47267500D01*
X155572742Y-48312500D02*
X156047258Y-48312500D01*
%TO.C,D12*%
X145965000Y-100375000D02*
X148250000Y-100375000D01*
X145965000Y-98905000D02*
X145965000Y-100375000D01*
X148250000Y-98905000D02*
X145965000Y-98905000D01*
%TO.C,D7*%
X148250000Y-94631666D02*
X145965000Y-94631666D01*
X145965000Y-96101666D02*
X148250000Y-96101666D01*
X145965000Y-94631666D02*
X145965000Y-96101666D01*
%TO.C,R9*%
X96247258Y-69212500D02*
X95772742Y-69212500D01*
X96247258Y-68167500D02*
X95772742Y-68167500D01*
%TO.C,C7*%
X142940000Y-83520580D02*
X142940000Y-83239420D01*
X141920000Y-83520580D02*
X141920000Y-83239420D01*
%TO.C,R6*%
X107187500Y-78972742D02*
X107187500Y-79447258D01*
X108232500Y-78972742D02*
X108232500Y-79447258D01*
%TO.C,R14*%
X116414167Y-89665591D02*
X116414167Y-89191075D01*
X115369167Y-89665591D02*
X115369167Y-89191075D01*
%TO.C,C12*%
X130980580Y-81800000D02*
X130699420Y-81800000D01*
X130980580Y-82820000D02*
X130699420Y-82820000D01*
%TO.C,R28*%
X148115833Y-89017258D02*
X148115833Y-88542742D01*
X147070833Y-89017258D02*
X147070833Y-88542742D01*
%TO.C,R19*%
X150564166Y-89017258D02*
X150564166Y-88542742D01*
X151609166Y-89017258D02*
X151609166Y-88542742D01*
%TO.C,D3*%
X104030000Y-75880000D02*
X104030000Y-79780000D01*
X102030000Y-75880000D02*
X102030000Y-79780000D01*
X104030000Y-75880000D02*
X102030000Y-75880000D01*
%TO.C,R7*%
X96247258Y-69907500D02*
X95772742Y-69907500D01*
X96247258Y-70952500D02*
X95772742Y-70952500D01*
%TO.C,D10*%
X145965000Y-96768332D02*
X145965000Y-98238332D01*
X148250000Y-96768332D02*
X145965000Y-96768332D01*
X145965000Y-98238332D02*
X148250000Y-98238332D01*
%TO.C,R30*%
X128782742Y-94552500D02*
X129257258Y-94552500D01*
X128782742Y-93507500D02*
X129257258Y-93507500D01*
%TO.C,R29*%
X128712742Y-89087500D02*
X129187258Y-89087500D01*
X128712742Y-90132500D02*
X129187258Y-90132500D01*
%TO.C,U1*%
X112761000Y-87518250D02*
X112761000Y-83276450D01*
X103465200Y-87518250D02*
X104180061Y-87518250D01*
X112350339Y-87518250D02*
X112761000Y-87518250D01*
X104180061Y-83276450D02*
X103465200Y-83276450D01*
X103465200Y-83276450D02*
X103465200Y-87518250D01*
X112761000Y-83276450D02*
X112350339Y-83276450D01*
%TO.C,R11*%
X118039722Y-89665591D02*
X118039722Y-89191075D01*
X116994722Y-89665591D02*
X116994722Y-89191075D01*
%TO.C,Q2*%
X154290000Y-50920000D02*
X154290000Y-50270000D01*
X157410000Y-50920000D02*
X157410000Y-51570000D01*
X157410000Y-50920000D02*
X157410000Y-49245000D01*
X154290000Y-50920000D02*
X154290000Y-51570000D01*
%TO.C,D2*%
X115115000Y-92799999D02*
X115115000Y-94269999D01*
X115115000Y-94269999D02*
X117400000Y-94269999D01*
X117400000Y-92799999D02*
X115115000Y-92799999D01*
%TO.C,R5*%
X117962742Y-45312500D02*
X118437258Y-45312500D01*
X117962742Y-44267500D02*
X118437258Y-44267500D01*
%TO.C,R16*%
X159432742Y-53457500D02*
X159907258Y-53457500D01*
X159432742Y-54502500D02*
X159907258Y-54502500D01*
%TO.C,U4*%
D11*
X173375000Y-75145000D02*
X173375000Y-84145000D01*
X172375000Y-85145000D01*
X169375000Y-85145000D01*
X168375000Y-84145000D01*
X168375000Y-75145000D01*
X169375000Y-74145000D01*
X172375000Y-74145000D01*
X173375000Y-75145000D01*
D12*
%TO.C,U5*%
X138492239Y-87568250D02*
X139032100Y-87568250D01*
X139032100Y-83326450D02*
X138492241Y-83326450D01*
X133571961Y-83326450D02*
X132982100Y-83326450D01*
X132982100Y-87568250D02*
X133571959Y-87568250D01*
X139032100Y-87568250D02*
X139032100Y-83326450D01*
X132982100Y-83326450D02*
X132982100Y-87568250D01*
%TO.C,R23*%
X124747258Y-45322500D02*
X124272742Y-45322500D01*
X124747258Y-44277500D02*
X124272742Y-44277500D01*
%TO.C,R2*%
X110687500Y-78972742D02*
X110687500Y-79447258D01*
X111732500Y-78972742D02*
X111732500Y-79447258D01*
%TO.C,R15*%
X155582742Y-54502500D02*
X156057258Y-54502500D01*
X155582742Y-53457500D02*
X156057258Y-53457500D01*
%TO.C,R26*%
X132657500Y-79727258D02*
X132657500Y-79252742D01*
X133702500Y-79727258D02*
X133702500Y-79252742D01*
%TO.C,C3*%
X114560000Y-82930580D02*
X114560000Y-82649420D01*
X113540000Y-82930580D02*
X113540000Y-82649420D01*
%TO.C,U3*%
X99810000Y-85300000D02*
X99810000Y-85950000D01*
X102930000Y-85300000D02*
X102930000Y-85950000D01*
X102930000Y-85300000D02*
X102930000Y-83625000D01*
X99810000Y-85300000D02*
X99810000Y-84650000D01*
%TO.C,D9*%
X130430000Y-76430000D02*
X128430000Y-76430000D01*
X130430000Y-76430000D02*
X130430000Y-80330000D01*
X128430000Y-76430000D02*
X128430000Y-80330000D01*
%TO.C,H5*%
D11*
X91050000Y-73900000D02*
X91050000Y-82900000D01*
X90050000Y-83900000D01*
X87050000Y-83900000D01*
X86050000Y-82900000D01*
X86050000Y-73900000D01*
X87050000Y-72900000D01*
X90050000Y-72900000D01*
X91050000Y-73900000D01*
D12*
%TO.C,C2*%
X115390000Y-82920580D02*
X115390000Y-82639420D01*
X116410000Y-82920580D02*
X116410000Y-82639420D01*
%TO.C,R13*%
X101212742Y-94122500D02*
X101687258Y-94122500D01*
X101212742Y-93077500D02*
X101687258Y-93077500D01*
%TO.C,C5*%
X101530580Y-82990000D02*
X101249420Y-82990000D01*
X101530580Y-81970000D02*
X101249420Y-81970000D01*
%TO.C,R24*%
X135579166Y-79252742D02*
X135579166Y-79727258D01*
X134534166Y-79252742D02*
X134534166Y-79727258D01*
%TO.C,C1*%
X115040580Y-45310000D02*
X114759420Y-45310000D01*
X115040580Y-44290000D02*
X114759420Y-44290000D01*
%TO.C,R27*%
X141737258Y-81342500D02*
X141262742Y-81342500D01*
X141737258Y-80297500D02*
X141262742Y-80297500D01*
%TO.C,R12*%
X101212742Y-88927500D02*
X101687258Y-88927500D01*
X101212742Y-89972500D02*
X101687258Y-89972500D01*
%TO.C,U7*%
X85529900Y-69641000D02*
X87587300Y-69641000D01*
X87587300Y-66288200D02*
X85529900Y-66288200D01*
X85529900Y-67601339D02*
X85529900Y-68327861D01*
%TO.C,C6*%
X127849420Y-44280000D02*
X128130580Y-44280000D01*
X127849420Y-45300000D02*
X128130580Y-45300000D01*
%TO.C,R10*%
X115217258Y-79687500D02*
X114742742Y-79687500D01*
X115217258Y-80732500D02*
X114742742Y-80732500D01*
%TO.C,C9*%
X164730000Y-69340580D02*
X164730000Y-69059420D01*
X163710000Y-69340580D02*
X163710000Y-69059420D01*
%TO.C,U6*%
X158620000Y-65410000D02*
X155170000Y-65410000D01*
X158620000Y-65410000D02*
X160570000Y-65410000D01*
X158620000Y-70530000D02*
X160570000Y-70530000D01*
X158620000Y-70530000D02*
X156670000Y-70530000D01*
%TO.C,D6*%
X114915000Y-98855000D02*
X114915000Y-100325000D01*
X114915000Y-100325000D02*
X117200000Y-100325000D01*
X117200000Y-98855000D02*
X114915000Y-98855000D01*
%TO.C,U8*%
X132510000Y-85530000D02*
X132510000Y-86180000D01*
X132510000Y-85530000D02*
X132510000Y-83855000D01*
X129390000Y-85530000D02*
X129390000Y-84880000D01*
X129390000Y-85530000D02*
X129390000Y-86180000D01*
%TO.C,D5*%
X98115000Y-86945000D02*
X98115000Y-84260000D01*
X96195000Y-86945000D02*
X98115000Y-86945000D01*
X96195000Y-84260000D02*
X96195000Y-86945000D01*
%TO.C,R18*%
X159847258Y-47267500D02*
X159372742Y-47267500D01*
X159847258Y-48312500D02*
X159372742Y-48312500D01*
%TO.C,R8*%
X105437500Y-79447258D02*
X105437500Y-78972742D01*
X106482500Y-79447258D02*
X106482500Y-78972742D01*
%TO.C,Q1*%
X158090000Y-50920000D02*
X158090000Y-50270000D01*
X158090000Y-50920000D02*
X158090000Y-52595000D01*
X161210000Y-50920000D02*
X161210000Y-51570000D01*
X161210000Y-50920000D02*
X161210000Y-50270000D01*
%TO.C,R31*%
X145377500Y-89017258D02*
X145377500Y-88542742D01*
X146422500Y-89017258D02*
X146422500Y-88542742D01*
%TO.C,C8*%
X141230000Y-83520580D02*
X141230000Y-83239420D01*
X140210000Y-83520580D02*
X140210000Y-83239420D01*
%TO.C,D4*%
X115015000Y-98306665D02*
X117300000Y-98306665D01*
X115015000Y-96836665D02*
X115015000Y-98306665D01*
X117300000Y-96836665D02*
X115015000Y-96836665D01*
%TO.C,C4*%
X101590580Y-91735000D02*
X101309420Y-91735000D01*
X101590580Y-90715000D02*
X101309420Y-90715000D01*
%TO.C,C10*%
X129120580Y-91970000D02*
X128839420Y-91970000D01*
X129120580Y-90950000D02*
X128839420Y-90950000D01*
%TO.C,D1*%
X115115000Y-94818332D02*
X115115000Y-96288332D01*
X115115000Y-96288332D02*
X117400000Y-96288332D01*
X117400000Y-94818332D02*
X115115000Y-94818332D01*
%TO.C,R1*%
X118620277Y-89665591D02*
X118620277Y-89191075D01*
X119665277Y-89665591D02*
X119665277Y-89191075D01*
%TO.C,R21*%
X137455832Y-79252742D02*
X137455832Y-79727258D01*
X136410832Y-79252742D02*
X136410832Y-79727258D01*
%TO.C,C11*%
X91360000Y-67059420D02*
X91360000Y-67340580D01*
X90340000Y-67059420D02*
X90340000Y-67340580D01*
%TO.C,D11*%
X125835000Y-84360000D02*
X125835000Y-87045000D01*
X127755000Y-87045000D02*
X127755000Y-84360000D01*
X125835000Y-87045000D02*
X127755000Y-87045000D01*
%TO.C,R22*%
X153302500Y-89017258D02*
X153302500Y-88542742D01*
X152257500Y-89017258D02*
X152257500Y-88542742D01*
%TO.C,U2*%
X121225000Y-70435000D02*
X121625000Y-70435000D01*
X100825000Y-70435000D02*
X101225000Y-70435000D01*
X123725000Y-70435000D02*
X124125000Y-70435000D01*
X149425000Y-58835000D02*
X149425000Y-58435000D01*
X131325000Y-70435000D02*
X131725000Y-70435000D01*
X111025000Y-70435000D02*
X111425000Y-70435000D01*
X105925000Y-70435000D02*
X106325000Y-70435000D01*
X133925000Y-70435000D02*
X134325000Y-70435000D01*
X108525000Y-70435000D02*
X108925000Y-70435000D01*
X139025000Y-49435000D02*
X139425000Y-49435000D01*
X100825000Y-49435000D02*
X101225000Y-49435000D01*
X121225000Y-49435000D02*
X121625000Y-49435000D01*
X118625000Y-49435000D02*
X119025000Y-49435000D01*
X98425000Y-70435000D02*
X98725000Y-70435000D01*
X126225000Y-70435000D02*
X126625000Y-70435000D01*
X146625000Y-70435000D02*
X147025000Y-70435000D01*
X149425000Y-49435000D02*
X149425000Y-56235000D01*
X131325000Y-49435000D02*
X131725000Y-49435000D01*
X128825000Y-49435000D02*
X129225000Y-49435000D01*
X133925000Y-49435000D02*
X134325000Y-49435000D01*
X149425000Y-63635000D02*
X149425000Y-70435000D01*
X116125000Y-70435000D02*
X116525000Y-70435000D01*
X128825000Y-70435000D02*
X129225000Y-70435000D01*
X98425000Y-49435000D02*
X98725000Y-49435000D01*
X116125000Y-49435000D02*
X116525000Y-49435000D01*
X103425000Y-70435000D02*
X103825000Y-70435000D01*
X113525000Y-49435000D02*
X113925000Y-49435000D01*
X139025000Y-70435000D02*
X139425000Y-70435000D01*
X136425000Y-70435000D02*
X136825000Y-70435000D01*
X144025000Y-49435000D02*
X144425000Y-49435000D01*
X126225000Y-49435000D02*
X126625000Y-49435000D01*
X149425000Y-61435000D02*
X149425000Y-61035000D01*
X103425000Y-49435000D02*
X103825000Y-49435000D01*
X146625000Y-49435000D02*
X147025000Y-49435000D01*
X141525000Y-49435000D02*
X141925000Y-49435000D01*
X105925000Y-49435000D02*
X106325000Y-49435000D01*
X141525000Y-70435000D02*
X141925000Y-70435000D01*
X113525000Y-70435000D02*
X113925000Y-70435000D01*
X98425000Y-70435000D02*
X98425000Y-49435000D01*
X101092000Y-67428000D02*
X98425000Y-67428000D01*
X108525000Y-49435000D02*
X108925000Y-49435000D01*
X123725000Y-49435000D02*
X124125000Y-49435000D01*
X101092000Y-70435000D02*
X101092000Y-67428000D01*
X136425000Y-49435000D02*
X136825000Y-49435000D01*
X118625000Y-70435000D02*
X119025000Y-70435000D01*
X144025000Y-70435000D02*
X144425000Y-70435000D01*
X111025000Y-49435000D02*
X111425000Y-49435000D01*
%TD*%
M02*
