%TF.GenerationSoftware,KiCad,Pcbnew,(6.0.7)*%
%TF.CreationDate,2022-09-20T09:41:07-05:00*%
%TF.ProjectId,BTSTest,42545354-6573-4742-9e6b-696361645f70,rev?*%
%TF.SameCoordinates,Original*%
%TF.FileFunction,Soldermask,Top*%
%TF.FilePolarity,Negative*%
%FSLAX46Y46*%
G04 Gerber Fmt 4.6, Leading zero omitted, Abs format (unit mm)*
G04 Created by KiCad (PCBNEW (6.0.7)) date 2022-09-20 09:41:07*
%MOMM*%
%LPD*%
G01*
G04 APERTURE LIST*
G04 Aperture macros list*
%AMRoundRect*
0 Rectangle with rounded corners*
0 $1 Rounding radius*
0 $2 $3 $4 $5 $6 $7 $8 $9 X,Y pos of 4 corners*
0 Add a 4 corners polygon primitive as box body*
4,1,4,$2,$3,$4,$5,$6,$7,$8,$9,$2,$3,0*
0 Add four circle primitives for the rounded corners*
1,1,$1+$1,$2,$3*
1,1,$1+$1,$4,$5*
1,1,$1+$1,$6,$7*
1,1,$1+$1,$8,$9*
0 Add four rect primitives between the rounded corners*
20,1,$1+$1,$2,$3,$4,$5,0*
20,1,$1+$1,$4,$5,$6,$7,0*
20,1,$1+$1,$6,$7,$8,$9,0*
20,1,$1+$1,$8,$9,$2,$3,0*%
%AMOutline5P*
0 Free polygon, 5 corners , with rotation*
0 The origin of the aperture is its center*
0 number of corners: always 5*
0 $1 to $10 corner X, Y*
0 $11 Rotation angle, in degrees counterclockwise*
0 create outline with 5 corners*
4,1,5,$1,$2,$3,$4,$5,$6,$7,$8,$9,$10,$1,$2,$11*%
%AMOutline6P*
0 Free polygon, 6 corners , with rotation*
0 The origin of the aperture is its center*
0 number of corners: always 6*
0 $1 to $12 corner X, Y*
0 $13 Rotation angle, in degrees counterclockwise*
0 create outline with 6 corners*
4,1,6,$1,$2,$3,$4,$5,$6,$7,$8,$9,$10,$11,$12,$1,$2,$13*%
%AMOutline7P*
0 Free polygon, 7 corners , with rotation*
0 The origin of the aperture is its center*
0 number of corners: always 7*
0 $1 to $14 corner X, Y*
0 $15 Rotation angle, in degrees counterclockwise*
0 create outline with 7 corners*
4,1,7,$1,$2,$3,$4,$5,$6,$7,$8,$9,$10,$11,$12,$13,$14,$1,$2,$15*%
%AMOutline8P*
0 Free polygon, 8 corners , with rotation*
0 The origin of the aperture is its center*
0 number of corners: always 8*
0 $1 to $16 corner X, Y*
0 $17 Rotation angle, in degrees counterclockwise*
0 create outline with 8 corners*
4,1,8,$1,$2,$3,$4,$5,$6,$7,$8,$9,$10,$11,$12,$13,$14,$15,$16,$1,$2,$17*%
G04 Aperture macros list end*
%ADD10C,0.200000*%
%ADD11RoundRect,0.200000X-0.275000X0.200000X-0.275000X-0.200000X0.275000X-0.200000X0.275000X0.200000X0*%
%ADD12C,4.700000*%
%ADD13C,8.600000*%
%ADD14RoundRect,0.200000X0.275000X-0.200000X0.275000X0.200000X-0.275000X0.200000X-0.275000X-0.200000X0*%
%ADD15RoundRect,0.218750X-0.218750X-0.256250X0.218750X-0.256250X0.218750X0.256250X-0.218750X0.256250X0*%
%ADD16RoundRect,0.200000X-0.200000X-0.275000X0.200000X-0.275000X0.200000X0.275000X-0.200000X0.275000X0*%
%ADD17RoundRect,0.200000X0.200000X0.275000X-0.200000X0.275000X-0.200000X-0.275000X0.200000X-0.275000X0*%
%ADD18RoundRect,0.225000X0.250000X-0.225000X0.250000X0.225000X-0.250000X0.225000X-0.250000X-0.225000X0*%
%ADD19RoundRect,0.225000X0.225000X0.250000X-0.225000X0.250000X-0.225000X-0.250000X0.225000X-0.250000X0*%
%ADD20R,1.200000X0.900000*%
%ADD21R,0.354800X1.454899*%
%ADD22R,0.750000X0.750000*%
%ADD23R,8.875000X3.475000*%
%ADD24RoundRect,0.150000X-0.150000X0.587500X-0.150000X-0.587500X0.150000X-0.587500X0.150000X0.587500X0*%
%ADD25Outline6P,-2.540000X1.200000X-1.740000X2.000000X2.540000X2.000000X2.540000X-2.000000X-1.740000X-2.000000X-2.540000X-1.200000X90.000000*%
%ADD26Outline6P,-2.540000X2.000000X1.740000X2.000000X2.540000X1.200000X2.540000X-1.200000X1.740000X-2.000000X-2.540000X-2.000000X90.000000*%
%ADD27R,5.500000X3.650000*%
%ADD28R,1.309599X0.508000*%
%ADD29RoundRect,0.225000X-0.225000X-0.250000X0.225000X-0.250000X0.225000X0.250000X-0.225000X0.250000X0*%
%ADD30Outline6P,-2.540000X1.200000X-1.740000X2.000000X2.540000X2.000000X2.540000X-2.000000X-1.740000X-2.000000X-2.540000X-1.200000X0.000000*%
%ADD31Outline6P,-2.540000X2.000000X1.740000X2.000000X2.540000X1.200000X2.540000X-1.200000X1.740000X-2.000000X-2.540000X-2.000000X0.000000*%
%ADD32RoundRect,0.150000X-0.825000X-0.150000X0.825000X-0.150000X0.825000X0.150000X-0.825000X0.150000X0*%
%ADD33RoundRect,0.243750X0.456250X-0.243750X0.456250X0.243750X-0.456250X0.243750X-0.456250X-0.243750X0*%
%ADD34RoundRect,0.150000X0.150000X-0.587500X0.150000X0.587500X-0.150000X0.587500X-0.150000X-0.587500X0*%
%ADD35RoundRect,0.225000X-0.250000X0.225000X-0.250000X-0.225000X0.250000X-0.225000X0.250000X0.225000X0*%
%ADD36O,1.800000X1.800000*%
%ADD37O,1.500000X1.500000*%
%ADD38O,1.700000X1.700000*%
%ADD39R,1.700000X3.500000*%
%ADD40R,1.700000X1.700000*%
%ADD41R,3.500000X1.700000*%
G04 APERTURE END LIST*
D10*
X130856216Y-90502703D02*
X140796216Y-90502703D01*
X140796216Y-90502703D02*
X140796216Y-94902703D01*
X140796216Y-94902703D02*
X130856216Y-94902703D01*
X130856216Y-94902703D02*
X130856216Y-90502703D01*
G36*
X130856216Y-90502703D02*
G01*
X140796216Y-90502703D01*
X140796216Y-94902703D01*
X130856216Y-94902703D01*
X130856216Y-90502703D01*
G37*
G36*
X140796216Y-90502703D02*
G01*
X137400000Y-90600000D01*
X138100000Y-88100000D01*
X140796216Y-90502703D01*
G37*
X140796216Y-90502703D02*
X137400000Y-90600000D01*
X138100000Y-88100000D01*
X140796216Y-90502703D01*
G36*
X113300000Y-90200000D02*
G01*
X103200000Y-90200000D01*
X104500000Y-88100000D01*
X112000000Y-88100000D01*
X113300000Y-90200000D01*
G37*
X113300000Y-90200000D02*
X103200000Y-90200000D01*
X104500000Y-88100000D01*
X112000000Y-88100000D01*
X113300000Y-90200000D01*
G36*
X134496216Y-90502703D02*
G01*
X130856216Y-90502703D01*
X133896216Y-88102703D01*
X134496216Y-90502703D01*
G37*
X134496216Y-90502703D02*
X130856216Y-90502703D01*
X133896216Y-88102703D01*
X134496216Y-90502703D01*
X103200000Y-92800000D02*
X113300000Y-92800000D01*
X113300000Y-92800000D02*
X113300000Y-90200000D01*
X113300000Y-90200000D02*
X103200000Y-90200000D01*
X103200000Y-90200000D02*
X103200000Y-92800000D01*
G36*
X103200000Y-92800000D02*
G01*
X113300000Y-92800000D01*
X113300000Y-90200000D01*
X103200000Y-90200000D01*
X103200000Y-92800000D01*
G37*
X133900000Y-88100000D02*
X138100000Y-88100000D01*
X138100000Y-88100000D02*
X138100000Y-91700000D01*
X138100000Y-91700000D02*
X133900000Y-91700000D01*
X133900000Y-91700000D02*
X133900000Y-88100000D01*
G36*
X133900000Y-88100000D02*
G01*
X138100000Y-88100000D01*
X138100000Y-91700000D01*
X133900000Y-91700000D01*
X133900000Y-88100000D01*
G37*
D11*
%TO.C,R20*%
X138810000Y-78665000D03*
X138810000Y-80315000D03*
%TD*%
D12*
%TO.C,H1*%
X176000000Y-48000000D03*
D13*
X176000000Y-48000000D03*
%TD*%
D14*
%TO.C,R4*%
X120768333Y-90253333D03*
X120768333Y-88603333D03*
%TD*%
D15*
%TO.C,D8*%
X146662500Y-93230000D03*
X148237500Y-93230000D03*
%TD*%
D11*
%TO.C,R3*%
X109460000Y-78385000D03*
X109460000Y-80035000D03*
%TD*%
D16*
%TO.C,R17*%
X154985000Y-47790000D03*
X156635000Y-47790000D03*
%TD*%
D15*
%TO.C,D12*%
X146662500Y-99640000D03*
X148237500Y-99640000D03*
%TD*%
%TO.C,D7*%
X146662500Y-95366666D03*
X148237500Y-95366666D03*
%TD*%
D17*
%TO.C,R9*%
X96835000Y-68690000D03*
X95185000Y-68690000D03*
%TD*%
D18*
%TO.C,C7*%
X142430000Y-84155000D03*
X142430000Y-82605000D03*
%TD*%
D11*
%TO.C,R6*%
X107710000Y-78385000D03*
X107710000Y-80035000D03*
%TD*%
D14*
%TO.C,R14*%
X115891667Y-90253333D03*
X115891667Y-88603333D03*
%TD*%
D19*
%TO.C,C12*%
X131615000Y-82310000D03*
X130065000Y-82310000D03*
%TD*%
D14*
%TO.C,R28*%
X147593333Y-89605000D03*
X147593333Y-87955000D03*
%TD*%
D12*
%TO.C,H3*%
X175850000Y-96000000D03*
D13*
X175850000Y-96000000D03*
%TD*%
D14*
%TO.C,R19*%
X151086666Y-89605000D03*
X151086666Y-87955000D03*
%TD*%
D20*
%TO.C,D3*%
X103030000Y-76480000D03*
X103030000Y-79780000D03*
%TD*%
D17*
%TO.C,R7*%
X96835000Y-70430000D03*
X95185000Y-70430000D03*
%TD*%
D15*
%TO.C,D10*%
X146662500Y-97503332D03*
X148237500Y-97503332D03*
%TD*%
D16*
%TO.C,R30*%
X128195000Y-94030000D03*
X129845000Y-94030000D03*
%TD*%
%TO.C,R29*%
X128125000Y-89610000D03*
X129775000Y-89610000D03*
%TD*%
D13*
%TO.C,H4*%
X87850000Y-95850000D03*
D12*
X87850000Y-95850000D03*
%TD*%
D21*
%TO.C,U1*%
X111840199Y-82676002D03*
X111190200Y-82676002D03*
X110540202Y-82676002D03*
X109890201Y-82676002D03*
X109240202Y-82676002D03*
X108590201Y-82676002D03*
X107940202Y-82676002D03*
X107290201Y-82676002D03*
X106640202Y-82676002D03*
X105990201Y-82676002D03*
X105340202Y-82676002D03*
X104690201Y-82676002D03*
X104690201Y-88118698D03*
X105340200Y-88118698D03*
X105990201Y-88118698D03*
X106640199Y-88118698D03*
X107290201Y-88118698D03*
X107940199Y-88118698D03*
X108590198Y-88118698D03*
X109240199Y-88118698D03*
X109890198Y-88118698D03*
X110540199Y-88118698D03*
X111190198Y-88118698D03*
X111840199Y-88118698D03*
D22*
X105865200Y-84047350D03*
X109465200Y-84047350D03*
X108565200Y-86747350D03*
X111265200Y-86747350D03*
X106765200Y-84947350D03*
D23*
X108127700Y-85402350D03*
D22*
X105865200Y-85847350D03*
X107665200Y-85847350D03*
X112165200Y-86747350D03*
X112165200Y-85847350D03*
X104065200Y-85847350D03*
X111265200Y-84047350D03*
X111265200Y-85847350D03*
X104965200Y-84947350D03*
X109465200Y-84947350D03*
X105865200Y-84947350D03*
X109465200Y-85847350D03*
X105865200Y-86747350D03*
X104065200Y-84947350D03*
X112165200Y-84947350D03*
X108565200Y-85847350D03*
X111265200Y-84947350D03*
X110365200Y-86747350D03*
X104065200Y-84047350D03*
X107665200Y-84947350D03*
X112165200Y-84047350D03*
X106765200Y-84047350D03*
X104965200Y-86747350D03*
X104965200Y-84047350D03*
X106765200Y-86747350D03*
X108565200Y-84047350D03*
X110365200Y-84947350D03*
X110365200Y-85847350D03*
X106765200Y-85847350D03*
X107665200Y-84047350D03*
X107665200Y-86747350D03*
X104065200Y-86747350D03*
X110365200Y-84047350D03*
X109465200Y-86747350D03*
X104965200Y-85847350D03*
X108565200Y-84947350D03*
%TD*%
D14*
%TO.C,R11*%
X117517222Y-90253333D03*
X117517222Y-88603333D03*
%TD*%
D24*
%TO.C,Q2*%
X156800000Y-49982500D03*
X154900000Y-49982500D03*
X155850000Y-51857500D03*
%TD*%
D15*
%TO.C,D2*%
X115812500Y-93534999D03*
X117387500Y-93534999D03*
%TD*%
D16*
%TO.C,R5*%
X117375000Y-44790000D03*
X119025000Y-44790000D03*
%TD*%
%TO.C,R16*%
X158845000Y-53980000D03*
X160495000Y-53980000D03*
%TD*%
D25*
%TO.C,U4*%
X170825000Y-82195000D03*
D26*
X170825000Y-77120000D03*
%TD*%
D21*
%TO.C,U5*%
X137982101Y-82726002D03*
X137332100Y-82726002D03*
X136682099Y-82726002D03*
X136032100Y-82726002D03*
X135382101Y-82726002D03*
X134732100Y-82726002D03*
X134082101Y-82726002D03*
X134082099Y-88168698D03*
X134732100Y-88168698D03*
X135382099Y-88168698D03*
X136032100Y-88168698D03*
X136682099Y-88168698D03*
X137332100Y-88168698D03*
X137982099Y-88168698D03*
D27*
X136032100Y-85472350D03*
D22*
X136532100Y-84097350D03*
X137432100Y-85897350D03*
X138332100Y-84997350D03*
X137432100Y-84997350D03*
X138332100Y-86797350D03*
X133832100Y-84997350D03*
X138332100Y-84097350D03*
X137432100Y-84097350D03*
X135632100Y-84997350D03*
X136532100Y-84997350D03*
X133832100Y-86797350D03*
X134732100Y-84097350D03*
X134732100Y-84997350D03*
X136532100Y-86797350D03*
X134732100Y-86797350D03*
X135632100Y-85897350D03*
X135632100Y-86797350D03*
X133832100Y-85897350D03*
X133832100Y-84097350D03*
X138332100Y-85897350D03*
X135632100Y-84097350D03*
X134732100Y-85897350D03*
X137432100Y-86797350D03*
X136532100Y-85897350D03*
%TD*%
D17*
%TO.C,R23*%
X125335000Y-44800000D03*
X123685000Y-44800000D03*
%TD*%
D11*
%TO.C,R2*%
X111210000Y-78385000D03*
X111210000Y-80035000D03*
%TD*%
D16*
%TO.C,R15*%
X154995000Y-53980000D03*
X156645000Y-53980000D03*
%TD*%
D14*
%TO.C,R26*%
X133180000Y-80315000D03*
X133180000Y-78665000D03*
%TD*%
D18*
%TO.C,C3*%
X114050000Y-83565000D03*
X114050000Y-82015000D03*
%TD*%
D24*
%TO.C,U3*%
X102320000Y-84362500D03*
X100420000Y-84362500D03*
X101370000Y-86237500D03*
%TD*%
D20*
%TO.C,D9*%
X129430000Y-77030000D03*
X129430000Y-80330000D03*
%TD*%
D12*
%TO.C,H2*%
X88000000Y-47850000D03*
D13*
X88000000Y-47850000D03*
%TD*%
D26*
%TO.C,H5*%
X88500000Y-75875000D03*
D25*
X88500000Y-80950000D03*
%TD*%
D18*
%TO.C,C2*%
X115900000Y-83555000D03*
X115900000Y-82005000D03*
%TD*%
D16*
%TO.C,R13*%
X100625000Y-93600000D03*
X102275000Y-93600000D03*
%TD*%
D19*
%TO.C,C5*%
X102165000Y-82480000D03*
X100615000Y-82480000D03*
%TD*%
D11*
%TO.C,R24*%
X135056666Y-78665000D03*
X135056666Y-80315000D03*
%TD*%
D19*
%TO.C,C1*%
X115675000Y-44800000D03*
X114125000Y-44800000D03*
%TD*%
D17*
%TO.C,R27*%
X142325000Y-80820000D03*
X140675000Y-80820000D03*
%TD*%
D16*
%TO.C,R12*%
X100625000Y-89450000D03*
X102275000Y-89450000D03*
%TD*%
D28*
%TO.C,U7*%
X87854000Y-68914601D03*
X87854000Y-67964600D03*
X87854000Y-67014599D03*
X85263200Y-67014599D03*
X85263200Y-68914601D03*
%TD*%
D29*
%TO.C,C6*%
X127215000Y-44790000D03*
X128765000Y-44790000D03*
%TD*%
D17*
%TO.C,R10*%
X115805000Y-80210000D03*
X114155000Y-80210000D03*
%TD*%
D18*
%TO.C,C9*%
X164220000Y-69975000D03*
X164220000Y-68425000D03*
%TD*%
D30*
%TO.C,J2*%
X133295000Y-93805000D03*
D31*
X138370000Y-93805000D03*
%TD*%
D32*
%TO.C,U6*%
X156145000Y-66065000D03*
X156145000Y-67335000D03*
X156145000Y-68605000D03*
X156145000Y-69875000D03*
X161095000Y-69875000D03*
X161095000Y-68605000D03*
X161095000Y-67335000D03*
X161095000Y-66065000D03*
%TD*%
D15*
%TO.C,D6*%
X115612500Y-99590000D03*
X117187500Y-99590000D03*
%TD*%
D24*
%TO.C,U8*%
X131900000Y-84592500D03*
X130000000Y-84592500D03*
X130950000Y-86467500D03*
%TD*%
D33*
%TO.C,D5*%
X97155000Y-86197500D03*
X97155000Y-84322500D03*
%TD*%
D17*
%TO.C,R18*%
X160435000Y-47790000D03*
X158785000Y-47790000D03*
%TD*%
D14*
%TO.C,R8*%
X105960000Y-80035000D03*
X105960000Y-78385000D03*
%TD*%
D34*
%TO.C,Q1*%
X158700000Y-51857500D03*
X160600000Y-51857500D03*
X159650000Y-49982500D03*
%TD*%
D30*
%TO.C,J1*%
X105745000Y-93825000D03*
D31*
X110820000Y-93825000D03*
%TD*%
D14*
%TO.C,R31*%
X145900000Y-89605000D03*
X145900000Y-87955000D03*
%TD*%
D18*
%TO.C,C8*%
X140720000Y-84155000D03*
X140720000Y-82605000D03*
%TD*%
D15*
%TO.C,D4*%
X115712500Y-97571665D03*
X117287500Y-97571665D03*
%TD*%
D19*
%TO.C,C4*%
X102225000Y-91225000D03*
X100675000Y-91225000D03*
%TD*%
%TO.C,C10*%
X129755000Y-91460000D03*
X128205000Y-91460000D03*
%TD*%
D15*
%TO.C,D1*%
X115812500Y-95553332D03*
X117387500Y-95553332D03*
%TD*%
D14*
%TO.C,R1*%
X119142777Y-90253333D03*
X119142777Y-88603333D03*
%TD*%
D11*
%TO.C,R21*%
X136933332Y-78665000D03*
X136933332Y-80315000D03*
%TD*%
D35*
%TO.C,C11*%
X90850000Y-66425000D03*
X90850000Y-67975000D03*
%TD*%
D33*
%TO.C,D11*%
X126795000Y-86297500D03*
X126795000Y-84422500D03*
%TD*%
D14*
%TO.C,R22*%
X152780000Y-89605000D03*
X152780000Y-87955000D03*
%TD*%
D36*
%TO.C,U2*%
X99925000Y-62660000D03*
D37*
X102955000Y-62360000D03*
D36*
X99925000Y-57210000D03*
D37*
X102955000Y-57510000D03*
D38*
X99795000Y-68825000D03*
D39*
X99795000Y-69725000D03*
D38*
X102335000Y-68825000D03*
D39*
X102335000Y-69725000D03*
D40*
X104875000Y-68825000D03*
D39*
X104875000Y-69725000D03*
D38*
X107415000Y-68825000D03*
D39*
X107415000Y-69725000D03*
X109955000Y-69725000D03*
D38*
X109955000Y-68825000D03*
D39*
X112495000Y-69725000D03*
D38*
X112495000Y-68825000D03*
D39*
X115035000Y-69725000D03*
D38*
X115035000Y-68825000D03*
D39*
X117575000Y-69725000D03*
D40*
X117575000Y-68825000D03*
D39*
X120115000Y-69725000D03*
D38*
X120115000Y-68825000D03*
X122655000Y-68825000D03*
D39*
X122655000Y-69725000D03*
D38*
X125195000Y-68825000D03*
D39*
X125195000Y-69725000D03*
D38*
X127735000Y-68825000D03*
D39*
X127735000Y-69725000D03*
D40*
X130275000Y-68825000D03*
D39*
X130275000Y-69725000D03*
D38*
X132815000Y-68825000D03*
D39*
X132815000Y-69725000D03*
X135355000Y-69725000D03*
D38*
X135355000Y-68825000D03*
X137895000Y-68825000D03*
D39*
X137895000Y-69725000D03*
D38*
X140435000Y-68825000D03*
D39*
X140435000Y-69725000D03*
X142975000Y-69725000D03*
D40*
X142975000Y-68825000D03*
D38*
X145515000Y-68825000D03*
D39*
X145515000Y-69725000D03*
D38*
X148055000Y-68825000D03*
D39*
X148055000Y-69725000D03*
X148055000Y-50145000D03*
D38*
X148055000Y-51045000D03*
X145515000Y-51045000D03*
D39*
X145515000Y-50145000D03*
D40*
X142975000Y-51045000D03*
D39*
X142975000Y-50145000D03*
D38*
X140435000Y-51045000D03*
D39*
X140435000Y-50145000D03*
D38*
X137895000Y-51045000D03*
D39*
X137895000Y-50145000D03*
X135355000Y-50145000D03*
D38*
X135355000Y-51045000D03*
D39*
X132815000Y-50145000D03*
D38*
X132815000Y-51045000D03*
D40*
X130275000Y-51045000D03*
D39*
X130275000Y-50145000D03*
X127735000Y-50145000D03*
D38*
X127735000Y-51045000D03*
D39*
X125195000Y-50145000D03*
D38*
X125195000Y-51045000D03*
X122655000Y-51045000D03*
D39*
X122655000Y-50145000D03*
X120115000Y-50145000D03*
D38*
X120115000Y-51045000D03*
D40*
X117575000Y-51045000D03*
D39*
X117575000Y-50145000D03*
X115035000Y-50145000D03*
D38*
X115035000Y-51045000D03*
X112495000Y-51045000D03*
D39*
X112495000Y-50145000D03*
D38*
X109955000Y-51045000D03*
D39*
X109955000Y-50145000D03*
X107415000Y-50145000D03*
D38*
X107415000Y-51045000D03*
D39*
X104875000Y-50145000D03*
D40*
X104875000Y-51045000D03*
D38*
X102335000Y-51045000D03*
D39*
X102335000Y-50145000D03*
D38*
X99795000Y-51045000D03*
D39*
X99795000Y-50145000D03*
D41*
X148725000Y-62475000D03*
D38*
X147825000Y-62475000D03*
D41*
X148725000Y-59935000D03*
D40*
X147825000Y-59935000D03*
D38*
X147825000Y-57395000D03*
D41*
X148725000Y-57395000D03*
%TD*%
M02*
